<svg xmlns="http://www.w3.org/2000/svg" xmlns:xlink="http://www.w3.org/1999/xlink" width="1320" height="506" viewBox="0 0 1320 506">
  <defs>
    <linearGradient id="linear-gradient" x1="0.5" y1="1.295" x2="0.5" y2="0.469" gradientUnits="objectBoundingBox">
      <stop offset="0" stop-color="#ba68c8"/>
      <stop offset="0.19" stop-color="#9139af"/>
      <stop offset="0.31" stop-color="#7b1fa2"/>
      <stop offset="1" stop-color="#45147b"/>
    </linearGradient>
    <linearGradient id="linear-gradient-2" x1="0.096" y1="0.912" x2="0.907" y2="0.147" gradientUnits="objectBoundingBox">
      <stop offset="0" stop-color="#301493" stop-opacity="0.278"/>
      <stop offset="1" stop-opacity="0"/>
    </linearGradient>
    <linearGradient id="linear-gradient-3" x1="-0.039" y1="1.038" x2="0.349" y2="0.651" gradientUnits="objectBoundingBox">
      <stop offset="0" stop-color="#301493"/>
      <stop offset="1" stop-opacity="0"/>
    </linearGradient>
    <linearGradient id="linear-gradient-4" x1="1.039" y1="-0.038" x2="0.651" y2="0.349" xlink:href="#linear-gradient-3"/>
    <linearGradient id="linear-gradient-5" x1="0.056" y1="0.944" x2="0.83" y2="0.17" gradientUnits="objectBoundingBox">
      <stop offset="0" stop-opacity="0"/>
      <stop offset="0.194" stop-color="#05020f" stop-opacity="0.106"/>
      <stop offset="0.551" stop-color="#120738" stop-opacity="0.384"/>
      <stop offset="1" stop-color="#271077" stop-opacity="0.808"/>
    </linearGradient>
    <linearGradient id="linear-gradient-6" x1="-0.057" y1="1.056" x2="0.436" y2="0.564" xlink:href="#linear-gradient-3"/>
    <linearGradient id="linear-gradient-7" x1="-0.057" y1="1.056" x2="0.436" y2="0.564" xlink:href="#linear-gradient-3"/>
    <linearGradient id="linear-gradient-8" x1="-0.057" y1="1.056" x2="0.829" y2="0.108" xlink:href="#linear-gradient-3"/>
    <linearGradient id="linear-gradient-9" x1="0.936" y1="0.065" x2="0.091" y2="0.909" gradientUnits="objectBoundingBox">
      <stop offset="0" stop-opacity="0"/>
      <stop offset="1" stop-color="#230f6b" stop-opacity="0.729"/>
    </linearGradient>
    <linearGradient id="linear-gradient-10" x1="-0.008" y1="1.008" x2="0.704" y2="0.297" xlink:href="#linear-gradient-3"/>
    <linearGradient id="linear-gradient-11" x1="-0.074" y1="1.074" x2="0.205" y2="0.795" xlink:href="#linear-gradient-3"/>
  </defs>
  <g id="fondo-banner-principal" transform="translate(-140 -69.413)">
    <g id="Group_130082" data-name="Group 130082">
      <path id="Path_130200" data-name="Path 130200" d="M25,0H1295a25,25,0,0,1,25,25V481a25,25,0,0,1-25,25H25A25,25,0,0,1,0,481V25A25,25,0,0,1,25,0Z" transform="translate(140 69.413)" fill="url(#linear-gradient)"/>
      <g id="Group_53380" data-name="Group 53380" transform="translate(216.847 244.189)">
        <path id="Path_99508" data-name="Path 99508" d="M5.234,518.728,312.555,211.052a33.289,33.289,0,0,0,8.6-32.131L294.224,78.3A33.245,33.245,0,0,0,270.73,54.777L170.222,27.814a33.2,33.2,0,0,0-32.094,8.61L-169.194,344.1a33.292,33.292,0,0,0-8.6,32.131l26.931,100.624a33.244,33.244,0,0,0,23.495,23.521L-26.86,527.337A33.2,33.2,0,0,0,5.234,518.728Z" transform="translate(110.991 -198.284)" fill="url(#linear-gradient-2)" style="mix-blend-mode: screen;isolation: isolate"/>
        <path id="Path_99509" data-name="Path 99509" d="M2.917,600.331,369.48,233.345a9.818,9.818,0,0,0,2.536-9.474l-7.941-29.67a9.8,9.8,0,0,0-6.928-6.936l-29.636-7.95a9.79,9.79,0,0,0-9.464,2.539L-48.515,548.839a9.816,9.816,0,0,0-2.536,9.474l7.941,29.67a9.8,9.8,0,0,0,6.928,6.936l29.636,7.95A9.79,9.79,0,0,0,2.917,600.331Z" transform="translate(389.914 -350.584)" fill="url(#linear-gradient-3)" style="mix-blend-mode: screen;isolation: isolate"/>
        <path id="Path_99510" data-name="Path 99510" d="M33.314-154.538l-310.5,310.856a8.315,8.315,0,0,0-2.148,8.026l6.727,25.132a8.3,8.3,0,0,0,5.868,5.874l25.1,6.734a8.294,8.294,0,0,0,8.016-2.15l310.5-310.856a8.316,8.316,0,0,0,2.148-8.026L72.3-144.079a8.3,8.3,0,0,0-5.868-5.875l-25.1-6.734A8.291,8.291,0,0,0,33.314-154.538Z" transform="translate(211.681)" fill="url(#linear-gradient-4)" style="mix-blend-mode: screen;isolation: isolate"/>
        <path id="Path_99512" data-name="Path 99512" d="M1089.466-165.614,859.388,64.729a20.418,20.418,0,0,0-5.278,19.708l21.1,78.842a20.418,20.418,0,0,0,14.434,14.442l78.706,21.114a20.417,20.417,0,0,0,19.737-5.292L1218.167-36.8a20.417,20.417,0,0,0,5.277-19.708l-21.1-78.842a20.419,20.419,0,0,0-14.434-14.442L1109.2-170.906A20.422,20.422,0,0,0,1089.466-165.614Z" transform="translate(0 19.036)" fill="url(#linear-gradient-5)" style="mix-blend-mode: screen;isolation: isolate"/>
        <path id="Path_99513" data-name="Path 99513" d="M777.128-25.625l-224.2,224.455a19.9,19.9,0,0,0-5.143,19.205l20.562,76.827a19.9,19.9,0,0,0,14.066,14.072l76.694,20.574a19.9,19.9,0,0,0,19.232-5.156L902.538,99.9a19.9,19.9,0,0,0,5.143-19.205L887.119,3.866a19.9,19.9,0,0,0-14.065-14.073L796.36-30.782A19.9,19.9,0,0,0,777.128-25.625Z" transform="translate(-29 -6)" fill="url(#linear-gradient-6)" style="mix-blend-mode: screen;isolation: isolate"/>
        <path id="Path_99514" data-name="Path 99514" d="M598.57-128.464,450.227,20.049a16.069,16.069,0,0,0-4.151,15.51l13,48.57a16.048,16.048,0,0,0,11.341,11.354L518.931,108.5a16.024,16.024,0,0,0,15.491-4.155L682.765-44.172a16.069,16.069,0,0,0,4.151-15.51l-13-48.57a16.048,16.048,0,0,0-11.341-11.354L614.061-132.62A16.022,16.022,0,0,0,598.57-128.464Z" transform="translate(54.518 -19.399)" fill="url(#linear-gradient-7)" style="mix-blend-mode: screen;isolation: isolate"/>
        <path id="Path_99516" data-name="Path 99516" d="M464.87-272.82,269.67-77.395a17.324,17.324,0,0,0-4.478,16.721l17.9,66.89a17.323,17.323,0,0,0,12.246,12.252l66.775,17.913a17.322,17.322,0,0,0,16.745-4.489l195.2-195.424a17.324,17.324,0,0,0,4.477-16.721l-17.9-66.89A17.322,17.322,0,0,0,548.39-259.4l-66.775-17.913A17.323,17.323,0,0,0,464.87-272.82Z" transform="translate(-44.386 106.297)" fill="url(#linear-gradient-8)" style="mix-blend-mode: screen;isolation: isolate"/>
        <path id="Path_99517" data-name="Path 99517" d="M-8.821,207.252-162.853,361.461a16.689,16.689,0,0,0-4.311,16.105l13.5,50.433a16.662,16.662,0,0,0,11.775,11.789L-91.515,453.3a16.639,16.639,0,0,0,16.086-4.315L78.6,294.777a16.686,16.686,0,0,0,4.311-16.1l-13.5-50.433A16.664,16.664,0,0,0,57.64,216.45L7.265,202.937A16.639,16.639,0,0,0-8.821,207.252Z" transform="translate(99.796 -373.972)" fill="url(#linear-gradient-9)" style="mix-blend-mode: screen;isolation: isolate"/>
        <path id="Path_99522" data-name="Path 99522" d="M758.25-245.627,621.835-109.055a3.027,3.027,0,0,0-.782,2.921L624.18-94.45a3.025,3.025,0,0,0,2.139,2.14l11.664,3.129a3.027,3.027,0,0,0,2.925-.784L777.323-226.537a3.025,3.025,0,0,0,.782-2.921l-3.127-11.685a3.026,3.026,0,0,0-2.139-2.14l-11.664-3.129A3.026,3.026,0,0,0,758.25-245.627Z" transform="translate(-3.074 74.911)" opacity="0.47" fill="url(#linear-gradient-10)" style="mix-blend-mode: screen;isolation: isolate"/>
        <path id="Path_99524" data-name="Path 99524" d="M977.809-59.2,642.053,276.944a7.448,7.448,0,0,0-1.925,7.189l7.7,28.758a7.448,7.448,0,0,0,5.265,5.268l28.709,7.7a7.447,7.447,0,0,0,7.2-1.93L1024.753-12.212a7.447,7.447,0,0,0,1.925-7.189l-7.7-28.759a7.447,7.447,0,0,0-5.265-5.267l-28.708-7.7A7.448,7.448,0,0,0,977.809-59.2Z" transform="translate(-456.598 -12.496)" fill="url(#linear-gradient-11)" style="mix-blend-mode: screen;isolation: isolate"/>
      </g>
      <g id="Group_58573" data-name="Group 58573" transform="translate(72 69.753)" opacity="0.6">
        <g id="Group_53374" data-name="Group 53374" transform="translate(585.298 23.003)">
          <path id="Line_137" data-name="Line 137" d="M.5,5.433h-1V0h1Z" transform="translate(80.954 12.832)" fill="#fff"/>
          <path id="Line_138" data-name="Line 138" d="M5.433.5H0v-1H5.433Z" transform="translate(78.232 15.543)" fill="#fff"/>
          <path id="Line_139" data-name="Line 139" d="M.5,5.433h-1V0h1Z" transform="translate(96.824 12.832)" fill="#fff"/>
          <path id="Line_140" data-name="Line 140" d="M5.422.5H0v-1H5.422Z" transform="translate(94.114 15.543)" fill="#fff"/>
          <path id="Line_141" data-name="Line 141" d="M.5,5.433h-1V0h1Z" transform="translate(112.706 12.832)" fill="#fff"/>
          <path id="Line_142" data-name="Line 142" d="M5.422.5H0v-1H5.422Z" transform="translate(109.995 15.543)" fill="#fff"/>
          <path id="Line_143" data-name="Line 143" d="M.5,5.433h-1V0h1Z" transform="translate(128.576 12.832)" fill="#fff"/>
          <path id="Line_144" data-name="Line 144" d="M5.422.5H0v-1H5.422Z" transform="translate(125.865 15.543)" fill="#fff"/>
          <path id="Line_145" data-name="Line 145" d="M.5,5.433h-1V0h1Z" transform="translate(144.457 12.832)" fill="#fff"/>
          <path id="Line_146" data-name="Line 146" d="M5.422.5H0v-1H5.422Z" transform="translate(141.746 15.543)" fill="#fff"/>
          <path id="Line_147" data-name="Line 147" d="M.5,5.433h-1V0h1Z" transform="translate(160.339 12.832)" fill="#fff"/>
          <path id="Line_148" data-name="Line 148" d="M5.433.5H0v-1H5.433Z" transform="translate(157.617 15.543)" fill="#fff"/>
          <path id="Line_149" data-name="Line 149" d="M.5,5.433h-1V0h1Z" transform="translate(80.954 28.725)" fill="#fff"/>
          <path id="Line_150" data-name="Line 150" d="M5.433.5H0v-1H5.433Z" transform="translate(78.232 31.447)" fill="#fff"/>
          <path id="Line_151" data-name="Line 151" d="M.5,5.433h-1V0h1Z" transform="translate(96.824 28.725)" fill="#fff"/>
          <path id="Line_152" data-name="Line 152" d="M5.422.5H0v-1H5.422Z" transform="translate(94.114 31.447)" fill="#fff"/>
          <path id="Line_153" data-name="Line 153" d="M.5,5.433h-1V0h1Z" transform="translate(112.706 28.725)" fill="#fff"/>
          <path id="Line_154" data-name="Line 154" d="M5.422.5H0v-1H5.422Z" transform="translate(109.995 31.447)" fill="#fff"/>
          <path id="Line_155" data-name="Line 155" d="M.5,5.433h-1V0h1Z" transform="translate(128.576 28.725)" fill="#fff"/>
          <path id="Line_156" data-name="Line 156" d="M5.422.5H0v-1H5.422Z" transform="translate(125.865 31.447)" fill="#fff"/>
          <path id="Line_157" data-name="Line 157" d="M.5,5.433h-1V0h1Z" transform="translate(144.457 28.725)" fill="#fff"/>
          <path id="Line_158" data-name="Line 158" d="M5.422.5H0v-1H5.422Z" transform="translate(141.746 31.447)" fill="#fff"/>
          <path id="Line_159" data-name="Line 159" d="M.5,5.433h-1V0h1Z" transform="translate(160.339 28.725)" fill="#fff"/>
          <path id="Line_160" data-name="Line 160" d="M5.433.5H0v-1H5.433Z" transform="translate(157.617 31.447)" fill="#fff"/>
          <path id="Line_161" data-name="Line 161" d="M.5,5.433h-1V0h1Z" transform="translate(80.954 44.617)" fill="#fff"/>
          <path id="Line_162" data-name="Line 162" d="M5.433.5H0v-1H5.433Z" transform="translate(78.232 47.34)" fill="#fff"/>
          <path id="Line_163" data-name="Line 163" d="M.5,5.433h-1V0h1Z" transform="translate(96.824 44.617)" fill="#fff"/>
          <path id="Line_164" data-name="Line 164" d="M5.422.5H0v-1H5.422Z" transform="translate(94.114 47.34)" fill="#fff"/>
          <path id="Line_165" data-name="Line 165" d="M.5,5.433h-1V0h1Z" transform="translate(112.706 44.617)" fill="#fff"/>
          <path id="Line_166" data-name="Line 166" d="M5.422.5H0v-1H5.422Z" transform="translate(109.995 47.34)" fill="#fff"/>
          <path id="Line_167" data-name="Line 167" d="M.5,5.433h-1V0h1Z" transform="translate(128.576 44.617)" fill="#fff"/>
          <path id="Line_168" data-name="Line 168" d="M5.422.5H0v-1H5.422Z" transform="translate(125.865 47.34)" fill="#fff"/>
          <path id="Line_169" data-name="Line 169" d="M.5,5.433h-1V0h1Z" transform="translate(144.457 44.617)" fill="#fff"/>
          <path id="Line_170" data-name="Line 170" d="M5.422.5H0v-1H5.422Z" transform="translate(141.746 47.34)" fill="#fff"/>
          <path id="Line_171" data-name="Line 171" d="M.5,5.433h-1V0h1Z" transform="translate(160.339 44.617)" fill="#fff"/>
          <path id="Line_172" data-name="Line 172" d="M5.433.5H0v-1H5.433Z" transform="translate(157.617 47.34)" fill="#fff"/>
          <path id="Line_173" data-name="Line 173" d="M.5,5.422h-1V0h1Z" transform="translate(80.954 60.521)" fill="#fff"/>
          <path id="Line_174" data-name="Line 174" d="M5.433.5H0v-1H5.433Z" transform="translate(78.232 63.232)" fill="#fff"/>
          <path id="Line_175" data-name="Line 175" d="M.5,5.422h-1V0h1Z" transform="translate(96.824 60.521)" fill="#fff"/>
          <path id="Line_176" data-name="Line 176" d="M5.422.5H0v-1H5.422Z" transform="translate(94.114 63.232)" fill="#fff"/>
          <path id="Line_177" data-name="Line 177" d="M.5,5.422h-1V0h1Z" transform="translate(112.706 60.521)" fill="#fff"/>
          <path id="Line_178" data-name="Line 178" d="M5.422.5H0v-1H5.422Z" transform="translate(109.995 63.232)" fill="#fff"/>
          <path id="Line_179" data-name="Line 179" d="M.5,5.422h-1V0h1Z" transform="translate(128.576 60.521)" fill="#fff"/>
          <path id="Line_180" data-name="Line 180" d="M5.422.5H0v-1H5.422Z" transform="translate(125.865 63.232)" fill="#fff"/>
          <path id="Line_181" data-name="Line 181" d="M.5,5.422h-1V0h1Z" transform="translate(144.457 60.521)" fill="#fff"/>
          <path id="Line_182" data-name="Line 182" d="M5.422.5H0v-1H5.422Z" transform="translate(141.746 63.232)" fill="#fff"/>
          <path id="Line_183" data-name="Line 183" d="M.5,5.422h-1V0h1Z" transform="translate(160.339 60.521)" fill="#fff"/>
          <path id="Line_184" data-name="Line 184" d="M5.433.5H0v-1H5.433Z" transform="translate(157.617 63.232)" fill="#fff"/>
          <path id="Line_185" data-name="Line 185" d="M.5,5.433h-1V0h1Z" transform="translate(706.214 110.402)" fill="#fff"/>
          <path id="Line_186" data-name="Line 186" d="M5.422.5H0v-1H5.422Z" transform="translate(703.503 113.124)" fill="#fff"/>
          <path id="Line_187" data-name="Line 187" d="M.5,5.433h-1V0h1Z" transform="translate(722.084 110.402)" fill="#fff"/>
          <path id="Line_188" data-name="Line 188" d="M5.422.5H0v-1H5.422Z" transform="translate(719.373 113.124)" fill="#fff"/>
          <path id="Line_189" data-name="Line 189" d="M.5,5.433h-1V0h1Z" transform="translate(706.214 126.295)" fill="#fff"/>
          <path id="Line_190" data-name="Line 190" d="M5.422.5H0v-1H5.422Z" transform="translate(703.503 129.017)" fill="#fff"/>
          <path id="Line_191" data-name="Line 191" d="M.5,5.433h-1V0h1Z" transform="translate(722.084 126.295)" fill="#fff"/>
          <path id="Line_192" data-name="Line 192" d="M5.422.5H0v-1H5.422Z" transform="translate(719.373 129.017)" fill="#fff"/>
          <path id="Line_193" data-name="Line 193" d="M.5,5.422h-1V0h1Z" transform="translate(2.711 430.402)" fill="#fff"/>
          <path id="Line_194" data-name="Line 194" d="M5.422.5H0v-1H5.422Z" transform="translate(0 433.113)" fill="#fff"/>
          <path id="Line_195" data-name="Line 195" d="M.5,5.422h-1V0h1Z" transform="translate(18.592 430.402)" fill="#fff"/>
          <path id="Line_196" data-name="Line 196" d="M5.422.5H0v-1H5.422Z" transform="translate(15.881 433.113)" fill="#fff"/>
          <path id="Line_197" data-name="Line 197" d="M.5,5.433h-1V0h1Z" transform="translate(2.711 446.295)" fill="#fff"/>
          <path id="Line_198" data-name="Line 198" d="M5.422.5H0v-1H5.422Z" transform="translate(0 449.006)" fill="#fff"/>
          <path id="Line_199" data-name="Line 199" d="M.5,5.433h-1V0h1Z" transform="translate(18.592 446.295)" fill="#fff"/>
          <path id="Line_200" data-name="Line 200" d="M5.422.5H0v-1H5.422Z" transform="translate(15.881 449.006)" fill="#fff"/>
          <path id="Path_99468" data-name="Path 99468" d="M784.617,416.459a2.158,2.158,0,1,1-.628-1.533,2.169,2.169,0,0,1,.628,1.533Z" transform="translate(-619.41 6.003)" fill="#fff"/>
          <path id="Path_99469" data-name="Path 99469" d="M798.677,416.459a2.158,2.158,0,1,1-.632-1.537,2.169,2.169,0,0,1,.632,1.537Z" transform="translate(-617.589 6.003)" fill="#fff"/>
          <path id="Path_99470" data-name="Path 99470" d="M812.725,416.459a2.146,2.146,0,1,1-.625-1.536A2.157,2.157,0,0,1,812.725,416.459Z" transform="translate(-615.766 6.003)" fill="#fff"/>
          <path id="Path_99471" data-name="Path 99471" d="M826.787,416.459a2.157,2.157,0,1,1-.632-1.537,2.169,2.169,0,0,1,.632,1.537Z" transform="translate(-613.948 6.003)" fill="#fff"/>
          <path id="Path_99472" data-name="Path 99472" d="M840.835,416.459a2.146,2.146,0,1,1-.624-1.536,2.157,2.157,0,0,1,.624,1.536Z" transform="translate(-612.125 6.003)" fill="#fff"/>
          <path id="Path_99473" data-name="Path 99473" d="M784.617,430.529a2.169,2.169,0,1,1-2.157-2.169,2.169,2.169,0,0,1,2.157,2.169Z" transform="translate(-619.41 7.825)" fill="#fff"/>
          <path id="Path_99474" data-name="Path 99474" d="M798.677,430.529a2.169,2.169,0,1,1-2.169-2.169,2.169,2.169,0,0,1,2.169,2.169Z" transform="translate(-617.589 7.825)" fill="#fff"/>
          <path id="Path_99475" data-name="Path 99475" d="M812.725,430.529A2.157,2.157,0,1,1,812.1,429a2.157,2.157,0,0,1,.628,1.533Z" transform="translate(-615.766 7.825)" fill="#fff"/>
          <path id="Path_99476" data-name="Path 99476" d="M826.787,430.529a2.169,2.169,0,1,1-2.169-2.169,2.169,2.169,0,0,1,2.169,2.169Z" transform="translate(-613.948 7.825)" fill="#fff"/>
          <path id="Path_99477" data-name="Path 99477" d="M840.835,430.529a2.157,2.157,0,1,1-.628-1.533,2.157,2.157,0,0,1,.628,1.533Z" transform="translate(-612.125 7.825)" fill="#fff"/>
          <path id="Path_99478" data-name="Path 99478" d="M784.617,444.6a2.169,2.169,0,1,1-2.157-2.157,2.169,2.169,0,0,1,2.157,2.157Z" transform="translate(-619.41 9.649)" fill="#fff"/>
          <path id="Path_99479" data-name="Path 99479" d="M798.677,444.6a2.169,2.169,0,1,1-2.169-2.157,2.168,2.168,0,0,1,2.169,2.157Z" transform="translate(-617.589 9.649)" fill="#fff"/>
          <path id="Path_99480" data-name="Path 99480" d="M812.725,444.6a2.157,2.157,0,1,1-2.157-2.157,2.157,2.157,0,0,1,2.157,2.157Z" transform="translate(-615.766 9.649)" fill="#fff"/>
          <path id="Path_99481" data-name="Path 99481" d="M826.787,444.6a2.169,2.169,0,1,1-2.169-2.157,2.169,2.169,0,0,1,2.169,2.157Z" transform="translate(-613.948 9.649)" fill="#fff"/>
          <path id="Path_99482" data-name="Path 99482" d="M840.835,444.6a2.157,2.157,0,1,1-2.157-2.157,2.157,2.157,0,0,1,2.157,2.157Z" transform="translate(-612.125 9.649)" fill="#fff"/>
          <path id="Path_99483" data-name="Path 99483" d="M1111.638,44.369a2.169,2.169,0,1,1-2.169-2.169,2.169,2.169,0,0,1,2.169,2.169Z" transform="translate(-577.047 -42.2)" fill="#fff"/>
          <path id="Path_99484" data-name="Path 99484" d="M1125.685,44.369a2.158,2.158,0,1,1-.628-1.533A2.158,2.158,0,0,1,1125.685,44.369Z" transform="translate(-575.224 -42.2)" fill="#fff"/>
          <path id="Path_99485" data-name="Path 99485" d="M1139.747,44.369a2.169,2.169,0,1,1-2.157-2.169,2.168,2.168,0,0,1,2.157,2.169Z" transform="translate(-573.405 -42.2)" fill="#fff"/>
          <path id="Path_99486" data-name="Path 99486" d="M1153.795,44.369a2.158,2.158,0,1,1-.628-1.533A2.158,2.158,0,0,1,1153.795,44.369Z" transform="translate(-571.582 -42.2)" fill="#fff"/>
          <path id="Path_99487" data-name="Path 99487" d="M1010.435,462.124a2.157,2.157,0,1,1-2.191-2.124,2.157,2.157,0,0,1,2.191,2.124Z" transform="translate(-590.154 11.924)" fill="#fff"/>
          <path id="Path_99488" data-name="Path 99488" d="M1024.5,462.129a2.169,2.169,0,1,1-2.157-2.169,2.168,2.168,0,0,1,2.157,2.169Z" transform="translate(-588.335 11.919)" fill="#fff"/>
          <path id="Path_99489" data-name="Path 99489" d="M1038.545,462.129a2.158,2.158,0,1,1-.628-1.533,2.158,2.158,0,0,1,.628,1.533Z" transform="translate(-586.512 11.919)" fill="#fff"/>
          <path id="Path_99490" data-name="Path 99490" d="M1052.607,462.129a2.169,2.169,0,1,1-2.157-2.169,2.168,2.168,0,0,1,2.157,2.169Z" transform="translate(-584.694 11.919)" fill="#fff"/>
        </g>
        <g id="Group_53375" data-name="Group 53375" transform="translate(534.4 19.863)">
          <path id="Path_99491" data-name="Path 99491" d="M895.568,79.69h6.066a.75.75,0,0,1,.65.376l3.027,5.264a.75.75,0,0,1,0,.748l-3.027,5.252a.75.75,0,0,1-.65.376h-6.066a.75.75,0,0,1-.649-.374l-3.038-5.252a.75.75,0,0,1,0-.75l3.038-5.264A.75.75,0,0,1,895.568,79.69Zm5.632,1.5H896L893.4,85.7l2.6,4.5h5.2l2.6-4.5Z" transform="translate(-553.971 -34.106)" fill="#fff"/>
          <path id="Path_99492" data-name="Path 99492" d="M726.554,380.81h8.087a1,1,0,0,1,.866.5l4.044,7.014a1,1,0,0,1,0,1l-4.044,7a1,1,0,0,1-.866.5h-8.087a1,1,0,0,1-.866-.5l-4.044-7a1,1,0,0,1,0-1l4.044-7.014A1,1,0,0,1,726.554,380.81Zm7.51,2h-6.932l-3.467,6.014,3.467,6h6.933l3.467-6Z" transform="translate(-575.997 4.935)" fill="#fff"/>
          <path id="Path_99493" data-name="Path 99493" d="M608.371,83.655h3.671a.455.455,0,0,1,.394.227l1.841,3.185a.455.455,0,0,1,0,.455l-1.841,3.185a.455.455,0,0,1-.394.227h-3.671a.455.455,0,0,1-.394-.227l-1.841-3.185a.455.455,0,0,1,0-.455l1.841-3.185A.455.455,0,0,1,608.371,83.655Zm3.408.91h-3.146l-1.578,2.73,1.578,2.73h3.146l1.578-2.73Z" transform="translate(-591.021 -33.631)" fill="#fff"/>
          <path id="Path_99494" data-name="Path 99494" d="M651.74,60.131a5.2,5.2,0,1,1,5.2-5.2A5.206,5.206,0,0,1,651.74,60.131Zm0-8.9a3.7,3.7,0,1,0,3.7,3.7A3.7,3.7,0,0,0,651.74,51.23Z" transform="translate(-585.741 -37.987)" fill="#fff"/>
          <path id="Path_99495" data-name="Path 99495" d="M822.97,276.361a5.2,5.2,0,1,1,0-10.4h.011a5.155,5.155,0,0,1,3.669,1.52,5.224,5.224,0,0,1,1.52,3.668s0,.009,0,.013A5.207,5.207,0,0,1,822.97,276.361Zm.011-8.9h-.009a3.7,3.7,0,1,0,3.7,3.713s0-.01,0-.015a3.714,3.714,0,0,0-1.081-2.618A3.665,3.665,0,0,0,822.982,267.46Z" transform="translate(-563.559 -9.976)" fill="#fff"/>
          <path id="Path_99496" data-name="Path 99496" d="M700.71,302.85H700.7a3.67,3.67,0,0,1,.009-7.34h.012a3.659,3.659,0,0,1,3.659,3.673s0,.007,0,.01A3.677,3.677,0,0,1,700.71,302.85Zm.011-6.28h-.01a2.61,2.61,0,0,0-.008,5.22h.006a2.615,2.615,0,0,0,2.61-2.59s0-.008,0-.012a2.6,2.6,0,0,0-2.6-2.618Z" transform="translate(-579.227 -6.176)" fill="#fff"/>
          <path id="Path_99497" data-name="Path 99497" d="M1038.411,38.89a3.681,3.681,0,1,1-3.4,2.276A3.689,3.689,0,0,1,1038.411,38.89Zm0,6.3a2.622,2.622,0,1,0-1.851-.765A2.606,2.606,0,0,0,1038.412,45.193Z" transform="translate(-535.481 -39.42)" fill="#fff"/>
          <path id="Path_99498" data-name="Path 99498" d="M595.951,397.69h.013a3.674,3.674,0,0,1,3.668,3.67s0,0,0,.007a3.681,3.681,0,1,1-3.682-3.677Zm2.622,3.663a2.613,2.613,0,0,0-2.61-2.6h-.011a2.621,2.621,0,1,0,2.622,2.612S598.573,401.356,598.573,401.353Z" transform="translate(-592.8 7.061)" fill="#fff"/>
          <path id="Path_99499" data-name="Path 99499" d="M1251.332,446.751h-.053a5.2,5.2,0,1,1,5.252-5.121c0,.005,0,.01,0,.015a5.2,5.2,0,0,1-5.2,5.106Zm0-8.9a3.7,3.7,0,0,0-.037,7.4h.038a3.716,3.716,0,0,0,3.7-3.644s0-.008,0-.013a3.7,3.7,0,0,0-3.7-3.744Z" transform="translate(-508.067 12.097)" fill="#fff"/>
        </g>
        <path id="Ellipse_3990" data-name="Ellipse 3990" d="M29.7-1.5a31.2,31.2,0,0,1,31.2,31.23A31.179,31.179,0,1,1,17.552.955,30.973,30.973,0,0,1,29.7-1.5Zm0,59.459A28.23,28.23,0,1,0,1.5,29.73,28.245,28.245,0,0,0,29.7,57.959Z" transform="translate(952.569 48.645)" fill="#7b1fa2"/>
        <path id="Ellipse_3991" data-name="Ellipse 3991" d="M50.265-2.5A52.766,52.766,0,0,1,103.03,50.321a52.736,52.736,0,1,1-73.3-48.669A52.388,52.388,0,0,1,50.265-2.5Zm0,100.642A47.821,47.821,0,1,0,2.5,50.321,47.847,47.847,0,0,0,50.265,98.142Z" transform="translate(1198.924 323.36)" fill="#7b1fa2"/>
        <path id="Line_201" data-name="Line 201" d="M2.5,25.776h-5V0h5Z" transform="translate(1219.414 438.292)" fill="#7b1fa2"/>
        <path id="Line_202" data-name="Line 202" d="M25.742,2.5H0v-5H25.742Z" transform="translate(1206.535 451.179)" fill="#7b1fa2"/>
        <path id="Line_203" data-name="Line 203" d="M2,16.277H-2V0H2Z" transform="translate(877.636 152.021)" fill="#7b1fa2"/>
        <path id="Line_204" data-name="Line 204" d="M16.254,2H0V-2H16.254Z" transform="translate(869.503 160.164)" fill="#7b1fa2"/>
        <path id="Path_99500" data-name="Path 99500" d="M1275.984,288.54a6.885,6.885,0,0,1,6.8,5.874h.073v1a6.874,6.874,0,1,1-6.874-6.874Zm4.874,6.909v-.035a4.856,4.856,0,1,0,0,.035Z" transform="translate(30.343 12.845)" fill="#7b1fa2"/>
        <rect id="Rectangle_5055" data-name="Rectangle 5055" width="8.336" height="8.347" transform="translate(833.504 328.873)" fill="#15eaaf"/>
        <path id="Rectangle_5055_-_Outline" data-name="Rectangle 5055 - Outline" d="M-.5-.5H8.836V8.847H-.5ZM7.836.5H.5V7.847H7.836Z" transform="translate(833.504 328.873)" fill="#7b1fa2"/>
        <rect id="Rectangle_5056" data-name="Rectangle 5056" width="11.126" height="11.137" transform="translate(863.008 361.324)" fill="#15eaaf"/>
        <path id="Rectangle_5056_-_Outline" data-name="Rectangle 5056 - Outline" d="M-.5-.5H11.626V11.637H-.5ZM10.626.5H.5V10.637H10.626Z" transform="translate(863.008 361.324)" fill="#7b1fa2"/>
        <rect id="Rectangle_5057" data-name="Rectangle 5057" width="4.168" height="4.179" transform="translate(865.346 323.36)" fill="#15eaaf"/>
        <path id="Rectangle_5057_-_Outline" data-name="Rectangle 5057 - Outline" d="M-.5-.5H4.668V4.679H-.5ZM3.668.5H.5V3.679H3.668Z" transform="translate(865.346 323.36)" fill="#7b1fa2"/>
        <rect id="Rectangle_5058" data-name="Rectangle 5058" width="4.168" height="4.179" transform="translate(826.174 368.124)" fill="#15eaaf"/>
        <path id="Rectangle_5058_-_Outline" data-name="Rectangle 5058 - Outline" d="M-.5-.5H4.668V4.679H-.5ZM3.668.5H.5V3.679H3.668Z" transform="translate(826.174 368.124)" fill="#7b1fa2"/>
        <rect id="Rectangle_5059" data-name="Rectangle 5059" width="21.066" height="21.089" transform="translate(841.852 340.235)" fill="#15eaaf"/>
        <path id="Rectangle_5059_-_Outline" data-name="Rectangle 5059 - Outline" d="M-.5-.5H21.566V21.589H-.5ZM20.566.5H.5V20.589H20.566Z" transform="translate(841.852 340.235)" fill="#7b1fa2"/>
        <rect id="Rectangle_5060" data-name="Rectangle 5060" width="6.043" height="6.054" transform="translate(1247.065 78.927)" fill="#15eaaf"/>
        <path id="Rectangle_5060_-_Outline" data-name="Rectangle 5060 - Outline" d="M-.5-.5H6.543V6.554H-.5ZM5.543.5H.5V5.554H5.543Z" transform="translate(1247.065 78.927)" fill="#7b1fa2"/>
        <rect id="Rectangle_5061" data-name="Rectangle 5061" width="1.694" height="1.694" transform="translate(1269.458 102.455)" fill="#15eaaf"/>
        <path id="Rectangle_5061_-_Outline" data-name="Rectangle 5061 - Outline" d="M-.5-.5H2.194V2.194H-.5ZM1.194.5H.5v.694h.694Z" transform="translate(1269.458 102.455)" fill="#7b1fa2"/>
        <rect id="Rectangle_5062" data-name="Rectangle 5062" width="3.027" height="3.027" transform="translate(1271.152 74.928)" fill="#15eaaf"/>
        <path id="Rectangle_5062_-_Outline" data-name="Rectangle 5062 - Outline" d="M-.5-.5H3.527V3.527H-.5ZM2.527.5H.5V2.527H2.527Z" transform="translate(1271.152 74.928)" fill="#7b1fa2"/>
        <rect id="Rectangle_5063" data-name="Rectangle 5063" width="3.027" height="3.027" transform="translate(1241.756 107.392)" fill="#15eaaf"/>
        <path id="Rectangle_5063_-_Outline" data-name="Rectangle 5063 - Outline" d="M-.5-.5H3.527V3.527H-.5ZM2.527.5H.5V2.527H2.527Z" transform="translate(1241.756 107.392)" fill="#7b1fa2"/>
        <rect id="Rectangle_5064" data-name="Rectangle 5064" width="15.271" height="15.294" transform="translate(1253.119 87.161)" fill="#15eaaf"/>
        <path id="Rectangle_5064_-_Outline" data-name="Rectangle 5064 - Outline" d="M-.5-.5H15.771V15.794H-.5ZM14.771.5H.5V14.794H14.771Z" transform="translate(1253.119 87.161)" fill="#7b1fa2"/>
      </g>
    </g>
  </g>
</svg>
