<svg id="t-a1" xmlns="http://www.w3.org/2000/svg" width="742.065" height="280.208" viewBox="0 0 742.065 280.208">
  <g id="Layer_1" data-name="Layer 1" transform="translate(0 0)">
    <path id="Path_225725" data-name="Path 225725" d="M970.955,456.329a2.959,2.959,0,0,0,2.81-3.09V432.1a2.827,2.827,0,1,0-5.626,0v21.134A2.959,2.959,0,0,0,970.955,456.329Z" transform="translate(-448.049 -203.161)" fill="#333"/>
    <path id="Path_225726" data-name="Path 225726" d="M817.716,456.163a2.964,2.964,0,0,0,2.816-3.09V431.938a2.856,2.856,0,1,0-5.632,0v21.134A2.965,2.965,0,0,0,817.716,456.163Z" transform="translate(-382.329 -202.995)" fill="#333"/>
    <path id="Path_225727" data-name="Path 225727" d="M815.964,443.741h88.942c2.1,0,3.8-1.211,3.8-2.673s-1.714-2.668-3.8-2.668H815.964c-2.1,0-3.8,1.188-3.8,2.668S813.862,443.741,815.964,443.741Z" transform="translate(-381.171 -207.195)" fill="#333"/>
    <path id="Path_225728" data-name="Path 225728" d="M815.964,465.461h88.942c2.1,0,3.8-1.194,3.8-2.673s-1.714-2.667-3.8-2.667H815.964c-2.1,0-3.8,1.188-3.8,2.667S813.862,465.461,815.964,465.461Z" transform="translate(-381.171 -216.508)" fill="#333"/>
    <rect id="Rectangle_42535" data-name="Rectangle 42535" width="3.547" height="17.753" transform="translate(715.328 227.063) rotate(-45)" fill="#333"/>
    <rect id="Rectangle_42536" data-name="Rectangle 42536" width="7.031" height="24.139" transform="translate(726.717 226.716)" fill="#333"/>
    <rect id="Rectangle_42537" data-name="Rectangle 42537" width="4.193" height="5.763" transform="translate(729.054 233.016)" fill="#333"/>
    <rect id="Rectangle_42538" data-name="Rectangle 42538" width="2.102" height="5.763" transform="translate(731.138 233.016)" fill="#af1d1d"/>
    <path id="Path_225729" data-name="Path 225729" d="M1004.9,450.414h33.575c1.222,0,2.216-1.388,2.216-3.107V432.13c0-1.714-.994-3.09-2.216-3.09H1004.9c-1.222,0-2.211,1.382-2.211,3.09V447.3C1002.69,449.009,1003.678,450.414,1004.9,450.414Z" transform="translate(-462.87 -203.181)" fill="#333"/>
    <rect id="Rectangle_42539" data-name="Rectangle 42539" width="5.592" height="36.346" transform="translate(404.497 222.186)" fill="#333"/>
    <rect id="Rectangle_42540" data-name="Rectangle 42540" width="9.436" height="4.198" transform="translate(402.492 225.322)" fill="#333"/>
    <path id="Path_225730" data-name="Path 225730" d="M771.544,482.361l-4.061-7.031-4.073,7.031Z" transform="translate(-360.267 -223.03)" fill="#333"/>
    <path id="Path_225731" data-name="Path 225731" d="M768.27,443.211l2.7,2.7,19.489-19.5-2.69-2.7Z" transform="translate(-362.351 -200.896)" fill="#333"/>
    <rect id="Rectangle_42541" data-name="Rectangle 42541" width="3.701" height="9.316" transform="translate(406.856 235.695)" fill="#333"/>
    <rect id="Rectangle_42542" data-name="Rectangle 42542" width="5.592" height="36.346" transform="translate(479.473 222.186)" fill="#333"/>
    <rect id="Rectangle_42543" data-name="Rectangle 42543" width="9.436" height="4.198" transform="translate(477.468 225.322)" fill="#333"/>
    <path id="Path_225732" data-name="Path 225732" d="M902.8,482.361l-4.061-7.031-4.073,7.031Z" transform="translate(-416.551 -223.03)" fill="#333"/>
    <path id="Path_225733" data-name="Path 225733" d="M899.53,443.211l2.7,2.7,19.489-19.5-2.69-2.7Z" transform="translate(-418.635 -200.896)" fill="#333"/>
    <rect id="Rectangle_42544" data-name="Rectangle 42544" width="3.701" height="9.316" transform="translate(481.832 235.695)" fill="#333"/>
    <path id="Path_225734" data-name="Path 225734" d="M1042.942,456.562a27.007,27.007,0,0,1-23.7,26.812,25.787,25.787,0,0,1-3.336.211,27.024,27.024,0,0,1-27.041-27.024,27.772,27.772,0,0,1,.543-5.415,27.058,27.058,0,0,1,26.5-21.637,24.33,24.33,0,0,1,3.313.217,27.035,27.035,0,0,1,23.185,21.42A27.767,27.767,0,0,1,1042.942,456.562Z" transform="translate(-456.94 -203.383)" fill="#333"/>
    <g id="Group_129892" data-name="Group 129892" transform="translate(541.311 235.547)" opacity="0.5">
      <path id="Path_225735" data-name="Path 225735" d="M1005.3,463.627A17.65,17.65,0,1,0,1022.941,446a17.65,17.65,0,0,0-17.641,17.627Z" transform="translate(-1005.3 -446)"/>
    </g>
    <path id="Path_225736" data-name="Path 225736" d="M1011.16,466.119A14.28,14.28,0,1,0,1015.332,456,14.28,14.28,0,0,0,1011.16,466.119Z" transform="translate(-466.502 -212.945)" fill="#e2e2e2"/>
    <path id="Path_225737" data-name="Path 225737" d="M1016.89,468.574a11.03,11.03,0,1,0,11.026-11.024,11.03,11.03,0,0,0-11.026,11.024Z" transform="translate(-468.959 -215.406)"/>
    <path id="Path_225738" data-name="Path 225738" d="M1042.942,456.562a27.007,27.007,0,0,1-23.7,26.812,25.787,25.787,0,0,1-3.336.211,27.024,27.024,0,0,1-27.041-27.024,27.772,27.772,0,0,1,.543-5.415,27.058,27.058,0,0,1,26.5-21.637,24.33,24.33,0,0,1,3.313.217,27.035,27.035,0,0,1,23.185,21.42A27.767,27.767,0,0,1,1042.942,456.562Z" transform="translate(-456.94 -203.383)" fill="#fff" opacity="0.3"/>
    <path id="Path_225739" data-name="Path 225739" d="M1054.6,456.562a27.035,27.035,0,0,1-27.041,27.024,25.4,25.4,0,0,1-3.324-.211,27.018,27.018,0,0,1-23.716-26.812,27.773,27.773,0,0,1,.571-5.415,27.029,27.029,0,0,1,23.151-21.42,24.779,24.779,0,0,1,3.347-.217,27.058,27.058,0,0,1,26.5,21.637,27.773,27.773,0,0,1,.514,5.415Z" transform="translate(-461.94 -203.382)" fill="#333"/>
    <g id="Group_129893" data-name="Group 129893" transform="translate(547.994 235.546)" opacity="0.5">
      <path id="Path_225740" data-name="Path 225740" d="M1017,463.627A17.65,17.65,0,1,0,1034.622,446,17.65,17.65,0,0,0,1017,463.627Z" transform="translate(-1017 -446)"/>
    </g>
    <path id="Path_225741" data-name="Path 225741" d="M1022.83,466.119A14.28,14.28,0,1,0,1027,456,14.28,14.28,0,0,0,1022.83,466.119Z" transform="translate(-471.506 -212.945)" fill="#e2e2e2"/>
    <path id="Path_225742" data-name="Path 225742" d="M1027.05,467.91a11.881,11.881,0,1,0,3.472-8.422A11.887,11.887,0,0,0,1027.05,467.91Z" transform="translate(-473.315 -214.741)"/>
    <path id="Path_225743" data-name="Path 225743" d="M1050.269,448.441H986.78c1.091-14.092,14.851-25.241,31.747-25.241S1049.167,434.35,1050.269,448.441Z" transform="translate(-456.048 -200.677)"/>
    <path id="Path_225744" data-name="Path 225744" d="M1048.2,448.441a27.773,27.773,0,0,1,.571,5.415,27.035,27.035,0,0,1-27.041,27.024,25.408,25.408,0,0,1-3.324-.211,25.767,25.767,0,0,1-3.336.211,27.024,27.024,0,0,1-27.041-27.024,27.762,27.762,0,0,1,.543-5.415H986.86c1.091-14.092,14.851-25.241,31.747-25.241s30.639,11.15,31.742,25.241Z" transform="translate(-456.082 -200.677)" opacity="0.5"/>
    <rect id="Rectangle_42545" data-name="Rectangle 42545" width="252.637" height="12.601" transform="translate(399.419 216.468)" fill="#666"/>
    <rect id="Rectangle_42546" data-name="Rectangle 42546" width="447.559" height="32.65" transform="translate(199.784 175.45)" fill="#62616a"/>
    <rect id="Rectangle_42547" data-name="Rectangle 42547" width="447.559" height="32.65" transform="translate(199.784 175.45)" fill="#e2e2e2"/>
    <rect id="Rectangle_42548" data-name="Rectangle 42548" width="447.559" height="32.65" transform="translate(199.784 175.45)"/>
    <path id="Path_225745" data-name="Path 225745" d="M852.058,326.37H397.952c-2.736,0-4.952.434-4.952.948v47.227c0,.531,2.216.948,4.952.948H852.058c2.736,0,4.958-.417,4.958-.948V327.3C857.016,326.8,854.794,326.37,852.058,326.37Zm-11.521,32.644H479.5V342.849h361.04Z" transform="translate(-201.436 -159.156)" fill="#e2e2e2"/>
    <rect id="Rectangle_42549" data-name="Rectangle 42549" width="252.637" height="12.601" transform="translate(399.419 216.468)" fill="#fff" opacity="0.5"/>
    <path id="Path_225746" data-name="Path 225746" d="M857.016,327.288v47.227c0,.531-2.222.948-4.958.948H397.952c-2.736,0-4.952-.417-4.952-.948V327.288c0-.514,2.216-.948,4.952-.948H852.058C854.794,326.357,857.016,326.791,857.016,327.288Z" transform="translate(-201.436 -159.144)" fill="#fff" opacity="0.5"/>
    <path id="Path_225747" data-name="Path 225747" d="M1116.4,380.16h-.046c0-.268.034-.526.046-.8Z" transform="translate(-511.607 -181.878)" fill="#a02e2e"/>
    <path id="Path_225748" data-name="Path 225748" d="M1030.18,380.181h-.04v-.771C1030.157,379.673,1030.157,379.924,1030.18,380.181Z" transform="translate(-474.64 -181.9)" fill="#a02e2e"/>
    <rect id="Rectangle_42550" data-name="Rectangle 42550" width="16.479" height="45.525" transform="translate(508.929 167.214)" fill="#e2e2e2"/>
    <rect id="Rectangle_42551" data-name="Rectangle 42551" width="16.479" height="41.275" transform="translate(348.496 171.458)" fill="#e2e2e2"/>
    <rect id="Rectangle_42552" data-name="Rectangle 42552" width="262.616" height="12.601" transform="translate(475.943 216.468)" fill="#666"/>
    <path id="Path_225749" data-name="Path 225749" d="M1267.852,380.16h-.052c0-.268.034-.526.052-.8Z" transform="translate(-576.549 -181.878)" fill="#a02e2e"/>
    <path id="Path_225750" data-name="Path 225750" d="M1181.64,380.181h-.04v-.771C1181.612,379.673,1181.612,379.924,1181.64,380.181Z" transform="translate(-539.586 -181.9)" fill="#a02e2e"/>
    <rect id="Rectangle_42553" data-name="Rectangle 42553" width="447.559" height="32.65" transform="translate(286.298 175.45)" fill="#62616a"/>
    <rect id="Rectangle_42554" data-name="Rectangle 42554" width="447.559" height="32.65" transform="translate(286.298 175.45)" fill="#e2e2e2"/>
    <rect id="Rectangle_42555" data-name="Rectangle 42555" width="447.559" height="32.65" transform="translate(286.298 175.45)"/>
    <path id="Path_225751" data-name="Path 225751" d="M560.9,342.836h431.1v16.171H560.9Zm-11.521-16.479c-2.736,0-4.952.434-4.952.948v47.233c0,.526,2.216.943,4.952.943h454.105c2.736,0,4.947-.417,4.947-.943v-47.25c0-.514-2.21-.948-4.947-.948Z" transform="translate(-266.369 -159.144)" fill="#e2e2e2"/>
    <rect id="Rectangle_42556" data-name="Rectangle 42556" width="16.479" height="45.525" transform="translate(595.438 167.214)" fill="#e2e2e2"/>
    <rect id="Rectangle_42557" data-name="Rectangle 42557" width="16.479" height="41.275" transform="translate(435.005 171.458)" fill="#e2e2e2"/>
    <path id="Path_225752" data-name="Path 225752" d="M1073.3,456.329a2.959,2.959,0,0,0,2.81-3.09V432.1a2.827,2.827,0,1,0-5.626,0v21.134A2.959,2.959,0,0,0,1073.3,456.329Z" transform="translate(-491.932 -203.161)" fill="#333"/>
    <path id="Path_225753" data-name="Path 225753" d="M920.056,456.163a2.965,2.965,0,0,0,2.816-3.09V431.939a2.856,2.856,0,1,0-5.632,0v21.134a2.965,2.965,0,0,0,2.816,3.09Z" transform="translate(-426.212 -202.995)" fill="#333"/>
    <path id="Path_225754" data-name="Path 225754" d="M918.3,443.741h88.942c2.1,0,3.81-1.211,3.81-2.673s-1.714-2.668-3.81-2.668H918.3c-2.1,0-3.8,1.188-3.8,2.668S916.2,443.741,918.3,443.741Z" transform="translate(-425.054 -207.195)" fill="#333"/>
    <path id="Path_225755" data-name="Path 225755" d="M918.3,465.461h88.942c2.1,0,3.81-1.194,3.81-2.673s-1.714-2.667-3.81-2.667H918.3c-2.1,0-3.8,1.188-3.8,2.667S916.2,465.461,918.3,465.461Z" transform="translate(-425.054 -216.508)" fill="#333"/>
    <rect id="Rectangle_42558" data-name="Rectangle 42558" width="55.355" height="27.343" transform="translate(126.173 60.353)" fill="#f7931e"/>
    <rect id="Rectangle_42559" data-name="Rectangle 42559" width="55.355" height="27.343" transform="translate(126.173 60.353)" fill="#fff" opacity="0.5"/>
    <rect id="Rectangle_42560" data-name="Rectangle 42560" width="54.813" height="4.667" transform="translate(225.956 221.449)" fill="#333"/>
    <rect id="Rectangle_42561" data-name="Rectangle 42561" width="28.874" height="9.756" transform="translate(238.917 216.366)" fill="#333"/>
    <rect id="Rectangle_42562" data-name="Rectangle 42562" width="313.618" height="15.497" transform="translate(5.198 225.796)" fill="#666"/>
    <path id="Path_225756" data-name="Path 225756" d="M187.7,202.2v44.765l-9.3,4.958v79.785H66.73V272.755l5.209-22.06,9.276-39.23,1.091-4.632c.457-1.908,8.568-3.541,19.718-4.261h.074c3.816-.24,8-.371,12.327-.371Z" transform="translate(-61.532 -105.913)" fill="#f7931e"/>
    <path id="Path_225757" data-name="Path 225757" d="M75.594,400.269v32.37H66.621a8.985,8.985,0,0,1-8.368-5.918,9.356,9.356,0,0,1-.623-3.382V400.857a3.1,3.1,0,0,1,3.107-3.107H73.075a2.513,2.513,0,0,1,2.519,2.519Z" transform="translate(-57.63 -189.764)" fill="#666"/>
    <path id="Path_225758" data-name="Path 225758" d="M72.937,348.22v11.521c0,3.427-1.794,6.192-4,6.192h-4V342h4C71.143,342,72.937,344.787,72.937,348.22Z" transform="translate(-60.764 -165.858)" fill="#fff"/>
    <path id="Path_225759" data-name="Path 225759" d="M72.937,371v3.684a3.84,3.84,0,0,1-4,3.661h-4V371Z" transform="translate(-60.764 -178.294)" fill="#fbb03b"/>
    <path id="Path_225760" data-name="Path 225760" d="M214.209,139.29v29.92h-4.45c-2.473,0-4.467,1.342-4.467,3v3.016l-76.678.371h-.074l10.71-9.373c5.912-4.947,24.088-12.709,40.555-17.33Z" transform="translate(-88.036 -78.937)" fill="#f7931e"/>
    <rect id="Rectangle_42563" data-name="Rectangle 42563" width="4.215" height="6.889" transform="translate(310.722 230.046)" fill="#333"/>
    <rect id="Rectangle_42564" data-name="Rectangle 42564" width="1.931" height="6.889" transform="translate(313.013 230.046)" fill="#af1d1d"/>
    <path id="Path_225761" data-name="Path 225761" d="M376.446,304.733v15.5H75.594v1.582H66.621a8.985,8.985,0,0,1-8.368-5.918,9.356,9.356,0,0,1-.623-3.382V290.03a3.1,3.1,0,0,1,3.107-3.107h2.091v-7.911H61.794V255.078h1.034v-9.3l5.209-22.06,9.276-39.23,1.091-4.632c.457-1.908,8.568-3.541,19.718-4.261l10.7-9.373c5.918-4.947,24.088-12.709,40.555-17.33l34.386-9.6v29.92h-4.45c-2.473,0-4.467,1.342-4.467,3v3.016h8.916v44.765l-9.3,4.958v79.785h109.1v-4.347h12.978V295.3h28.88v5.084H338.4v4.347Z" transform="translate(-57.63 -78.937)" fill="#fff" opacity="0.5"/>
    <path id="Path_225762" data-name="Path 225762" d="M138.4,456.552a27.006,27.006,0,0,1-23.7,26.812,25.7,25.7,0,0,1-3.336.211A27.024,27.024,0,0,1,84.32,456.552a27.767,27.767,0,0,1,.571-5.415,27.058,27.058,0,0,1,26.5-21.637,24.255,24.255,0,0,1,3.313.217,27.029,27.029,0,0,1,23.128,21.42A27.765,27.765,0,0,1,138.4,456.552Z" transform="translate(-69.075 -203.378)" fill="#333"/>
    <g id="Group_129894" data-name="Group 129894" transform="translate(24.607 235.512)" opacity="0.5">
      <path id="Path_225763" data-name="Path 225763" d="M100.71,463.6a17.65,17.65,0,1,0,17.644-17.656A17.65,17.65,0,0,0,100.71,463.6Z" transform="translate(-100.71 -445.94)"/>
    </g>
    <path id="Path_225764" data-name="Path 225764" d="M106.57,466.109a14.28,14.28,0,1,0,4.172-10.116A14.28,14.28,0,0,0,106.57,466.109Z" transform="translate(-78.615 -212.941)" fill="#e2e2e2"/>
    <path id="Path_225765" data-name="Path 225765" d="M112.3,468.564a11.03,11.03,0,1,0,11.026-11.024A11.03,11.03,0,0,0,112.3,468.564Z" transform="translate(-81.072 -215.402)"/>
    <path id="Path_225766" data-name="Path 225766" d="M138.4,456.552a27.006,27.006,0,0,1-23.7,26.812,25.7,25.7,0,0,1-3.336.211A27.024,27.024,0,0,1,84.32,456.552a27.767,27.767,0,0,1,.571-5.415,27.058,27.058,0,0,1,26.5-21.637,24.255,24.255,0,0,1,3.313.217,27.029,27.029,0,0,1,23.128,21.42A27.765,27.765,0,0,1,138.4,456.552Z" transform="translate(-69.075 -203.378)" fill="#fff" opacity="0.3"/>
    <path id="Path_225767" data-name="Path 225767" d="M150.011,456.552a27.035,27.035,0,0,1-27.041,27.024,25.46,25.46,0,0,1-3.324-.211A27.018,27.018,0,0,1,95.93,456.552a27.766,27.766,0,0,1,.543-5.415,27.035,27.035,0,0,1,23.151-21.42,24.773,24.773,0,0,1,3.347-.217,27.058,27.058,0,0,1,26.5,21.637A27.766,27.766,0,0,1,150.011,456.552Z" transform="translate(-74.053 -203.378)" fill="#333"/>
    <g id="Group_129895" data-name="Group 129895" transform="translate(31.273 235.512)" opacity="0.5">
      <path id="Path_225768" data-name="Path 225768" d="M112.38,463.6a17.639,17.639,0,1,0,5.164-12.487A17.644,17.644,0,0,0,112.38,463.6Z" transform="translate(-112.38 -445.94)"/>
    </g>
    <path id="Path_225769" data-name="Path 225769" d="M118.24,466.109a14.28,14.28,0,1,0,4.172-10.116A14.28,14.28,0,0,0,118.24,466.109Z" transform="translate(-83.619 -212.941)" fill="#e2e2e2"/>
    <path id="Path_225770" data-name="Path 225770" d="M136.88,474.1a3.65,3.65,0,1,0,3.65-3.65A3.65,3.65,0,0,0,136.88,474.1Z" transform="translate(-91.612 -220.938)"/>
    <path id="Path_225771" data-name="Path 225771" d="M145.679,448.431H82.19c1.091-14.092,14.851-25.241,31.747-25.241S144.577,434.34,145.679,448.431Z" transform="translate(-68.161 -200.673)"/>
    <path id="Path_225772" data-name="Path 225772" d="M143.633,448.431a27.767,27.767,0,0,1,.571,5.415,27.035,27.035,0,0,1-27.041,27.024,25.46,25.46,0,0,1-3.324-.211,25.7,25.7,0,0,1-3.336.211,27.024,27.024,0,0,1-27.041-27.024,27.767,27.767,0,0,1,.571-5.415H82.32c1.091-14.092,14.851-25.241,31.747-25.241s30.639,11.15,31.742,25.241Z" transform="translate(-68.217 -200.673)" opacity="0.5"/>
    <path id="Path_225773" data-name="Path 225773" d="M126.538,397.749v34.889H74.947c-5.078,0-9.436-2.45-11.167-5.918V398.982a4.729,4.729,0,0,1,3.319-1.234Z" transform="translate(-60.267 -189.763)" fill="#666"/>
    <path id="Path_225774" data-name="Path 225774" d="M126.538,397.749v34.889H74.947c-5.078,0-9.436-2.45-11.167-5.918V398.982a4.729,4.729,0,0,1,3.319-1.234Z" transform="translate(-60.267 -189.763)" fill="#fff" opacity="0.5"/>
    <rect id="Rectangle_42565" data-name="Rectangle 42565" width="57.292" height="7.094" transform="translate(48.689 249.615)"/>
    <path id="Path_225775" data-name="Path 225775" d="M3.593,0H26.007a3.6,3.6,0,0,1,3.6,3.6V26.338a3.6,3.6,0,0,1-3.6,3.6H3.6a3.6,3.6,0,0,1-3.6-3.6V3.6A3.6,3.6,0,0,1,3.593,0Z" transform="translate(198.99 225.796) rotate(180)" fill="#666"/>
    <path id="Path_225776" data-name="Path 225776" d="M355.17,378.98l1.177-1.16,13.018,13.166,13.018-13.166,1.177,1.16-13.035,13.183,13.035,13.178-1.177,1.16-13.018-13.166L356.347,406.5l-1.177-1.16L368.2,392.163Z" transform="translate(-185.215 -181.218)" opacity="0.5"/>
    <path id="Path_225777" data-name="Path 225777" d="M236.67,463.953,544.6,470.316l.1-4.4L236.784,459.56Z" transform="translate(-134.402 -216.268)" fill="#333"/>
    <rect id="Rectangle_42566" data-name="Rectangle 42566" width="54.807" height="4.667" transform="translate(281.306 221.449)" fill="#333"/>
    <path id="Path_225778" data-name="Path 225778" d="M537.308,417.5V412.41H466.062V417.5H453.21v4.672H563.366V417.5Z" transform="translate(-227.254 -196.05)" fill="#333"/>
    <path id="Path_225779" data-name="Path 225779" d="M537.308,417.5V412.41H466.062V417.5H453.21v4.672H563.366V417.5Z" transform="translate(-227.254 -196.05)" fill="#fff" opacity="0.5"/>
    <rect id="Rectangle_42567" data-name="Rectangle 42567" width="28.88" height="9.756" transform="translate(294.272 216.36)" fill="#333"/>
    <rect id="Rectangle_42568" data-name="Rectangle 42568" width="313.624" height="15.497" transform="translate(60.547 225.796)" fill="#666"/>
    <path id="Path_225780" data-name="Path 225780" d="M163.63,331.7H275.306V251.919l9.3-4.958V202.19H211.337c-17.136,0-31.507,2.079-32.124,4.638l-1.091,4.632L168.839,250.7l-5.2,22.06Z" transform="translate(-103.083 -105.908)" fill="#f7931e"/>
    <path id="Path_225781" data-name="Path 225781" d="M154.539,423.334V400.852a3.1,3.1,0,0,1,3.1-3.1h12.338a2.525,2.525,0,0,1,2.525,2.525v32.359h-8.979A9.139,9.139,0,0,1,154.539,423.334Z" transform="translate(-99.184 -189.764)" fill="#666"/>
    <rect id="Rectangle_42569" data-name="Rectangle 42569" width="43.171" height="39.424" transform="translate(95.522 106.352)" fill="#29abe2"/>
    <rect id="Rectangle_42570" data-name="Rectangle 42570" width="30.691" height="31.77" transform="translate(103.479 111.767)" fill="#fff" opacity="0.5"/>
    <path id="Path_225782" data-name="Path 225782" d="M163.516,348.225v11.521c0,3.427-1.788,6.192-4,6.192h-10.03a2.382,2.382,0,0,1-2.388-2.376V344.4a2.388,2.388,0,0,1,2.388-2.388h10.019C161.729,342,163.516,344.792,163.516,348.225Z" transform="translate(-95.995 -165.863)" fill="#f2f2f2"/>
    <path id="Path_225783" data-name="Path 225783" d="M163.516,371v3.684a3.836,3.836,0,0,1-4,3.661h-10.03a2.382,2.382,0,0,1-2.388-2.376V371Z" transform="translate(-95.995 -178.294)" fill="#fbb03b"/>
    <path id="Path_225784" data-name="Path 225784" d="M157.262,342v23.933h-7.774a2.382,2.382,0,0,1-2.388-2.376V344.393a2.388,2.388,0,0,1,2.388-2.388Z" transform="translate(-95.995 -165.858)" fill="#fff" opacity="0.5"/>
    <path id="Path_225785" data-name="Path 225785" d="M74.622,344.393v19.164a2.382,2.382,0,0,1-2.388,2.376H64.46V342h7.774a2.382,2.382,0,0,1,2.388,2.393Z" transform="translate(-60.559 -165.858)" fill="#f2f2f2"/>
    <path id="Path_225786" data-name="Path 225786" d="M74.622,371v4.969a2.382,2.382,0,0,1-2.388,2.376H64.46V371Z" transform="translate(-60.559 -178.294)" fill="#fbb03b"/>
    <path id="Path_225787" data-name="Path 225787" d="M74.622,344.393v19.164a2.382,2.382,0,0,1-2.388,2.376H64.46V342h7.774a2.382,2.382,0,0,1,2.388,2.393Z" transform="translate(-60.559 -165.858)" fill="#fff" opacity="0.5"/>
    <path id="Path_225788" data-name="Path 225788" d="M236.133,166.224c5.912-4.958,24.082-12.715,40.555-17.336l34.386-9.608V169.2h-4.461c-2.468,0-4.461,1.348-4.461,3v3.01l-76.752.371Z" transform="translate(-129.569 -78.933)" fill="#f7931e"/>
    <g id="Group_129896" data-name="Group 129896" transform="translate(88.982 101.188)" opacity="0.5">
      <path id="Path_225789" data-name="Path 225789" d="M213.41,318.217V210.78h55.064V325.443H245.352Zm53-105.375H215.461V316.578l30.108,6.8h20.843Z" transform="translate(-213.41 -210.78)" fill="#2f3031"/>
    </g>
    <path id="Path_225790" data-name="Path 225790" d="M195.964,219.82v39.43H180.45l2.113-8.956,1.291-5.449,4-16.942,1.908-8.083Z" transform="translate(-110.295 -113.468)" fill="#29abe2"/>
    <g id="Group_129897" data-name="Group 129897" transform="translate(129.189 151.997)" opacity="0.5">
      <path id="Path_225791" data-name="Path 225791" d="M283.8,303.02v-3.29h10.533v3.29a2.77,2.77,0,0,1-2.776,2.776h-4.981a2.77,2.77,0,0,1-2.776-2.776Zm8.477-1.234h-6.415v1.954h6.415Z" transform="translate(-283.8 -299.73)"/>
    </g>
    <path id="Path_225792" data-name="Path 225792" d="M444.122,446.3v9.139a11.841,11.841,0,0,1-11.83,11.824H379.028a11.841,11.841,0,0,1-11.858-11.824V446.3a11.835,11.835,0,0,1,11.858-11.818h53.265a11.835,11.835,0,0,1,11.83,11.818Z" transform="translate(-190.36 -205.514)" fill="#e2e2e2"/>
    <path id="Path_225793" data-name="Path 225793" d="M444.122,446.3v9.139a11.841,11.841,0,0,1-11.83,11.824H379.028a11.841,11.841,0,0,1-11.858-11.824V446.3a11.835,11.835,0,0,1,11.858-11.818h53.265a11.835,11.835,0,0,1,11.83,11.818Z" transform="translate(-190.36 -205.514)" fill="#fff" opacity="0.5"/>
    <rect id="Rectangle_42571" data-name="Rectangle 42571" width="4.215" height="6.889" transform="translate(366.072 230.046)" fill="#333"/>
    <rect id="Rectangle_42572" data-name="Rectangle 42572" width="1.931" height="6.889" transform="translate(368.357 230.046)" fill="#af1d1d"/>
    <path id="Path_225794" data-name="Path 225794" d="M212.516,420.48c-16.491,0-29.96,11.15-31.033,25.247-.04-.617-.1-1.205-.1-1.8,0-14.948,13.943-27.052,31.136-27.052s31.142,12.1,31.142,27.052c0,.571-.063,1.188-.109,1.8C242.476,431.63,229.018,420.48,212.516,420.48Z" transform="translate(-110.694 -197.963)" fill="#333"/>
    <path id="Path_225795" data-name="Path 225795" d="M212.593,423.19c16.5,0,29.96,11.15,31.033,25.247H181.56C182.634,434.34,196.091,423.19,212.593,423.19Z" transform="translate(-110.771 -200.673)"/>
    <path id="Path_225796" data-name="Path 225796" d="M237.921,456.562a27.024,27.024,0,1,1-7.912-19.134A27.041,27.041,0,0,1,237.921,456.562Z" transform="translate(-111.749 -203.383)" fill="#333"/>
    <g id="Group_129898" data-name="Group 129898" transform="translate(81.488 235.547)" opacity="0.5">
      <path id="Path_225797" data-name="Path 225797" d="M200.29,463.627A17.65,17.65,0,1,0,217.931,446a17.65,17.65,0,0,0-17.641,17.627Z" transform="translate(-200.29 -446)"/>
    </g>
    <path id="Path_225798" data-name="Path 225798" d="M206.15,466.119A14.28,14.28,0,1,0,210.322,456a14.28,14.28,0,0,0-4.172,10.116Z" transform="translate(-121.315 -212.945)" fill="#e2e2e2"/>
    <path id="Path_225799" data-name="Path 225799" d="M211.88,468.574a11.03,11.03,0,1,0,11.026-11.024,11.03,11.03,0,0,0-11.026,11.024Z" transform="translate(-123.772 -215.406)"/>
    <path id="Path_225800" data-name="Path 225800" d="M237.921,456.562a27.024,27.024,0,1,1-7.912-19.134A27.041,27.041,0,0,1,237.921,456.562Z" transform="translate(-111.749 -203.383)" fill="#fff" opacity="0.3"/>
    <path id="Path_225801" data-name="Path 225801" d="M192.83,456.546a27.029,27.029,0,1,0,7.915-19.128,27.039,27.039,0,0,0-7.915,19.128Z" transform="translate(-115.603 -203.378)" fill="#333"/>
    <g id="Group_129899" data-name="Group 129899" transform="translate(86.623 235.512)" opacity="0.5">
      <path id="Path_225802" data-name="Path 225802" d="M209.28,463.6a17.639,17.639,0,1,0,5.164-12.487A17.644,17.644,0,0,0,209.28,463.6Z" transform="translate(-209.28 -445.94)"/>
    </g>
    <path id="Path_225803" data-name="Path 225803" d="M215.14,466.109a14.28,14.28,0,1,0,4.172-10.116,14.28,14.28,0,0,0-4.172,10.116Z" transform="translate(-125.17 -212.941)" fill="#e2e2e2"/>
    <path id="Path_225804" data-name="Path 225804" d="M233.78,474.1a3.65,3.65,0,1,0,3.65-3.65A3.65,3.65,0,0,0,233.78,474.1Z" transform="translate(-133.163 -220.938)"/>
    <g id="Group_129903" data-name="Group 129903" transform="translate(95.522 106.352)" opacity="0.5">
      <g id="Group_129900" data-name="Group 129900" transform="translate(21.1)">
        <path id="Path_225805" data-name="Path 225805" d="M283.871,219.82v22.088L261.8,219.82Z" transform="translate(-261.8 -219.82)" fill="#fff"/>
      </g>
      <g id="Group_129901" data-name="Group 129901" transform="translate(0 19.095)">
        <path id="Path_225806" data-name="Path 225806" d="M245.189,273.585H224.86V253.25Z" transform="translate(-224.86 -253.25)" fill="#fff"/>
      </g>
      <g id="Group_129902" data-name="Group 129902">
        <path id="Path_225807" data-name="Path 225807" d="M268.031,259.056v.194h-5.318L224.86,221.385V219.82h3.958Z" transform="translate(-224.86 -219.82)" fill="#fff"/>
      </g>
    </g>
    <g id="Group_129906" data-name="Group 129906" transform="translate(72.268 106.352)" opacity="0.5">
      <g id="Group_129904" data-name="Group 129904" transform="translate(5.289)">
        <path id="Path_225808" data-name="Path 225808" d="M201.521,219.82v16.2L193.41,227.9l1.908-8.083Z" transform="translate(-193.41 -219.82)" fill="#fff"/>
      </g>
      <g id="Group_129905" data-name="Group 129905" transform="translate(0 25.024)">
        <path id="Path_225809" data-name="Path 225809" d="M197.55,275.757v2.279H193.1l-8.951-8.956,1.291-5.449Z" transform="translate(-184.15 -263.63)" fill="#fff"/>
      </g>
    </g>
    <path id="Path_225810" data-name="Path 225810" d="M384.78,446.3v9.111a11.841,11.841,0,0,0,11.864,11.83H449.9a11.835,11.835,0,0,0,11.83-11.83V446.3a11.835,11.835,0,0,0-11.83-11.83H396.644A11.841,11.841,0,0,0,384.78,446.3Z" transform="translate(-197.911 -205.509)" fill="#e2e2e2"/>
    <g id="Group_129907" data-name="Group 129907" transform="translate(201.337 228.961)">
      <rect id="Rectangle_42573" data-name="Rectangle 42573" width="0.891" height="32.764" transform="translate(49.466)" fill="#363535"/>
      <rect id="Rectangle_42574" data-name="Rectangle 42574" width="0.857" height="32.764" transform="translate(39.607)" fill="#363535"/>
      <rect id="Rectangle_42575" data-name="Rectangle 42575" width="0.891" height="32.764" transform="translate(29.68)" fill="#363535"/>
      <rect id="Rectangle_42576" data-name="Rectangle 42576" width="0.857" height="32.764" transform="translate(19.821)" fill="#363535"/>
      <rect id="Rectangle_42577" data-name="Rectangle 42577" width="0.857" height="32.764" transform="translate(9.927)" fill="#363535"/>
      <rect id="Rectangle_42578" data-name="Rectangle 42578" width="0.891" height="32.764" fill="#363535"/>
    </g>
    <g id="Group_129908" data-name="Group 129908" transform="translate(201.337 228.961)">
      <rect id="Rectangle_42579" data-name="Rectangle 42579" width="0.891" height="32.764" transform="translate(49.466)" fill="#363535"/>
      <rect id="Rectangle_42580" data-name="Rectangle 42580" width="0.857" height="32.764" transform="translate(39.607)" fill="#363535"/>
      <rect id="Rectangle_42581" data-name="Rectangle 42581" width="0.891" height="32.764" transform="translate(29.68)" fill="#363535"/>
      <rect id="Rectangle_42582" data-name="Rectangle 42582" width="0.857" height="32.764" transform="translate(19.821)" fill="#363535"/>
      <rect id="Rectangle_42583" data-name="Rectangle 42583" width="0.857" height="32.764" transform="translate(9.927)" fill="#363535"/>
      <rect id="Rectangle_42584" data-name="Rectangle 42584" width="0.891" height="32.764" fill="#363535"/>
    </g>
    <path id="Path_225811" data-name="Path 225811" d="M395.54,443.516a2.787,2.787,0,1,0,2.787-2.776,2.787,2.787,0,0,0-2.787,2.776Z" transform="translate(-202.525 -208.198)"/>
    <path id="Path_225812" data-name="Path 225812" d="M343.961,209.448V207.3H334v8.894H331.92v44.554H334V300.28a2.885,2.885,0,0,0,2.519,3.1h.057a2.882,2.882,0,0,0,2.593-3.1V260.742h2.45V216.188h-2.45v-6.74Z" transform="translate(-175.245 -108.099)" fill="#2f3031"/>
    <path id="Path_225813" data-name="Path 225813" d="M335.149,205v6.746h2.45V256.3h-2.45V295.83a2.863,2.863,0,0,1-2.593,3.1h-.029a2.889,2.889,0,0,1-2.525-3.1V256.292h-2.1V211.738h2.073V202.85h9.979V205Z" transform="translate(-173.521 -106.191)" fill="#e2e2e2"/>
    <path id="Path_225814" data-name="Path 225814" d="M332.527,202.85V298.9A2.889,2.889,0,0,1,330,295.8v-39.51h-2.1V211.738h2.073V202.85Z" transform="translate(-173.521 -106.191)" fill="#fff"/>
    <path id="Path_225815" data-name="Path 225815" d="M139.56,218.42l-1.7,7.209-7.574,32.022H79.31l1.959-8.277,7.317-30.953Z" transform="translate(-66.926 -112.868)" fill="#29abe2"/>
    <path id="Path_225816" data-name="Path 225816" d="M149.41,231.04l-7.574,32.022H106.25l.251-1.068,7.311-30.953Z" transform="translate(-78.478 -118.279)" fill="#fff" opacity="0.5"/>
    <g id="Group_129913" data-name="Group 129913" transform="translate(14.343 105.552)" opacity="0.5">
      <g id="Group_129909" data-name="Group 129909" transform="translate(28.549 0)">
        <path id="Path_225817" data-name="Path 225817" d="M162.462,218.42l-9.276,39.23H132.72l22.157-39.23Z" transform="translate(-132.72 -218.42)" fill="#fff"/>
      </g>
      <g id="Group_129910" data-name="Group 129910" transform="translate(0 0)">
        <path id="Path_225818" data-name="Path 225818" d="M100.213,218.42,82.74,249.373l7.317-30.953Z" transform="translate(-82.74 -218.42)" fill="#fff"/>
      </g>
      <g id="Group_129911" data-name="Group 129911" transform="translate(0.537 0)">
        <path id="Path_225819" data-name="Path 225819" d="M111.572,218.42,89.4,257.65H83.68l22.157-39.23Z" transform="translate(-83.68 -218.42)" fill="#fff"/>
      </g>
      <g id="Group_129912" data-name="Group 129912" transform="translate(14.377 0)">
        <path id="Path_225820" data-name="Path 225820" d="M135.8,218.42l-22.168,39.23H107.91l22.157-39.23Z" transform="translate(-107.91 -218.42)" fill="#fff"/>
      </g>
    </g>
    <rect id="Rectangle_42585" data-name="Rectangle 42585" width="30.588" height="2.645" transform="translate(17.473 178.129)" fill="#2f3031"/>
    <rect id="Rectangle_42586" data-name="Rectangle 42586" width="30.588" height="2.645" transform="translate(17.473 183.287)" fill="#2f3031"/>
    <rect id="Rectangle_42587" data-name="Rectangle 42587" width="30.588" height="2.645" transform="translate(17.473 188.439)" fill="#2f3031"/>
    <rect id="Rectangle_42588" data-name="Rectangle 42588" width="30.588" height="2.645" transform="translate(17.473 193.592)" fill="#2f3031"/>
    <rect id="Rectangle_42589" data-name="Rectangle 42589" width="30.588" height="2.645" transform="translate(17.473 198.75)" fill="#2f3031"/>
    <rect id="Rectangle_42590" data-name="Rectangle 42590" width="30.588" height="2.645" transform="translate(17.473 178.129)" fill="#2f3031"/>
    <rect id="Rectangle_42591" data-name="Rectangle 42591" width="30.588" height="2.645" transform="translate(17.473 183.287)" fill="#2f3031"/>
    <rect id="Rectangle_42592" data-name="Rectangle 42592" width="30.588" height="2.645" transform="translate(17.473 188.439)" fill="#2f3031"/>
    <rect id="Rectangle_42593" data-name="Rectangle 42593" width="30.588" height="2.645" transform="translate(17.473 193.592)" fill="#2f3031"/>
    <rect id="Rectangle_42594" data-name="Rectangle 42594" width="30.588" height="2.645" transform="translate(17.473 198.75)" fill="#2f3031"/>
    <rect id="Rectangle_42595" data-name="Rectangle 42595" width="57.292" height="7.094" transform="translate(563.673 250.563)"/>
    <path id="Path_225821" data-name="Path 225821" d="M1117.835,420.48c-16.445,0-29.868,11.15-30.942,25.247-.04-.617-.1-1.205-.1-1.8,0-14.948,13.9-27.052,31.045-27.052s31.056,12.1,31.056,27.052c0,.571-.057,1.188-.1,1.8C1147.714,431.63,1134.285,420.48,1117.835,420.48Z" transform="translate(-498.932 -197.963)" fill="#333"/>
    <path id="Path_225822" data-name="Path 225822" d="M1117.925,423.19c16.451,0,29.88,11.15,30.959,25.247H1087C1088.057,434.34,1101.48,423.19,1117.925,423.19Z" transform="translate(-499.022 -200.673)"/>
    <path id="Path_225823" data-name="Path 225823" d="M1143.111,456.552a27.024,27.024,0,1,1-7.912-19.134A27.041,27.041,0,0,1,1143.111,456.552Z" transform="translate(-499.892 -203.378)" fill="#333"/>
    <g id="Group_129914" data-name="Group 129914" transform="translate(598.534 235.512)" opacity="0.5">
      <path id="Path_225824" data-name="Path 225824" d="M1105.48,463.6a17.639,17.639,0,1,0,5.163-12.487,17.644,17.644,0,0,0-5.163,12.487Z" transform="translate(-1105.48 -445.94)"/>
    </g>
    <path id="Path_225825" data-name="Path 225825" d="M1111.34,466.109a14.28,14.28,0,1,0,4.172-10.116A14.28,14.28,0,0,0,1111.34,466.109Z" transform="translate(-509.459 -212.941)" fill="#e2e2e2"/>
    <path id="Path_225826" data-name="Path 225826" d="M1117.07,468.564a11.024,11.024,0,1,0,11.024-11.024,11.024,11.024,0,0,0-11.024,11.024Z" transform="translate(-511.916 -215.402)"/>
    <path id="Path_225827" data-name="Path 225827" d="M1143.111,456.552a27.024,27.024,0,1,1-7.912-19.134A27.041,27.041,0,0,1,1143.111,456.552Z" transform="translate(-499.892 -203.378)" fill="#fff" opacity="0.3"/>
    <path id="Path_225828" data-name="Path 225828" d="M1097.93,456.546a27.029,27.029,0,1,0,7.915-19.128,27.04,27.04,0,0,0-7.915,19.128Z" transform="translate(-503.709 -203.378)" fill="#333"/>
    <g id="Group_129915" data-name="Group 129915" transform="translate(603.618 235.512)" opacity="0.5">
      <path id="Path_225829" data-name="Path 225829" d="M1114.38,463.6a17.644,17.644,0,1,0,17.639-17.656A17.645,17.645,0,0,0,1114.38,463.6Z" transform="translate(-1114.38 -445.94)"/>
    </g>
    <path id="Path_225830" data-name="Path 225830" d="M1120.24,466.109a14.28,14.28,0,1,0,4.172-10.116,14.28,14.28,0,0,0-4.172,10.116Z" transform="translate(-513.275 -212.941)" fill="#e2e2e2"/>
    <path id="Path_225831" data-name="Path 225831" d="M1126,468.564a11.018,11.018,0,1,0,3.227-7.8,11.024,11.024,0,0,0-3.227,7.8Z" transform="translate(-515.745 -215.402)"/>
    <rect id="Rectangle_42596" data-name="Rectangle 42596" width="445.223" height="148.969" transform="translate(201.783 7.843)" fill="#62616a"/>
    <rect id="Rectangle_42597" data-name="Rectangle 42597" width="445.223" height="148.969" transform="translate(201.783 7.843)" fill="#e2e2e2"/>
    <rect id="Rectangle_42598" data-name="Rectangle 42598" width="445.223" height="148.969" transform="translate(201.783 7.843)"/>
    <path id="Path_225832" data-name="Path 225832" d="M853.232,33.64H401.479c-2.725,0-4.929.411-4.929.9V197.386c0,.5,2.2.9,4.929.9H853.232c2.725,0,4.929-.4,4.929-.9V34.542C858.161,34.051,855.956,33.64,853.232,33.64ZM841.773,182.6H482.613V49.325h359.16Z" transform="translate(-202.958 -33.634)" fill="#e2e2e2"/>
    <path id="Path_225833" data-name="Path 225833" d="M858.161,34.542V197.386c0,.5-2.2.9-4.929.9H401.479c-2.725,0-4.929-.4-4.929-.9V34.542c0-.491,2.2-.9,4.929-.9H853.232C855.956,33.64,858.161,34.051,858.161,34.542Z" transform="translate(-202.958 -33.634)" fill="#fff" opacity="0.5"/>
    <path id="Path_225834" data-name="Path 225834" d="M1116.2,291.225h-.051c0-.263.034-.508.051-.765Z" transform="translate(-511.521 -143.758)" fill="#a02e2e"/>
    <path id="Path_225835" data-name="Path 225835" d="M1030.43,291.247h-.04v-.737C1030.407,290.756,1030.407,291,1030.43,291.247Z" transform="translate(-474.748 -143.78)" fill="#a02e2e"/>
    <rect id="Rectangle_42599" data-name="Rectangle 42599" width="16.393" height="161.222" transform="translate(509.318)" fill="#e2e2e2"/>
    <rect id="Rectangle_42600" data-name="Rectangle 42600" width="16.393" height="157.178" transform="translate(349.718 4.044)" fill="#e2e2e2"/>
    <path id="Path_225836" data-name="Path 225836" d="M1266.872,291.225h-.051c0-.263.034-.508.051-.765Z" transform="translate(-576.129 -143.758)" fill="#a02e2e"/>
    <path id="Path_225837" data-name="Path 225837" d="M1181.1,291.247h-.04v-.737C1181.077,290.756,1181.077,291,1181.1,291.247Z" transform="translate(-539.355 -143.78)" fill="#a02e2e"/>
    <rect id="Rectangle_42601" data-name="Rectangle 42601" width="445.223" height="148.969" transform="translate(287.846 7.843)" fill="#62616a"/>
    <path id="Path_225838" data-name="Path 225838" d="M1003.9,33.63H552.149c-2.725,0-4.93.411-4.93.9v162.85c0,.5,2.2.9,4.93.9H1003.9c2.725,0,4.924-.394,4.924-.9V34.533C1008.825,34.041,1006.626,33.63,1003.9,33.63ZM992.438,182.6H563.608V49.315h428.83Z" transform="translate(-267.565 -33.63)" fill="#e2e2e2"/>
    <rect id="Rectangle_42602" data-name="Rectangle 42602" width="445.223" height="148.969" transform="translate(287.846 7.843)" fill="#e2e2e2"/>
    <rect id="Rectangle_42603" data-name="Rectangle 42603" width="445.223" height="148.969" transform="translate(287.846 7.843)" fill="#e2e2e2"/>
    <rect id="Rectangle_42604" data-name="Rectangle 42604" width="445.223" height="148.969" transform="translate(287.846 7.843)" fill="#e2e2e2" opacity="0.1"/>
    <rect id="Rectangle_42605" data-name="Rectangle 42605" width="49.398" height="79.146" transform="translate(214.943 9.293)"/>
    <rect id="Rectangle_42606" data-name="Rectangle 42606" width="49.398" height="79.146" transform="translate(204.496 9.293)" fill="#fff"/>
    <rect id="Rectangle_42607" data-name="Rectangle 42607" width="40.544" height="1.948" transform="translate(208.923 15.982)" opacity="0.2"/>
    <rect id="Rectangle_42608" data-name="Rectangle 42608" width="40.544" height="1.948" transform="translate(208.923 25.099)" opacity="0.2"/>
    <rect id="Rectangle_42609" data-name="Rectangle 42609" width="40.544" height="1.948" transform="translate(208.923 34.215)" opacity="0.2"/>
    <rect id="Rectangle_42610" data-name="Rectangle 42610" width="40.544" height="1.948" transform="translate(208.923 43.337)" opacity="0.2"/>
    <rect id="Rectangle_42611" data-name="Rectangle 42611" width="40.544" height="1.948" transform="translate(208.923 52.453)" opacity="0.2"/>
    <rect id="Rectangle_42612" data-name="Rectangle 42612" width="40.544" height="1.948" transform="translate(208.923 61.57)" opacity="0.2"/>
    <rect id="Rectangle_42613" data-name="Rectangle 42613" width="40.544" height="1.948" transform="translate(208.923 70.692)" opacity="0.2"/>
    <rect id="Rectangle_42614" data-name="Rectangle 42614" width="40.544" height="1.948" transform="translate(208.923 79.808)" opacity="0.2"/>
  </g>
</svg>
