<svg id="t-a4" xmlns="http://www.w3.org/2000/svg" width="784.281" height="249.519" viewBox="0 0 784.281 249.519">
  <g id="Layer_1" data-name="Layer 1" transform="translate(0 0)">
    <rect id="Rectangle_42750" data-name="Rectangle 42750" width="5.876" height="38.191" transform="translate(390.773 192.479)" fill="#666"/>
    <rect id="Rectangle_42751" data-name="Rectangle 42751" width="9.926" height="4.407" transform="translate(388.663 195.778)" fill="#666"/>
    <path id="Path_229524" data-name="Path 229524" d="M796.809,449.934l-4.264-7.394-4.275,7.394Z" transform="translate(-398.922 -218.42)" fill="#666"/>
    <rect id="Rectangle_42752" data-name="Rectangle 42752" width="28.961" height="3.99" transform="translate(392.282 213.665) rotate(-45)" fill="#666"/>
    <rect id="Rectangle_42753" data-name="Rectangle 42753" width="3.886" height="9.778" transform="translate(393.245 206.68)" fill="#666"/>
    <path id="Path_229525" data-name="Path 229525" d="M699.719,415.221A27.772,27.772,0,0,1,675.346,442.8a26.271,26.271,0,0,1-3.431.219,27.794,27.794,0,0,1-27.8-27.794,28.721,28.721,0,0,1,.548-5.569A27.838,27.838,0,0,1,671.909,387.4a25.81,25.81,0,0,1,3.409.225,27.8,27.8,0,0,1,23.847,22.028,28.729,28.729,0,0,1,.554,5.569Z" transform="translate(-333.775 -193.502)" fill="#333"/>
    <g id="Group_129959" data-name="Group 129959" transform="translate(319.992 203.545)" opacity="0.5">
      <path id="Path_229526" data-name="Path 229526" d="M661.73,423.169a18.136,18.136,0,1,0,5.3-12.848A18.147,18.147,0,0,0,661.73,423.169Z" transform="translate(-661.73 -405)"/>
    </g>
    <path id="Path_229527" data-name="Path 229527" d="M668,426.021a14.694,14.694,0,1,0,4.3-10.4A14.705,14.705,0,0,0,668,426.021Z" transform="translate(-344.571 -204.307)" fill="#e2e2e2"/>
    <path id="Path_229528" data-name="Path 229528" d="M674.15,428.8a11.34,11.34,0,1,0,11.335-11.346A11.34,11.34,0,0,0,674.15,428.8Z" transform="translate(-347.35 -207.081)"/>
    <path id="Path_229529" data-name="Path 229529" d="M699.719,415.221A27.772,27.772,0,0,1,675.346,442.8a26.271,26.271,0,0,1-3.431.219,27.794,27.794,0,0,1-27.8-27.794,28.721,28.721,0,0,1,.548-5.569A27.838,27.838,0,0,1,671.909,387.4a25.81,25.81,0,0,1,3.409.225,27.8,27.8,0,0,1,23.847,22.028,28.729,28.729,0,0,1,.554,5.569Z" transform="translate(-333.775 -193.502)" fill="#fff" opacity="0.3"/>
    <path id="Path_229530" data-name="Path 229530" d="M712.215,415.221a27.8,27.8,0,0,1-27.8,27.794,25.98,25.98,0,0,1-3.426-.219,27.788,27.788,0,0,1-24.39-27.574,28.722,28.722,0,0,1,.548-5.569,27.81,27.81,0,0,1,23.809-22.028,26.254,26.254,0,0,1,3.442-.225,27.838,27.838,0,0,1,27.262,22.253,28.719,28.719,0,0,1,.554,5.569Z" transform="translate(-339.419 -193.502)" fill="#333"/>
    <g id="Group_129960" data-name="Group 129960" transform="translate(326.843 203.545)" opacity="0.5">
      <path id="Path_229531" data-name="Path 229531" d="M674.23,423.169a18.136,18.136,0,1,0,5.3-12.848A18.147,18.147,0,0,0,674.23,423.169Z" transform="translate(-674.23 -405)"/>
    </g>
    <path id="Path_229532" data-name="Path 229532" d="M680.51,426.021a14.694,14.694,0,1,0,4.3-10.4A14.705,14.705,0,0,0,680.51,426.021Z" transform="translate(-350.225 -204.307)" fill="#e2e2e2"/>
    <path id="Path_229533" data-name="Path 229533" d="M700.49,435.049a3.754,3.754,0,1,0,3.754-3.749A3.754,3.754,0,0,0,700.49,435.049Z" transform="translate(-359.254 -213.34)"/>
    <path id="Path_229534" data-name="Path 229534" d="M707.169,406.6H641.88c1.1-14.486,15.292-25.952,32.644-25.952S706.034,392.116,707.169,406.6Z" transform="translate(-332.767 -190.451)"/>
    <path id="Path_229535" data-name="Path 229535" d="M705,406.6a28.716,28.716,0,0,1,.548,5.569,27.8,27.8,0,0,1-27.8,27.794,25.989,25.989,0,0,1-3.425-.219,26.275,26.275,0,0,1-3.431.219,27.794,27.794,0,0,1-27.8-27.794,28.716,28.716,0,0,1,.548-5.569H641.86c1.1-14.486,15.292-25.952,32.644-25.952s31.521,11.466,32.655,25.952Z" transform="translate(-332.758 -190.451)" opacity="0.5"/>
    <rect id="Rectangle_42754" data-name="Rectangle 42754" width="58.914" height="7.295" transform="translate(346.021 218.053)"/>
    <path id="Path_229536" data-name="Path 229536" d="M1137.025,415.221A27.779,27.779,0,0,1,1112.64,442.8a26.267,26.267,0,0,1-3.425.219,27.794,27.794,0,0,1-27.8-27.794,28.726,28.726,0,0,1,.548-5.569,27.838,27.838,0,0,1,27.251-22.252,25.808,25.808,0,0,1,3.409.225,27.8,27.8,0,0,1,23.842,22.028A28.308,28.308,0,0,1,1137.025,415.221Z" transform="translate(-531.395 -193.502)" fill="#333"/>
    <g id="Group_129961" data-name="Group 129961" transform="translate(559.656 203.561)" opacity="0.5">
      <path id="Path_229537" data-name="Path 229537" d="M1099,423.183a18.137,18.137,0,1,0,5.308-12.837A18.147,18.147,0,0,0,1099,423.183Z" transform="translate(-1099 -405.03)"/>
    </g>
    <path id="Path_229538" data-name="Path 229538" d="M1105.31,426.021a14.694,14.694,0,1,0,4.3-10.4A14.705,14.705,0,0,0,1105.31,426.021Z" transform="translate(-542.195 -204.307)" fill="#e2e2e2"/>
    <path id="Path_229539" data-name="Path 229539" d="M1111.45,428.8a11.34,11.34,0,1,0,11.335-11.346A11.34,11.34,0,0,0,1111.45,428.8Z" transform="translate(-544.97 -207.081)"/>
    <path id="Path_229540" data-name="Path 229540" d="M1137.025,415.221A27.779,27.779,0,0,1,1112.64,442.8a26.267,26.267,0,0,1-3.425.219,27.794,27.794,0,0,1-27.8-27.794,28.726,28.726,0,0,1,.548-5.569,27.838,27.838,0,0,1,27.251-22.252,25.808,25.808,0,0,1,3.409.225,27.8,27.8,0,0,1,23.842,22.028A28.308,28.308,0,0,1,1137.025,415.221Z" transform="translate(-531.395 -193.502)" fill="#fff" opacity="0.3"/>
    <path id="Path_229541" data-name="Path 229541" d="M1149.519,415.221a27.8,27.8,0,0,1-27.8,27.794,25.991,25.991,0,0,1-3.426-.219,27.783,27.783,0,0,1-24.385-27.574,28.717,28.717,0,0,1,.548-5.569,27.81,27.81,0,0,1,23.809-22.028,26.318,26.318,0,0,1,3.442-.225,27.838,27.838,0,0,1,27.251,22.253,28.732,28.732,0,0,1,.559,5.569Z" transform="translate(-537.043 -193.502)" fill="#333"/>
    <g id="Group_129962" data-name="Group 129962" transform="translate(566.524 203.561)" opacity="0.5">
      <path id="Path_229542" data-name="Path 229542" d="M1111.53,423.183a18.137,18.137,0,1,0,5.308-12.837,18.147,18.147,0,0,0-5.308,12.837Z" transform="translate(-1111.53 -405.03)"/>
    </g>
    <path id="Path_229543" data-name="Path 229543" d="M1117.81,426.021a14.705,14.705,0,1,0,14.7-14.711A14.705,14.705,0,0,0,1117.81,426.021Z" transform="translate(-547.844 -204.307)" fill="#e2e2e2"/>
    <path id="Path_229544" data-name="Path 229544" d="M1137.79,435.049a3.754,3.754,0,1,0,3.754-3.749A3.755,3.755,0,0,0,1137.79,435.049Z" transform="translate(-556.873 -213.34)"/>
    <path id="Path_229545" data-name="Path 229545" d="M1144.469,406.6H1079.18c1.1-14.486,15.292-25.952,32.644-25.952S1143.334,392.116,1144.469,406.6Z" transform="translate(-530.387 -190.451)"/>
    <path id="Path_229546" data-name="Path 229546" d="M1142.3,406.6a28.726,28.726,0,0,1,.548,5.569,27.8,27.8,0,0,1-27.8,27.794,25.988,25.988,0,0,1-3.426-.219,26.274,26.274,0,0,1-3.431.219,27.794,27.794,0,0,1-27.8-27.794,28.716,28.716,0,0,1,.548-5.569h-1.776c1.1-14.486,15.292-25.952,32.644-25.952s31.51,11.466,32.644,25.952Z" transform="translate(-530.378 -190.451)" opacity="0.5"/>
    <rect id="Rectangle_42755" data-name="Rectangle 42755" width="58.914" height="7.295" transform="translate(585.702 218.053)"/>
    <path id="Path_229547" data-name="Path 229547" d="M1261.005,415.221A27.779,27.779,0,0,1,1236.62,442.8a26.267,26.267,0,0,1-3.425.219,27.794,27.794,0,0,1-27.8-27.794,28.717,28.717,0,0,1,.548-5.569,27.838,27.838,0,0,1,27.251-22.252,25.807,25.807,0,0,1,3.409.225,27.8,27.8,0,0,1,23.842,22.028A28.3,28.3,0,0,1,1261.005,415.221Z" transform="translate(-587.422 -193.502)" fill="#333"/>
    <g id="Group_129963" data-name="Group 129963" transform="translate(627.62 203.561)" opacity="0.5">
      <path id="Path_229548" data-name="Path 229548" d="M1223,423.183a18.137,18.137,0,1,0,5.308-12.837A18.147,18.147,0,0,0,1223,423.183Z" transform="translate(-1223 -405.03)"/>
    </g>
    <path id="Path_229549" data-name="Path 229549" d="M1229.29,426.021a14.7,14.7,0,1,0,4.3-10.4,14.705,14.705,0,0,0-4.3,10.4Z" transform="translate(-598.223 -204.307)" fill="#e2e2e2"/>
    <path id="Path_229550" data-name="Path 229550" d="M1235.43,428.8a11.334,11.334,0,1,0,3.318-8.024A11.34,11.34,0,0,0,1235.43,428.8Z" transform="translate(-600.998 -207.081)"/>
    <path id="Path_229551" data-name="Path 229551" d="M1261.005,415.221A27.779,27.779,0,0,1,1236.62,442.8a26.267,26.267,0,0,1-3.425.219,27.794,27.794,0,0,1-27.8-27.794,28.717,28.717,0,0,1,.548-5.569,27.838,27.838,0,0,1,27.251-22.252,25.807,25.807,0,0,1,3.409.225,27.8,27.8,0,0,1,23.842,22.028A28.3,28.3,0,0,1,1261.005,415.221Z" transform="translate(-587.422 -193.502)" fill="#fff" opacity="0.3"/>
    <path id="Path_229552" data-name="Path 229552" d="M1273.5,415.221a27.8,27.8,0,0,1-27.8,27.794,25.99,25.99,0,0,1-3.426-.219,27.783,27.783,0,0,1-24.384-27.574,28.707,28.707,0,0,1,.548-5.569,27.81,27.81,0,0,1,23.809-22.028,26.317,26.317,0,0,1,3.442-.225,27.832,27.832,0,0,1,27.251,22.253A28.742,28.742,0,0,1,1273.5,415.221Z" transform="translate(-593.071 -193.502)" fill="#333"/>
    <g id="Group_129964" data-name="Group 129964" transform="translate(634.476 203.545)" opacity="0.5">
      <path id="Path_229553" data-name="Path 229553" d="M1235.51,423.169a18.142,18.142,0,1,0,5.306-12.848,18.147,18.147,0,0,0-5.306,12.848Z" transform="translate(-1235.51 -405)"/>
    </g>
    <path id="Path_229554" data-name="Path 229554" d="M1241.79,426.021a14.7,14.7,0,1,0,4.3-10.4A14.705,14.705,0,0,0,1241.79,426.021Z" transform="translate(-603.872 -204.307)" fill="#e2e2e2"/>
    <path id="Path_229555" data-name="Path 229555" d="M1261.78,435.049a3.749,3.749,0,1,0,3.749-3.749A3.749,3.749,0,0,0,1261.78,435.049Z" transform="translate(-612.905 -213.34)"/>
    <path id="Path_229556" data-name="Path 229556" d="M1268.449,406.6H1203.16c1.1-14.486,15.292-25.952,32.644-25.952S1267.314,392.116,1268.449,406.6Z" transform="translate(-586.414 -190.451)"/>
    <path id="Path_229557" data-name="Path 229557" d="M1266.28,406.6a28.717,28.717,0,0,1,.548,5.569,27.8,27.8,0,0,1-27.8,27.794,25.993,25.993,0,0,1-3.426-.219,26.27,26.27,0,0,1-3.431.219,27.794,27.794,0,0,1-27.8-27.794,28.707,28.707,0,0,1,.548-5.569h-1.776c1.1-14.486,15.292-25.952,32.644-25.952s31.51,11.466,32.644,25.952Z" transform="translate(-586.405 -190.451)" opacity="0.5"/>
    <rect id="Rectangle_42756" data-name="Rectangle 42756" width="58.914" height="7.295" transform="translate(653.654 218.053)"/>
    <path id="Path_229558" data-name="Path 229558" d="M1121.926,385.94v13.132H937.537l-39.112-9.937-3.3-.839V385.94Z" transform="translate(-447.209 -192.842)" fill="#666"/>
    <rect id="Rectangle_42757" data-name="Rectangle 42757" width="325.791" height="12.946" transform="translate(384.979 183.348)" fill="#666"/>
    <path id="Path_229559" data-name="Path 229559" d="M1173.408,333.327h-.038a5.827,5.827,0,0,1,.038-.817Z" transform="translate(-572.952 -168.696)" fill="#a02e2e"/>
    <path id="Path_229560" data-name="Path 229560" d="M1081,333.354h0v0Z" transform="translate(-531.209 -168.724)" fill="#a02e2e"/>
    <rect id="Rectangle_42758" data-name="Rectangle 42758" width="525.855" height="8.221" transform="translate(194.035 177.878)" fill="#333"/>
    <path id="Path_229561" data-name="Path 229561" d="M957.775,358.17v8.221h-9.12v10.194H912.6v9.937H728.213L689.1,376.586H622.864V366.391H431.92V358.17Z" transform="translate(-237.885 -180.292)" fill="#fff" opacity="0.5"/>
    <path id="Path_229562" data-name="Path 229562" d="M1204.8,385.94v13.132H1045.088L1002.66,388.3V385.94Z" transform="translate(-495.807 -192.842)" fill="#666"/>
    <rect id="Rectangle_42759" data-name="Rectangle 42759" width="325.791" height="12.951" transform="translate(443.932 183.342)" fill="#666"/>
    <path id="Path_229563" data-name="Path 229563" d="M1280.964,333.327h-.044a5.1,5.1,0,0,1,.044-.817Z" transform="translate(-621.555 -168.696)" fill="#a02e2e"/>
    <path id="Path_229564" data-name="Path 229564" d="M1188.554,333.354h-.044v-.784C1188.532,332.806,1188.543,333.1,1188.554,333.354Z" transform="translate(-579.794 -168.724)" fill="#a02e2e"/>
    <rect id="Rectangle_42760" data-name="Rectangle 42760" width="496.05" height="8.221" transform="translate(282.799 177.878)" fill="#333"/>
    <path id="Path_229565" data-name="Path 229565" d="M1436.141,385.23l-2.571,2.587,12.9,12.9,2.593-2.582Z" transform="translate(-690.539 -192.521)" fill="#666"/>
    <rect id="Rectangle_42761" data-name="Rectangle 42761" width="7.224" height="24.812" transform="translate(754.739 194.94)" fill="#666"/>
    <rect id="Rectangle_42762" data-name="Rectangle 42762" width="4.319" height="5.925" transform="translate(757.134 201.418)" fill="#333"/>
    <rect id="Rectangle_42763" data-name="Rectangle 42763" width="2.159" height="5.925" transform="translate(759.293 201.418)" fill="#af1d1d"/>
    <rect id="Rectangle_42764" data-name="Rectangle 42764" width="5.876" height="38.191" transform="translate(448.662 192.479)" fill="#666"/>
    <rect id="Rectangle_42765" data-name="Rectangle 42765" width="9.926" height="4.407" transform="translate(446.547 195.778)" fill="#666"/>
    <path id="Path_229566" data-name="Path 229566" d="M902.429,449.934l-4.264-7.394-4.275,7.394Z" transform="translate(-446.653 -218.42)" fill="#666"/>
    <rect id="Rectangle_42766" data-name="Rectangle 42766" width="28.961" height="3.99" transform="translate(450.148 213.597) rotate(-45.01)" fill="#666"/>
    <rect id="Rectangle_42767" data-name="Rectangle 42767" width="3.886" height="9.778" transform="translate(451.134 206.68)" fill="#666"/>
    <path id="Path_229567" data-name="Path 229567" d="M1347.246,377.571c-16.914,0-30.693,11.466-31.822,25.963-.038-.63-.1-1.239-.1-1.853,0-15.374,14.3-27.821,31.926-27.821s31.937,12.447,31.937,27.821c0,.614-.06,1.222-.1,1.853C1377.967,389.037,1364.16,377.571,1347.246,377.571Z" transform="translate(-637.101 -187.383)" fill="#333"/>
    <path id="Path_229568" data-name="Path 229568" d="M1347.332,380.63c16.914,0,30.693,11.466,31.833,25.963H1315.51C1316.612,392.1,1330.418,380.63,1347.332,380.63Z" transform="translate(-637.186 -190.442)"/>
    <path id="Path_229569" data-name="Path 229569" d="M1373.33,415.211a27.794,27.794,0,1,1-8.138-19.678A27.81,27.81,0,0,1,1373.33,415.211Z" transform="translate(-638.181 -193.497)" fill="#333"/>
    <g id="Group_129965" data-name="Group 129965" transform="translate(689.192 203.545)" opacity="0.5">
      <path id="Path_229570" data-name="Path 229570" d="M1335.34,423.164a18.142,18.142,0,1,0,5.308-12.844A18.147,18.147,0,0,0,1335.34,423.164Z" transform="translate(-1335.34 -405)"/>
    </g>
    <path id="Path_229571" data-name="Path 229571" d="M1341.63,426.011a14.705,14.705,0,1,0,14.7-14.711,14.705,14.705,0,0,0-14.7,14.711Z" transform="translate(-648.99 -204.302)" fill="#e2e2e2"/>
    <path id="Path_229572" data-name="Path 229572" d="M1347.77,428.786A11.34,11.34,0,1,0,1359.1,417.44a11.34,11.34,0,0,0-11.334,11.346Z" transform="translate(-651.765 -207.077)"/>
    <path id="Path_229573" data-name="Path 229573" d="M1373.33,415.211a27.794,27.794,0,1,1-8.138-19.678A27.81,27.81,0,0,1,1373.33,415.211Z" transform="translate(-638.181 -193.497)" fill="#fff" opacity="0.3"/>
    <path id="Path_229574" data-name="Path 229574" d="M1327.26,415.211a27.8,27.8,0,1,0,8.139-19.676A27.8,27.8,0,0,0,1327.26,415.211Z" transform="translate(-642.496 -193.497)" fill="#333"/>
    <g id="Group_129966" data-name="Group 129966" transform="translate(694.421 203.545)" opacity="0.5">
      <path id="Path_229575" data-name="Path 229575" d="M1344.88,423.164a18.142,18.142,0,1,0,5.311-12.847,18.148,18.148,0,0,0-5.311,12.847Z" transform="translate(-1344.88 -405)"/>
    </g>
    <path id="Path_229576" data-name="Path 229576" d="M1351.16,426.011a14.705,14.705,0,1,0,14.709-14.711,14.705,14.705,0,0,0-14.709,14.711Z" transform="translate(-653.297 -204.302)" fill="#e2e2e2"/>
    <path id="Path_229577" data-name="Path 229577" d="M1357.3,428.786a11.335,11.335,0,1,0,3.318-8.024A11.34,11.34,0,0,0,1357.3,428.786Z" transform="translate(-656.072 -207.077)"/>
    <path id="Path_229578" data-name="Path 229578" d="M1223.266,377.571c-16.914,0-30.693,11.466-31.822,25.963-.038-.63-.1-1.239-.1-1.853,0-15.374,14.294-27.821,31.926-27.821s31.937,12.447,31.937,27.821c0,.614-.06,1.222-.1,1.853C1253.987,389.037,1240.18,377.571,1223.266,377.571Z" transform="translate(-581.073 -187.383)" fill="#333"/>
    <path id="Path_229579" data-name="Path 229579" d="M1223.352,380.63c16.914,0,30.721,11.466,31.833,25.963H1191.53C1192.632,392.1,1206.438,380.63,1223.352,380.63Z" transform="translate(-581.159 -190.442)"/>
    <path id="Path_229580" data-name="Path 229580" d="M1249.349,415.211a27.788,27.788,0,1,1-8.135-19.678A27.8,27.8,0,0,1,1249.349,415.211Z" transform="translate(-582.157 -193.497)" fill="#333"/>
    <g id="Group_129967" data-name="Group 129967" transform="translate(621.24 203.545)" opacity="0.5">
      <path id="Path_229581" data-name="Path 229581" d="M1211.36,423.164a18.142,18.142,0,1,0,5.308-12.844A18.147,18.147,0,0,0,1211.36,423.164Z" transform="translate(-1211.36 -405)"/>
    </g>
    <path id="Path_229582" data-name="Path 229582" d="M1217.64,426.011a14.705,14.705,0,1,0,14.707-14.711,14.705,14.705,0,0,0-14.707,14.711Z" transform="translate(-592.958 -204.302)" fill="#e2e2e2"/>
    <path id="Path_229583" data-name="Path 229583" d="M1223.79,428.786a11.34,11.34,0,1,0,11.335-11.346,11.34,11.34,0,0,0-11.335,11.346Z" transform="translate(-595.737 -207.077)"/>
    <path id="Path_229584" data-name="Path 229584" d="M1249.349,415.211a27.788,27.788,0,1,1-8.135-19.678A27.8,27.8,0,0,1,1249.349,415.211Z" transform="translate(-582.157 -193.497)" fill="#fff" opacity="0.3"/>
    <path id="Path_229585" data-name="Path 229585" d="M1203.28,415.211a27.8,27.8,0,1,0,27.8-27.821A27.8,27.8,0,0,0,1203.28,415.211Z" transform="translate(-586.469 -193.497)" fill="#333"/>
    <g id="Group_129968" data-name="Group 129968" transform="translate(626.469 203.545)" opacity="0.5">
      <path id="Path_229586" data-name="Path 229586" d="M1220.9,423.164a18.136,18.136,0,1,0,5.3-12.844A18.148,18.148,0,0,0,1220.9,423.164Z" transform="translate(-1220.9 -405)"/>
    </g>
    <path id="Path_229587" data-name="Path 229587" d="M1227.18,426.011a14.705,14.705,0,1,0,14.7-14.711,14.705,14.705,0,0,0-14.7,14.711Z" transform="translate(-597.269 -204.302)" fill="#e2e2e2"/>
    <path id="Path_229588" data-name="Path 229588" d="M1233.32,428.786a11.334,11.334,0,1,0,3.318-8.024,11.34,11.34,0,0,0-3.318,8.024Z" transform="translate(-600.044 -207.077)"/>
    <path id="Path_229589" data-name="Path 229589" d="M785.966,377.571c-16.914,0-30.693,11.466-31.822,25.963-.044-.63-.1-1.239-.1-1.853,0-15.374,14.294-27.821,31.926-27.821S817.9,386.307,817.9,401.681c0,.614-.06,1.222-.11,1.853C816.687,389.037,802.875,377.571,785.966,377.571Z" transform="translate(-383.453 -187.383)" fill="#333"/>
    <path id="Path_229590" data-name="Path 229590" d="M786.052,380.63c16.909,0,30.721,11.466,31.828,25.963H754.23C755.332,392.1,769.138,380.63,786.052,380.63Z" transform="translate(-383.539 -190.442)"/>
    <path id="Path_229591" data-name="Path 229591" d="M812.049,415.211a27.794,27.794,0,1,1-8.137-19.677A27.8,27.8,0,0,1,812.049,415.211Z" transform="translate(-384.538 -193.497)" fill="#333"/>
    <g id="Group_129969" data-name="Group 129969" transform="translate(381.559 203.545)" opacity="0.5">
      <path id="Path_229592" data-name="Path 229592" d="M774.06,423.164a18.142,18.142,0,1,0,5.308-12.844,18.147,18.147,0,0,0-5.308,12.844Z" transform="translate(-774.06 -405)"/>
    </g>
    <path id="Path_229593" data-name="Path 229593" d="M780.34,426.011A14.705,14.705,0,1,0,795.047,411.3a14.705,14.705,0,0,0-14.707,14.711Z" transform="translate(-395.339 -204.302)" fill="#e2e2e2"/>
    <path id="Path_229594" data-name="Path 229594" d="M786.48,428.786a11.334,11.334,0,1,0,3.318-8.024A11.34,11.34,0,0,0,786.48,428.786Z" transform="translate(-398.113 -207.077)"/>
    <path id="Path_229595" data-name="Path 229595" d="M812.049,415.211a27.794,27.794,0,1,1-8.137-19.677A27.8,27.8,0,0,1,812.049,415.211Z" transform="translate(-384.538 -193.497)" fill="#fff" opacity="0.3"/>
    <path id="Path_229596" data-name="Path 229596" d="M766,415.211a27.824,27.824,0,1,1,0,.005Z" transform="translate(-388.858 -193.497)" fill="#333"/>
    <g id="Group_129970" data-name="Group 129970" transform="translate(386.788 203.545)" opacity="0.5">
      <path id="Path_229597" data-name="Path 229597" d="M783.6,423.164a18.136,18.136,0,1,0,5.3-12.844A18.147,18.147,0,0,0,783.6,423.164Z" transform="translate(-783.6 -405)"/>
    </g>
    <path id="Path_229598" data-name="Path 229598" d="M789.88,426.011a14.705,14.705,0,1,0,14.7-14.711,14.705,14.705,0,0,0-14.7,14.711Z" transform="translate(-399.65 -204.302)" fill="#e2e2e2"/>
    <path id="Path_229599" data-name="Path 229599" d="M796,428.786a11.34,11.34,0,1,0,11.334-11.346A11.34,11.34,0,0,0,796,428.786Z" transform="translate(-402.415 -207.077)"/>
    <rect id="Rectangle_42768" data-name="Rectangle 42768" width="480.983" height="160.936" transform="translate(201.468 8.473)" fill="#62616a"/>
    <rect id="Rectangle_42769" data-name="Rectangle 42769" width="480.983" height="160.936" transform="translate(201.468 8.473)" fill="#e2e2e2"/>
    <rect id="Rectangle_42770" data-name="Rectangle 42770" width="480.983" height="160.936" transform="translate(201.468 8.473)"/>
    <path id="Path_229600" data-name="Path 229600" d="M922.695,33.64H434.657c-2.943,0-5.327.444-5.327.976V210.553c0,.548,2.384.976,5.327.976H922.695c2.943,0,5.328-.433,5.328-.976V34.616C928.022,34.084,925.638,33.64,922.695,33.64ZM910.313,194.565H522.325V50.587h388.01Z" transform="translate(-236.714 -33.635)" fill="#e2e2e2"/>
    <path id="Path_229601" data-name="Path 229601" d="M928.022,34.616V210.553c0,.548-2.384.976-5.328.976H434.657c-2.943,0-5.327-.433-5.327-.976V34.616c0-.548,2.384-.976,5.327-.976H922.695C925.638,33.64,928.022,34.084,928.022,34.616Z" transform="translate(-236.714 -33.635)" fill="#fff" opacity="0.5"/>
    <path id="Path_229602" data-name="Path 229602" d="M1239.575,323.612h-.055c0-.28.033-.548.055-.822Z" transform="translate(-602.846 -164.304)" fill="#a02e2e"/>
    <path id="Path_229603" data-name="Path 229603" d="M1143,323.639h0v0Z" transform="translate(-559.228 -164.331)" fill="#a02e2e"/>
    <rect id="Rectangle_42771" data-name="Rectangle 42771" width="17.709" height="174.173" transform="translate(533.704)" fill="#e2e2e2"/>
    <rect id="Rectangle_42772" data-name="Rectangle 42772" width="17.709" height="169.804" transform="translate(361.286 4.368)" fill="#e2e2e2"/>
    <path id="Path_229604" data-name="Path 229604" d="M1409.2,323.612h-.055c0-.28.038-.548.055-.822Z" transform="translate(-679.503 -164.304)" fill="#a02e2e"/>
    <path id="Path_229605" data-name="Path 229605" d="M1312.638,323.639h-.038v-.789C1312.616,323.113,1312.616,323.376,1312.638,323.639Z" transform="translate(-635.871 -164.331)" fill="#a02e2e"/>
    <rect id="Rectangle_42773" data-name="Rectangle 42773" width="480.983" height="160.936" transform="translate(294.44 8.473)" fill="#62616a"/>
    <path id="Path_229606" data-name="Path 229606" d="M1092.335,33.63H604.292c-2.938,0-5.322.444-5.322.976V210.543c0,.548,2.384.97,5.322.97h488.043c2.943,0,5.322-.428,5.322-.97V34.606C1097.657,34.074,1095.278,33.63,1092.335,33.63Zm-12.387,160.936H616.673V50.577h463.275Z" transform="translate(-313.376 -33.63)" fill="#e2e2e2"/>
    <rect id="Rectangle_42774" data-name="Rectangle 42774" width="480.983" height="160.936" transform="translate(294.44 8.473)" fill="#e2e2e2"/>
    <rect id="Rectangle_42775" data-name="Rectangle 42775" width="480.983" height="160.936" transform="translate(294.44 8.473)" fill="#e2e2e2"/>
    <rect id="Rectangle_42776" data-name="Rectangle 42776" width="480.983" height="160.936" transform="translate(294.44 8.473)" fill="#e2e2e2" opacity="0.1"/>
    <rect id="Rectangle_42777" data-name="Rectangle 42777" width="53.368" height="85.502" transform="translate(215.685 10.041)"/>
    <rect id="Rectangle_42778" data-name="Rectangle 42778" width="53.368" height="85.502" transform="translate(204.394 10.041)" fill="#fff"/>
    <rect id="Rectangle_42779" data-name="Rectangle 42779" width="43.803" height="2.105" transform="translate(209.179 17.265)" opacity="0.2"/>
    <rect id="Rectangle_42780" data-name="Rectangle 42780" width="43.803" height="2.105" transform="translate(209.179 27.114)" opacity="0.2"/>
    <rect id="Rectangle_42781" data-name="Rectangle 42781" width="43.803" height="2.105" transform="translate(209.179 36.963)" opacity="0.2"/>
    <rect id="Rectangle_42782" data-name="Rectangle 42782" width="43.803" height="2.105" transform="translate(209.179 46.818)" opacity="0.2"/>
    <rect id="Rectangle_42783" data-name="Rectangle 42783" width="43.803" height="2.105" transform="translate(209.179 56.667)" opacity="0.2"/>
    <rect id="Rectangle_42784" data-name="Rectangle 42784" width="43.803" height="2.105" transform="translate(209.179 66.516)" opacity="0.2"/>
    <rect id="Rectangle_42785" data-name="Rectangle 42785" width="43.803" height="2.105" transform="translate(209.179 76.366)" opacity="0.2"/>
    <rect id="Rectangle_42786" data-name="Rectangle 42786" width="43.803" height="2.105" transform="translate(209.179 86.22)" opacity="0.2"/>
    <rect id="Rectangle_42787" data-name="Rectangle 42787" width="56.925" height="28.117" transform="translate(129.75 23.425)" fill="#662d91"/>
    <rect id="Rectangle_42788" data-name="Rectangle 42788" width="56.925" height="28.117" transform="translate(129.75 23.425)" fill="#fff" opacity="0.5"/>
    <rect id="Rectangle_42789" data-name="Rectangle 42789" width="56.366" height="4.801" transform="translate(232.363 189.097)" fill="#333"/>
    <rect id="Rectangle_42790" data-name="Rectangle 42790" width="29.696" height="10.036" transform="translate(245.693 183.863)" fill="#333"/>
    <rect id="Rectangle_42791" data-name="Rectangle 42791" width="322.508" height="15.933" transform="translate(5.344 193.564)" fill="#666"/>
    <path id="Path_229607" data-name="Path 229607" d="M212.061,143.79v46.04l-9.57,5.1v82.049H87.65V216.352l5.36-22.686,9.537-40.345,1.135-4.763c.471-1.962,8.769-3.645,20.279-4.385h.055c3.924-.247,8.221-.384,12.672-.384Z" transform="translate(-82.306 -83.412)" fill="#662d91"/>
    <path id="Path_229608" data-name="Path 229608" d="M96.376,355.963v33.286h-9.23a9.235,9.235,0,0,1-8.605-6.084,9.646,9.646,0,0,1-.641-3.48V356.565a3.19,3.19,0,0,1,3.2-3.2H93.784A2.592,2.592,0,0,1,96.376,355.963Z" transform="translate(-77.9 -178.123)" fill="#666"/>
    <path id="Path_229609" data-name="Path 229609" d="M93.952,300.021v11.85c0,3.53-1.842,6.369-4.111,6.369H85.72V293.63h4.122C92.111,293.63,93.952,296.491,93.952,300.021Z" transform="translate(-81.434 -151.126)" fill="#fff"/>
    <path id="Path_229610" data-name="Path 229610" d="M93.952,324.75v3.787a3.944,3.944,0,0,1-4.111,3.765H85.72V324.75Z" transform="translate(-81.434 -165.19)" fill="#fbb03b"/>
    <path id="Path_229611" data-name="Path 229611" d="M242,76.37v30.77h-4.582c-2.543,0-4.593,1.381-4.593,3.086v3.1l-78.848.384H153.9l11.017-9.635C171,98.984,189.685,91,206.643,86.247Z" transform="translate(-112.245 -52.945)" fill="#662d91"/>
    <rect id="Rectangle_42792" data-name="Rectangle 42792" width="4.335" height="7.081" transform="translate(319.532 197.932)" fill="#333"/>
    <rect id="Rectangle_42793" data-name="Rectangle 42793" width="1.984" height="7.081" transform="translate(321.883 197.932)" fill="#af1d1d"/>
    <path id="Path_229612" data-name="Path 229612" d="M405.752,246.518v15.933H96.376v1.644h-9.23a9.23,9.23,0,0,1-8.605-6.084,9.646,9.646,0,0,1-.641-3.48V231.4a3.19,3.19,0,0,1,3.2-3.2h2.149v-8.134H82.186V195.457h1.058v-9.564L88.6,163.208l9.542-40.345,1.135-4.763c.471-1.962,8.769-3.645,20.279-4.385l11.017-9.635c6.084-5.086,24.768-13.072,41.726-17.824l35.357-9.866v30.77h-4.577c-2.543,0-4.593,1.381-4.593,3.086v3.1h9.17v46.04l-9.564,5.1v82.049H310.263v-4.467h13.33v-5.234h29.7v5.234h13.341v4.467Z" transform="translate(-77.9 -52.954)" fill="#fff" opacity="0.5"/>
    <path id="Path_229613" data-name="Path 229613" d="M162.065,415.211a27.779,27.779,0,0,1-24.38,27.575,26.31,26.31,0,0,1-3.425.218,27.794,27.794,0,0,1-27.81-27.794,28.3,28.3,0,0,1,.548-5.569,27.832,27.832,0,0,1,27.251-22.253,25.725,25.725,0,0,1,3.4.225,27.81,27.81,0,0,1,23.858,22.033A28.72,28.72,0,0,1,162.065,415.211Z" transform="translate(-90.802 -193.497)" fill="#333"/>
    <g id="Group_129971" data-name="Group 129971" transform="translate(25.305 203.545)" opacity="0.5">
      <path id="Path_229614" data-name="Path 229614" d="M124.07,423.164a18.142,18.142,0,1,0,5.308-12.844A18.147,18.147,0,0,0,124.07,423.164Z" transform="translate(-124.07 -405)"/>
    </g>
    <path id="Path_229615" data-name="Path 229615" d="M130.35,426.011A14.705,14.705,0,1,0,145.057,411.3a14.705,14.705,0,0,0-14.707,14.711Z" transform="translate(-101.603 -204.302)" fill="#e2e2e2"/>
    <path id="Path_229616" data-name="Path 229616" d="M136.5,428.786a11.34,11.34,0,1,0,11.335-11.346A11.34,11.34,0,0,0,136.5,428.786Z" transform="translate(-104.382 -207.077)"/>
    <path id="Path_229617" data-name="Path 229617" d="M162.065,415.211a27.779,27.779,0,0,1-24.38,27.575,26.31,26.31,0,0,1-3.425.218,27.794,27.794,0,0,1-27.81-27.794,28.3,28.3,0,0,1,.548-5.569,27.832,27.832,0,0,1,27.251-22.253,25.725,25.725,0,0,1,3.4.225,27.81,27.81,0,0,1,23.858,22.033A28.72,28.72,0,0,1,162.065,415.211Z" transform="translate(-90.802 -193.497)" fill="#fff" opacity="0.3"/>
    <path id="Path_229618" data-name="Path 229618" d="M174.587,415.211A27.8,27.8,0,0,1,146.783,443a25.9,25.9,0,0,1-3.42-.219A27.783,27.783,0,0,1,119,415.211a28.3,28.3,0,0,1,.548-5.563,27.81,27.81,0,0,1,23.787-22.033,26.37,26.37,0,0,1,3.442-.225,27.843,27.843,0,0,1,27.257,22.258,28.72,28.72,0,0,1,.554,5.563Z" transform="translate(-96.473 -193.497)" fill="#333"/>
    <g id="Group_129972" data-name="Group 129972" transform="translate(32.157 203.545)" opacity="0.5">
      <path id="Path_229619" data-name="Path 229619" d="M136.57,423.164a18.142,18.142,0,1,0,5.308-12.844A18.147,18.147,0,0,0,136.57,423.164Z" transform="translate(-136.57 -405)"/>
    </g>
    <path id="Path_229620" data-name="Path 229620" d="M142.86,426.011a14.705,14.705,0,1,0,14.7-14.711,14.705,14.705,0,0,0-14.7,14.711Z" transform="translate(-107.256 -204.302)" fill="#e2e2e2"/>
    <path id="Path_229621" data-name="Path 229621" d="M162.84,435.039a3.754,3.754,0,1,0,3.749-3.749A3.754,3.754,0,0,0,162.84,435.039Z" transform="translate(-116.285 -213.336)"/>
    <path id="Path_229622" data-name="Path 229622" d="M169.514,406.6H104.22c1.1-14.486,15.292-25.952,32.65-25.952S168.374,392.111,169.514,406.6Z" transform="translate(-89.794 -190.451)"/>
    <path id="Path_229623" data-name="Path 229623" d="M167.341,406.6a28.72,28.72,0,0,1,.548,5.569,27.8,27.8,0,0,1-27.8,27.794,25.907,25.907,0,0,1-3.42-.219,26.307,26.307,0,0,1-3.431.219,27.794,27.794,0,0,1-27.81-27.794,28.3,28.3,0,0,1,.548-5.569H104.19c1.1-14.486,15.292-25.952,32.65-25.952s31.5,11.466,32.644,25.952Z" transform="translate(-89.781 -190.451)" opacity="0.5"/>
    <path id="Path_229624" data-name="Path 229624" d="M588.919,415.211a27.772,27.772,0,0,1-24.374,27.574,26.264,26.264,0,0,1-3.431.219,27.794,27.794,0,0,1-27.8-27.794,28.721,28.721,0,0,1,.548-5.569,27.838,27.838,0,0,1,27.235-22.252,25.807,25.807,0,0,1,3.409.225,27.8,27.8,0,0,1,23.864,22.033A28.716,28.716,0,0,1,588.919,415.211Z" transform="translate(-283.704 -193.497)" fill="#333"/>
    <g id="Group_129973" data-name="Group 129973" transform="translate(259.264 203.545)" opacity="0.5">
      <path id="Path_229625" data-name="Path 229625" d="M550.93,423.164A18.147,18.147,0,1,0,569.055,405a18.147,18.147,0,0,0-18.125,18.164Z" transform="translate(-550.93 -405)"/>
    </g>
    <path id="Path_229626" data-name="Path 229626" d="M557.21,426.011A14.705,14.705,0,1,0,571.893,411.3a14.705,14.705,0,0,0-14.683,14.711Z" transform="translate(-294.504 -204.302)" fill="#e2e2e2"/>
    <path id="Path_229627" data-name="Path 229627" d="M563.35,428.786a11.34,11.34,0,1,0,11.318-11.346A11.34,11.34,0,0,0,563.35,428.786Z" transform="translate(-297.279 -207.077)"/>
    <path id="Path_229628" data-name="Path 229628" d="M588.919,415.211a27.772,27.772,0,0,1-24.374,27.574,26.264,26.264,0,0,1-3.431.219,27.794,27.794,0,0,1-27.8-27.794,28.721,28.721,0,0,1,.548-5.569,27.838,27.838,0,0,1,27.235-22.252,25.807,25.807,0,0,1,3.409.225,27.8,27.8,0,0,1,23.864,22.033A28.716,28.716,0,0,1,588.919,415.211Z" transform="translate(-283.704 -193.497)" fill="#fff" opacity="0.3"/>
    <path id="Path_229629" data-name="Path 229629" d="M601.415,415.211A27.8,27.8,0,0,1,573.616,443a25.987,25.987,0,0,1-3.426-.219,27.788,27.788,0,0,1-24.39-27.574,28.726,28.726,0,0,1,.548-5.569,27.81,27.81,0,0,1,23.809-22.028,26.24,26.24,0,0,1,3.442-.225,27.838,27.838,0,0,1,27.262,22.258A28.716,28.716,0,0,1,601.415,415.211Z" transform="translate(-289.348 -193.497)" fill="#333"/>
    <g id="Group_129974" data-name="Group 129974" transform="translate(266.115 203.545)" opacity="0.5">
      <path id="Path_229630" data-name="Path 229630" d="M563.43,423.164a18.137,18.137,0,1,0,5.3-12.844,18.147,18.147,0,0,0-5.3,12.844Z" transform="translate(-563.43 -405)"/>
    </g>
    <path id="Path_229631" data-name="Path 229631" d="M569.71,426.011a14.705,14.705,0,1,0,14.7-14.711,14.705,14.705,0,0,0-14.7,14.711Z" transform="translate(-300.153 -204.302)" fill="#e2e2e2"/>
    <path id="Path_229632" data-name="Path 229632" d="M574.24,428.058a12.222,12.222,0,1,0,12.217-12.228A12.222,12.222,0,0,0,574.24,428.058Z" transform="translate(-302.2 -206.349)"/>
    <path id="Path_229633" data-name="Path 229633" d="M596.369,406.6H531.08c1.1-14.486,15.292-25.952,32.644-25.952S595.234,392.111,596.369,406.6Z" transform="translate(-282.696 -190.451)"/>
    <path id="Path_229634" data-name="Path 229634" d="M594.2,406.6a28.716,28.716,0,0,1,.548,5.569,27.8,27.8,0,0,1-27.8,27.794,25.99,25.99,0,0,1-3.426-.219,26.274,26.274,0,0,1-3.431.219,27.794,27.794,0,0,1-27.8-27.794,28.721,28.721,0,0,1,.548-5.569H531.06c1.1-14.486,15.292-25.952,32.644-25.952s31.521,11.461,32.655,25.952Z" transform="translate(-282.687 -190.451)" opacity="0.5"/>
    <path id="Path_229635" data-name="Path 229635" d="M149.015,353.37v35.878H95.96c-5.223,0-9.707-2.516-11.51-6.084v-28.5a4.834,4.834,0,0,1,3.409-1.272Z" transform="translate(-80.86 -178.123)" fill="#666"/>
    <path id="Path_229636" data-name="Path 229636" d="M149.015,353.37v35.878H95.96c-5.223,0-9.707-2.516-11.51-6.084v-28.5a4.834,4.834,0,0,1,3.409-1.272Z" transform="translate(-80.86 -178.123)" fill="#fff" opacity="0.5"/>
    <rect id="Rectangle_42794" data-name="Rectangle 42794" width="58.914" height="7.295" transform="translate(50.068 218.053)"/>
    <rect id="Rectangle_42795" data-name="Rectangle 42795" width="58.914" height="7.295" transform="translate(281.807 218.053)"/>
    <path id="Path_229637" data-name="Path 229637" d="M3.458,0H27.026a3.458,3.458,0,0,1,3.458,3.458V27.333a3.458,3.458,0,0,1-3.458,3.458H3.458A3.458,3.458,0,0,1,0,27.333V3.453A3.453,3.453,0,0,1,3.458,0Z" transform="translate(204.636 193.559) rotate(180)" fill="#666"/>
    <path id="Path_229638" data-name="Path 229638" d="M396.78,333.2l1.206-1.195,13.39,13.543,13.39-13.543,1.206,1.195-13.406,13.554,13.406,13.549-1.206,1.195-13.39-13.538L397.986,361.5l-1.206-1.195,13.4-13.549Z" transform="translate(-222.005 -168.47)" opacity="0.5"/>
    <path id="Path_229639" data-name="Path 229639" d="M269.78,424.126,490.3,428.314l.11-4.522L269.9,419.61Z" transform="translate(-164.612 -208.058)" fill="#333"/>
    <rect id="Rectangle_42796" data-name="Rectangle 42796" width="56.36" height="4.801" transform="translate(289.283 189.092)" fill="#333"/>
    <path id="Path_229640" data-name="Path 229640" d="M588.328,374.314V369.08H515.07v5.234H501.85v4.8H615.13v-4.8Z" transform="translate(-269.487 -185.223)" fill="#333"/>
    <path id="Path_229641" data-name="Path 229641" d="M588.328,374.314V369.08H515.07v5.234H501.85v4.8H615.13v-4.8Z" transform="translate(-269.487 -185.223)" fill="#fff" opacity="0.5"/>
    <rect id="Rectangle_42797" data-name="Rectangle 42797" width="29.696" height="10.036" transform="translate(302.612 183.857)" fill="#333"/>
    <rect id="Rectangle_42798" data-name="Rectangle 42798" width="322.514" height="15.933" transform="translate(62.263 193.564)" fill="#666"/>
    <path id="Path_229642" data-name="Path 229642" d="M191.5,276.976H306.325V194.927l9.57-5.1V143.79H240.554c-17.616,0-32.4,2.138-33.033,4.768l-1.129,4.763-9.537,40.351L191.5,216.357Z" transform="translate(-129.237 -83.412)" fill="#662d91"/>
    <path id="Path_229643" data-name="Path 229643" d="M181.76,379.678V356.56a3.19,3.19,0,0,1,3.19-3.19h12.688a2.6,2.6,0,0,1,2.6,2.592v33.286H191A9.415,9.415,0,0,1,181.76,379.678Z" transform="translate(-124.835 -178.123)" fill="#666"/>
    <path id="Path_229644" data-name="Path 229644" d="M805.2,339.322h-.055c.027-.28.038-.548.055-.822Z" transform="translate(-406.55 -171.403)" fill="#a02e2e"/>
    <path id="Path_229645" data-name="Path 229645" d="M712.8,339.349h-.044v-.789C712.776,338.8,712.776,339.075,712.8,339.349Z" transform="translate(-364.799 -171.43)" fill="#a02e2e"/>
    <rect id="Rectangle_42799" data-name="Rectangle 42799" width="44.395" height="40.542" transform="translate(98.229 70.737)" fill="#29abe2"/>
    <rect id="Rectangle_42800" data-name="Rectangle 42800" width="31.565" height="32.672" transform="translate(106.412 76.305)" fill="#fff" opacity="0.5"/>
    <path id="Path_229646" data-name="Path 229646" d="M190.667,300v11.85c0,3.53-1.842,6.369-4.122,6.369h-10.31a2.45,2.45,0,0,1-2.455-2.445V296.045a2.455,2.455,0,0,1,2.455-2.455h10.31C188.825,293.612,190.667,296.473,190.667,300Z" transform="translate(-121.229 -151.108)" fill="#f2f2f2"/>
    <path id="Path_229647" data-name="Path 229647" d="M190.667,324.75v3.787a3.948,3.948,0,0,1-4.122,3.765h-10.31a2.45,2.45,0,0,1-2.455-2.444V324.75Z" transform="translate(-121.229 -165.19)" fill="#fbb03b"/>
    <path id="Path_229648" data-name="Path 229648" d="M184.238,293.612v24.609h-8a2.45,2.45,0,0,1-2.455-2.445V296.045a2.455,2.455,0,0,1,2.455-2.455Z" transform="translate(-121.229 -151.108)" fill="#fff" opacity="0.5"/>
    <path id="Path_229649" data-name="Path 229649" d="M95.672,296.1v19.731a2.45,2.45,0,0,1-2.455,2.445h-8V293.67h8A2.45,2.45,0,0,1,95.672,296.1Z" transform="translate(-81.208 -151.144)" fill="#f2f2f2"/>
    <path id="Path_229650" data-name="Path 229650" d="M95.672,324.75v5.108a2.45,2.45,0,0,1-2.455,2.444h-8V324.75Z" transform="translate(-81.208 -165.19)" fill="#fbb03b"/>
    <path id="Path_229651" data-name="Path 229651" d="M95.672,296.1v19.731a2.45,2.45,0,0,1-2.455,2.445h-8V293.67h8A2.45,2.45,0,0,1,95.672,296.1Z" transform="translate(-81.208 -151.144)" fill="#fff" opacity="0.5"/>
    <path id="Path_229652" data-name="Path 229652" d="M268.775,104.084c6.078-5.092,24.752-13.072,41.743-17.818L345.88,76.4v30.748h-4.588c-2.538,0-4.587,1.392-4.587,3.1v3.091l-78.925.378Z" transform="translate(-159.189 -52.958)" fill="#662d91"/>
    <g id="Group_129975" data-name="Group 129975" transform="translate(91.509 65.426)" opacity="0.5">
      <path id="Path_229653" data-name="Path 229653" d="M244.86,263.479V153h56.618V270.911H277.707Zm54.5-108.358H246.976v106.67l30.962,7h21.419Z" transform="translate(-244.86 -153)" fill="#2f3031"/>
    </g>
    <path id="Path_229654" data-name="Path 229654" d="M225.485,162.69v40.542H209.53l2.17-9.208,1.332-5.6,4.111-17.429,1.962-8.3Z" transform="translate(-137.385 -91.953)" fill="#29abe2"/>
    <g id="Group_129976" data-name="Group 129976" transform="translate(132.852 117.67)" opacity="0.5">
      <path id="Path_229655" data-name="Path 229655" d="M320.29,251.707V248.32h10.83v3.387a2.85,2.85,0,0,1-2.85,2.85h-5.13A2.85,2.85,0,0,1,320.29,251.707ZM329,250.436h-6.577v2.006H329Z" transform="translate(-320.29 -248.32)"/>
    </g>
    <path id="Path_229656" data-name="Path 229656" d="M488.763,404.887v9.367a12.173,12.173,0,0,1-12.168,12.157h-54.76a12.173,12.173,0,0,1-12.2-12.157v-9.367a12.173,12.173,0,0,1,12.2-12.157h54.771A12.173,12.173,0,0,1,488.763,404.887Z" transform="translate(-227.816 -195.91)" fill="#e2e2e2"/>
    <path id="Path_229657" data-name="Path 229657" d="M488.763,404.887v9.367a12.173,12.173,0,0,1-12.168,12.157h-54.76a12.173,12.173,0,0,1-12.2-12.157v-9.367a12.173,12.173,0,0,1,12.2-12.157h54.771A12.173,12.173,0,0,1,488.763,404.887Z" transform="translate(-227.816 -195.91)" fill="#fff" opacity="0.5"/>
    <rect id="Rectangle_42801" data-name="Rectangle 42801" width="4.335" height="7.081" transform="translate(376.451 197.932)" fill="#333"/>
    <rect id="Rectangle_42802" data-name="Rectangle 42802" width="1.984" height="7.081" transform="translate(378.803 197.932)" fill="#af1d1d"/>
    <path id="Path_229658" data-name="Path 229658" d="M673.676,377.571c-16.914,0-30.72,11.466-31.822,25.963-.038-.63-.1-1.239-.1-1.853,0-15.374,14.3-27.821,31.926-27.821s31.937,12.447,31.937,27.821c0,.614-.06,1.222-.1,1.853C704.37,389.037,690.563,377.571,673.676,377.571Z" transform="translate(-332.709 -187.383)" fill="#333"/>
    <path id="Path_229659" data-name="Path 229659" d="M673.74,380.63c16.914,0,30.726,11.466,31.833,25.963H641.89C642.992,392.1,656.8,380.63,673.74,380.63Z" transform="translate(-332.772 -190.442)"/>
    <path id="Path_229660" data-name="Path 229660" d="M699.71,415.211a27.794,27.794,0,1,1-8.135-19.675A27.81,27.81,0,0,1,699.71,415.211Z" transform="translate(-333.766 -193.497)" fill="#333"/>
    <g id="Group_129977" data-name="Group 129977" transform="translate(319.992 203.545)" opacity="0.5">
      <path id="Path_229661" data-name="Path 229661" d="M661.73,423.164a18.137,18.137,0,1,0,5.3-12.844A18.147,18.147,0,0,0,661.73,423.164Z" transform="translate(-661.73 -405)"/>
    </g>
    <path id="Path_229662" data-name="Path 229662" d="M668,426.011A14.705,14.705,0,1,0,682.7,411.3,14.705,14.705,0,0,0,668,426.011Z" transform="translate(-344.571 -204.302)" fill="#e2e2e2"/>
    <path id="Path_229663" data-name="Path 229663" d="M674.15,428.786a11.34,11.34,0,1,0,11.335-11.346A11.34,11.34,0,0,0,674.15,428.786Z" transform="translate(-347.35 -207.077)"/>
    <path id="Path_229664" data-name="Path 229664" d="M699.71,415.211a27.794,27.794,0,1,1-8.135-19.675A27.81,27.81,0,0,1,699.71,415.211Z" transform="translate(-333.766 -193.497)" fill="#fff" opacity="0.3"/>
    <path id="Path_229665" data-name="Path 229665" d="M653.64,415.206a27.81,27.81,0,1,0,27.81-27.816A27.809,27.809,0,0,0,653.64,415.206Z" transform="translate(-338.082 -193.497)" fill="#333"/>
    <g id="Group_129978" data-name="Group 129978" transform="translate(325.216 203.545)" opacity="0.5">
      <path id="Path_229666" data-name="Path 229666" d="M671.26,423.164a18.142,18.142,0,1,0,5.308-12.844,18.147,18.147,0,0,0-5.308,12.844Z" transform="translate(-671.26 -405)"/>
    </g>
    <path id="Path_229667" data-name="Path 229667" d="M677.54,426.011A14.705,14.705,0,1,0,692.247,411.3a14.705,14.705,0,0,0-14.707,14.711Z" transform="translate(-348.882 -204.302)" fill="#e2e2e2"/>
    <path id="Path_229668" data-name="Path 229668" d="M683.69,428.786a11.34,11.34,0,1,0,11.335-11.346,11.34,11.34,0,0,0-11.335,11.346Z" transform="translate(-351.662 -207.077)"/>
    <path id="Path_229669" data-name="Path 229669" d="M246.54,377.571c-16.963,0-30.808,11.466-31.915,25.963-.038-.63-.1-1.239-.1-1.853,0-15.374,14.338-27.821,32.02-27.821s32.025,12.447,32.025,27.821c0,.614-.066,1.222-.11,1.853C277.348,389.037,263.5,377.571,246.54,377.571Z" transform="translate(-139.64 -187.383)" fill="#333"/>
    <path id="Path_229670" data-name="Path 229670" d="M246.625,380.63c16.963,0,30.808,11.466,31.915,25.963H214.71C215.817,392.1,229.667,380.63,246.625,380.63Z" transform="translate(-139.726 -190.442)"/>
    <path id="Path_229671" data-name="Path 229671" d="M272.77,415.221a27.794,27.794,0,1,1-8.138-19.678A27.81,27.81,0,0,1,272.77,415.221Z" transform="translate(-140.828 -193.502)" fill="#333"/>
    <g id="Group_129979" data-name="Group 129979" transform="translate(85.99 203.545)" opacity="0.5">
      <path id="Path_229672" data-name="Path 229672" d="M234.79,423.169a18.136,18.136,0,1,0,5.3-12.848A18.147,18.147,0,0,0,234.79,423.169Z" transform="translate(-234.79 -405)"/>
    </g>
    <path id="Path_229673" data-name="Path 229673" d="M241.07,426.021a14.694,14.694,0,1,0,4.3-10.4A14.705,14.705,0,0,0,241.07,426.021Z" transform="translate(-151.638 -204.307)" fill="#e2e2e2"/>
    <path id="Path_229674" data-name="Path 229674" d="M247.21,428.8a11.34,11.34,0,1,0,11.335-11.346A11.34,11.34,0,0,0,247.21,428.8Z" transform="translate(-154.413 -207.081)"/>
    <path id="Path_229675" data-name="Path 229675" d="M272.77,415.221a27.794,27.794,0,1,1-8.138-19.678A27.81,27.81,0,0,1,272.77,415.221Z" transform="translate(-140.828 -193.502)" fill="#fff" opacity="0.3"/>
    <path id="Path_229676" data-name="Path 229676" d="M226.79,415.206A27.81,27.81,0,1,0,254.6,387.39a27.809,27.809,0,0,0-27.81,27.816Z" transform="translate(-145.185 -193.497)" fill="#333"/>
    <g id="Group_129980" data-name="Group 129980" transform="translate(91.263 203.545)" opacity="0.5">
      <path id="Path_229677" data-name="Path 229677" d="M244.41,423.164a18.142,18.142,0,1,0,5.308-12.844A18.147,18.147,0,0,0,244.41,423.164Z" transform="translate(-244.41 -405)"/>
    </g>
    <path id="Path_229678" data-name="Path 229678" d="M250.7,426.011A14.705,14.705,0,1,0,265.4,411.3a14.705,14.705,0,0,0-14.7,14.711Z" transform="translate(-155.99 -204.302)" fill="#e2e2e2"/>
    <path id="Path_229679" data-name="Path 229679" d="M270.68,435.039a3.754,3.754,0,1,0,3.749-3.749,3.755,3.755,0,0,0-3.749,3.749Z" transform="translate(-165.019 -213.336)"/>
    <g id="Group_129984" data-name="Group 129984" transform="translate(98.229 70.737)" opacity="0.5">
      <g id="Group_129981" data-name="Group 129981" transform="translate(21.699)">
        <path id="Path_229680" data-name="Path 229680" d="M319.406,162.69V185.4l-22.7-22.707Z" transform="translate(-296.71 -162.69)" fill="#fff"/>
      </g>
      <g id="Group_129982" data-name="Group 129982" transform="translate(0 19.633)">
        <path id="Path_229681" data-name="Path 229681" d="M278.03,219.42H257.12V198.51Z" transform="translate(-257.12 -198.51)" fill="#fff"/>
      </g>
      <g id="Group_129983" data-name="Group 129983">
        <path id="Path_229682" data-name="Path 229682" d="M301.515,203.035v.2h-5.47L257.12,164.29v-1.6h4.072Z" transform="translate(-257.12 -162.69)" fill="#fff"/>
      </g>
    </g>
    <g id="Group_129987" data-name="Group 129987" transform="translate(74.316 70.737)" opacity="0.5">
      <g id="Group_129985" data-name="Group 129985" transform="translate(5.443)">
        <path id="Path_229683" data-name="Path 229683" d="M231.762,162.69v16.662l-8.342-8.358,1.962-8.3Z" transform="translate(-223.42 -162.69)" fill="#fff"/>
      </g>
      <g id="Group_129986" data-name="Group 129986" transform="translate(0 25.733)">
        <path id="Path_229684" data-name="Path 229684" d="M227.275,222.1v2.346H222.7l-9.208-9.208,1.332-5.6Z" transform="translate(-213.49 -209.64)" fill="#fff"/>
      </g>
    </g>
    <path id="Path_229685" data-name="Path 229685" d="M428.51,404.883v9.361a12.179,12.179,0,0,0,12.2,12.162h54.771a12.168,12.168,0,0,0,12.162-12.162v-9.372a12.168,12.168,0,0,0-12.162-12.162H440.711a12.179,12.179,0,0,0-12.2,12.173Z" transform="translate(-236.344 -195.901)" fill="#e2e2e2"/>
    <g id="Group_129988" data-name="Group 129988" transform="translate(207.047 196.82)">
      <rect id="Rectangle_42803" data-name="Rectangle 42803" width="0.915" height="33.697" transform="translate(50.868)" fill="#363535"/>
      <rect id="Rectangle_42804" data-name="Rectangle 42804" width="0.882" height="33.697" transform="translate(40.729)" fill="#363535"/>
      <rect id="Rectangle_42805" data-name="Rectangle 42805" width="0.915" height="33.697" transform="translate(30.518)" fill="#363535"/>
      <rect id="Rectangle_42806" data-name="Rectangle 42806" width="0.877" height="33.697" transform="translate(20.384)" fill="#363535"/>
      <rect id="Rectangle_42807" data-name="Rectangle 42807" width="0.877" height="33.697" transform="translate(10.211)" fill="#363535"/>
      <rect id="Rectangle_42808" data-name="Rectangle 42808" width="0.915" height="33.697" fill="#363535"/>
    </g>
    <g id="Group_129989" data-name="Group 129989" transform="translate(207.047 196.82)">
      <rect id="Rectangle_42809" data-name="Rectangle 42809" width="0.915" height="33.697" transform="translate(50.868)" fill="#363535"/>
      <rect id="Rectangle_42810" data-name="Rectangle 42810" width="0.882" height="33.697" transform="translate(40.729)" fill="#363535"/>
      <rect id="Rectangle_42811" data-name="Rectangle 42811" width="0.915" height="33.697" transform="translate(30.518)" fill="#363535"/>
      <rect id="Rectangle_42812" data-name="Rectangle 42812" width="0.877" height="33.697" transform="translate(20.384)" fill="#363535"/>
      <rect id="Rectangle_42813" data-name="Rectangle 42813" width="0.877" height="33.697" transform="translate(10.211)" fill="#363535"/>
      <rect id="Rectangle_42814" data-name="Rectangle 42814" width="0.915" height="33.697" fill="#363535"/>
    </g>
    <path id="Path_229686" data-name="Path 229686" d="M440,402.3a2.867,2.867,0,1,0,2.867-2.861A2.867,2.867,0,0,0,440,402.3Z" transform="translate(-241.536 -198.943)"/>
    <path id="Path_229687" data-name="Path 229687" d="M384.23,151.482V149.29H374v9.159H371.86v45.809H374v40.657a2.969,2.969,0,0,0,2.592,3.184h.06a2.964,2.964,0,0,0,2.664-3.184V204.231h2.521V158.449h-2.521v-6.966Z" transform="translate(-210.743 -85.898)" fill="#2f3031"/>
    <path id="Path_229688" data-name="Path 229688" d="M375,146.7v6.939h2.521v45.815H375V240.1a2.964,2.964,0,0,1-2.664,3.184h-.06a2.969,2.969,0,0,1-2.593-3.184V199.453H367.55V153.638h2.138V144.49h10.227v2.192Z" transform="translate(-208.795 -83.729)" fill="#e2e2e2"/>
    <path id="Path_229689" data-name="Path 229689" d="M372.28,144.49v98.8a2.969,2.969,0,0,1-2.592-3.184V199.453H367.55V153.638h2.138V144.49Z" transform="translate(-208.795 -83.729)" fill="#fff"/>
    <path id="Path_229690" data-name="Path 229690" d="M163.1,161.18l-1.754,7.416-7.788,32.929H101.14l2.011-8.517,7.531-31.828Z" transform="translate(-88.402 -91.271)" fill="#29abe2"/>
    <path id="Path_229691" data-name="Path 229691" d="M174.389,174.71,166.6,207.639H130.01l.258-1.1,7.514-31.828Z" transform="translate(-101.449 -97.385)" fill="#fff" opacity="0.5"/>
    <g id="Group_129994" data-name="Group 129994" transform="translate(14.749 69.909)" opacity="0.5">
      <g id="Group_129990" data-name="Group 129990" transform="translate(29.361)">
        <path id="Path_229692" data-name="Path 229692" d="M188.964,161.18l-9.542,40.345H158.38l22.784-40.345Z" transform="translate(-158.38 -161.18)" fill="#fff"/>
      </g>
      <g id="Group_129991" data-name="Group 129991">
        <path id="Path_229693" data-name="Path 229693" d="M122.782,161.18,104.81,193.008l7.531-31.828Z" transform="translate(-104.81 -161.18)" fill="#fff"/>
      </g>
      <g id="Group_129992" data-name="Group 129992" transform="translate(0.554)">
        <path id="Path_229694" data-name="Path 229694" d="M134.507,161.18l-22.8,40.345H105.82L128.6,161.18Z" transform="translate(-105.82 -161.18)" fill="#fff"/>
      </g>
      <g id="Group_129993" data-name="Group 129993" transform="translate(14.788)">
        <path id="Path_229695" data-name="Path 229695" d="M160.472,161.18l-22.8,40.345H131.79l22.784-40.345Z" transform="translate(-131.79 -161.18)" fill="#fff"/>
      </g>
    </g>
    <rect id="Rectangle_42815" data-name="Rectangle 42815" width="31.455" height="2.724" transform="translate(17.966 144.548)" fill="#2f3031"/>
    <rect id="Rectangle_42816" data-name="Rectangle 42816" width="31.455" height="2.724" transform="translate(17.966 149.848)" fill="#2f3031"/>
    <rect id="Rectangle_42817" data-name="Rectangle 42817" width="31.455" height="2.724" transform="translate(17.966 155.148)" fill="#2f3031"/>
    <rect id="Rectangle_42818" data-name="Rectangle 42818" width="31.455" height="2.724" transform="translate(17.966 160.448)" fill="#2f3031"/>
    <rect id="Rectangle_42819" data-name="Rectangle 42819" width="31.455" height="2.724" transform="translate(17.966 165.748)" fill="#2f3031"/>
    <rect id="Rectangle_42820" data-name="Rectangle 42820" width="31.455" height="2.724" transform="translate(17.966 144.548)" fill="#2f3031"/>
    <rect id="Rectangle_42821" data-name="Rectangle 42821" width="31.455" height="2.724" transform="translate(17.966 149.848)" fill="#2f3031"/>
    <rect id="Rectangle_42822" data-name="Rectangle 42822" width="31.455" height="2.724" transform="translate(17.966 155.148)" fill="#2f3031"/>
    <rect id="Rectangle_42823" data-name="Rectangle 42823" width="31.455" height="2.724" transform="translate(17.966 160.448)" fill="#2f3031"/>
    <rect id="Rectangle_42824" data-name="Rectangle 42824" width="31.455" height="2.724" transform="translate(17.966 165.748)" fill="#2f3031"/>
  </g>
</svg>
