<svg id="t-a6" xmlns="http://www.w3.org/2000/svg" width="700.773" height="255.601" viewBox="0 0 700.773 255.601">
  <g id="Layer_1" data-name="Layer 1" transform="translate(0)">
    <rect id="Rectangle_41495" data-name="Rectangle 41495" width="288.117" height="164.7" transform="translate(255.339 8.673)" fill="#62616a"/>
    <rect id="Rectangle_41496" data-name="Rectangle 41496" width="288.117" height="164.7" transform="translate(255.339 8.673)" fill="#e2e2e2"/>
    <rect id="Rectangle_41497" data-name="Rectangle 41497" width="288.117" height="164.7" transform="translate(255.339 8.673)"/>
    <path id="Path_204524" data-name="Path 204524" d="M959.8,62H664.481c-3.008,0-5.451.458-5.451,1V243.011c0,.559,2.443,1,5.451,1H959.8c3.014,0,5.451-.44,5.451-1V62.975C965.271,62.434,962.834,62,959.8,62ZM947.153,226.658H754.181V79.322H947.153Z" transform="translate(-412.756 -61.97)" fill="#e2e2e2"/>
    <path id="Path_204525" data-name="Path 204525" d="M965.271,62.959V243c0,.559-2.437,1-5.451,1H664.481c-3.008,0-5.451-.44-5.451-1V62.959c0-.541,2.443-1,5.451-1H959.8C962.834,61.984,965.271,62.418,965.271,62.959Z" transform="translate(-412.756 -61.954)" fill="#fff" opacity="0.5"/>
    <path id="Path_204526" data-name="Path 204526" d="M1423.583,335.654h-.053c0-.291.036-.559.053-.844Z" transform="translate(-722.81 -172.613)" fill="#a02e2e"/>
    <path id="Path_204527" data-name="Path 204527" d="M1332.462,335.674h-.042v-.814C1332.438,335.133,1332.438,335.4,1332.462,335.674Z" transform="translate(-685.86 -172.633)" fill="#a02e2e"/>
    <rect id="Rectangle_41498" data-name="Rectangle 41498" width="18.124" height="178.247" transform="translate(595.338)" fill="#e2e2e2"/>
    <rect id="Rectangle_41499" data-name="Rectangle 41499" width="18.124" height="173.777" transform="translate(418.892 4.47)" fill="#e2e2e2"/>
    <path id="Path_204528" data-name="Path 204528" d="M1240.274,335.654h-.053c0-.291.036-.559.053-.844Z" transform="translate(-648.466 -172.613)" fill="#a02e2e"/>
    <path id="Path_204529" data-name="Path 204529" d="M1149.152,335.674h-.042v-.814C1149.128,335.133,1149.128,335.4,1149.152,335.674Z" transform="translate(-611.515 -172.633)" fill="#a02e2e"/>
    <rect id="Rectangle_41500" data-name="Rectangle 41500" width="288.117" height="164.7" transform="translate(350.485 8.673)" fill="#62616a"/>
    <path id="Path_204530" data-name="Path 204530" d="M1119.89,62H824.551c-3.008,0-5.451.458-5.451,1V243.017c0,.553,2.443.993,5.451.993H1119.89c3.014,0,5.445-.44,5.445-.993V62.975C1125.335,62.428,1122.9,62,1119.89,62Zm-12.673,164.658H837.224V79.316h269.992Z" transform="translate(-477.675 -61.97)" fill="#e2e2e2"/>
    <rect id="Rectangle_41501" data-name="Rectangle 41501" width="288.117" height="164.7" transform="translate(350.485 8.673)" fill="#e2e2e2"/>
    <rect id="Rectangle_41502" data-name="Rectangle 41502" width="288.117" height="164.7" transform="translate(350.485 8.673)" fill="#e2e2e2"/>
    <rect id="Rectangle_41503" data-name="Rectangle 41503" width="288.117" height="164.7" transform="translate(350.485 8.673)" fill="#e2e2e2" opacity="0.1"/>
    <rect id="Rectangle_41504" data-name="Rectangle 41504" width="54.617" height="87.501" transform="translate(269.885 10.278)"/>
    <rect id="Rectangle_41505" data-name="Rectangle 41505" width="54.617" height="87.501" transform="translate(258.335 10.278)" fill="#fff"/>
    <rect id="Rectangle_41506" data-name="Rectangle 41506" width="44.826" height="2.152" transform="translate(263.228 17.673)" opacity="0.2"/>
    <rect id="Rectangle_41507" data-name="Rectangle 41507" width="44.826" height="2.152" transform="translate(263.228 27.748)" opacity="0.2"/>
    <rect id="Rectangle_41508" data-name="Rectangle 41508" width="44.826" height="2.152" transform="translate(263.228 37.83)" opacity="0.2"/>
    <rect id="Rectangle_41509" data-name="Rectangle 41509" width="44.826" height="2.152" transform="translate(263.228 47.911)" opacity="0.2"/>
    <rect id="Rectangle_41510" data-name="Rectangle 41510" width="44.826" height="2.152" transform="translate(263.228 57.993)" opacity="0.2"/>
    <rect id="Rectangle_41511" data-name="Rectangle 41511" width="44.826" height="2.152" transform="translate(263.228 68.075)" opacity="0.2"/>
    <rect id="Rectangle_41512" data-name="Rectangle 41512" width="44.826" height="2.152" transform="translate(263.228 78.156)" opacity="0.2"/>
    <rect id="Rectangle_41513" data-name="Rectangle 41513" width="44.826" height="2.152" transform="translate(263.228 88.238)" opacity="0.2"/>
    <path id="Path_204531" data-name="Path 204531" d="M358.88,418.2a31.143,31.143,0,0,1-27.345,30.911,29.363,29.363,0,0,1-3.845.25A31.172,31.172,0,0,1,296.5,418.19a32.3,32.3,0,0,1,.624-6.242A31.208,31.208,0,0,1,327.708,387a28.7,28.7,0,0,1,3.816.25,31.184,31.184,0,0,1,26.75,24.7A31.843,31.843,0,0,1,358.88,418.2Z" transform="translate(-265.726 -193.779)" fill="#333"/>
    <g id="Group_129219" data-name="Group 129219" transform="translate(41.61 204.058)" opacity="0.5">
      <path id="Path_204532" data-name="Path 204532" d="M314.73,425.589a20.348,20.348,0,1,0,5.964-14.4,20.353,20.353,0,0,0-5.964,14.4Z" transform="translate(-314.73 -405.23)"/>
    </g>
    <path id="Path_204533" data-name="Path 204533" d="M321.23,428.226a16.484,16.484,0,1,0,4.832-11.672A16.49,16.49,0,0,0,321.23,428.226Z" transform="translate(-275.756 -203.809)" fill="#e2e2e2"/>
    <path id="Path_204534" data-name="Path 204534" d="M327.58,430.8a12.715,12.715,0,1,0,3.728-9A12.715,12.715,0,0,0,327.58,430.8Z" transform="translate(-278.331 -206.384)"/>
    <path id="Path_204535" data-name="Path 204535" d="M358.88,418.2a31.143,31.143,0,0,1-27.345,30.911,29.363,29.363,0,0,1-3.845.25A31.172,31.172,0,0,1,296.5,418.19a32.3,32.3,0,0,1,.624-6.242A31.208,31.208,0,0,1,327.708,387a28.7,28.7,0,0,1,3.816.25,31.184,31.184,0,0,1,26.75,24.7A31.843,31.843,0,0,1,358.88,418.2Z" transform="translate(-265.726 -193.779)" fill="#fff" opacity="0.3"/>
    <path id="Path_204536" data-name="Path 204536" d="M371.812,418.214a31.177,31.177,0,0,1-31.178,31.172,29.041,29.041,0,0,1-3.84-.25,31.154,31.154,0,0,1-27.344-30.911,31.844,31.844,0,0,1,.624-6.242,31.178,31.178,0,0,1,26.7-24.7,29.517,29.517,0,0,1,3.864-.25A31.214,31.214,0,0,1,371.2,412,32.3,32.3,0,0,1,371.812,418.214Z" transform="translate(-270.978 -193.791)" fill="#333"/>
    <g id="Group_129220" data-name="Group 129220" transform="translate(49.296 204.058)" opacity="0.5">
      <path id="Path_204537" data-name="Path 204537" d="M327.66,425.589a20.353,20.353,0,1,0,20.348-20.359A20.353,20.353,0,0,0,327.66,425.589Z" transform="translate(-327.66 -405.23)"/>
    </g>
    <path id="Path_204538" data-name="Path 204538" d="M334.16,428.226a16.484,16.484,0,1,0,4.827-11.666,16.49,16.49,0,0,0-4.827,11.666Z" transform="translate(-281 -203.809)" fill="#e2e2e2"/>
    <path id="Path_204539" data-name="Path 204539" d="M354.82,436.609a4.209,4.209,0,1,0,4.209-4.209A4.209,4.209,0,0,0,354.82,436.609Z" transform="translate(-289.379 -212.192)"/>
    <path id="Path_204540" data-name="Path 204540" d="M367.432,409.127H294.21C295.47,392.875,311.359,380,330.821,380S366.16,392.87,367.432,409.127Z" transform="translate(-264.797 -190.94)"/>
    <path id="Path_204541" data-name="Path 204541" d="M365,409.127a32.3,32.3,0,0,1,.594,6.242,31.177,31.177,0,0,1-31.178,31.172,29.063,29.063,0,0,1-3.84-.25,29.367,29.367,0,0,1-3.846.25,31.172,31.172,0,0,1-31.19-31.172,32.3,32.3,0,0,1,.624-6.242H294.17C295.43,392.875,311.319,380,330.781,380s35.339,12.858,36.611,29.127Z" transform="translate(-264.781 -190.94)" opacity="0.5"/>
    <path id="Path_204542" data-name="Path 204542" d="M943.724,418.19A31.143,31.143,0,0,1,916.379,449.1a29.36,29.36,0,0,1-3.845.25,31.166,31.166,0,0,1-31.184-31.172,32.307,32.307,0,0,1,.594-6.242A31.214,31.214,0,0,1,912.51,386.97a28.876,28.876,0,0,1,3.822.25,31.172,31.172,0,0,1,26.75,24.7A31.849,31.849,0,0,1,943.724,418.19Z" transform="translate(-502.921 -193.767)" fill="#333"/>
    <g id="Group_129221" data-name="Group 129221" transform="translate(389.266 204.058)" opacity="0.5">
      <path id="Path_204543" data-name="Path 204543" d="M899.58,425.589a20.353,20.353,0,1,0,20.347-20.359A20.354,20.354,0,0,0,899.58,425.589Z" transform="translate(-899.58 -405.23)"/>
    </g>
    <path id="Path_204544" data-name="Path 204544" d="M906.07,428.226a16.484,16.484,0,1,0,4.827-11.667A16.5,16.5,0,0,0,906.07,428.226Z" transform="translate(-512.947 -203.809)" fill="#e2e2e2"/>
    <path id="Path_204545" data-name="Path 204545" d="M912.42,430.8a12.715,12.715,0,1,0,12.717-12.721A12.715,12.715,0,0,0,912.42,430.8Z" transform="translate(-515.522 -206.384)"/>
    <path id="Path_204546" data-name="Path 204546" d="M943.724,418.19A31.143,31.143,0,0,1,916.379,449.1a29.36,29.36,0,0,1-3.845.25,31.166,31.166,0,0,1-31.184-31.172,32.307,32.307,0,0,1,.594-6.242A31.214,31.214,0,0,1,912.51,386.97a28.876,28.876,0,0,1,3.822.25,31.172,31.172,0,0,1,26.75,24.7A31.849,31.849,0,0,1,943.724,418.19Z" transform="translate(-502.921 -193.767)" fill="#fff" opacity="0.3"/>
    <path id="Path_204547" data-name="Path 204547" d="M956.658,418.214a31.184,31.184,0,0,1-31.19,31.172,29.042,29.042,0,0,1-3.834-.25,31.154,31.154,0,0,1-27.344-30.911,31.853,31.853,0,0,1,.624-6.242,31.178,31.178,0,0,1,26.7-24.7,29.346,29.346,0,0,1,3.858-.25A31.214,31.214,0,0,1,956.04,412,32.308,32.308,0,0,1,956.658,418.214Z" transform="translate(-508.169 -193.791)" fill="#333"/>
    <g id="Group_129222" data-name="Group 129222" transform="translate(396.946 204.058)" opacity="0.5">
      <path id="Path_204548" data-name="Path 204548" d="M912.5,425.589a20.353,20.353,0,1,0,20.355-20.359A20.353,20.353,0,0,0,912.5,425.589Z" transform="translate(-912.5 -405.23)"/>
    </g>
    <path id="Path_204549" data-name="Path 204549" d="M919,428.226a16.484,16.484,0,1,0,4.826-11.666A16.49,16.49,0,0,0,919,428.226Z" transform="translate(-518.19 -203.809)" fill="#e2e2e2"/>
    <path id="Path_204550" data-name="Path 204550" d="M939.66,436.609a4.209,4.209,0,1,0,4.209-4.209A4.209,4.209,0,0,0,939.66,436.609Z" transform="translate(-526.57 -212.192)"/>
    <path id="Path_204551" data-name="Path 204551" d="M952.273,409.127H879.05C880.31,392.875,896.2,380,915.661,380S951,392.87,952.273,409.127Z" transform="translate(-501.988 -190.94)"/>
    <path id="Path_204552" data-name="Path 204552" d="M949.837,409.127a32.306,32.306,0,0,1,.624,6.242,31.184,31.184,0,0,1-31.19,31.172,29.05,29.05,0,0,1-3.834-.25,29.367,29.367,0,0,1-3.846.25,31.166,31.166,0,0,1-31.184-31.172,32.3,32.3,0,0,1,.594-6.242H879.01C880.27,392.875,896.159,380,915.621,380s35.339,12.858,36.611,29.127Z" transform="translate(-501.972 -190.94)" opacity="0.5"/>
    <path id="Path_204553" data-name="Path 204553" d="M1058.6,418.19a31.143,31.143,0,0,1-27.345,30.911,29.45,29.45,0,0,1-3.851.25,31.166,31.166,0,0,1-31.184-31.172,31.843,31.843,0,0,1,.594-6.242,31.208,31.208,0,0,1,30.56-24.966,28.809,28.809,0,0,1,3.822.25,31.184,31.184,0,0,1,26.75,24.7A31.841,31.841,0,0,1,1058.6,418.19Z" transform="translate(-549.508 -193.767)" fill="#333"/>
    <g id="Group_129223" data-name="Group 129223" transform="translate(457.548 204.058)" opacity="0.5">
      <path id="Path_204554" data-name="Path 204554" d="M1014.45,425.589a20.353,20.353,0,1,0,20.355-20.359A20.354,20.354,0,0,0,1014.45,425.589Z" transform="translate(-1014.45 -405.23)"/>
    </g>
    <path id="Path_204555" data-name="Path 204555" d="M1021,428.226a16.484,16.484,0,1,0,4.827-11.666A16.49,16.49,0,0,0,1021,428.226Z" transform="translate(-559.558 -203.809)" fill="#e2e2e2"/>
    <path id="Path_204556" data-name="Path 204556" d="M1027.3,430.8a12.715,12.715,0,1,0,12.717-12.721A12.715,12.715,0,0,0,1027.3,430.8Z" transform="translate(-562.113 -206.384)"/>
    <path id="Path_204557" data-name="Path 204557" d="M1058.6,418.19a31.143,31.143,0,0,1-27.345,30.911,29.45,29.45,0,0,1-3.851.25,31.166,31.166,0,0,1-31.184-31.172,31.843,31.843,0,0,1,.594-6.242,31.208,31.208,0,0,1,30.56-24.966,28.809,28.809,0,0,1,3.822.25,31.184,31.184,0,0,1,26.75,24.7A31.841,31.841,0,0,1,1058.6,418.19Z" transform="translate(-549.508 -193.767)" fill="#fff" opacity="0.3"/>
    <path id="Path_204558" data-name="Path 204558" d="M1071.532,418.214a31.177,31.177,0,0,1-31.178,31.172,28.981,28.981,0,0,1-3.84-.25,31.154,31.154,0,0,1-27.344-30.911,32.307,32.307,0,0,1,.595-6.242,31.184,31.184,0,0,1,26.7-24.7,29.5,29.5,0,0,1,3.864-.25,31.2,31.2,0,0,1,30.56,24.948A31.844,31.844,0,0,1,1071.532,418.214Z" transform="translate(-554.76 -193.791)" fill="#333"/>
    <g id="Group_129224" data-name="Group 129224" transform="translate(465.234 204.058)" opacity="0.5">
      <path id="Path_204559" data-name="Path 204559" d="M1027.38,425.589a20.353,20.353,0,1,0,20.348-20.359A20.353,20.353,0,0,0,1027.38,425.589Z" transform="translate(-1027.38 -405.23)"/>
    </g>
    <path id="Path_204560" data-name="Path 204560" d="M1033.87,428.226a16.5,16.5,0,1,0,16.494-16.5,16.5,16.5,0,0,0-16.494,16.5Z" transform="translate(-564.778 -203.809)" fill="#e2e2e2"/>
    <path id="Path_204561" data-name="Path 204561" d="M1054.54,436.609a4.209,4.209,0,1,0,4.209-4.209,4.209,4.209,0,0,0-4.209,4.209Z" transform="translate(-573.161 -212.192)"/>
    <path id="Path_204562" data-name="Path 204562" d="M1067.153,409.127H993.93c1.26-16.252,17.15-29.127,36.611-29.127S1065.9,392.87,1067.153,409.127Z" transform="translate(-548.58 -190.94)"/>
    <path id="Path_204563" data-name="Path 204563" d="M1064.657,409.127a31.843,31.843,0,0,1,.594,6.242,31.177,31.177,0,0,1-31.178,31.172,28.981,28.981,0,0,1-3.84-.25,29.454,29.454,0,0,1-3.852.25A31.166,31.166,0,0,1,995.2,415.369a31.843,31.843,0,0,1,.595-6.242H993.8c1.26-16.252,17.15-29.127,36.611-29.127s35.339,12.858,36.611,29.127Z" transform="translate(-548.527 -190.94)" opacity="0.5"/>
    <path id="Path_204564" data-name="Path 204564" d="M914.772,373.933V368.06H648.721v5.873h-48v5.38H1012.1v-5.38Z" transform="translate(-389.107 -186.098)" fill="#333"/>
    <path id="Path_204565" data-name="Path 204565" d="M963.67,373.927v5.386H600.72v-5.386h48V368.06H914.784v5.867Z" transform="translate(-389.107 -186.098)" fill="#fff" opacity="0.5"/>
    <rect id="Rectangle_41514" data-name="Rectangle 41514" width="258.401" height="11.253" transform="translate(365.334 181.962)" fill="#333"/>
    <path id="Path_204566" data-name="Path 204566" d="M3.561,0H30.566a3.567,3.567,0,0,1,3.567,3.567V30.94a3.567,3.567,0,0,1-3.567,3.567h-27A3.567,3.567,0,0,1,0,30.94V3.578A3.567,3.567,0,0,1,3.561,0Z" transform="translate(279.426 192.846) rotate(180)" fill="#666"/>
    <path id="Path_204567" data-name="Path 204567" d="M658.47,331.068l1.355-1.337,15.015,15.182,15.015-15.182,1.355,1.337-15.033,15.2,15.033,15.2-1.355,1.337-15.015-15.188L659.825,362.8l-1.355-1.337,15.033-15.2Z" transform="translate(-412.529 -170.552)" opacity="0.5"/>
    <path id="Path_204568" data-name="Path 204568" d="M3.561,0H30.566a3.567,3.567,0,0,1,3.567,3.567V30.94a3.567,3.567,0,0,1-3.567,3.567h-27A3.567,3.567,0,0,1,0,30.94V3.567A3.567,3.567,0,0,1,3.561,0Z" transform="translate(279.426 158.815) rotate(180)" fill="#666"/>
    <path id="Path_204569" data-name="Path 204569" d="M658.47,273.807l1.355-1.337,15.015,15.182,15.015-15.182,1.355,1.337-15.033,15.2,15.033,15.2-1.355,1.337-15.015-15.182-15.015,15.182-1.355-1.337,15.033-15.2Z" transform="translate(-412.529 -147.33)" opacity="0.5"/>
    <path id="Path_204570" data-name="Path 204570" d="M3.561,0H30.566a3.567,3.567,0,0,1,3.567,3.567V30.94a3.567,3.567,0,0,1-3.567,3.567h-27A3.567,3.567,0,0,1,0,30.94V3.573A3.567,3.567,0,0,1,3.561,0Z" transform="translate(279.426 125.224) rotate(180)" fill="#666"/>
    <path id="Path_204571" data-name="Path 204571" d="M658.47,217.307l1.355-1.337,15.015,15.182,15.015-15.182,1.355,1.337-15.033,15.2,15.033,15.2-1.355,1.337-15.015-15.188-15.015,15.188-1.355-1.337,15.033-15.2Z" transform="translate(-412.529 -124.415)" opacity="0.5"/>
    <path id="Path_204572" data-name="Path 204572" d="M441.286,121.235v48.09a7.763,7.763,0,0,1-2.919,5.635l-2.835,1.991a7.728,7.728,0,0,0-2.907,5.635v91.287a3.567,3.567,0,0,1-3.567,3.567H251.567A3.567,3.567,0,0,1,248,273.874V203.1a5.053,5.053,0,0,1,3.436-4.583l81.735-23.908a1.986,1.986,0,0,1,.4-.065c.22,0,.7-1.581,1.04-3.531L342.1,129.1l1.022-5.718c.178-.969.363-1.855.511-2.639a3.567,3.567,0,0,1,3.477-2.841h91.923A3.567,3.567,0,0,1,441.286,121.235Z" transform="translate(-246.056 -84.641)" fill="#c7b299"/>
    <path id="Path_204573" data-name="Path 204573" d="M441.286,121.21V169.3a7.853,7.853,0,0,1-1.855,4.637,6.181,6.181,0,0,1-1.064,1l-2.835,1.991a7.728,7.728,0,0,0-2.907,5.635v91.287a3.567,3.567,0,0,1-3.567,3.567H251.567A3.567,3.567,0,0,1,248,273.849V203.076a4.667,4.667,0,0,1,.773-2.514,4.815,4.815,0,0,1,2.633-2.063l81.764-23.914a1.985,1.985,0,0,1,.4-.065c.083,0,.2-.208.333-.594a21.673,21.673,0,0,0,.707-2.972l7.49-41.914,1.022-5.718c.178-.969.363-1.855.511-2.639a3.567,3.567,0,0,1,3.477-2.841h91.923a3.567,3.567,0,0,1,2.253,3.37Z" transform="translate(-246.056 -84.617)" fill="#fff" opacity="0.7"/>
    <path id="Path_204574" data-name="Path 204574" d="M439.935,212.2a6.184,6.184,0,0,1-1.064,1l-2.835,1.991a7.728,7.728,0,0,0-2.907,5.635v18H249.3a4.815,4.815,0,0,1,2.633-2.063L333.7,212.85a1.985,1.985,0,0,1,.4-.065c.083,0,.2-.208.333-.594Z" transform="translate(-246.583 -122.882)" fill="#fff" opacity="0.3"/>
    <path id="Path_204575" data-name="Path 204575" d="M551.4,121.235v48.09a7.763,7.763,0,0,1-2.919,5.635l-2.824,1.991a7.764,7.764,0,0,0-2.919,5.635v91.287a3.567,3.567,0,0,1-3.567,3.567h-177.5a3.567,3.567,0,0,1-3.567-3.567V203.1a5.053,5.053,0,0,1,3.436-4.583l81.747-23.908a1.985,1.985,0,0,1,.4-.065c.22,0,.7-1.581,1.04-3.531l7.49-41.914,1.022-5.718c.19-.969.357-1.855.523-2.639a3.567,3.567,0,0,1,3.477-2.841h91.911a3.567,3.567,0,0,1,2.253,3.335Z" transform="translate(-290.709 -84.641)" fill="#c7b299"/>
    <path id="Path_204576" data-name="Path 204576" d="M582.484,136.32V178.8a3.567,3.567,0,0,1-3.567,3.567H526.738a3.014,3.014,0,0,1-3.073-3.567L525.8,164.02l2.728-18.951.47-3.252.8-5.582a4.232,4.232,0,0,1,4.084-3.567h45.028a3.567,3.567,0,0,1,3.573,3.65Z" transform="translate(-357.835 -90.632)" fill="#29abe2"/>
    <path id="Path_204577" data-name="Path 204577" d="M570.092,157.168v33.693H526.7a3.014,3.014,0,0,1-3.073-3.567l2.134-14.784,2.728-18.951H566.5a3.567,3.567,0,0,1,3.6,3.608Z" transform="translate(-357.819 -99.104)" opacity="0.5"/>
    <g id="Group_129225" data-name="Group 129225" transform="translate(160.789 37.437)">
      <path id="Path_204578" data-name="Path 204578" d="M515.22,268.432V183.714a59.085,59.085,0,0,1,.553-7.252l7.258-47.192a5.237,5.237,0,0,1,5.065-4.339h50.83a4.535,4.535,0,0,1,4.529,4.524V268.432a4.53,4.53,0,0,1-4.529,4.524H519.75a4.53,4.53,0,0,1-4.53-4.524ZM528.1,126.826a3.388,3.388,0,0,0-3.186,2.734l-7.258,47.186a55.78,55.78,0,0,0-.541,6.967v84.719a2.639,2.639,0,0,0,2.639,2.627h59.176a2.639,2.639,0,0,0,2.633-2.627V129.454a2.639,2.639,0,0,0-2.633-2.627Z" transform="translate(-515.22 -124.93)"/>
    </g>
    <path id="Path_204579" data-name="Path 204579" d="M609.619,227.45h-2.633a4.755,4.755,0,0,0-4.755,4.755v1.516a4.755,4.755,0,0,0,4.755,4.755h2.633a4.755,4.755,0,0,0,4.755-4.755v-1.48a4.755,4.755,0,0,0-4.755-4.791ZM612,233.709a2.378,2.378,0,0,1-2.378,2.378h-2.633a2.378,2.378,0,0,1-2.378-2.378v-1.48a2.378,2.378,0,0,1,.511-1.486v.059c0,1.189,1.456,2.158,3.252,2.158s3.156-.915,3.24-2.063a2.484,2.484,0,0,1,.386,1.332Z" transform="translate(-389.72 -129.071)" fill="#e2e2e2"/>
    <g id="Group_129229" data-name="Group 129229" transform="translate(165.778 42.104)" opacity="0.5">
      <g id="Group_129226" data-name="Group 129226" transform="translate(29.078)">
        <path id="Path_204580" data-name="Path 204580" d="M602.323,136.364v26.221l-29.793-29.8h26.22a3.567,3.567,0,0,1,3.573,3.584Z" transform="translate(-572.53 -132.78)" fill="#fff"/>
      </g>
      <g id="Group_129227" data-name="Group 129227" transform="translate(0 31.303)">
        <path id="Path_204581" data-name="Path 204581" d="M544.125,203.79H526.738a3.014,3.014,0,0,1-3.073-3.567L525.8,185.44Z" transform="translate(-523.613 -185.44)" fill="#fff"/>
      </g>
      <g id="Group_129228" data-name="Group 129228" transform="translate(5.384 2.324)">
        <path id="Path_204582" data-name="Path 204582" d="M581.158,184.019h-7.971L532.67,143.49l.8-5.582a4.25,4.25,0,0,1,.4-1.219Z" transform="translate(-532.67 -136.69)" fill="#fff"/>
      </g>
    </g>
    <path id="Path_204583" data-name="Path 204583" d="M654.9,97.305v31.452h-2.824V174.35c0,1.968-1.343,3.567-2.972,3.567h-.071a3.224,3.224,0,0,1-2.865-2.972,5.362,5.362,0,0,1-.042-.624V128.727H643.75V77.374h2.378V67.12h3.323v7.318H652.1v2.937h.178V97.305Z" transform="translate(-406.559 -64.047)" fill="#2f3031"/>
    <path id="Path_204584" data-name="Path 204584" d="M647.632,72.434h2.823v51.383h-2.823V169.41c0,1.968-1.343,3.567-2.972,3.567h-.291a3.4,3.4,0,0,1-2.681-3.567V123.817H639.31V72.434h2.378V62.18H653.16v2.479h-5.51Z" transform="translate(-404.758 -62.043)" fill="#e2e2e2"/>
    <path id="Path_204585" data-name="Path 204585" d="M644.555,62.18V172.989a3.335,3.335,0,0,1-2.907-3.567V123.817H639.27V72.44h2.378V62.18Z" transform="translate(-404.742 -62.043)" fill="#fff"/>
    <path id="Path_204586" data-name="Path 204586" d="M317.108,351.809v40.237h-59.5c-5.861,0-10.884-2.824-12.881-6.824V353.235a5.427,5.427,0,0,1,3.822-1.427Z" transform="translate(-244.73 -179.506)" fill="#666"/>
    <path id="Path_204587" data-name="Path 204587" d="M317.108,351.809v40.237h-59.5c-5.861,0-10.884-2.824-12.881-6.824V353.235a5.427,5.427,0,0,1,3.822-1.427Z" transform="translate(-244.73 -179.506)" fill="#fff" opacity="0.5"/>
    <rect id="Rectangle_41515" data-name="Rectangle 41515" width="66.077" height="8.185" transform="translate(70.149 220.315)"/>
    <rect id="Rectangle_41516" data-name="Rectangle 41516" width="66.077" height="8.185" transform="translate(418.452 220.315)"/>
    <path id="Path_204588" data-name="Path 204588" d="M527.14,425.375l316.536,4.7L843.8,425l-316.519-4.69Z" transform="translate(-359.266 -207.288)" fill="#333"/>
    <rect id="Rectangle_41517" data-name="Rectangle 41517" width="63.212" height="5.386" transform="translate(443.579 187.835)" fill="#333"/>
    <rect id="Rectangle_41518" data-name="Rectangle 41518" width="527.81" height="17.869" transform="translate(78.234 192.846)" fill="#666"/>
    <path id="Path_204589" data-name="Path 204589" d="M345.31,381.326V355.4a3.567,3.567,0,0,1,3.567-3.567h14.231a2.913,2.913,0,0,1,2.913,2.913v37.313H355.677A10.542,10.542,0,0,1,345.31,381.326Z" transform="translate(-285.522 -179.515)" fill="#666"/>
    <path id="Path_204590" data-name="Path 204590" d="M356,282.979V296.27c0,3.959-2.063,7.133-4.625,7.133H339.818a2.746,2.746,0,0,1-2.758-2.74v-22.1a2.752,2.752,0,0,1,2.758-2.752h11.556C353.936,275.81,356,279.02,356,282.979Z" transform="translate(-282.176 -148.684)" fill="#f2f2f2"/>
    <path id="Path_204591" data-name="Path 204591" d="M356,308v4.25a4.428,4.428,0,0,1-4.625,4.22H339.818a2.746,2.746,0,0,1-2.758-2.74V308Z" transform="translate(-282.176 -161.739)" fill="#fbb03b"/>
    <path id="Path_204592" data-name="Path 204592" d="M348.782,275.81v27.6h-8.964a2.746,2.746,0,0,1-2.758-2.74V278.562a2.752,2.752,0,0,1,2.758-2.752Z" transform="translate(-282.176 -148.684)" fill="#fff" opacity="0.5"/>
    <path id="Path_204593" data-name="Path 204593" d="M257.2,278.562v22.107a2.746,2.746,0,0,1-2.752,2.74h-8.97v-27.6h8.97A2.752,2.752,0,0,1,257.2,278.562Z" transform="translate(-245.034 -148.684)" fill="#f2f2f2"/>
    <path id="Path_204594" data-name="Path 204594" d="M257.2,308v5.73a2.746,2.746,0,0,1-2.752,2.74h-8.97V308Z" transform="translate(-245.034 -161.739)" fill="#fbb03b"/>
    <path id="Path_204595" data-name="Path 204595" d="M257.2,278.562v22.107a2.746,2.746,0,0,1-2.752,2.74h-8.97v-27.6h8.97A2.752,2.752,0,0,1,257.2,278.562Z" transform="translate(-245.034 -148.684)" fill="#fff" opacity="0.5"/>
    <path id="Path_204596" data-name="Path 204596" d="M785.259,409.436v10.522a13.672,13.672,0,0,1-13.672,13.63H710.182a13.672,13.672,0,0,1-13.672-13.63V409.436A13.672,13.672,0,0,1,710.182,395.8h61.429A13.672,13.672,0,0,1,785.259,409.436Z" transform="translate(-427.956 -197.348)" fill="#e2e2e2"/>
    <path id="Path_204597" data-name="Path 204597" d="M785.259,409.436v10.522a13.672,13.672,0,0,1-13.672,13.63H710.182a13.672,13.672,0,0,1-13.672-13.63V409.436A13.672,13.672,0,0,1,710.182,395.8h61.429A13.672,13.672,0,0,1,785.259,409.436Z" transform="translate(-427.956 -197.348)" fill="#fff" opacity="0.5"/>
    <rect id="Rectangle_41519" data-name="Rectangle 41519" width="4.862" height="7.948" transform="translate(596.711 197.745)" fill="#333"/>
    <rect id="Rectangle_41520" data-name="Rectangle 41520" width="2.229" height="7.948" transform="translate(599.345 197.745)" fill="#af1d1d"/>
    <path id="Path_204598" data-name="Path 204598" d="M1143.855,377.165c-18.968,0-34.477,12.858-35.666,29.127-.048-.707-.119-1.391-.119-2.081,0-17.239,16.05-31.2,35.809-31.2s35.821,13.957,35.821,31.2c0,.69-.071,1.373-.119,2.081C1178.308,390.023,1162.823,377.165,1143.855,377.165Z" transform="translate(-594.871 -188.105)" fill="#333"/>
    <path id="Path_204599" data-name="Path 204599" d="M1143.92,380c18.969,0,34.477,12.858,35.7,29.127H1108.23C1109.467,392.858,1124.952,380,1143.92,380Z" transform="translate(-594.936 -190.94)"/>
    <path id="Path_204600" data-name="Path 204600" d="M1172.888,418.2a31.167,31.167,0,1,1-9.116-22.055,31.184,31.184,0,0,1,9.116,22.055Z" transform="translate(-595.864 -193.779)" fill="#333"/>
    <g id="Group_129230" data-name="Group 129230" transform="translate(525.486 204.052)" opacity="0.5">
      <path id="Path_204601" data-name="Path 204601" d="M1128.74,425.579a20.348,20.348,0,1,0,5.962-14.4,20.354,20.354,0,0,0-5.962,14.4Z" transform="translate(-1128.74 -405.22)"/>
    </g>
    <path id="Path_204602" data-name="Path 204602" d="M1135.24,428.216a16.484,16.484,0,1,0,4.83-11.67A16.49,16.49,0,0,0,1135.24,428.216Z" transform="translate(-605.89 -203.805)" fill="#e2e2e2"/>
    <path id="Path_204603" data-name="Path 204603" d="M1141.59,430.791a12.715,12.715,0,1,0,12.717-12.721,12.715,12.715,0,0,0-12.717,12.721Z" transform="translate(-608.465 -206.38)"/>
    <path id="Path_204604" data-name="Path 204604" d="M1172.888,418.2a31.167,31.167,0,1,1-9.116-22.055,31.184,31.184,0,0,1,9.116,22.055Z" transform="translate(-595.864 -193.779)" fill="#fff" opacity="0.3"/>
    <path id="Path_204605" data-name="Path 204605" d="M1120.38,418.2a31.2,31.2,0,1,1,0,.006Z" transform="translate(-599.863 -193.779)" fill="#333"/>
    <g id="Group_129231" data-name="Group 129231" transform="translate(531.347 204.052)" opacity="0.5">
      <path id="Path_204606" data-name="Path 204606" d="M1138.6,425.579a20.354,20.354,0,1,0,20.355-20.359,20.354,20.354,0,0,0-20.355,20.359Z" transform="translate(-1138.6 -405.22)"/>
    </g>
    <path id="Path_204607" data-name="Path 204607" d="M1145.1,428.216a16.484,16.484,0,1,0,4.827-11.666,16.49,16.49,0,0,0-4.827,11.666Z" transform="translate(-609.889 -203.805)" fill="#e2e2e2"/>
    <path id="Path_204608" data-name="Path 204608" d="M1151.45,430.791a12.715,12.715,0,1,0,12.717-12.721,12.715,12.715,0,0,0-12.717,12.721Z" transform="translate(-612.464 -206.38)"/>
    <path id="Path_204609" data-name="Path 204609" d="M1029.585,377.165c-18.968,0-34.477,12.858-35.666,29.127-.048-.707-.119-1.391-.119-2.081,0-17.239,16.05-31.2,35.8-31.2s35.821,13.957,35.821,31.2c0,.69-.065,1.373-.119,2.081C1064.021,390.023,1048.53,377.165,1029.585,377.165Z" transform="translate(-548.527 -188.105)" fill="#333"/>
    <path id="Path_204610" data-name="Path 204610" d="M1029.638,380c18.968,0,34.477,12.858,35.7,29.127H993.93C995.16,392.858,1010.645,380,1029.638,380Z" transform="translate(-548.58 -190.94)"/>
    <path id="Path_204611" data-name="Path 204611" d="M1058.58,418.2a31.172,31.172,0,1,1-9.129-22.064A31.189,31.189,0,0,1,1058.58,418.2Z" transform="translate(-549.5 -193.779)" fill="#333"/>
    <g id="Group_129232" data-name="Group 129232" transform="translate(457.536 204.052)" opacity="0.5">
      <path id="Path_204612" data-name="Path 204612" d="M1014.43,425.579a20.353,20.353,0,1,0,20.355-20.359,20.353,20.353,0,0,0-20.355,20.359Z" transform="translate(-1014.43 -405.22)"/>
    </g>
    <path id="Path_204613" data-name="Path 204613" d="M1020.93,428.216a16.484,16.484,0,1,0,4.826-11.666A16.49,16.49,0,0,0,1020.93,428.216Z" transform="translate(-559.53 -203.805)" fill="#e2e2e2"/>
    <path id="Path_204614" data-name="Path 204614" d="M1027.28,430.791A12.715,12.715,0,1,0,1040,418.07a12.715,12.715,0,0,0-12.717,12.721Z" transform="translate(-562.105 -206.38)"/>
    <path id="Path_204615" data-name="Path 204615" d="M1058.58,418.2a31.172,31.172,0,1,1-9.129-22.064A31.189,31.189,0,0,1,1058.58,418.2Z" transform="translate(-549.5 -193.779)" fill="#fff" opacity="0.3"/>
    <path id="Path_204616" data-name="Path 204616" d="M1006.07,418.2a31.19,31.19,0,1,0,31.19-31.2A31.189,31.189,0,0,0,1006.07,418.2Z" transform="translate(-553.503 -193.779)" fill="#333"/>
    <g id="Group_129233" data-name="Group 129233" transform="translate(463.403 204.052)" opacity="0.5">
      <path id="Path_204617" data-name="Path 204617" d="M1024.3,425.579a20.353,20.353,0,1,0,20.348-20.359,20.353,20.353,0,0,0-20.348,20.359Z" transform="translate(-1024.3 -405.22)"/>
    </g>
    <path id="Path_204618" data-name="Path 204618" d="M1030.79,428.216a16.5,16.5,0,1,0,16.494-16.5,16.5,16.5,0,0,0-16.494,16.5Z" transform="translate(-563.529 -203.805)" fill="#e2e2e2"/>
    <path id="Path_204619" data-name="Path 204619" d="M1037.14,430.791a12.721,12.721,0,1,0,12.715-12.721,12.721,12.721,0,0,0-12.715,12.721Z" transform="translate(-566.104 -206.38)"/>
    <path id="Path_204620" data-name="Path 204620" d="M443.5,377.165c-19.022,0-34.554,12.858-35.791,29.127-.048-.707-.119-1.391-.119-2.081,0-17.239,16.079-31.2,35.91-31.2s35.916,13.957,35.916,31.2c0,.69-.071,1.373-.125,2.081C478.078,390.023,462.551,377.165,443.5,377.165Z" transform="translate(-310.78 -188.105)" fill="#333"/>
    <path id="Path_204621" data-name="Path 204621" d="M443.6,380c19.022,0,34.555,12.858,35.791,29.127H407.83C409.066,392.858,424.575,380,443.6,380Z" transform="translate(-310.878 -190.94)"/>
    <path id="Path_204622" data-name="Path 204622" d="M472.728,418.2a31.166,31.166,0,1,1-9.124-22.069,31.184,31.184,0,0,1,9.124,22.069Z" transform="translate(-311.904 -193.779)" fill="#333"/>
    <g id="Group_129234" data-name="Group 129234" transform="translate(109.287 204.058)" opacity="0.5">
      <path id="Path_204623" data-name="Path 204623" d="M428.58,425.589a20.353,20.353,0,1,0,20.355-20.359A20.353,20.353,0,0,0,428.58,425.589Z" transform="translate(-428.58 -405.23)"/>
    </g>
    <path id="Path_204624" data-name="Path 204624" d="M435.08,428.226a16.484,16.484,0,1,0,4.827-11.666,16.49,16.49,0,0,0-4.827,11.666Z" transform="translate(-321.929 -203.809)" fill="#e2e2e2"/>
    <path id="Path_204625" data-name="Path 204625" d="M441.43,430.8a12.715,12.715,0,1,0,12.717-12.721A12.715,12.715,0,0,0,441.43,430.8Z" transform="translate(-324.505 -206.384)"/>
    <path id="Path_204626" data-name="Path 204626" d="M472.728,418.2a31.166,31.166,0,1,1-9.124-22.069,31.184,31.184,0,0,1,9.124,22.069Z" transform="translate(-311.904 -193.779)" fill="#fff" opacity="0.3"/>
    <path id="Path_204627" data-name="Path 204627" d="M420.32,418.2a31.36,31.36,0,1,1,0,.006Z" transform="translate(-315.943 -193.779)" fill="#333"/>
    <g id="Group_129235" data-name="Group 129235" transform="translate(115.207 204.052)" opacity="0.5">
      <path id="Path_204628" data-name="Path 204628" d="M438.54,425.579a20.353,20.353,0,1,0,20.347-20.359A20.353,20.353,0,0,0,438.54,425.579Z" transform="translate(-438.54 -405.22)"/>
    </g>
    <path id="Path_204629" data-name="Path 204629" d="M445,428.216a16.484,16.484,0,1,0,4.827-11.666A16.49,16.49,0,0,0,445,428.216Z" transform="translate(-325.953 -203.805)" fill="#e2e2e2"/>
    <path id="Path_204630" data-name="Path 204630" d="M465.7,436.6a4.209,4.209,0,1,0,4.209-4.209A4.209,4.209,0,0,0,465.7,436.6Z" transform="translate(-334.348 -212.188)"/>
    <path id="Path_204631" data-name="Path 204631" d="M716,409.442v10.51a13.672,13.672,0,0,0,13.672,13.636h61.447a13.672,13.672,0,0,0,13.672-13.636v-10.51A13.672,13.672,0,0,0,791.119,395.8H729.672A13.672,13.672,0,0,0,716,409.442Z" transform="translate(-435.861 -197.348)" fill="#e2e2e2"/>
    <g id="Group_129236" data-name="Group 129236" transform="translate(296.837 198.452)">
      <rect id="Rectangle_41521" data-name="Rectangle 41521" width="1.028" height="37.788" transform="translate(57.048)" fill="#363535"/>
      <rect id="Rectangle_41522" data-name="Rectangle 41522" width="0.987" height="37.788" transform="translate(45.682)" fill="#363535"/>
      <rect id="Rectangle_41523" data-name="Rectangle 41523" width="1.028" height="37.788" transform="translate(34.228)" fill="#363535"/>
      <rect id="Rectangle_41524" data-name="Rectangle 41524" width="0.987" height="37.788" transform="translate(22.862)" fill="#363535"/>
      <rect id="Rectangle_41525" data-name="Rectangle 41525" width="0.987" height="37.788" transform="translate(11.455)" fill="#363535"/>
      <rect id="Rectangle_41526" data-name="Rectangle 41526" width="1.028" height="37.788" fill="#363535"/>
    </g>
    <g id="Group_129237" data-name="Group 129237" transform="translate(296.837 198.452)">
      <rect id="Rectangle_41527" data-name="Rectangle 41527" width="1.028" height="37.788" transform="translate(57.048)" fill="#363535"/>
      <rect id="Rectangle_41528" data-name="Rectangle 41528" width="0.987" height="37.788" transform="translate(45.682)" fill="#363535"/>
      <rect id="Rectangle_41529" data-name="Rectangle 41529" width="1.028" height="37.788" transform="translate(34.228)" fill="#363535"/>
      <rect id="Rectangle_41530" data-name="Rectangle 41530" width="0.987" height="37.788" transform="translate(22.862)" fill="#363535"/>
      <rect id="Rectangle_41531" data-name="Rectangle 41531" width="0.987" height="37.788" transform="translate(11.455)" fill="#363535"/>
      <rect id="Rectangle_41532" data-name="Rectangle 41532" width="1.028" height="37.788" fill="#363535"/>
    </g>
    <path id="Path_204632" data-name="Path 204632" d="M727.94,405.944a3.216,3.216,0,1,0,3.216-3.2A3.216,3.216,0,0,0,727.94,405.944Z" transform="translate(-440.703 -200.163)"/>
    <rect id="Rectangle_41533" data-name="Rectangle 41533" width="29.68" height="2.461" transform="translate(18.897 143.883)" fill="#2f3031"/>
    <rect id="Rectangle_41534" data-name="Rectangle 41534" width="29.68" height="2.461" transform="translate(18.897 148.68)" fill="#2f3031"/>
    <rect id="Rectangle_41535" data-name="Rectangle 41535" width="29.68" height="2.461" transform="translate(18.897 153.471)" fill="#2f3031"/>
    <rect id="Rectangle_41536" data-name="Rectangle 41536" width="29.68" height="2.461" transform="translate(18.897 158.268)" fill="#2f3031"/>
    <rect id="Rectangle_41537" data-name="Rectangle 41537" width="29.68" height="2.461" transform="translate(18.897 163.065)" fill="#2f3031"/>
    <rect id="Rectangle_41538" data-name="Rectangle 41538" width="29.68" height="2.461" transform="translate(18.897 120.236)" fill="#2f3031"/>
    <rect id="Rectangle_41539" data-name="Rectangle 41539" width="29.68" height="2.461" transform="translate(18.897 125.027)" fill="#2f3031"/>
    <rect id="Rectangle_41540" data-name="Rectangle 41540" width="29.68" height="2.461" transform="translate(18.897 129.825)" fill="#2f3031"/>
    <rect id="Rectangle_41541" data-name="Rectangle 41541" width="29.68" height="2.461" transform="translate(18.897 134.622)" fill="#2f3031"/>
    <rect id="Rectangle_41542" data-name="Rectangle 41542" width="29.68" height="2.461" transform="translate(18.897 139.413)" fill="#2f3031"/>
    <path id="Path_204633" data-name="Path 204633" d="M465.242,123a1.783,1.783,0,0,1,1.783,2.1l-1.266,7.133-7.02,39.459a1.783,1.783,0,0,1-1.783,1.468h-55.71a1.783,1.783,0,0,1-1.783-2.092l1.51-8.489,6.777-38.091a1.783,1.783,0,0,1,1.783-1.474Z" transform="translate(-307.473 -86.71)" fill="#29abe2"/>
    <path id="Path_204634" data-name="Path 204634" d="M477.744,138.46l-7.02,39.459a1.783,1.783,0,0,1-1.783,1.468H429l.244-1.361,7.02-39.566Z" transform="translate(-319.464 -92.98)" fill="#fff" opacity="0.5"/>
    <g id="Group_129242" data-name="Group 129242" transform="translate(93.522 36.261)" opacity="0.5">
      <g id="Group_129238" data-name="Group 129238" transform="translate(33.639 0.03)">
        <path id="Path_204635" data-name="Path 204635" d="M491.017,125.069l-8.286,46.58a1.783,1.783,0,0,1-1.783,1.468h-22.3L482.558,123h6.7a1.783,1.783,0,0,1,1.759,2.069Z" transform="translate(-458.65 -123)" fill="#fff"/>
      </g>
      <g id="Group_129239" data-name="Group 129239" transform="translate(0 0.03)">
        <path id="Path_204636" data-name="Path 204636" d="M420.915,123,402.06,162.565l6.777-38.091A1.783,1.783,0,0,1,410.62,123Z" transform="translate(-402.06 -123)" fill="#fff"/>
      </g>
      <g id="Group_129240" data-name="Group 129240" transform="translate(1.028)">
        <path id="Path_204637" data-name="Path 204637" d="M434.374,122.95,410.454,173.1H403.79L427.7,122.95Z" transform="translate(-403.79 -122.95)" fill="#fff"/>
      </g>
      <g id="Group_129241" data-name="Group 129241" transform="translate(17.138)">
        <path id="Path_204638" data-name="Path 204638" d="M461.474,122.95,437.554,173.1H430.89L454.8,122.95Z" transform="translate(-430.89 -122.95)" fill="#fff"/>
      </g>
    </g>
    <rect id="Rectangle_41543" data-name="Rectangle 41543" width="21.007" height="3.418" transform="translate(131.507 108.609)" fill="#2f3031"/>
    <rect id="Rectangle_41544" data-name="Rectangle 41544" width="21.007" height="3.418" transform="translate(131.507 115.207)" fill="#2f3031"/>
    <rect id="Rectangle_41545" data-name="Rectangle 41545" width="21.007" height="3.418" transform="translate(131.507 121.8)" fill="#2f3031"/>
    <rect id="Rectangle_41546" data-name="Rectangle 41546" width="21.007" height="3.418" transform="translate(131.507 128.398)" fill="#2f3031"/>
  </g>
</svg>
