<svg xmlns="http://www.w3.org/2000/svg" xmlns:xlink="http://www.w3.org/1999/xlink" width="947.871" height="908.559" viewBox="0 0 947.871 908.559">
  <defs>
    <filter id="Ellipse_4884" x="252" y="262.534" width="420.425" height="420.426" filterUnits="userSpaceOnUse">
      <feOffset dy="6" input="SourceAlpha"/>
      <feGaussianBlur stdDeviation="3" result="blur"/>
      <feFlood flood-color="#2e1161" flood-opacity="0.69"/>
      <feComposite operator="in" in2="blur"/>
      <feComposite in="SourceGraphic"/>
    </filter>
    <linearGradient id="linear-gradient" x1="-0.05" y1="0.546" x2="0.954" y2="0.546" gradientUnits="objectBoundingBox">
      <stop offset="0" stop-color="#5c22c3"/>
      <stop offset="1" stop-color="#91b3fa"/>
    </linearGradient>
    <filter id="Path_175872" x="343" y="0" width="237.523" height="237.523" filterUnits="userSpaceOnUse">
      <feOffset dy="6" input="SourceAlpha"/>
      <feGaussianBlur stdDeviation="3" result="blur-2"/>
      <feFlood flood-opacity="0.161"/>
      <feComposite operator="in" in2="blur-2"/>
      <feComposite in="SourceGraphic"/>
    </filter>
    <filter id="Ellipse_4890" x="67.623" y="132.905" width="237.523" height="237.523" filterUnits="userSpaceOnUse">
      <feOffset dy="6" input="SourceAlpha"/>
      <feGaussianBlur stdDeviation="3" result="blur-3"/>
      <feFlood flood-opacity="0.161"/>
      <feComposite operator="in" in2="blur-3"/>
      <feComposite in="SourceGraphic"/>
    </filter>
    <filter id="Path_175870" x="0" y="421.034" width="237.523" height="237.523" filterUnits="userSpaceOnUse">
      <feOffset dy="6" input="SourceAlpha"/>
      <feGaussianBlur stdDeviation="3" result="blur-4"/>
      <feFlood flood-opacity="0.161"/>
      <feComposite operator="in" in2="blur-4"/>
      <feComposite in="SourceGraphic"/>
    </filter>
    <filter id="Ellipse_4888" x="193.264" y="671.035" width="237.523" height="237.523" filterUnits="userSpaceOnUse">
      <feOffset dy="6" input="SourceAlpha"/>
      <feGaussianBlur stdDeviation="3" result="blur-5"/>
      <feFlood flood-opacity="0.161"/>
      <feComposite operator="in" in2="blur-5"/>
      <feComposite in="SourceGraphic"/>
    </filter>
    <filter id="Path_175871" x="618.189" y="132.933" width="237.523" height="237.523" filterUnits="userSpaceOnUse">
      <feOffset dy="6" input="SourceAlpha"/>
      <feGaussianBlur stdDeviation="3" result="blur-6"/>
      <feFlood flood-opacity="0.161"/>
      <feComposite operator="in" in2="blur-6"/>
      <feComposite in="SourceGraphic"/>
    </filter>
    <filter id="Ellipse_4899" x="488.408" y="671.035" width="237.523" height="237.523" filterUnits="userSpaceOnUse">
      <feOffset dy="6" input="SourceAlpha"/>
      <feGaussianBlur stdDeviation="3" result="blur-7"/>
      <feFlood flood-opacity="0.161"/>
      <feComposite operator="in" in2="blur-7"/>
      <feComposite in="SourceGraphic"/>
    </filter>
    <filter id="Ellipse_4896" x="689.529" y="417.625" width="243.854" height="243.853" filterUnits="userSpaceOnUse">
      <feOffset dy="6" input="SourceAlpha"/>
      <feGaussianBlur stdDeviation="3" result="blur-8"/>
      <feFlood flood-opacity="0.161"/>
      <feComposite operator="in" in2="blur-8"/>
      <feComposite in="SourceGraphic"/>
    </filter>
  </defs>
  <g id="t1-im1" transform="translate(-335 -924.466)">
    <g id="Group_125327" data-name="Group 125327" transform="translate(-0.033 -31.253)">
      <g transform="matrix(1, 0, 0, 1, 335.03, 955.72)" filter="url(#Ellipse_4884)">
        <circle id="Ellipse_4884-2" data-name="Ellipse 4884" cx="142.278" cy="142.278" r="142.278" transform="translate(261 466.75) rotate(-45)" fill="#c08dd5" opacity="0.4"/>
      </g>
      <path id="Path_175810" data-name="Path 175810" d="M444.531,792.455A349.156,349.156,0,0,1,269.92,745.834l-12.109-6.984A350.3,350.3,0,0,1,83.2,436.4V422.387A350.3,350.3,0,0,1,257.919,119.958l12.109-6.984a350.3,350.3,0,0,1,349.244,0l12.088,6.984A350.3,350.3,0,0,1,805.884,422.387v13.99A350.3,350.3,0,0,1,631.252,738.806l-12.109,7.006a349.309,349.309,0,0,1-174.611,46.642Zm0-628.86a251.959,251.959,0,0,0-125.958,33.646l-12.109,6.984A252.651,252.651,0,0,0,180.506,422.387v13.991A252.586,252.586,0,0,0,306.464,654.539l12.109,6.984a252.651,252.651,0,0,0,251.937,0l12.088-7.006a252.608,252.608,0,0,0,125.98-218.161V422.387A252.673,252.673,0,0,0,582.6,204.2l-12.088-6.984a252.046,252.046,0,0,0-125.979-33.625Z" transform="translate(352.278 987.533)" fill="url(#linear-gradient)"/>
      <g transform="matrix(1, 0, 0, 1, 335.03, 955.72)" filter="url(#Path_175872)">
        <path id="Path_175872-2" data-name="Path 175872" d="M109.762,0A109.762,109.762,0,1,1,0,109.762,109.762,109.762,0,0,1,109.762,0Z" transform="translate(352 3)" fill="#f8fcff"/>
      </g>
      <path id="Ellipse_4887" data-name="Ellipse 4887" d="M92.2-1.5A94.389,94.389,0,0,1,111.086.4a93.2,93.2,0,0,1,33.509,14.1,93.973,93.973,0,0,1,33.948,41.225A93.243,93.243,0,0,1,184,73.32a94.6,94.6,0,0,1,0,37.766,93.2,93.2,0,0,1-14.1,33.509,93.972,93.972,0,0,1-41.225,33.948A93.242,93.242,0,0,1,111.086,184a94.6,94.6,0,0,1-37.766,0,93.2,93.2,0,0,1-33.509-14.1A93.972,93.972,0,0,1,5.864,128.677,93.244,93.244,0,0,1,.4,111.086,94.6,94.6,0,0,1,.4,73.32,93.2,93.2,0,0,1,14.5,39.812,93.972,93.972,0,0,1,55.729,5.864,93.242,93.242,0,0,1,73.32.4,94.389,94.389,0,0,1,92.2-1.5Zm0,184.407A90.7,90.7,0,1,0,1.5,92.2,90.806,90.806,0,0,0,92.2,182.907Z" transform="translate(686.533 1137.869) rotate(-76.96)" fill="#34d9c7"/>
      <path id="Path_247211" data-name="Path 247211" d="M16.3,19.947H8.218v5.1h9.551V29H3.077V7.672H17.8v3.97H8.218v4.5H16.3Zm11.631,4.6a1.14,1.14,0,0,0-.659-1.011,10.027,10.027,0,0,0-2.5-.791,11.422,11.422,0,0,1-3.047-1.077,5.1,5.1,0,0,1-1.831-1.619,3.865,3.865,0,0,1-.63-2.183,4.381,4.381,0,0,1,1.8-3.6,7.422,7.422,0,0,1,4.717-1.414,8.223,8.223,0,0,1,5.039,1.421,4.443,4.443,0,0,1,1.9,3.735H27.774q0-1.9-2.007-1.9a1.989,1.989,0,0,0-1.3.432,1.338,1.338,0,0,0-.527,1.077,1.228,1.228,0,0,0,.645,1.069,6.09,6.09,0,0,0,2.058.674,17.785,17.785,0,0,1,2.483.63Q32.7,21.222,32.7,24.4a4.151,4.151,0,0,1-1.926,3.53,8.447,8.447,0,0,1-4.988,1.362,8.62,8.62,0,0,1-3.633-.732,6.075,6.075,0,0,1-2.49-1.992,4.511,4.511,0,0,1-.894-2.651h4.614a1.908,1.908,0,0,0,.732,1.6,3.013,3.013,0,0,0,1.8.505,2.37,2.37,0,0,0,1.516-.41A1.312,1.312,0,0,0,27.935,24.547ZM40.752,9.21v3.94H43.36v3.428H40.752v7.251a1.851,1.851,0,0,0,.322,1.245,1.729,1.729,0,0,0,1.274.352,7.242,7.242,0,0,0,1.23-.088v3.53a9.11,9.11,0,0,1-2.783.425,5.171,5.171,0,0,1-3.765-1.2,4.923,4.923,0,0,1-1.216-3.647V16.578H33.794V13.15h2.021V9.21Zm14.136,8.408L53.262,17.5q-2.329,0-2.988,1.465V29H45.337V13.15h4.629l.161,2.036A3.823,3.823,0,0,1,53.6,12.857a4.814,4.814,0,0,1,1.377.176Zm11.221,9.668a5.09,5.09,0,0,1-4.233,2.007,4.992,4.992,0,0,1-3.948-1.516,6.376,6.376,0,0,1-1.34-4.358V13.15h4.937v10.3A1.774,1.774,0,0,0,63.5,25.484a2.58,2.58,0,0,0,2.417-1.216V13.15h4.966V29H66.255Zm14.18-1.8A2.2,2.2,0,0,0,81.9,24.92a2.068,2.068,0,0,0,.557-1.575h4.629a5.48,5.48,0,0,1-1.868,4.277,6.947,6.947,0,0,1-4.812,1.67,7.034,7.034,0,0,1-5.449-2.168,8.542,8.542,0,0,1-1.992-6.006v-.205a9.654,9.654,0,0,1,.886-4.241,6.453,6.453,0,0,1,2.556-2.827,7.622,7.622,0,0,1,3.955-.989,6.86,6.86,0,0,1,4.907,1.714,6.079,6.079,0,0,1,1.816,4.644H82.457a2.71,2.71,0,0,0-.6-1.89,2.073,2.073,0,0,0-1.611-.659q-1.919,0-2.241,2.446a17.262,17.262,0,0,0-.1,2.139,6.78,6.78,0,0,0,.571,3.311A1.978,1.978,0,0,0,80.289,25.484ZM94.922,9.21v3.94H97.53v3.428H94.922v7.251a1.851,1.851,0,0,0,.322,1.245,1.729,1.729,0,0,0,1.274.352,7.242,7.242,0,0,0,1.23-.088v3.53a9.11,9.11,0,0,1-2.783.425,5.171,5.171,0,0,1-3.765-1.2,4.923,4.923,0,0,1-1.216-3.647V16.578H87.964V13.15h2.021V9.21Zm13.989,18.076a5.09,5.09,0,0,1-4.233,2.007,4.992,4.992,0,0,1-3.948-1.516,6.376,6.376,0,0,1-1.34-4.358V13.15h4.937v10.3a1.774,1.774,0,0,0,1.978,2.036,2.58,2.58,0,0,0,2.417-1.216V13.15h4.966V29h-4.629Zm17.065-9.668-1.626-.117q-2.329,0-2.988,1.465V29h-4.937V13.15h4.629l.161,2.036a3.823,3.823,0,0,1,3.472-2.329,4.814,4.814,0,0,1,1.377.176ZM136.246,29a5.574,5.574,0,0,1-.469-1.421,4.59,4.59,0,0,1-3.809,1.714,5.623,5.623,0,0,1-3.809-1.355,4.313,4.313,0,0,1-1.567-3.406,4.433,4.433,0,0,1,1.9-3.9,9.7,9.7,0,0,1,5.537-1.318h1.523v-.839q0-2.193-1.89-2.193a1.545,1.545,0,0,0-1.758,1.737h-4.937a4.425,4.425,0,0,1,1.956-3.731,8.218,8.218,0,0,1,4.988-1.434,7.205,7.205,0,0,1,4.79,1.479,5.144,5.144,0,0,1,1.8,4.058v7.017a7.186,7.186,0,0,0,.674,3.34V29Zm-3.091-3.223a2.754,2.754,0,0,0,1.531-.4,2.479,2.479,0,0,0,.872-.894V21.954h-1.436q-2.578,0-2.578,2.314A1.413,1.413,0,0,0,132,25.36,1.643,1.643,0,0,0,133.155,25.777Zm16.934-4.819a9.682,9.682,0,0,1,1.626-5.933,5.352,5.352,0,0,1,4.541-2.168,4.552,4.552,0,0,1,3.574,1.67V6.5h4.951V29h-4.438l-.249-1.7a4.674,4.674,0,0,1-3.867,1.992,5.342,5.342,0,0,1-4.482-2.168A9.989,9.989,0,0,1,150.088,20.958Zm4.937.308q0,4.219,2.461,4.219a2.43,2.43,0,0,0,2.344-1.377V18.072a2.365,2.365,0,0,0-2.314-1.406q-2.285,0-2.476,3.691Zm20.229,8.027a8.148,8.148,0,0,1-5.9-2.175,7.512,7.512,0,0,1-2.256-5.662v-.41a9.734,9.734,0,0,1,.9-4.292,6.592,6.592,0,0,1,2.629-2.878,7.938,7.938,0,0,1,4.1-1.018A6.861,6.861,0,0,1,180,14.93a8.145,8.145,0,0,1,1.934,5.779v1.919H172.12a3.558,3.558,0,0,0,1.157,2.095,3.443,3.443,0,0,0,2.314.762,4.437,4.437,0,0,0,3.662-1.641l2.256,2.666a6.306,6.306,0,0,1-2.615,2.029A8.836,8.836,0,0,1,175.254,29.293ZM174.7,16.666q-2.168,0-2.578,2.871h4.98v-.381a2.445,2.445,0,0,0-.6-1.838A2.39,2.39,0,0,0,174.7,16.666ZM24.61,64H19.659V41.5H24.61Zm11.968,0a5.574,5.574,0,0,1-.469-1.421A4.59,4.59,0,0,1,32.3,64.293a5.623,5.623,0,0,1-3.809-1.355,4.313,4.313,0,0,1-1.567-3.406,4.433,4.433,0,0,1,1.9-3.9,9.7,9.7,0,0,1,5.537-1.318h1.523v-.839q0-2.193-1.89-2.193a1.545,1.545,0,0,0-1.758,1.737H27.305a4.425,4.425,0,0,1,1.956-3.731,8.218,8.218,0,0,1,4.988-1.434,7.205,7.205,0,0,1,4.79,1.479,5.144,5.144,0,0,1,1.8,4.058v7.017a7.186,7.186,0,0,0,.674,3.34V64Zm-3.091-3.223a2.754,2.754,0,0,0,1.531-.4,2.479,2.479,0,0,0,.872-.894V56.954H34.454q-2.578,0-2.578,2.314a1.413,1.413,0,0,0,.454,1.091A1.643,1.643,0,0,0,33.487,60.777ZM56.25,64H51.3V41.5H56.25Zm2.417-8.071A9.355,9.355,0,0,1,59.59,51.7a6.6,6.6,0,0,1,2.651-2.849,7.985,7.985,0,0,1,4.058-1,7.288,7.288,0,0,1,5.61,2.2,8.46,8.46,0,0,1,2.051,6v.176A8.208,8.208,0,0,1,71.9,62.118a7.307,7.307,0,0,1-5.574,2.175,7.39,7.39,0,0,1-5.435-2.029,7.935,7.935,0,0,1-2.212-5.5Zm4.937.308a5.9,5.9,0,0,0,.688,3.223,2.294,2.294,0,0,0,2.036,1.025q2.637,0,2.7-4.058v-.5q0-4.263-2.725-4.263-2.476,0-2.681,3.677Zm11.953-.278a10.7,10.7,0,0,1,.791-4.248,6.368,6.368,0,0,1,2.271-2.849,5.985,5.985,0,0,1,3.442-1,4.759,4.759,0,0,1,3.867,1.67L86.1,48.15h4.482V63.4a6.682,6.682,0,0,1-.974,3.64,6.251,6.251,0,0,1-2.82,2.373,10.365,10.365,0,0,1-4.277.828,8.942,8.942,0,0,1-3.376-.659,6.1,6.1,0,0,1-2.5-1.714l2.065-2.9a4.527,4.527,0,0,0,3.633,1.626q3.281,0,3.281-3.369v-.5a4.636,4.636,0,0,1-3.589,1.567,5.728,5.728,0,0,1-4.687-2.219,9.2,9.2,0,0,1-1.787-5.94Zm4.951.308a5.638,5.638,0,0,0,.732,3.083,2.311,2.311,0,0,0,2.051,1.135,2.622,2.622,0,0,0,2.329-1.069V52.75a2.556,2.556,0,0,0-2.3-1.084,2.326,2.326,0,0,0-2.065,1.179A6.43,6.43,0,0,0,80.508,56.266ZM98.775,64H93.809V48.15h4.966ZM96.929,41.793h5.215l-4.072,4.6-4.028-.007Zm13.315,17.754a1.14,1.14,0,0,0-.659-1.011,10.027,10.027,0,0,0-2.5-.791,11.422,11.422,0,0,1-3.047-1.077A5.1,5.1,0,0,1,102.2,55.05a3.865,3.865,0,0,1-.63-2.183,4.381,4.381,0,0,1,1.8-3.6,7.422,7.422,0,0,1,4.717-1.414,8.223,8.223,0,0,1,5.039,1.421,4.443,4.443,0,0,1,1.9,3.735h-4.951q0-1.9-2.007-1.9a1.989,1.989,0,0,0-1.3.432,1.338,1.338,0,0,0-.527,1.077,1.228,1.228,0,0,0,.645,1.069,6.09,6.09,0,0,0,2.058.674,17.785,17.785,0,0,1,2.483.63q3.574,1.23,3.574,4.409a4.151,4.151,0,0,1-1.926,3.53,8.447,8.447,0,0,1-4.988,1.362,8.62,8.62,0,0,1-3.633-.732,6.075,6.075,0,0,1-2.49-1.992,4.511,4.511,0,0,1-.894-2.651h4.614a1.908,1.908,0,0,0,.732,1.6,3.013,3.013,0,0,0,1.8.505,2.37,2.37,0,0,0,1.516-.41A1.312,1.312,0,0,0,110.245,59.547ZM123.062,44.21v3.94h2.607v3.428h-2.607v7.251a1.851,1.851,0,0,0,.322,1.245,1.729,1.729,0,0,0,1.274.352,7.242,7.242,0,0,0,1.23-.088v3.53a9.11,9.11,0,0,1-2.783.425,5.171,5.171,0,0,1-3.765-1.2,4.923,4.923,0,0,1-1.216-3.647V51.578H116.1V48.15h2.021V44.21ZM132.818,64h-4.951V48.15h4.951Zm-5.244-19.951a2.223,2.223,0,0,1,.762-1.739,3.223,3.223,0,0,1,3.955,0,2.366,2.366,0,0,1,0,3.478,3.223,3.223,0,0,1-3.955,0A2.223,2.223,0,0,1,127.574,44.049Zm14.985,16.436a2.2,2.2,0,0,0,1.611-.564,2.068,2.068,0,0,0,.557-1.575h4.629a5.48,5.48,0,0,1-1.868,4.277,6.947,6.947,0,0,1-4.812,1.67,7.034,7.034,0,0,1-5.449-2.168,8.542,8.542,0,0,1-1.992-6.006v-.205a9.654,9.654,0,0,1,.886-4.241,6.453,6.453,0,0,1,2.556-2.827,7.622,7.622,0,0,1,3.955-.989,6.86,6.86,0,0,1,4.907,1.714,6.079,6.079,0,0,1,1.816,4.644h-4.629a2.71,2.71,0,0,0-.6-1.89,2.073,2.073,0,0,0-1.611-.659q-1.919,0-2.241,2.446a17.262,17.262,0,0,0-.1,2.139,6.78,6.78,0,0,0,.571,3.311A1.978,1.978,0,0,0,142.559,60.484ZM160.372,64a5.574,5.574,0,0,1-.469-1.421,4.59,4.59,0,0,1-3.809,1.714,5.623,5.623,0,0,1-3.809-1.355,4.313,4.313,0,0,1-1.567-3.406,4.433,4.433,0,0,1,1.9-3.9,9.7,9.7,0,0,1,5.537-1.318h1.523v-.839q0-2.193-1.89-2.193a1.545,1.545,0,0,0-1.758,1.737H151.1a4.425,4.425,0,0,1,1.956-3.731,8.218,8.218,0,0,1,4.988-1.434,7.205,7.205,0,0,1,4.79,1.479,5.144,5.144,0,0,1,1.8,4.058v7.017a7.186,7.186,0,0,0,.674,3.34V64Zm-3.091-3.223a2.754,2.754,0,0,0,1.531-.4,2.479,2.479,0,0,0,.872-.894V56.954h-1.436q-2.578,0-2.578,2.314a1.413,1.413,0,0,0,.454,1.091A1.643,1.643,0,0,0,157.281,60.777Z" transform="translate(705.033 1318.253)" fill="#7b1fa2"/>
      <g id="Group_125333" data-name="Group 125333" transform="translate(0 0.399)">
        <g transform="matrix(1, 0, 0, 1, 335.03, 955.32)" filter="url(#Ellipse_4890)">
          <ellipse id="Ellipse_4890-2" data-name="Ellipse 4890" cx="109.762" cy="109.762" rx="109.762" ry="109.762" transform="translate(76.62 135.91)" fill="#f8fcff"/>
        </g>
        <path id="Ellipse_4891" data-name="Ellipse 4891" d="M92.2-1.5A94.389,94.389,0,0,1,111.086.4a93.2,93.2,0,0,1,33.509,14.1,93.972,93.972,0,0,1,33.948,41.225A93.243,93.243,0,0,1,184,73.32a94.6,94.6,0,0,1,0,37.766,93.2,93.2,0,0,1-14.1,33.509,93.972,93.972,0,0,1-41.225,33.948A93.243,93.243,0,0,1,111.086,184a94.6,94.6,0,0,1-37.766,0,93.2,93.2,0,0,1-33.509-14.1A93.972,93.972,0,0,1,5.864,128.677,93.243,93.243,0,0,1,.4,111.086,94.6,94.6,0,0,1,.4,73.32,93.2,93.2,0,0,1,14.5,39.812,93.972,93.972,0,0,1,55.729,5.864,93.243,93.243,0,0,1,73.32.4,94.389,94.389,0,0,1,92.2-1.5Zm0,184.407A90.7,90.7,0,1,0,1.5,92.2,90.806,90.806,0,0,0,92.2,182.907Z" transform="translate(391.033 1201.249) rotate(-45)" fill="#34d9c7"/>
        <path id="Path_247210" data-name="Path 247210" d="M56.586,17.586a6.277,6.277,0,0,1-2,4.178,6.548,6.548,0,0,1-4.471,1.471,6.012,6.012,0,0,1-4.846-2.168,8.722,8.722,0,0,1-1.822-5.8V13.625a9.722,9.722,0,0,1,.85-4.184A6.346,6.346,0,0,1,46.707,6.67,6.705,6.705,0,0,1,50.316,5.7a6.165,6.165,0,0,1,4.359,1.518,6.353,6.353,0,0,1,1.91,4.2H54.324A4.9,4.9,0,0,0,53.053,8.46a3.847,3.847,0,0,0-2.736-.917,4.026,4.026,0,0,0-3.381,1.6,7.323,7.323,0,0,0-1.225,4.539v1.654a7.527,7.527,0,0,0,1.16,4.422,3.749,3.749,0,0,0,3.246,1.642,4.33,4.33,0,0,0,2.877-.85,4.715,4.715,0,0,0,1.33-2.959Zm10.559,4.16a4.6,4.6,0,0,1-3.715,1.488,3.942,3.942,0,0,1-3.088-1.178A5.1,5.1,0,0,1,59.27,18.57V10.32h2.168v8.191q0,2.883,2.344,2.883a3.245,3.245,0,0,0,3.3-1.852V10.32h2.168V23H67.191ZM74.586,10.32l.059,1.406a4.683,4.683,0,0,1,3.762-1.641,3.625,3.625,0,0,1,3.621,2.039,4.8,4.8,0,0,1,1.646-1.477,4.863,4.863,0,0,1,2.4-.562q4.172,0,4.242,4.418V23H88.145V14.633a2.911,2.911,0,0,0-.621-2.033,2.735,2.735,0,0,0-2.086-.674,2.875,2.875,0,0,0-2,.721,2.924,2.924,0,0,0-.926,1.939V23h-2.18V14.691q0-2.766-2.707-2.766A2.9,2.9,0,0,0,74.7,13.742V23H72.535V10.32Zm29.707,6.48a7.592,7.592,0,0,1-1.324,4.664,4.244,4.244,0,0,1-3.586,1.77A4.65,4.65,0,0,1,95.75,21.77v6.105H93.582V10.32h1.98l.105,1.406a4.466,4.466,0,0,1,3.68-1.641,4.324,4.324,0,0,1,3.615,1.723,7.675,7.675,0,0,1,1.33,4.793Zm-2.168-.246a5.6,5.6,0,0,0-.914-3.387A2.945,2.945,0,0,0,98.7,11.926a3.187,3.187,0,0,0-2.953,1.746V19.73a3.193,3.193,0,0,0,2.977,1.734,2.931,2.931,0,0,0,2.479-1.236A6.115,6.115,0,0,0,102.125,16.555ZM109.4,23h-2.168V5H109.4Zm8.73.234a5.54,5.54,0,0,1-4.2-1.693,6.285,6.285,0,0,1-1.617-4.529v-.4a7.609,7.609,0,0,1,.721-3.369,5.622,5.622,0,0,1,2.016-2.32,5.068,5.068,0,0,1,2.807-.838,4.749,4.749,0,0,1,3.844,1.629,7.053,7.053,0,0,1,1.371,4.664v.9h-8.59a4.507,4.507,0,0,0,1.1,3.029,3.444,3.444,0,0,0,2.666,1.154A3.776,3.776,0,0,0,120.2,21a4.888,4.888,0,0,0,1.395-1.242l1.324,1.031A5.325,5.325,0,0,1,118.133,23.234Zm-.27-11.367a2.892,2.892,0,0,0-2.2.955,4.642,4.642,0,0,0-1.1,2.678h6.352v-.164a4.129,4.129,0,0,0-.891-2.561A2.723,2.723,0,0,0,117.863,11.867ZM22.508,53.234a5.54,5.54,0,0,1-4.2-1.693A6.285,6.285,0,0,1,16.7,47.012v-.4a7.609,7.609,0,0,1,.721-3.369,5.622,5.622,0,0,1,2.016-2.32,5.068,5.068,0,0,1,2.807-.838,4.749,4.749,0,0,1,3.844,1.629,7.053,7.053,0,0,1,1.371,4.664v.9h-8.59a4.507,4.507,0,0,0,1.1,3.029,3.444,3.444,0,0,0,2.666,1.154A3.776,3.776,0,0,0,24.57,51a4.888,4.888,0,0,0,1.395-1.242l1.324,1.031A5.325,5.325,0,0,1,22.508,53.234Zm-.27-11.367a2.892,2.892,0,0,0-2.2.955,4.642,4.642,0,0,0-1.1,2.678h6.352v-.164a4.129,4.129,0,0,0-.891-2.561A2.723,2.723,0,0,0,22.238,41.867Zm11.977,3.082,2.813-4.629h2.531L35.41,46.59,39.688,53H37.18l-2.93-4.746L31.32,53H28.8l4.277-6.41L28.93,40.32h2.508ZM52.566,46.8a7.592,7.592,0,0,1-1.324,4.664,4.244,4.244,0,0,1-3.586,1.77,4.65,4.65,0,0,1-3.633-1.465v6.105H41.855V40.32h1.98l.105,1.406a4.466,4.466,0,0,1,3.68-1.641,4.324,4.324,0,0,1,3.615,1.723,7.675,7.675,0,0,1,1.33,4.793ZM50.4,46.555a5.6,5.6,0,0,0-.914-3.387,2.945,2.945,0,0,0-2.508-1.242,3.187,3.187,0,0,0-2.953,1.746V49.73A3.193,3.193,0,0,0,47,51.465a2.931,2.931,0,0,0,2.479-1.236A6.115,6.115,0,0,0,50.4,46.555Zm10.184,6.68a5.54,5.54,0,0,1-4.2-1.693,6.285,6.285,0,0,1-1.617-4.529v-.4a7.609,7.609,0,0,1,.721-3.369,5.622,5.622,0,0,1,2.016-2.32,5.068,5.068,0,0,1,2.807-.838,4.749,4.749,0,0,1,3.844,1.629,7.053,7.053,0,0,1,1.371,4.664v.9h-8.59a4.507,4.507,0,0,0,1.1,3.029A3.444,3.444,0,0,0,60.7,51.465,3.776,3.776,0,0,0,62.645,51a4.888,4.888,0,0,0,1.395-1.242l1.324,1.031A5.325,5.325,0,0,1,60.582,53.234Zm-.27-11.367a2.892,2.892,0,0,0-2.2.955,4.642,4.642,0,0,0-1.1,2.678h6.352v-.164a4.129,4.129,0,0,0-.891-2.561A2.723,2.723,0,0,0,60.313,41.867Zm12.809,9.6a3.123,3.123,0,0,0,2.027-.7A2.474,2.474,0,0,0,76.109,49H78.16a3.931,3.931,0,0,1-.75,2.074,4.94,4.94,0,0,1-1.846,1.57,5.326,5.326,0,0,1-2.443.586A5.223,5.223,0,0,1,69,51.506a6.884,6.884,0,0,1-1.529-4.729v-.363a7.634,7.634,0,0,1,.68-3.293A5.177,5.177,0,0,1,70.1,40.883a5.543,5.543,0,0,1,3.006-.8,5.085,5.085,0,0,1,3.545,1.277A4.565,4.565,0,0,1,78.16,44.68H76.109a2.988,2.988,0,0,0-.932-2.021,2.9,2.9,0,0,0-2.068-.791,3.034,3.034,0,0,0-2.561,1.189,5.586,5.586,0,0,0-.908,3.439v.41a5.475,5.475,0,0,0,.9,3.375A3.049,3.049,0,0,0,73.121,51.465ZM83.539,37.25v3.07h2.367V42H83.539v7.873a1.76,1.76,0,0,0,.316,1.144,1.332,1.332,0,0,0,1.078.381,5.249,5.249,0,0,0,1.031-.141V53a6.322,6.322,0,0,1-1.664.233,2.7,2.7,0,0,1-2.191-.879,3.776,3.776,0,0,1-.738-2.5V42H79.063V40.32h2.309V37.25ZM96.266,53a4.554,4.554,0,0,1-.3-1.336,4.837,4.837,0,0,1-3.609,1.57,4.476,4.476,0,0,1-3.076-1.061,3.431,3.431,0,0,1-1.2-2.689,3.584,3.584,0,0,1,1.506-3.076,7.1,7.1,0,0,1,4.236-1.1h2.109v-1a2.435,2.435,0,0,0-.68-1.811,2.732,2.732,0,0,0-2-.674,3.161,3.161,0,0,0-1.945.586,1.727,1.727,0,0,0-.785,1.418h-2.18A2.992,2.992,0,0,1,89.006,42a4.6,4.6,0,0,1,1.828-1.4,6.15,6.15,0,0,1,2.537-.516,5.013,5.013,0,0,1,3.434,1.1A3.953,3.953,0,0,1,98.094,44.2v5.836a7.135,7.135,0,0,0,.445,2.777V53Zm-3.6-1.652A3.81,3.81,0,0,0,94.6,50.82a3.19,3.19,0,0,0,1.324-1.371v-2.6h-1.7q-3.984,0-3.984,2.332a1.974,1.974,0,0,0,.68,1.594A2.612,2.612,0,0,0,92.668,51.348Zm11.766-14.1v3.07H106.8V42h-2.367v7.873a1.76,1.76,0,0,0,.316,1.144,1.332,1.332,0,0,0,1.078.381,5.249,5.249,0,0,0,1.031-.141V53a6.322,6.322,0,0,1-1.664.233A2.7,2.7,0,0,1,103,52.355a3.776,3.776,0,0,1-.738-2.5V42H99.957V40.32h2.309V37.25ZM111.688,53H109.52V40.32h2.168Zm-2.344-16.043a1.294,1.294,0,0,1,.322-.891,1.21,1.21,0,0,1,.955-.363,1.229,1.229,0,0,1,.961.363,1.28,1.28,0,0,1,.328.891,1.238,1.238,0,0,1-.328.879,1.251,1.251,0,0,1-.961.352,1.232,1.232,0,0,1-.955-.352A1.251,1.251,0,0,1,109.344,36.957Zm10,13.1,3.141-9.738H124.7L120.148,53H118.5L113.9,40.32h2.215ZM134.434,53a4.554,4.554,0,0,1-.3-1.336,4.837,4.837,0,0,1-3.609,1.57,4.476,4.476,0,0,1-3.076-1.061,3.431,3.431,0,0,1-1.2-2.689,3.584,3.584,0,0,1,1.506-3.076,7.1,7.1,0,0,1,4.236-1.1h2.109v-1a2.435,2.435,0,0,0-.68-1.811,2.732,2.732,0,0,0-2-.674,3.161,3.161,0,0,0-1.945.586,1.727,1.727,0,0,0-.785,1.418H126.5A2.992,2.992,0,0,1,127.174,42,4.6,4.6,0,0,1,129,40.6a6.15,6.15,0,0,1,2.537-.516,5.013,5.013,0,0,1,3.434,1.1,3.953,3.953,0,0,1,1.289,3.018v5.836a7.135,7.135,0,0,0,.445,2.777V53Zm-3.6-1.652a3.81,3.81,0,0,0,1.934-.527,3.19,3.19,0,0,0,1.324-1.371v-2.6h-1.7q-3.984,0-3.984,2.332a1.974,1.974,0,0,0,.68,1.594A2.612,2.612,0,0,0,130.836,51.348Zm16.207-1.711a1.6,1.6,0,0,0-.662-1.365,6.373,6.373,0,0,0-2.309-.838,10.915,10.915,0,0,1-2.613-.844,3.718,3.718,0,0,1-1.43-1.172,2.8,2.8,0,0,1-.463-1.617,3.289,3.289,0,0,1,1.318-2.637,5.149,5.149,0,0,1,3.369-1.078,5.3,5.3,0,0,1,3.5,1.113,3.536,3.536,0,0,1,1.342,2.848h-2.18a1.957,1.957,0,0,0-.756-1.535,2.832,2.832,0,0,0-1.9-.645,2.964,2.964,0,0,0-1.852.516,1.623,1.623,0,0,0-.668,1.348,1.315,1.315,0,0,0,.621,1.184,7.642,7.642,0,0,0,2.244.762,11.693,11.693,0,0,1,2.631.867,3.838,3.838,0,0,1,1.494,1.213,2.982,2.982,0,0,1,.486,1.729,3.245,3.245,0,0,1-1.359,2.725,5.7,5.7,0,0,1-3.527,1.025,6.385,6.385,0,0,1-2.7-.539,4.384,4.384,0,0,1-1.834-1.506,3.629,3.629,0,0,1-.662-2.092H141.3a2.245,2.245,0,0,0,.873,1.729,3.387,3.387,0,0,0,2.15.639,3.5,3.5,0,0,0,1.975-.5A1.53,1.53,0,0,0,147.043,49.637Z" transform="translate(438.166 1168)" fill="#12263f"/>
      </g>
      <g id="Group_125329" data-name="Group 125329" transform="translate(-10 -0.248)">
        <g transform="matrix(1, 0, 0, 1, 345.03, 955.97)" filter="url(#Path_175870)">
          <path id="Path_175870-2" data-name="Path 175870" d="M109.762,0A109.762,109.762,0,1,1,0,109.762,109.762,109.762,0,0,1,109.762,0Z" transform="translate(9 424.03)" fill="#f8fcff"/>
        </g>
        <path id="Ellipse_4895" data-name="Ellipse 4895" d="M92.2-1.5A94.389,94.389,0,0,1,111.086.4a93.2,93.2,0,0,1,33.509,14.1,93.973,93.973,0,0,1,33.948,41.225A93.243,93.243,0,0,1,184,73.32a94.6,94.6,0,0,1,0,37.766,93.2,93.2,0,0,1-14.1,33.509,93.972,93.972,0,0,1-41.225,33.948A93.242,93.242,0,0,1,111.086,184a94.6,94.6,0,0,1-37.766,0,93.2,93.2,0,0,1-33.509-14.1A93.972,93.972,0,0,1,5.864,128.677,93.244,93.244,0,0,1,.4,111.086,94.6,94.6,0,0,1,.4,73.32,93.2,93.2,0,0,1,14.5,39.812,93.972,93.972,0,0,1,55.729,5.864,93.242,93.242,0,0,1,73.32.4,94.389,94.389,0,0,1,92.2-1.5Zm0,184.407A90.7,90.7,0,1,0,1.5,92.2,90.806,90.806,0,0,0,92.2,182.907Z" transform="translate(352.533 1557.789) rotate(-76.47)" fill="#34d9c7"/>
        <path id="Path_247209" data-name="Path 247209" d="M68.521,15.465h-7.16V23h-2.25V5.938h10.57v1.84h-8.32v5.848h7.16ZM74.393,23H72.225V5h2.168Zm11.3-1.254a4.6,4.6,0,0,1-3.715,1.488,3.942,3.942,0,0,1-3.088-1.178,5.1,5.1,0,0,1-1.072-3.486V10.32h2.168v8.191q0,2.883,2.344,2.883a3.245,3.245,0,0,0,3.3-1.852V10.32H87.8V23H85.736ZM93.33,10.32V24.465q0,3.656-3.316,3.656a4.045,4.045,0,0,1-1.324-.21V26.188a4.191,4.191,0,0,0,.984.094,1.473,1.473,0,0,0,1.107-.393,1.943,1.943,0,0,0,.381-1.366V10.32ZM90.939,6.957a1.3,1.3,0,0,1,.322-.885,1.185,1.185,0,0,1,.943-.369,1.229,1.229,0,0,1,.961.363,1.28,1.28,0,0,1,.328.891,1.238,1.238,0,0,1-.328.879,1.251,1.251,0,0,1-.961.352,1.213,1.213,0,0,1-.949-.352A1.265,1.265,0,0,1,90.939,6.957Zm5.309,9.586a7.489,7.489,0,0,1,.732-3.352,5.464,5.464,0,0,1,2.039-2.3A5.551,5.551,0,0,1,102,10.086a5.347,5.347,0,0,1,4.189,1.793,6.9,6.9,0,0,1,1.6,4.77V16.8a7.555,7.555,0,0,1-.709,3.322,5.383,5.383,0,0,1-2.027,2.291,5.614,5.614,0,0,1-3.029.82,5.334,5.334,0,0,1-4.178-1.793,6.863,6.863,0,0,1-1.6-4.746Zm2.18.258a5.424,5.424,0,0,0,.979,3.387,3.316,3.316,0,0,0,5.244-.018,5.932,5.932,0,0,0,.973-3.627,5.415,5.415,0,0,0-.99-3.381A3.148,3.148,0,0,0,102,11.867a3.113,3.113,0,0,0-2.59,1.277A5.888,5.888,0,0,0,98.428,16.8ZM25.947,53H23.779V40.32h2.168ZM23.6,36.957a1.294,1.294,0,0,1,.322-.891,1.21,1.21,0,0,1,.955-.363,1.229,1.229,0,0,1,.961.363,1.28,1.28,0,0,1,.328.891,1.238,1.238,0,0,1-.328.879,1.251,1.251,0,0,1-.961.352,1.232,1.232,0,0,1-.955-.352A1.251,1.251,0,0,1,23.6,36.957Zm7.863,3.363.07,1.594a4.621,4.621,0,0,1,3.8-1.828q4.02,0,4.055,4.535V53H37.221V44.609a2.919,2.919,0,0,0-.627-2.027,2.512,2.512,0,0,0-1.916-.656,3.129,3.129,0,0,0-1.852.563,3.82,3.82,0,0,0-1.242,1.477V53H29.416V40.32ZM43.725,53V42h-2V40.32h2v-1.3a4.318,4.318,0,0,1,1.09-3.152A4.117,4.117,0,0,1,47.9,34.754a5.724,5.724,0,0,1,1.488.2L49.268,36.7a6.226,6.226,0,0,0-1.172-.105,2.115,2.115,0,0,0-1.629.617,2.5,2.5,0,0,0-.574,1.769v1.34H48.6V42H45.893V53Zm6.691-6.457a7.489,7.489,0,0,1,.732-3.352,5.464,5.464,0,0,1,2.039-2.3,5.551,5.551,0,0,1,2.982-.809,5.347,5.347,0,0,1,4.189,1.793,6.9,6.9,0,0,1,1.6,4.77V46.8a7.555,7.555,0,0,1-.709,3.322,5.383,5.383,0,0,1-2.027,2.291,5.614,5.614,0,0,1-3.029.82,5.334,5.334,0,0,1-4.178-1.793,6.863,6.863,0,0,1-1.6-4.746Zm2.18.258a5.424,5.424,0,0,0,.979,3.387,3.316,3.316,0,0,0,5.244-.018,5.932,5.932,0,0,0,.973-3.627,5.415,5.415,0,0,0-.99-3.381,3.148,3.148,0,0,0-2.631-1.295,3.113,3.113,0,0,0-2.59,1.277A5.888,5.888,0,0,0,52.6,46.8Zm18.211-4.535a6.5,6.5,0,0,0-1.066-.082A2.857,2.857,0,0,0,66.846,44v9H64.678V40.32h2.109l.035,1.465a3.376,3.376,0,0,1,3.023-1.7,2.215,2.215,0,0,1,.961.164Zm4.031-1.945.059,1.406a4.683,4.683,0,0,1,3.762-1.641,3.625,3.625,0,0,1,3.621,2.039,4.8,4.8,0,0,1,1.646-1.477,4.863,4.863,0,0,1,2.4-.562q4.172,0,4.242,4.418V53H88.4V44.633a2.911,2.911,0,0,0-.621-2.033,2.735,2.735,0,0,0-2.086-.674,2.875,2.875,0,0,0-2,.721,2.924,2.924,0,0,0-.926,1.939V53H80.58V44.691q0-2.766-2.707-2.766a2.9,2.9,0,0,0-2.918,1.816V53H72.787V40.32ZM101.662,53a4.554,4.554,0,0,1-.3-1.336,4.837,4.837,0,0,1-3.609,1.57,4.476,4.476,0,0,1-3.076-1.061,3.431,3.431,0,0,1-1.2-2.689,3.584,3.584,0,0,1,1.506-3.076,7.1,7.1,0,0,1,4.236-1.1h2.109v-1a2.435,2.435,0,0,0-.68-1.811,2.732,2.732,0,0,0-2-.674,3.161,3.161,0,0,0-1.945.586,1.727,1.727,0,0,0-.785,1.418h-2.18A2.992,2.992,0,0,1,94.4,42a4.6,4.6,0,0,1,1.828-1.4,6.15,6.15,0,0,1,2.537-.516,5.013,5.013,0,0,1,3.434,1.1A3.953,3.953,0,0,1,103.49,44.2v5.836a7.135,7.135,0,0,0,.445,2.777V53Zm-3.6-1.652A3.81,3.81,0,0,0,100,50.82a3.19,3.19,0,0,0,1.324-1.371v-2.6h-1.7q-3.984,0-3.984,2.332a1.974,1.974,0,0,0,.68,1.594A2.612,2.612,0,0,0,98.064,51.348Zm11.766-14.1v3.07H112.2V42H109.83v7.873a1.76,1.76,0,0,0,.316,1.144,1.332,1.332,0,0,0,1.078.381,5.249,5.249,0,0,0,1.031-.141V53a6.322,6.322,0,0,1-1.664.233,2.7,2.7,0,0,1-2.191-.879,3.776,3.776,0,0,1-.738-2.5V42h-2.309V40.32h2.309V37.25ZM117.084,53h-2.168V40.32h2.168ZM114.74,36.957a1.294,1.294,0,0,1,.322-.891,1.21,1.21,0,0,1,.955-.363,1.229,1.229,0,0,1,.961.363,1.28,1.28,0,0,1,.328.891,1.238,1.238,0,0,1-.328.879,1.251,1.251,0,0,1-.961.352,1.232,1.232,0,0,1-.955-.352A1.251,1.251,0,0,1,114.74,36.957Zm10,13.1,3.141-9.738h2.215L125.545,53h-1.652L119.3,40.32h2.215Zm6.691-3.516a7.489,7.489,0,0,1,.732-3.352,5.464,5.464,0,0,1,2.039-2.3,5.551,5.551,0,0,1,2.982-.809,5.347,5.347,0,0,1,4.189,1.793,6.9,6.9,0,0,1,1.6,4.77V46.8a7.555,7.555,0,0,1-.709,3.322,5.383,5.383,0,0,1-2.027,2.291,5.614,5.614,0,0,1-3.029.82,5.334,5.334,0,0,1-4.178-1.793,6.863,6.863,0,0,1-1.6-4.746Zm2.18.258a5.424,5.424,0,0,0,.979,3.387,3.316,3.316,0,0,0,5.244-.018,5.932,5.932,0,0,0,.973-3.627,5.415,5.415,0,0,0-.99-3.381,3.148,3.148,0,0,0-2.631-1.295,3.113,3.113,0,0,0-2.59,1.277A5.888,5.888,0,0,0,133.607,46.8Z" transform="translate(381.033 1459.001)" fill="#12263f"/>
      </g>
      <g id="Group_125331" data-name="Group 125331" transform="translate(0 -1.246)">
        <g transform="matrix(1, 0, 0, 1, 335.03, 956.96)" filter="url(#Ellipse_4888)">
          <ellipse id="Ellipse_4888-2" data-name="Ellipse 4888" cx="109.762" cy="109.762" rx="109.762" ry="109.762" transform="translate(202.26 674.04)" fill="#f8fcff"/>
        </g>
        <path id="Ellipse_4889" data-name="Ellipse 4889" d="M92.2-1.5A94.389,94.389,0,0,1,111.086.4a93.2,93.2,0,0,1,33.509,14.1,93.973,93.973,0,0,1,33.948,41.225A93.243,93.243,0,0,1,184,73.32a94.6,94.6,0,0,1,0,37.766,93.2,93.2,0,0,1-14.1,33.509,93.972,93.972,0,0,1-41.225,33.948A93.242,93.242,0,0,1,111.086,184a94.6,94.6,0,0,1-37.766,0,93.2,93.2,0,0,1-33.509-14.1A93.972,93.972,0,0,1,5.864,128.677,93.244,93.244,0,0,1,.4,111.086,94.6,94.6,0,0,1,.4,73.32,93.2,93.2,0,0,1,14.5,39.812,93.972,93.972,0,0,1,55.729,5.864,93.242,93.242,0,0,1,73.32.4,94.389,94.389,0,0,1,92.2-1.5Zm0,184.407A90.7,90.7,0,1,0,1.5,92.2,90.806,90.806,0,0,0,92.2,182.907Z" transform="translate(535.797 1810.15) rotate(-76.96)" fill="#34d9c7"/>
        <path id="Path_247208" data-name="Path 247208" d="M50.873,15.465h-7.16V23h-2.25V5.938h10.57v1.84h-8.32v5.848h7.16ZM56.744,23H54.576V5h2.168Zm11.3-1.254a4.6,4.6,0,0,1-3.715,1.488,3.942,3.942,0,0,1-3.088-1.178,5.1,5.1,0,0,1-1.072-3.486V10.32h2.168v8.191q0,2.883,2.344,2.883a3.245,3.245,0,0,0,3.3-1.852V10.32H70.15V23H68.088ZM75.682,10.32V24.465q0,3.656-3.316,3.656a4.045,4.045,0,0,1-1.324-.21V26.188a4.191,4.191,0,0,0,.984.094,1.473,1.473,0,0,0,1.107-.393,1.943,1.943,0,0,0,.381-1.366V10.32ZM73.291,6.957a1.3,1.3,0,0,1,.322-.885,1.185,1.185,0,0,1,.943-.369,1.229,1.229,0,0,1,.961.363,1.28,1.28,0,0,1,.328.891,1.238,1.238,0,0,1-.328.879,1.251,1.251,0,0,1-.961.352,1.213,1.213,0,0,1-.949-.352A1.265,1.265,0,0,1,73.291,6.957ZM78.6,16.543a7.489,7.489,0,0,1,.732-3.352,5.464,5.464,0,0,1,2.039-2.3,5.551,5.551,0,0,1,2.982-.809,5.347,5.347,0,0,1,4.189,1.793,6.9,6.9,0,0,1,1.6,4.77V16.8a7.555,7.555,0,0,1-.709,3.322,5.383,5.383,0,0,1-2.027,2.291,5.614,5.614,0,0,1-3.029.82A5.334,5.334,0,0,1,80.2,21.441,6.863,6.863,0,0,1,78.6,16.7Zm2.18.258a5.424,5.424,0,0,0,.979,3.387A3.316,3.316,0,0,0,87,20.17a5.932,5.932,0,0,0,.973-3.627,5.415,5.415,0,0,0-.99-3.381,3.148,3.148,0,0,0-2.631-1.295,3.113,3.113,0,0,0-2.59,1.277A5.888,5.888,0,0,0,80.779,16.8Zm22.172,3.023,2.953-9.5h2.32l-5.1,14.637q-1.184,3.164-3.762,3.164l-.41-.035-.809-.152V26.176l.586.047a2.885,2.885,0,0,0,1.717-.445,3.223,3.223,0,0,0,1.014-1.629l.48-1.289L97.42,10.32h2.367ZM37.725,53a4.554,4.554,0,0,1-.3-1.336,4.837,4.837,0,0,1-3.609,1.57,4.476,4.476,0,0,1-3.076-1.061,3.431,3.431,0,0,1-1.2-2.689,3.584,3.584,0,0,1,1.506-3.076,7.1,7.1,0,0,1,4.236-1.1h2.109v-1a2.435,2.435,0,0,0-.68-1.811,2.732,2.732,0,0,0-2-.674,3.161,3.161,0,0,0-1.945.586,1.727,1.727,0,0,0-.785,1.418h-2.18A2.992,2.992,0,0,1,30.465,42a4.6,4.6,0,0,1,1.828-1.4,6.15,6.15,0,0,1,2.537-.516,5.013,5.013,0,0,1,3.434,1.1A3.953,3.953,0,0,1,39.553,44.2v5.836A7.135,7.135,0,0,0,40,52.813V53Zm-3.6-1.652a3.81,3.81,0,0,0,1.934-.527,3.19,3.19,0,0,0,1.324-1.371v-2.6h-1.7q-3.984,0-3.984,2.332a1.974,1.974,0,0,0,.68,1.594A2.612,2.612,0,0,0,34.127,51.348ZM45.307,53H43.139V35h2.168Zm5.508-12.68.059,1.406a4.683,4.683,0,0,1,3.762-1.641,3.625,3.625,0,0,1,3.621,2.039A4.8,4.8,0,0,1,59.9,40.648a4.863,4.863,0,0,1,2.4-.562q4.172,0,4.242,4.418V53H64.373V44.633a2.911,2.911,0,0,0-.621-2.033,2.735,2.735,0,0,0-2.086-.674,2.875,2.875,0,0,0-2,.721,2.924,2.924,0,0,0-.926,1.939V53h-2.18V44.691q0-2.766-2.707-2.766a2.9,2.9,0,0,0-2.918,1.816V53H48.764V40.32ZM77.639,53a4.554,4.554,0,0,1-.3-1.336,4.837,4.837,0,0,1-3.609,1.57,4.476,4.476,0,0,1-3.076-1.061,3.431,3.431,0,0,1-1.2-2.689,3.584,3.584,0,0,1,1.506-3.076,7.1,7.1,0,0,1,4.236-1.1H77.3v-1a2.435,2.435,0,0,0-.68-1.811,2.732,2.732,0,0,0-2-.674,3.161,3.161,0,0,0-1.945.586,1.727,1.727,0,0,0-.785,1.418h-2.18A2.992,2.992,0,0,1,70.379,42a4.6,4.6,0,0,1,1.828-1.4,6.15,6.15,0,0,1,2.537-.516,5.013,5.013,0,0,1,3.434,1.1A3.953,3.953,0,0,1,79.467,44.2v5.836a7.135,7.135,0,0,0,.445,2.777V53Zm-3.6-1.652a3.81,3.81,0,0,0,1.934-.527A3.19,3.19,0,0,0,77.3,49.449v-2.6H75.6q-3.984,0-3.984,2.332a1.974,1.974,0,0,0,.68,1.594A2.612,2.612,0,0,0,74.041,51.348Zm13.91.117a3.123,3.123,0,0,0,2.027-.7A2.474,2.474,0,0,0,90.939,49H92.99a3.931,3.931,0,0,1-.75,2.074,4.94,4.94,0,0,1-1.846,1.57,5.326,5.326,0,0,1-2.443.586,5.223,5.223,0,0,1-4.119-1.729A6.884,6.884,0,0,1,82.3,46.777v-.363a7.634,7.634,0,0,1,.68-3.293,5.177,5.177,0,0,1,1.951-2.238,5.543,5.543,0,0,1,3.006-.8,5.085,5.085,0,0,1,3.545,1.277A4.565,4.565,0,0,1,92.99,44.68H90.939a2.988,2.988,0,0,0-.932-2.021,2.9,2.9,0,0,0-2.068-.791,3.034,3.034,0,0,0-2.561,1.189,5.586,5.586,0,0,0-.908,3.439v.41a5.475,5.475,0,0,0,.9,3.375A3.049,3.049,0,0,0,87.951,51.465Zm12.738,1.77a5.54,5.54,0,0,1-4.2-1.693,6.285,6.285,0,0,1-1.617-4.529v-.4a7.609,7.609,0,0,1,.721-3.369,5.622,5.622,0,0,1,2.016-2.32,5.068,5.068,0,0,1,2.807-.838,4.749,4.749,0,0,1,3.844,1.629,7.053,7.053,0,0,1,1.371,4.664v.9h-8.59a4.507,4.507,0,0,0,1.1,3.029,3.444,3.444,0,0,0,2.666,1.154A3.776,3.776,0,0,0,102.752,51a4.888,4.888,0,0,0,1.395-1.242l1.324,1.031A5.325,5.325,0,0,1,100.689,53.234Zm-.27-11.367a2.892,2.892,0,0,0-2.2.955,4.642,4.642,0,0,0-1.1,2.678h6.352v-.164a4.129,4.129,0,0,0-.891-2.561A2.723,2.723,0,0,0,100.42,41.867Zm1.055-6.844H104.1l-3.141,3.445-1.746-.006Zm8.719,5.3.07,1.594a4.621,4.621,0,0,1,3.8-1.828q4.02,0,4.055,4.535V53h-2.168V44.609a2.919,2.919,0,0,0-.627-2.027,2.512,2.512,0,0,0-1.916-.656,3.129,3.129,0,0,0-1.852.563,3.82,3.82,0,0,0-1.242,1.477V53h-2.168V40.32Z" transform="translate(573.297 1710)" fill="#12263f"/>
      </g>
      <path id="Path_247205" data-name="Path 247205" d="M43.2,16.32V23h-2.25V5.938h6.293a6.322,6.322,0,0,1,4.389,1.43,4.847,4.847,0,0,1,1.588,3.785,4.783,4.783,0,0,1-1.553,3.826,6.6,6.6,0,0,1-4.447,1.342Zm0-1.84h4.043a4.042,4.042,0,0,0,2.766-.851,3.112,3.112,0,0,0,.961-2.459,3.215,3.215,0,0,0-.961-2.442,3.787,3.787,0,0,0-2.637-.951H43.2Zm18.68-2.215a6.5,6.5,0,0,0-1.066-.082A2.857,2.857,0,0,0,57.922,14v9H55.754V10.32h2.109l.035,1.465a3.376,3.376,0,0,1,3.023-1.7,2.215,2.215,0,0,1,.961.164Zm1.184,4.277a7.489,7.489,0,0,1,.732-3.352,5.464,5.464,0,0,1,2.039-2.3,5.551,5.551,0,0,1,2.982-.809,5.347,5.347,0,0,1,4.189,1.793,6.9,6.9,0,0,1,1.6,4.77V16.8a7.555,7.555,0,0,1-.709,3.322,5.383,5.383,0,0,1-2.027,2.291,5.614,5.614,0,0,1-3.029.82,5.334,5.334,0,0,1-4.178-1.793,6.863,6.863,0,0,1-1.6-4.746Zm2.18.258a5.424,5.424,0,0,0,.979,3.387,3.316,3.316,0,0,0,5.244-.018,5.932,5.932,0,0,0,.973-3.627,5.415,5.415,0,0,0-.99-3.381,3.148,3.148,0,0,0-2.631-1.295,3.113,3.113,0,0,0-2.59,1.277A5.888,5.888,0,0,0,65.246,16.8Zm17.168,4.664a3.123,3.123,0,0,0,2.027-.7A2.474,2.474,0,0,0,85.4,19h2.051a3.931,3.931,0,0,1-.75,2.074,4.94,4.94,0,0,1-1.846,1.57,5.326,5.326,0,0,1-2.443.586,5.223,5.223,0,0,1-4.119-1.729,6.884,6.884,0,0,1-1.529-4.729v-.363a7.634,7.634,0,0,1,.68-3.293A5.177,5.177,0,0,1,79.4,10.883a5.543,5.543,0,0,1,3.006-.8,5.085,5.085,0,0,1,3.545,1.277,4.565,4.565,0,0,1,1.506,3.316H85.4a2.988,2.988,0,0,0-.932-2.021,2.9,2.9,0,0,0-2.068-.791,3.034,3.034,0,0,0-2.561,1.189,5.586,5.586,0,0,0-.908,3.439v.41a5.475,5.475,0,0,0,.9,3.375A3.049,3.049,0,0,0,82.414,21.465Zm12.738,1.77a5.54,5.54,0,0,1-4.2-1.693,6.285,6.285,0,0,1-1.617-4.529v-.4a7.609,7.609,0,0,1,.721-3.369,5.622,5.622,0,0,1,2.016-2.32,5.068,5.068,0,0,1,2.807-.838,4.749,4.749,0,0,1,3.844,1.629,7.053,7.053,0,0,1,1.371,4.664v.9h-8.59a4.507,4.507,0,0,0,1.1,3.029,3.444,3.444,0,0,0,2.666,1.154A3.776,3.776,0,0,0,97.215,21a4.888,4.888,0,0,0,1.395-1.242l1.324,1.031A5.325,5.325,0,0,1,95.152,23.234Zm-.27-11.367a2.892,2.892,0,0,0-2.2.955,4.642,4.642,0,0,0-1.1,2.678H97.93v-.164a4.129,4.129,0,0,0-.891-2.561A2.723,2.723,0,0,0,94.883,11.867Zm15.105,7.77a1.6,1.6,0,0,0-.662-1.365,6.373,6.373,0,0,0-2.309-.838,10.915,10.915,0,0,1-2.613-.844,3.718,3.718,0,0,1-1.43-1.172,2.8,2.8,0,0,1-.463-1.617,3.289,3.289,0,0,1,1.318-2.637,5.149,5.149,0,0,1,3.369-1.078,5.3,5.3,0,0,1,3.5,1.113,3.536,3.536,0,0,1,1.342,2.848h-2.18a1.957,1.957,0,0,0-.756-1.535,2.832,2.832,0,0,0-1.9-.645,2.964,2.964,0,0,0-1.852.516,1.623,1.623,0,0,0-.668,1.348,1.315,1.315,0,0,0,.621,1.184,7.642,7.642,0,0,0,2.244.762,11.693,11.693,0,0,1,2.631.867,3.838,3.838,0,0,1,1.494,1.213,2.982,2.982,0,0,1,.486,1.729,3.245,3.245,0,0,1-1.359,2.725,5.7,5.7,0,0,1-3.527,1.025,6.385,6.385,0,0,1-2.7-.539,4.384,4.384,0,0,1-1.834-1.506,3.629,3.629,0,0,1-.662-2.092h2.168a2.245,2.245,0,0,0,.873,1.729,3.387,3.387,0,0,0,2.15.639,3.5,3.5,0,0,0,1.975-.5A1.53,1.53,0,0,0,109.988,19.637Zm4.418-3.094a7.489,7.489,0,0,1,.732-3.352,5.464,5.464,0,0,1,2.039-2.3,5.551,5.551,0,0,1,2.982-.809,5.347,5.347,0,0,1,4.189,1.793,6.9,6.9,0,0,1,1.6,4.77V16.8a7.555,7.555,0,0,1-.709,3.322,5.383,5.383,0,0,1-2.027,2.291,5.614,5.614,0,0,1-3.029.82,5.334,5.334,0,0,1-4.178-1.793,6.863,6.863,0,0,1-1.6-4.746Zm2.18.258a5.424,5.424,0,0,0,.979,3.387,3.316,3.316,0,0,0,5.244-.018,5.932,5.932,0,0,0,.973-3.627,5.415,5.415,0,0,0-.99-3.381,3.148,3.148,0,0,0-2.631-1.295,3.113,3.113,0,0,0-2.59,1.277A5.888,5.888,0,0,0,116.586,16.8Z" transform="translate(714.033 1052.719)" fill="#12263f"/>
      <g id="Group_125334" data-name="Group 125334" transform="translate(-68.249 0.427)">
        <g transform="matrix(1, 0, 0, 1, 403.28, 955.29)" filter="url(#Path_175871)">
          <path id="Path_175871-2" data-name="Path 175871" d="M109.762,0A109.762,109.762,0,1,1,0,109.762,109.762,109.762,0,0,1,109.762,0Z" transform="translate(627.19 135.93)" fill="#f8fcff"/>
        </g>
        <path id="Ellipse_4893" data-name="Ellipse 4893" d="M92.2-1.5A94.389,94.389,0,0,1,111.086.4a93.2,93.2,0,0,1,33.509,14.1,93.973,93.973,0,0,1,33.948,41.225A93.243,93.243,0,0,1,184,73.32a94.6,94.6,0,0,1,0,37.766,93.2,93.2,0,0,1-14.1,33.509,93.972,93.972,0,0,1-41.225,33.948A93.242,93.242,0,0,1,111.086,184a94.6,94.6,0,0,1-37.766,0,93.2,93.2,0,0,1-33.509-14.1A93.972,93.972,0,0,1,5.864,128.677,93.244,93.244,0,0,1,.4,111.086,94.6,94.6,0,0,1,.4,73.32,93.2,93.2,0,0,1,14.5,39.812,93.972,93.972,0,0,1,55.729,5.864,93.242,93.242,0,0,1,73.32.4,94.389,94.389,0,0,1,92.2-1.5Zm0,184.407A90.7,90.7,0,1,0,1.5,92.2,90.806,90.806,0,0,0,92.2,182.907Z" transform="translate(1028.642 1269.295) rotate(-76.47)" fill="#34d9c7"/>
        <path id="Path_247204" data-name="Path 247204" d="M28.057,16.32V23h-2.25V5.938H32.1a6.322,6.322,0,0,1,4.389,1.43,4.847,4.847,0,0,1,1.588,3.785,4.783,4.783,0,0,1-1.553,3.826,6.6,6.6,0,0,1-4.447,1.342Zm0-1.84H32.1a4.042,4.042,0,0,0,2.766-.851,3.112,3.112,0,0,0,.961-2.459,3.215,3.215,0,0,0-.961-2.442,3.787,3.787,0,0,0-2.637-.951H28.057ZM42.963,23H40.795V5h2.168Zm11.3,0a4.554,4.554,0,0,1-.3-1.336,4.837,4.837,0,0,1-3.609,1.57,4.476,4.476,0,0,1-3.076-1.061,3.431,3.431,0,0,1-1.2-2.689,3.584,3.584,0,0,1,1.506-3.076,7.1,7.1,0,0,1,4.236-1.1H53.92v-1a2.435,2.435,0,0,0-.68-1.811,2.732,2.732,0,0,0-2-.674,3.161,3.161,0,0,0-1.945.586,1.727,1.727,0,0,0-.785,1.418h-2.18A2.992,2.992,0,0,1,47,12a4.6,4.6,0,0,1,1.828-1.4,6.15,6.15,0,0,1,2.537-.516,5.013,5.013,0,0,1,3.434,1.1A3.953,3.953,0,0,1,56.088,14.2v5.836a7.135,7.135,0,0,0,.445,2.777V23Zm-3.6-1.652A3.81,3.81,0,0,0,52.6,20.82a3.19,3.19,0,0,0,1.324-1.371v-2.6h-1.7q-3.984,0-3.984,2.332a1.974,1.974,0,0,0,.68,1.594A2.612,2.612,0,0,0,50.662,21.348ZM61.537,10.32l.07,1.594a4.621,4.621,0,0,1,3.8-1.828q4.02,0,4.055,4.535V23H67.291V14.609a2.919,2.919,0,0,0-.627-2.027,2.512,2.512,0,0,0-1.916-.656,3.129,3.129,0,0,0-1.852.563,3.82,3.82,0,0,0-1.242,1.477V23H59.486V10.32ZM77.99,23.234a5.54,5.54,0,0,1-4.2-1.693,6.285,6.285,0,0,1-1.617-4.529v-.4a7.609,7.609,0,0,1,.721-3.369,5.622,5.622,0,0,1,2.016-2.32,5.068,5.068,0,0,1,2.807-.838,4.749,4.749,0,0,1,3.844,1.629,7.053,7.053,0,0,1,1.371,4.664v.9h-8.59a4.507,4.507,0,0,0,1.1,3.029,3.444,3.444,0,0,0,2.666,1.154A3.776,3.776,0,0,0,80.053,21a4.888,4.888,0,0,0,1.395-1.242l1.324,1.031A5.325,5.325,0,0,1,77.99,23.234Zm-.27-11.367a2.892,2.892,0,0,0-2.2.955,4.642,4.642,0,0,0-1.1,2.678h6.352v-.164a4.129,4.129,0,0,0-.891-2.561A2.723,2.723,0,0,0,77.721,11.867ZM93.271,23a4.554,4.554,0,0,1-.3-1.336,4.837,4.837,0,0,1-3.609,1.57,4.476,4.476,0,0,1-3.076-1.061,3.431,3.431,0,0,1-1.2-2.689,3.584,3.584,0,0,1,1.506-3.076,7.1,7.1,0,0,1,4.236-1.1h2.109v-1a2.435,2.435,0,0,0-.68-1.811,2.732,2.732,0,0,0-2-.674,3.161,3.161,0,0,0-1.945.586,1.727,1.727,0,0,0-.785,1.418h-2.18A2.992,2.992,0,0,1,86.012,12a4.6,4.6,0,0,1,1.828-1.4,6.15,6.15,0,0,1,2.537-.516,5.013,5.013,0,0,1,3.434,1.1A3.953,3.953,0,0,1,95.1,14.2v5.836a7.135,7.135,0,0,0,.445,2.777V23Zm-3.6-1.652a3.81,3.81,0,0,0,1.934-.527,3.19,3.19,0,0,0,1.324-1.371v-2.6h-1.7q-3.984,0-3.984,2.332a1.974,1.974,0,0,0,.68,1.594A2.612,2.612,0,0,0,89.674,21.348Zm13.91.117a3.123,3.123,0,0,0,2.027-.7A2.474,2.474,0,0,0,106.572,19h2.051a3.931,3.931,0,0,1-.75,2.074,4.94,4.94,0,0,1-1.846,1.57,5.326,5.326,0,0,1-2.443.586,5.223,5.223,0,0,1-4.119-1.729,6.884,6.884,0,0,1-1.529-4.729v-.363a7.634,7.634,0,0,1,.68-3.293,5.177,5.177,0,0,1,1.951-2.238,5.543,5.543,0,0,1,3.006-.8,5.085,5.085,0,0,1,3.545,1.277,4.565,4.565,0,0,1,1.506,3.316h-2.051a2.988,2.988,0,0,0-.932-2.021,2.9,2.9,0,0,0-2.068-.791,3.034,3.034,0,0,0-2.561,1.189A5.586,5.586,0,0,0,100.1,16.5v.41a5.475,5.475,0,0,0,.9,3.375A3.049,3.049,0,0,0,103.584,21.465ZM113.416,23h-2.168V10.32h2.168ZM111.072,6.957a1.294,1.294,0,0,1,.322-.891,1.21,1.21,0,0,1,.955-.363,1.229,1.229,0,0,1,.961.363,1.28,1.28,0,0,1,.328.891,1.238,1.238,0,0,1-.328.879,1.251,1.251,0,0,1-.961.352,1.232,1.232,0,0,1-.955-.352A1.251,1.251,0,0,1,111.072,6.957Zm5.238,9.586a7.489,7.489,0,0,1,.732-3.352,5.464,5.464,0,0,1,2.039-2.3,5.551,5.551,0,0,1,2.982-.809,5.347,5.347,0,0,1,4.189,1.793,6.9,6.9,0,0,1,1.6,4.77V16.8a7.555,7.555,0,0,1-.709,3.322,5.383,5.383,0,0,1-2.027,2.291,5.614,5.614,0,0,1-3.029.82,5.334,5.334,0,0,1-4.178-1.793,6.863,6.863,0,0,1-1.6-4.746Zm2.18.258a5.424,5.424,0,0,0,.979,3.387,3.316,3.316,0,0,0,5.244-.018,5.932,5.932,0,0,0,.973-3.627,5.415,5.415,0,0,0-.99-3.381,3.148,3.148,0,0,0-2.631-1.295,3.113,3.113,0,0,0-2.59,1.277A5.888,5.888,0,0,0,118.49,16.8Zm4.559-11.777h2.625l-3.141,3.445-1.746-.006Zm9.574,5.3.07,1.594a4.621,4.621,0,0,1,3.8-1.828q4.02,0,4.055,4.535V23h-2.168V14.609a2.919,2.919,0,0,0-.627-2.027,2.512,2.512,0,0,0-1.916-.656,3.129,3.129,0,0,0-1.852.563,3.82,3.82,0,0,0-1.242,1.477V23h-2.168V10.32Z" transform="translate(1057.166 1185)" fill="#12263f"/>
      </g>
      <g id="Group_125330" data-name="Group 125330" transform="translate(0 -0.012)">
        <g transform="matrix(1, 0, 0, 1, 335.03, 955.73)" filter="url(#Ellipse_4899)">
          <ellipse id="Ellipse_4899-2" data-name="Ellipse 4899" cx="109.762" cy="109.762" rx="109.762" ry="109.762" transform="translate(497.41 674.04)" fill="#f8fcff"/>
        </g>
        <path id="Ellipse_4898" data-name="Ellipse 4898" d="M92.2-1.5A94.389,94.389,0,0,1,111.086.4a93.2,93.2,0,0,1,33.509,14.1,93.973,93.973,0,0,1,33.948,41.225A93.243,93.243,0,0,1,184,73.32a94.6,94.6,0,0,1,0,37.766,93.2,93.2,0,0,1-14.1,33.509,93.972,93.972,0,0,1-41.225,33.948A93.242,93.242,0,0,1,111.086,184a94.6,94.6,0,0,1-37.766,0,93.2,93.2,0,0,1-33.509-14.1A93.972,93.972,0,0,1,5.864,128.677,93.244,93.244,0,0,1,.4,111.086,94.6,94.6,0,0,1,.4,73.32,93.2,93.2,0,0,1,14.5,39.812,93.972,93.972,0,0,1,55.729,5.864,93.242,93.242,0,0,1,73.32.4,94.389,94.389,0,0,1,92.2-1.5Zm0,184.407A90.7,90.7,0,1,0,1.5,92.2,90.806,90.806,0,0,0,92.2,182.907Z" transform="translate(830.941 1808.916) rotate(-76.96)" fill="#45cfdd"/>
        <path id="Path_247207" data-name="Path 247207" d="M58.637,17.586a6.277,6.277,0,0,1-2,4.178,6.548,6.548,0,0,1-4.471,1.471,6.012,6.012,0,0,1-4.846-2.168,8.722,8.722,0,0,1-1.822-5.8V13.625a9.722,9.722,0,0,1,.85-4.184A6.346,6.346,0,0,1,48.758,6.67,6.705,6.705,0,0,1,52.367,5.7a6.165,6.165,0,0,1,4.359,1.518,6.353,6.353,0,0,1,1.91,4.2H56.375A4.9,4.9,0,0,0,55.1,8.46a3.847,3.847,0,0,0-2.736-.917,4.026,4.026,0,0,0-3.381,1.6,7.323,7.323,0,0,0-1.225,4.539v1.654a7.527,7.527,0,0,0,1.16,4.422,3.749,3.749,0,0,0,3.246,1.642,4.33,4.33,0,0,0,2.877-.85,4.715,4.715,0,0,0,1.33-2.959Zm2.156-1.043a7.489,7.489,0,0,1,.732-3.352,5.464,5.464,0,0,1,2.039-2.3,5.551,5.551,0,0,1,2.982-.809,5.347,5.347,0,0,1,4.189,1.793,6.9,6.9,0,0,1,1.6,4.77V16.8a7.555,7.555,0,0,1-.709,3.322A5.383,5.383,0,0,1,69.6,22.414a5.614,5.614,0,0,1-3.029.82,5.334,5.334,0,0,1-4.178-1.793,6.863,6.863,0,0,1-1.6-4.746Zm2.18.258a5.424,5.424,0,0,0,.979,3.387A3.316,3.316,0,0,0,69.2,20.17a5.932,5.932,0,0,0,.973-3.627,5.415,5.415,0,0,0-.99-3.381,3.148,3.148,0,0,0-2.631-1.295,3.113,3.113,0,0,0-2.59,1.277A5.888,5.888,0,0,0,62.973,16.8Zm14.133-6.48.07,1.594a4.621,4.621,0,0,1,3.8-1.828q4.02,0,4.055,4.535V23H82.859V14.609a2.919,2.919,0,0,0-.627-2.027,2.512,2.512,0,0,0-1.916-.656,3.129,3.129,0,0,0-1.852.563,3.82,3.82,0,0,0-1.242,1.477V23H75.055V10.32ZM91.238,7.25v3.07h2.367V12H91.238v7.873a1.76,1.76,0,0,0,.316,1.144,1.332,1.332,0,0,0,1.078.381,5.249,5.249,0,0,0,1.031-.141V23A6.322,6.322,0,0,1,92,23.234a2.7,2.7,0,0,1-2.191-.879,3.776,3.776,0,0,1-.738-2.5V12H86.762V10.32H89.07V7.25Zm11.027,5.016a6.5,6.5,0,0,0-1.066-.082A2.857,2.857,0,0,0,98.3,14v9H96.137V10.32h2.109l.035,1.465a3.376,3.376,0,0,1,3.023-1.7,2.215,2.215,0,0,1,.961.164Zm1.184,4.277a7.489,7.489,0,0,1,.732-3.352,5.464,5.464,0,0,1,2.039-2.3,5.551,5.551,0,0,1,2.982-.809,5.347,5.347,0,0,1,4.189,1.793,6.9,6.9,0,0,1,1.6,4.77V16.8a7.555,7.555,0,0,1-.709,3.322,5.383,5.383,0,0,1-2.027,2.291,5.614,5.614,0,0,1-3.029.82,5.334,5.334,0,0,1-4.178-1.793,6.863,6.863,0,0,1-1.6-4.746Zm2.18.258a5.424,5.424,0,0,0,.979,3.387,3.316,3.316,0,0,0,5.244-.018,5.932,5.932,0,0,0,.973-3.627,5.415,5.415,0,0,0-.99-3.381,3.148,3.148,0,0,0-2.631-1.295,3.113,3.113,0,0,0-2.59,1.277A5.888,5.888,0,0,0,105.629,16.8ZM120.066,23H117.9V5h2.168Z" transform="translate(859.441 1723.766)" fill="#12263f"/>
      </g>
      <g id="Group_125328" data-name="Group 125328" transform="translate(16 -0.487)">
        <g transform="matrix(1, 0, 0, 1, 319.03, 956.21)" filter="url(#Ellipse_4896)">
          <ellipse id="Ellipse_4896-2" data-name="Ellipse 4896" cx="112.927" cy="112.926" rx="112.927" ry="112.926" transform="translate(698.53 420.63)" fill="#f8fcff"/>
        </g>
        <path id="Ellipse_4897" data-name="Ellipse 4897" d="M94.862-1.5A97.067,97.067,0,0,1,114.281.458a95.843,95.843,0,0,1,34.459,14.5,96.638,96.638,0,0,1,34.911,42.4,95.888,95.888,0,0,1,5.616,18.09,97.288,97.288,0,0,1,0,38.837,95.843,95.843,0,0,1-14.5,34.459,96.639,96.639,0,0,1-42.4,34.911,95.888,95.888,0,0,1-18.09,5.616,97.288,97.288,0,0,1-38.837,0,95.843,95.843,0,0,1-34.459-14.5,96.639,96.639,0,0,1-34.911-42.4,95.888,95.888,0,0,1-5.616-18.09,97.288,97.288,0,0,1,0-38.837,95.843,95.843,0,0,1,14.5-34.459,96.638,96.638,0,0,1,42.4-34.911A95.888,95.888,0,0,1,75.443.458,97.067,97.067,0,0,1,94.862-1.5Zm0,189.724A93.362,93.362,0,1,0,1.5,94.862,93.468,93.468,0,0,0,94.862,188.224Z" transform="translate(996.472 1489.896) rotate(-45)" fill="#34d9c7"/>
        <path id="Path_247206" data-name="Path 247206" d="M14.125,23h-2.25V5.938h2.25Zm5.824-12.68.07,1.594a4.621,4.621,0,0,1,3.8-1.828q4.02,0,4.055,4.535V23H25.7V14.609a2.919,2.919,0,0,0-.627-2.027,2.512,2.512,0,0,0-1.916-.656,3.129,3.129,0,0,0-1.852.563,3.82,3.82,0,0,0-1.242,1.477V23H17.9V10.32Zm18.574,9.316a1.6,1.6,0,0,0-.662-1.365,6.373,6.373,0,0,0-2.309-.838,10.915,10.915,0,0,1-2.613-.844,3.718,3.718,0,0,1-1.43-1.172,2.8,2.8,0,0,1-.463-1.617,3.289,3.289,0,0,1,1.318-2.637,5.149,5.149,0,0,1,3.369-1.078,5.3,5.3,0,0,1,3.5,1.113,3.536,3.536,0,0,1,1.342,2.848h-2.18a1.957,1.957,0,0,0-.756-1.535,2.832,2.832,0,0,0-1.9-.645,2.964,2.964,0,0,0-1.852.516,1.623,1.623,0,0,0-.668,1.348,1.315,1.315,0,0,0,.621,1.184,7.642,7.642,0,0,0,2.244.762,11.693,11.693,0,0,1,2.631.867,3.838,3.838,0,0,1,1.494,1.213,2.982,2.982,0,0,1,.486,1.729,3.245,3.245,0,0,1-1.359,2.725A5.7,5.7,0,0,1,35.8,23.234a6.385,6.385,0,0,1-2.7-.539,4.384,4.384,0,0,1-1.834-1.506,3.629,3.629,0,0,1-.662-2.092h2.168a2.245,2.245,0,0,0,.873,1.729,3.387,3.387,0,0,0,2.15.639,3.5,3.5,0,0,0,1.975-.5A1.53,1.53,0,0,0,38.523,19.637ZM46.457,7.25v3.07h2.367V12H46.457v7.873a1.76,1.76,0,0,0,.316,1.144,1.332,1.332,0,0,0,1.078.381,5.249,5.249,0,0,0,1.031-.141V23a6.322,6.322,0,0,1-1.664.233,2.7,2.7,0,0,1-2.191-.879,3.776,3.776,0,0,1-.738-2.5V12H41.98V10.32h2.309V7.25Zm11.027,5.016a6.5,6.5,0,0,0-1.066-.082A2.857,2.857,0,0,0,53.523,14v9H51.355V10.32h2.109l.035,1.465a3.376,3.376,0,0,1,3.023-1.7,2.215,2.215,0,0,1,.961.164Zm9.82,9.48a4.6,4.6,0,0,1-3.715,1.488A3.942,3.942,0,0,1,60.5,22.057,5.1,5.1,0,0,1,59.43,18.57V10.32H61.6v8.191q0,2.883,2.344,2.883a3.245,3.245,0,0,0,3.3-1.852V10.32h2.168V23H67.352ZM74.746,10.32l.059,1.406a4.683,4.683,0,0,1,3.762-1.641,3.625,3.625,0,0,1,3.621,2.039,4.8,4.8,0,0,1,1.646-1.477,4.863,4.863,0,0,1,2.4-.562q4.172,0,4.242,4.418V23H88.3V14.633a2.911,2.911,0,0,0-.621-2.033,2.735,2.735,0,0,0-2.086-.674,2.875,2.875,0,0,0-2,.721,2.924,2.924,0,0,0-.926,1.939V23h-2.18V14.691q0-2.766-2.707-2.766a2.9,2.9,0,0,0-2.918,1.816V23H72.7V10.32ZM99,23.234a5.54,5.54,0,0,1-4.2-1.693,6.285,6.285,0,0,1-1.617-4.529v-.4a7.609,7.609,0,0,1,.721-3.369,5.622,5.622,0,0,1,2.016-2.32,5.068,5.068,0,0,1,2.807-.838,4.749,4.749,0,0,1,3.844,1.629,7.053,7.053,0,0,1,1.371,4.664v.9h-8.59a4.507,4.507,0,0,0,1.1,3.029,3.444,3.444,0,0,0,2.666,1.154A3.776,3.776,0,0,0,101.066,21a4.888,4.888,0,0,0,1.395-1.242l1.324,1.031A5.325,5.325,0,0,1,99,23.234Zm-.27-11.367a2.892,2.892,0,0,0-2.2.955,4.642,4.642,0,0,0-1.1,2.678h6.352v-.164a4.129,4.129,0,0,0-.891-2.561A2.723,2.723,0,0,0,98.734,11.867Zm9.773-1.547.07,1.594a4.621,4.621,0,0,1,3.8-1.828q4.02,0,4.055,4.535V23h-2.168V14.609a2.919,2.919,0,0,0-.627-2.027,2.512,2.512,0,0,0-1.916-.656,3.129,3.129,0,0,0-1.852.563,3.82,3.82,0,0,0-1.242,1.477V23h-2.168V10.32Zm14.133-3.07v3.07h2.367V12h-2.367v7.873a1.76,1.76,0,0,0,.316,1.144,1.332,1.332,0,0,0,1.078.381,5.249,5.249,0,0,0,1.031-.141V23a6.322,6.322,0,0,1-1.664.233,2.7,2.7,0,0,1-2.191-.879,3.776,3.776,0,0,1-.738-2.5V12h-2.309V10.32h2.309V7.25ZM135.367,23a4.554,4.554,0,0,1-.3-1.336,4.837,4.837,0,0,1-3.609,1.57,4.476,4.476,0,0,1-3.076-1.061,3.431,3.431,0,0,1-1.2-2.689,3.584,3.584,0,0,1,1.506-3.076,7.1,7.1,0,0,1,4.236-1.1h2.109v-1a2.435,2.435,0,0,0-.68-1.811,2.732,2.732,0,0,0-2-.674,3.161,3.161,0,0,0-1.945.586,1.727,1.727,0,0,0-.785,1.418h-2.18A2.992,2.992,0,0,1,128.107,12a4.6,4.6,0,0,1,1.828-1.4,6.15,6.15,0,0,1,2.537-.516,5.013,5.013,0,0,1,3.434,1.1A3.953,3.953,0,0,1,137.2,14.2v5.836a7.135,7.135,0,0,0,.445,2.777V23Zm-3.6-1.652a3.81,3.81,0,0,0,1.934-.527,3.19,3.19,0,0,0,1.324-1.371v-2.6h-1.7q-3.984,0-3.984,2.332a1.974,1.974,0,0,0,.68,1.594A2.612,2.612,0,0,0,131.77,21.348Zm13.91.117a3.123,3.123,0,0,0,2.027-.7A2.474,2.474,0,0,0,148.668,19h2.051a3.931,3.931,0,0,1-.75,2.074,4.94,4.94,0,0,1-1.846,1.57,5.326,5.326,0,0,1-2.443.586,5.223,5.223,0,0,1-4.119-1.729,6.884,6.884,0,0,1-1.529-4.729v-.363a7.634,7.634,0,0,1,.68-3.293,5.177,5.177,0,0,1,1.951-2.238,5.543,5.543,0,0,1,3.006-.8,5.085,5.085,0,0,1,3.545,1.277,4.565,4.565,0,0,1,1.506,3.316h-2.051a2.988,2.988,0,0,0-.932-2.021,2.9,2.9,0,0,0-2.068-.791,3.034,3.034,0,0,0-2.561,1.189A5.586,5.586,0,0,0,142.2,16.5v.41a5.475,5.475,0,0,0,.9,3.375A3.049,3.049,0,0,0,145.68,21.465ZM155.512,23h-2.168V10.32h2.168ZM153.168,6.957a1.294,1.294,0,0,1,.322-.891,1.21,1.21,0,0,1,.955-.363,1.229,1.229,0,0,1,.961.363,1.28,1.28,0,0,1,.328.891,1.238,1.238,0,0,1-.328.879,1.251,1.251,0,0,1-.961.352,1.232,1.232,0,0,1-.955-.352A1.251,1.251,0,0,1,153.168,6.957Zm5.238,9.586a7.489,7.489,0,0,1,.732-3.352,5.464,5.464,0,0,1,2.039-2.3,5.551,5.551,0,0,1,2.982-.809,5.347,5.347,0,0,1,4.189,1.793,6.9,6.9,0,0,1,1.6,4.77V16.8a7.555,7.555,0,0,1-.709,3.322,5.383,5.383,0,0,1-2.027,2.291,5.614,5.614,0,0,1-3.029.82,5.334,5.334,0,0,1-4.178-1.793,6.863,6.863,0,0,1-1.6-4.746Zm2.18.258a5.424,5.424,0,0,0,.979,3.387,3.316,3.316,0,0,0,5.244-.018,5.932,5.932,0,0,0,.973-3.627,5.415,5.415,0,0,0-.99-3.381,3.148,3.148,0,0,0-2.631-1.295,3.113,3.113,0,0,0-2.59,1.277A5.888,5.888,0,0,0,160.586,16.8Zm4.559-11.777h2.625l-3.141,3.445-1.746-.006Zm9.574,5.3.07,1.594a4.621,4.621,0,0,1,3.8-1.828q4.02,0,4.055,4.535V23h-2.168V14.609a2.919,2.919,0,0,0-.627-2.027,2.512,2.512,0,0,0-1.916-.656,3.129,3.129,0,0,0-1.852.563,3.82,3.82,0,0,0-1.242,1.477V23h-2.168V10.32Z" transform="translate(1033.73 1473.999)" fill="#12263f"/>
      </g>
    </g>
    <g id="OBJECTS" transform="translate(773.688 1280.795) rotate(-90)">
      <path id="Union_2" data-name="Union 2" d="M8553.946,10571.584h-54.29c6.051-10.4,5.966-18.5-.382-28.782h54.672v-7.146l21.537,21.536-21.537,21.537Z" transform="translate(-8452.673 -10534.016)" fill="#cfddfc"/>
      <path id="Union_5" data-name="Union 5" d="M8553.946,10571.584h-54.29c6.051-10.4,5.966-18.5-.382-28.782h54.672v-7.146l21.537,21.536-21.537,21.537Z" transform="translate(4877.198 -12491.007) rotate(60)" fill="#cfddfc"/>
      <path id="Union_6" data-name="Union 6" d="M21.538,35.929h54.29c-6.051-10.4-5.966-18.5.382-28.783H21.538V0L0,21.536,21.538,43.073Z" transform="matrix(-0.588, 0.809, -0.809, -0.588, 53.718, -142.428)" fill="#cfddfc"/>
      <path id="Union_7" data-name="Union 7" d="M54.672,35.93H.382C6.433,25.527,6.348,17.433,0,7.146H54.672V0L76.21,21.537,54.672,43.074Z" transform="translate(-170.61 -124.26) rotate(-106)" fill="#cfddfc"/>
      <path id="Union_8" data-name="Union 8" d="M21.538,35.929h54.29c-6.051-10.4-5.966-18.5.382-28.783H21.538V0L0,21.537,21.538,43.074Z" transform="translate(-191.617 245.868) rotate(-74)" fill="#cfddfc"/>
      <path id="Union_3" data-name="Union 3" d="M8553.946,10571.584h-54.29c6.051-10.4,5.966-18.5-.382-28.782h54.672v-7.146l21.537,21.536-21.537,21.537Z" transform="translate(11699.027 6493.303) rotate(157)" fill="#cfddfc"/>
      <path id="Union_4" data-name="Union 4" d="M21.537,35.929H75.828c-6.051-10.4-5.966-18.5.382-28.782H21.537V0L0,21.536,21.537,43.073Z" transform="matrix(0.921, 0.391, -0.391, 0.921, -311.356, -92.536)" fill="#cfddfc"/>
    </g>
    <g id="noun_Logistics_1016553" transform="translate(736.5 1372)" opacity="0.7">
      <path id="Path_204509" data-name="Path 204509" d="M63.362,54.678c.033-.057.06-.115.091-.172.172-.3.335-.611.494-.922.141-.274.273-.553.4-.832.22-.472.423-.95.609-1.436.135-.349.269-.7.386-1.056.1-.311.2-.626.287-.944.112-.388.21-.779.3-1.173.059-.256.126-.51.177-.77.123-.617.212-1.24.285-1.864.024-.2.044-.408.062-.615.066-.7.11-1.4.11-2.109s-.044-1.409-.106-2.108c-.018-.2-.038-.41-.062-.615-.073-.626-.163-1.248-.285-1.864-.051-.26-.119-.514-.177-.77-.091-.393-.19-.783-.3-1.173-.091-.317-.185-.631-.287-.944-.119-.355-.252-.706-.386-1.056q-.283-.73-.609-1.436c-.13-.28-.262-.558-.4-.832-.159-.311-.322-.62-.494-.922-.033-.057-.06-.115-.091-.172-.016-.027-.04-.049-.059-.077a23.728,23.728,0,0,0-41.041,0c-.018.027-.042.048-.059.077-.033.057-.06.115-.091.172-.172.3-.335.611-.494.922-.141.274-.273.553-.4.832-.22.472-.423.95-.609,1.436-.135.349-.269.7-.386,1.056-.1.311-.2.626-.287.944-.112.388-.21.779-.3,1.173-.059.256-.126.51-.177.77-.123.617-.212,1.24-.285,1.864-.024.2-.044.408-.062.615-.066.7-.11,1.4-.11,2.109s.044,1.409.106,2.108c.018.2.038.41.062.615.073.626.163,1.248.285,1.864.051.26.119.514.177.77.091.393.19.783.3,1.173.091.317.185.631.287.944.119.355.252.706.386,1.056q.283.73.609,1.436c.13.28.262.558.4.832.159.311.322.62.494.922.033.057.06.115.091.172.016.027.04.049.059.077a23.728,23.728,0,0,0,41.041,0C63.321,54.728,63.345,54.706,63.362,54.678Zm-.66-9.155c-.082.6-.185,1.191-.322,1.78-.037.159-.082.317-.123.474-.154.595-.331,1.182-.538,1.76-.048.132-.1.265-.145.4q-.362.944-.816,1.853c-.024.048-.046.1-.07.146H52.975a50.177,50.177,0,0,0,.748-7.318H62.8c-.013.143-.009.287-.026.43C62.756,45.2,62.723,45.362,62.7,45.523ZM42.784,62.91c-1.967,0-4.062-2.794-5.505-7.318H48.291C46.846,60.116,44.751,62.91,42.784,62.91ZM36.346,51.932a45.369,45.369,0,0,1-.842-7.318h14.56a45.576,45.576,0,0,1-.842,7.318Zm-11.535-.146q-.456-.908-.816-1.853c-.049-.132-.1-.263-.145-.4-.207-.578-.384-1.165-.538-1.76-.04-.157-.086-.315-.123-.474-.137-.587-.238-1.182-.322-1.78-.022-.161-.055-.318-.073-.481-.016-.143-.013-.287-.026-.43h9.078A50.176,50.176,0,0,0,32.6,51.93H24.882C24.856,51.885,24.834,51.835,24.811,51.786Zm-1.943-11.74c.082-.6.185-1.191.322-1.78.037-.159.082-.317.123-.474.154-.595.331-1.182.538-1.76.048-.132.1-.265.145-.4q.362-.944.816-1.853c.024-.048.046-.1.07-.146h7.713a50.177,50.177,0,0,0-.748,7.318H22.769c.013-.143.009-.287.026-.43C22.813,40.364,22.846,40.207,22.868,40.046ZM42.784,22.659c1.967,0,4.062,2.794,5.505,7.318H37.277C38.723,25.453,40.818,22.659,42.784,22.659Zm6.438,10.977a45.368,45.368,0,0,1,.842,7.318H35.5a45.575,45.575,0,0,1,.842-7.318Zm11.535.146q.456.908.816,1.853c.049.132.1.263.145.4.207.578.384,1.165.538,1.76.04.157.086.315.123.474.137.587.238,1.182.322,1.78.022.161.055.318.073.481.016.143.013.287.026.43H53.722a50.177,50.177,0,0,0-.748-7.318h7.713C60.712,33.684,60.734,33.734,60.758,33.783ZM58.3,29.977H52.126a25.285,25.285,0,0,0-2.545-6.113A20.214,20.214,0,0,1,58.3,29.977ZM35.989,23.865a25.358,25.358,0,0,0-2.545,6.113H27.273A20.193,20.193,0,0,1,35.989,23.865ZM27.271,55.591h6.171A25.285,25.285,0,0,0,35.988,61.7,20.215,20.215,0,0,1,27.271,55.591ZM49.579,61.7a25.358,25.358,0,0,0,2.545-6.113H58.3A20.193,20.193,0,0,1,49.579,61.7Z" transform="translate(15.328 14.103)" fill="#7b1fa2"/>
      <path id="Path_204510" data-name="Path 204510" d="M77.591,2H57.466a1.828,1.828,0,0,0-1.83,1.83V9.318H51.977a1.825,1.825,0,0,0-1.1.366l-7.318,5.489a1.831,1.831,0,0,0-.732,1.464V20.3A1.828,1.828,0,0,0,41,22.125v7.318a1.828,1.828,0,0,0,1.83,1.83h1.83a5.489,5.489,0,1,0,10.977,0h7.318a5.489,5.489,0,1,0,10.977,0h3.659a1.828,1.828,0,0,0,1.83-1.83V3.83A1.828,1.828,0,0,0,77.591,2ZM59.3,5.659H75.762V20.3H59.3V5.659ZM46.489,17.551l6.1-4.574h3.05V20.3H46.489ZM50.148,33.1a1.83,1.83,0,0,1-1.83-1.83,1.782,1.782,0,0,1,.379-1.059,1.854,1.854,0,0,1,2.9,0,1.782,1.782,0,0,1,.379,1.059A1.83,1.83,0,0,1,50.148,33.1Zm18.3,0a1.83,1.83,0,0,1-1.83-1.83,1.782,1.782,0,0,1,.379-1.059,1.854,1.854,0,0,1,2.9,0,1.782,1.782,0,0,1,.379,1.059A1.83,1.83,0,0,1,68.444,33.1Zm7.318-5.489H72.516c-.013-.015-.029-.024-.042-.038a5.464,5.464,0,0,0-.732-.662c-.035-.027-.066-.059-.1-.084a5.449,5.449,0,0,0-.906-.529c-.022-.011-.042-.026-.064-.035a5.463,5.463,0,0,0-1.015-.337c-.022-.005-.042-.015-.064-.02a5.536,5.536,0,0,0-1.147-.124,5.474,5.474,0,0,0-1.143.124c-.022.005-.042.015-.064.02a5.463,5.463,0,0,0-1.015.337c-.024.011-.044.026-.066.037a5.449,5.449,0,0,0-.906.529c-.037.026-.066.057-.1.084a5.464,5.464,0,0,0-.732.662c-.013.015-.029.024-.042.038H54.22c-.013-.015-.029-.024-.042-.038a5.463,5.463,0,0,0-.732-.662c-.035-.027-.066-.059-.1-.084a5.449,5.449,0,0,0-.906-.529c-.022-.011-.042-.026-.064-.035a5.463,5.463,0,0,0-1.015-.337c-.022-.005-.042-.015-.064-.02a5.415,5.415,0,0,0-1.147-.126A5.474,5.474,0,0,0,49,25.909c-.022.005-.042.015-.064.02a5.463,5.463,0,0,0-1.015.337c-.024.011-.044.026-.066.037a5.449,5.449,0,0,0-.906.529c-.037.026-.066.057-.1.084a5.463,5.463,0,0,0-.732.662c-.013.015-.029.024-.042.038H44.659V23.957h31.1Z" transform="translate(33.579)" fill="#7b1fa2"/>
      <path id="Path_204511" data-name="Path 204511" d="M7.936,15.078A3.658,3.658,0,0,0,2.8,19.423l2.28,7.432a3.64,3.64,0,0,0,3.5,2.587h5.7a1.846,1.846,0,0,0,.644-.115l11.846-4.444-1.5,13.506A1.83,1.83,0,0,0,27.9,40.227l7.318-3.659a1.829,1.829,0,0,0,.917-1.057l5.249-15.747,14.638-7.318a3.659,3.659,0,0,0,.245-6.411l-6.29-3.773a1.828,1.828,0,0,0-1.723-.084L34.481,8.7,20.529,2.291a1.814,1.814,0,0,0-1.182-.119L12.029,3.881a1.825,1.825,0,0,0-.684,3.238l10.218,7.7L14.3,18.26Zm11.634-9.2L29.86,10.6,24.85,12.711l-8.178-6.16ZM48.935,5.9l5.45,3.269L55.327,7.6l-.94,1.568L39.072,16.829a1.829,1.829,0,0,0-.917,1.057L32.906,33.634l-3.632,1.815,1.458-13.124a1.831,1.831,0,0,0-1.82-2.031,1.877,1.877,0,0,0-.644.115L13.942,25.783H8.58L6.3,18.351l7.157,3.579a1.816,1.816,0,0,0,1.6.016Z" transform="translate(1.757 0.001)" fill="#7b1fa2"/>
      <path id="Path_204512" data-name="Path 204512" d="M76.762,43H43.83A1.828,1.828,0,0,0,42,44.83v7.318a1.828,1.828,0,0,0,1.83,1.83h1.83V75.932a1.828,1.828,0,0,0,1.83,1.83H73.1a1.828,1.828,0,0,0,1.83-1.83V53.977h1.83a1.828,1.828,0,0,0,1.83-1.83V44.83A1.828,1.828,0,0,0,76.762,43ZM71.273,74.1H49.318V53.977H71.273Zm3.659-23.784H45.659V46.659H74.932Z" transform="translate(34.409 34.012)" fill="#7b1fa2"/>
      <rect id="Rectangle_41466" data-name="Rectangle 41466" width="12" height="3" transform="translate(89 92)" fill="#7b1fa2"/>
      <rect id="Rectangle_41467" data-name="Rectangle 41467" width="4" height="3" transform="translate(56 103)" fill="#7b1fa2"/>
      <rect id="Rectangle_41468" data-name="Rectangle 41468" width="5" height="3" transform="translate(63 103)" fill="#7b1fa2"/>
      <rect id="Rectangle_41469" data-name="Rectangle 41469" width="3" height="3" transform="translate(71 101)" fill="#7b1fa2"/>
      <rect id="Rectangle_41470" data-name="Rectangle 41470" width="4" height="3" transform="translate(102 70)" fill="#7b1fa2"/>
      <rect id="Rectangle_41471" data-name="Rectangle 41471" width="3" height="4" transform="translate(104 62)" fill="#7b1fa2"/>
      <rect id="Rectangle_41472" data-name="Rectangle 41472" width="3" height="4" transform="translate(104 55)" fill="#7b1fa2"/>
      <rect id="Rectangle_41473" data-name="Rectangle 41473" width="3" height="5" transform="translate(104 47)" fill="#7b1fa2"/>
      <rect id="Rectangle_41474" data-name="Rectangle 41474" width="4" height="3" transform="translate(102 41)" fill="#7b1fa2"/>
      <rect id="Rectangle_41475" data-name="Rectangle 41475" width="4" height="4" transform="translate(73 9)" fill="#7b1fa2"/>
      <rect id="Rectangle_41476" data-name="Rectangle 41476" width="4" height="3" transform="translate(65 8)" fill="#7b1fa2"/>
      <rect id="Rectangle_41477" data-name="Rectangle 41477" width="4" height="4" transform="translate(14 33)" fill="#7b1fa2"/>
      <rect id="Rectangle_41478" data-name="Rectangle 41478" width="3" height="3" transform="translate(11 41)" fill="#7b1fa2"/>
      <rect id="Rectangle_41479" data-name="Rectangle 41479" width="3" height="5" transform="translate(9 47)" fill="#7b1fa2"/>
      <rect id="Rectangle_41480" data-name="Rectangle 41480" width="3" height="4" transform="translate(9 55)" fill="#7b1fa2"/>
      <rect id="Rectangle_41481" data-name="Rectangle 41481" width="3" height="4" transform="translate(9 62)" fill="#7b1fa2"/>
      <path id="Path_204513" data-name="Path 204513" d="M44.755,76.415,47.7,63.182a1.829,1.829,0,0,0-1.786-2.227h-31.1V56.6l13.625-6.813a1.829,1.829,0,0,0,0-3.273L13.8,39.192a1.829,1.829,0,0,0-2.647,1.637V60.955H5.659a1.829,1.829,0,0,0-1.786,2.227l2.94,13.233a3.642,3.642,0,0,1-1.154-2.653H2a7.288,7.288,0,0,0,12.807,4.79,7.222,7.222,0,0,0,10.977,0,7.222,7.222,0,0,0,10.977,0,7.288,7.288,0,0,0,12.807-4.79H45.91A3.642,3.642,0,0,1,44.755,76.415ZM14.807,52.506V43.79l8.716,4.358ZM38.591,73.762H34.932a3.659,3.659,0,1,1-7.318,0H23.955a3.659,3.659,0,1,1-7.318,0H12.977a3.66,3.66,0,0,1-2.254,3.376L7.941,64.614H43.628L40.845,77.138A3.66,3.66,0,0,1,38.591,73.762Z" transform="translate(1.226 30.694)" fill="#7b1fa2"/>
    </g>
  </g>
</svg>
