<svg xmlns="http://www.w3.org/2000/svg" width="81" height="81" viewBox="0 0 81 81">
  <g id="t1-ic1" transform="translate(-377 -7923.912)">
    <path id="Rectangle_34493" data-name="Rectangle 34493" d="M1,1V80H80V1H1M0,0H81V81H0Z" transform="translate(377 7923.912)"/>
    <g id="Group_102722" data-name="Group 102722" transform="translate(-197.119 6631.636)">
      <path id="Path_159166" data-name="Path 159166" d="M640.911,1349.284H606.538l-.189-.757c-.4-1.617-3.658-1.836-4.764-1.786l-1.375.063,8.659-31.418h16.324v13.944a1,1,0,0,1-2,0v-11.944h-12.8l-7.55,27.393a11.91,11.91,0,0,1,1.535.217c2.131.453,3.148,1.393,3.622,2.29h30.912v-12.1H617.489a1,1,0,0,1,0-2h23.423Z" transform="translate(1.984 0.624)"/>
      <path id="Line_285" data-name="Line 285" d="M35.366,29.663a1,1,0,0,1-.629-.223L-.63.777A1,1,0,0,1-.777-.63,1,1,0,0,1,.63-.777L36,27.886a1,1,0,0,1-.63,1.777Z" transform="translate(598.669 1322.324)"/>
      <path id="Line_286" data-name="Line 286" d="M0,7.473a1,1,0,0,1-.976-.788A1,1,0,0,1-.212,5.5L29.607-.977A1,1,0,0,1,30.8-.212,1,1,0,0,1,30.031.977L.212,7.45A1,1,0,0,1,0,7.473Z" transform="translate(592.891 1326.485)"/>
      <path id="Path_159167" data-name="Path 159167" d="M596.655,1351.987h-9.313a1,1,0,0,1,0-2h7.793l10.661-38.333a1,1,0,0,1,1.927.536Z"/>
      <path id="Ellipse_5031" data-name="Ellipse 5031" d="M3.784-1A4.784,4.784,0,1,1-1,3.784,4.79,4.79,0,0,1,3.784-1Zm0,7.569A2.784,2.784,0,1,0,1,3.784,2.788,2.788,0,0,0,3.784,6.569Z" transform="translate(601.927 1346.061)"/>
      <path id="Ellipse_5032" data-name="Ellipse 5032" d="M3.784-1A4.784,4.784,0,1,1-1,3.784,4.79,4.79,0,0,1,3.784-1Zm0,7.569A2.784,2.784,0,1,0,1,3.784,2.788,2.788,0,0,0,3.784,6.569Z" transform="translate(627.422 1346.061)"/>
    </g>
  </g>
</svg>
