<svg xmlns="http://www.w3.org/2000/svg" width="81" height="81" viewBox="0 0 81 81">
  <g id="t1-ic5" transform="translate(-377 -8313.088)">
    <path id="Rectangle_34501" data-name="Rectangle 34501" d="M1,1V80H80V1H1M0,0H81V81H0Z" transform="translate(377 8313.088)"/>
    <g id="Group_102726" data-name="Group 102726" transform="translate(-200.003 6725.389)">
      <path id="Rectangle_34523" data-name="Rectangle 34523" d="M-.5-.5H18.87V17.377H-.5ZM17.87.5H.5V16.377H17.87Z" transform="translate(607.828 1599.699)"/>
      <path id="Rectangle_34524" data-name="Rectangle 34524" d="M-.5-.5H18.87V17.377H-.5ZM17.87.5H.5V16.377H17.87Z" transform="translate(607.828 1619.115)"/>
      <rect id="Rectangle_34525" data-name="Rectangle 34525" width="18.37" height="16.877" transform="translate(607.828 1640.174)"/>
      <path id="Line_287" data-name="Line 287" d="M26.584,20.812a.5.5,0,0,1-.3-.1L-.3.4A.5.5,0,0,1-.4-.3.5.5,0,0,1,.3-.4L26.888,19.915a.5.5,0,0,1-.3.9Z" transform="translate(604.243 1599.699)"/>
      <path id="Line_288" data-name="Line 288" d="M0,12.15a.5.5,0,0,1-.469-.325.5.5,0,0,1,.294-.643L31.04-.468a.5.5,0,0,1,.643.294.5.5,0,0,1-.294.643L.175,12.118A.5.5,0,0,1,0,12.15Z" transform="translate(602.003 1603.583)"/>
    </g>
  </g>
</svg>
