<svg xmlns="http://www.w3.org/2000/svg" xmlns:xlink="http://www.w3.org/1999/xlink" width="179" height="179" viewBox="0 0 179 179">
  <defs>
    <filter id="Ellipse_4062" x="0" y="0" width="179" height="179" filterUnits="userSpaceOnUse">
      <feOffset dy="3" input="SourceAlpha"/>
      <feGaussianBlur stdDeviation="3" result="blur"/>
      <feFlood flood-opacity="0.161"/>
      <feComposite operator="in" in2="blur"/>
      <feComposite in="SourceGraphic"/>
    </filter>
  </defs>
  <g id="t1-t5" transform="translate(-276 -856.273)">
    <g transform="matrix(1, 0, 0, 1, 276, 856.27)" filter="url(#Ellipse_4062)">
      <circle id="Ellipse_4062-2" data-name="Ellipse 4062" cx="80.5" cy="80.5" r="80.5" transform="translate(9 6)" fill="#fff"/>
    </g>
    <circle id="Ellipse_4063" data-name="Ellipse 4063" cx="62" cy="62" r="62" transform="translate(302 881.273)" fill="#ba68c8"/>
    <g id="noun_cargo_2201591" transform="translate(331.473 916.11)">
      <g id="Group_128909" data-name="Group 128909" transform="translate(0.529 1.323)">
        <path id="Path_197060" data-name="Path 197060" d="M4.022,291.973a5.913,5.913,0,0,0,4.292,8.1v5.719H6.01a1.152,1.152,0,1,0,0,2.3h6.911a1.152,1.152,0,1,0,0-2.3h-2.3v-5.719a5.913,5.913,0,0,0,4.3-8.1Zm1.836,2.3h7.217a3.609,3.609,0,0,1-7.217,0Z" transform="translate(22.785 -273.541)" fill="#e6ecf8"/>
        <path id="Path_197061" data-name="Path 197061" d="M9.034,291.981a7.8,7.8,0,0,0-7.41,6.9h6.6V303.4a1.728,1.728,0,0,1-3.455,0,1.152,1.152,0,1,0-2.3,0,4.031,4.031,0,0,0,8.063,0v-4.517h6.6a7.8,7.8,0,0,0-8.094-6.9Zm.072,2.3a5.5,5.5,0,0,1,4.747,2.295H4.9a5.5,5.5,0,0,1,4.207-2.295Z" transform="translate(7.902 -273.54)" fill="#e6ecf8"/>
        <path id="Path_197062" data-name="Path 197062" d="M.529,289.856v50.68H14.351V329.018H51.209v11.518H65.031v-50.68Zm2.3,2.3H7.872l-5.039,4.913Zm8.337,0H54.39l8.337,8.135v26.42H2.833v-26.42Zm46.523,0h5.035v4.913ZM2.833,329.018h9.215v9.215H2.833Zm50.68,0h9.215v9.215H53.513Z" transform="translate(-0.529 -289.856)" fill="#e6ecf8"/>
        <path id="Path_197063" data-name="Path 197063" d="M8.747,291.973l-3.455,3.456H7.6v10.366h-2.3v2.3H19.114v-2.3h-2.3V295.429h2.3l-3.455-3.456L12.2,295.429h2.3v10.366H9.9V295.429h2.3Z" transform="translate(36.174 -273.541)" fill="#e6ecf8"/>
      </g>
    </g>
  </g>
</svg>
