<svg xmlns="http://www.w3.org/2000/svg" xmlns:xlink="http://www.w3.org/1999/xlink" width="179" height="179" viewBox="0 0 179 179">
  <defs>
    <filter id="Ellipse_4062" x="0" y="0" width="179" height="179" filterUnits="userSpaceOnUse">
      <feOffset dy="3" input="SourceAlpha"/>
      <feGaussianBlur stdDeviation="3" result="blur"/>
      <feFlood flood-opacity="0.161"/>
      <feComposite operator="in" in2="blur"/>
      <feComposite in="SourceGraphic"/>
    </filter>
  </defs>
  <g id="t1-t1" transform="translate(-276 -856.273)">
    <g transform="matrix(1, 0, 0, 1, 276, 856.27)" filter="url(#Ellipse_4062)">
      <circle id="Ellipse_4062-2" data-name="Ellipse 4062" cx="80.5" cy="80.5" r="80.5" transform="translate(9 6)" fill="#fff"/>
    </g>
    <circle id="Ellipse_4063" data-name="Ellipse 4063" cx="62" cy="62" r="62" transform="translate(302 881.273)" fill="#ba68c8"/>
    <g id="noun_cargo_3082634" transform="translate(322.2 901.273)">
      <g id="Group_128908" data-name="Group 128908" transform="translate(0 0)">
        <path id="Path_197050" data-name="Path 197050" d="M87.016,38.472H66.958V3.186A1.485,1.485,0,0,0,65.472,1.7H22.757a1.485,1.485,0,0,0-1.486,1.486V38.472H1.586A1.485,1.485,0,0,0,.1,39.958V75.616a2.463,2.463,0,0,0,2.6,2.6H85.9a3.142,3.142,0,0,0,2.162-1.177,1.491,1.491,0,0,0,.438-1.051V39.958A1.485,1.485,0,0,0,87.016,38.472ZM69.558,41.444v5.2h-7.8v-5.2ZM40.215,4.671h7.8l0,5.2-7.8-.007Zm-15.972,0h13v5.572a2.462,2.462,0,0,0,2.6,2.6h8.543a2.462,2.462,0,0,0,2.6-2.6V4.671h13v33.8H24.243Zm-5.2,36.772h7.8v5.2h-7.8Zm23.772,33.8H3.071v-33.8h13v5.572a2.46,2.46,0,0,0,2.6,2.6h8.543a2.46,2.46,0,0,0,2.6-2.6V41.444h13Zm42.715,0H45.786v-33.8h13v5.572a2.46,2.46,0,0,0,2.6,2.6H69.93a2.46,2.46,0,0,0,2.6-2.6V41.444h13Z" transform="translate(-0.1 -1.7)" fill="#e6ecf8"/>
        <path id="Path_197051" data-name="Path 197051" d="M19.119,19.433a1.192,1.192,0,0,0,.071,1.657,1.248,1.248,0,0,0,1.408.245v3.447c0,.416,0,.624.007,1.389a1.239,1.239,0,0,0,1.252,1.281h.011A1.25,1.25,0,0,0,23.1,26.215a3.622,3.622,0,0,0,0-.368V24.714c0-1.17,0-1.969,0-3.387a1.206,1.206,0,0,0,1.475-.267,1.253,1.253,0,0,0-.111-1.779c-.55-.557-1.1-1.118-1.668-1.664a1.258,1.258,0,0,0-1.768-.1C20.427,18.084,19.8,18.712,19.119,19.433Z" transform="translate(50.707 40.376)" fill="#e6ecf8"/>
        <path id="Path_197052" data-name="Path 197052" d="M21.983,21.361a.877.877,0,0,0,.5-.089v4.866a1.3,1.3,0,0,0,.483,1.062,1.194,1.194,0,0,0,.732.241,1.348,1.348,0,0,0,.357-.048,1.255,1.255,0,0,0,.917-1.319l0-4.751a1.2,1.2,0,0,0,1.437-.234,1.262,1.262,0,0,0-.082-1.824c-.542-.546-1.085-1.1-1.638-1.631a1.287,1.287,0,0,0-1.835-.085c-.561.527-1.129,1.1-1.794,1.794a1.151,1.151,0,0,0-.167,1.315A1.242,1.242,0,0,0,21.983,21.361Z" transform="translate(56 40.387)" fill="#e6ecf8"/>
        <path id="Path_197053" data-name="Path 197053" d="M30.676,20.253H20.228a1.487,1.487,0,0,0-1.073.4,1.187,1.187,0,0,0-.338.869,1.265,1.265,0,0,0,1.408,1.211q2.6.006,5.2,0l1.322,0c1.319,0,2.641,0,3.963,0a1.257,1.257,0,0,0,1.111-.52,1.221,1.221,0,0,0,.089-1.3A1.284,1.284,0,0,0,30.676,20.253Z" transform="translate(50.701 48.659)" fill="#e6ecf8"/>
        <path id="Path_197054" data-name="Path 197054" d="M7.619,19.433a1.192,1.192,0,0,0,.071,1.657,1.25,1.25,0,0,0,1.408.245v3.447c0,.416,0,.624.007,1.389a1.239,1.239,0,0,0,1.252,1.281h.011A1.25,1.25,0,0,0,11.6,26.215a3.623,3.623,0,0,0,0-.368V24.714c0-1.17,0-1.969,0-3.387a1.206,1.206,0,0,0,1.475-.267,1.253,1.253,0,0,0-.111-1.779c-.55-.557-1.1-1.118-1.668-1.664a1.258,1.258,0,0,0-1.768-.1C8.927,18.084,8.3,18.712,7.619,19.433Z" transform="translate(19.492 40.376)" fill="#e6ecf8"/>
        <path id="Path_197055" data-name="Path 197055" d="M10.483,21.361a.883.883,0,0,0,.5-.089v4.866a1.3,1.3,0,0,0,.483,1.062,1.194,1.194,0,0,0,.732.241,1.348,1.348,0,0,0,.357-.048,1.255,1.255,0,0,0,.917-1.319l0-4.751a1.2,1.2,0,0,0,1.437-.234,1.262,1.262,0,0,0-.082-1.824c-.542-.546-1.085-1.1-1.638-1.631a1.287,1.287,0,0,0-1.835-.085c-.561.527-1.129,1.1-1.794,1.794A1.151,1.151,0,0,0,9.4,20.659,1.242,1.242,0,0,0,10.483,21.361Z" transform="translate(24.785 40.387)" fill="#e6ecf8"/>
        <path id="Path_197056" data-name="Path 197056" d="M19.176,20.253H8.728a1.487,1.487,0,0,0-1.073.4,1.187,1.187,0,0,0-.338.869,1.265,1.265,0,0,0,1.408,1.211q2.6.006,5.2,0l1.322,0c1.319,0,2.641,0,3.963,0a1.257,1.257,0,0,0,1.111-.52,1.221,1.221,0,0,0,.089-1.3A1.284,1.284,0,0,0,19.176,20.253Z" transform="translate(19.486 48.659)" fill="#e6ecf8"/>
        <path id="Path_197057" data-name="Path 197057" d="M14.9,11.456v3.417c0,.435,0,.635.011,1.415a1.237,1.237,0,0,0,1.252,1.285h.007a1.259,1.259,0,0,0,1.237-1.244c.007-.085,0-.175,0-.264l0-4.617a1.2,1.2,0,0,0,1.471-.267A1.246,1.246,0,0,0,18.772,9.4c-.55-.561-1.1-1.122-1.668-1.668a1.276,1.276,0,0,0-1.768-.1c-.62.572-1.248,1.2-1.92,1.917a1.2,1.2,0,0,0,.071,1.657A1.265,1.265,0,0,0,14.9,11.456Z" transform="translate(35.238 13.571)" fill="#e6ecf8"/>
        <path id="Path_197058" data-name="Path 197058" d="M16.276,11.491a1.141,1.141,0,0,0,.5-.089v4.866a1.313,1.313,0,0,0,.487,1.062,1.183,1.183,0,0,0,.728.241,1.348,1.348,0,0,0,.357-.048A1.261,1.261,0,0,0,19.27,16.2V11.45a1.2,1.2,0,0,0,1.441-.23A1.258,1.258,0,0,0,20.629,9.4c-.542-.553-1.085-1.1-1.634-1.638a1.27,1.27,0,0,0-1.831-.082c-.55.509-1.122,1.081-1.8,1.794a1.152,1.152,0,0,0-.163,1.315A1.186,1.186,0,0,0,16.276,11.491Z" transform="translate(40.535 13.566)" fill="#e6ecf8"/>
        <path id="Path_197059" data-name="Path 197059" d="M14.519,12.868h6.262c1.411,0,2.819,0,4.231,0a1.248,1.248,0,0,0,1.107-.516,1.2,1.2,0,0,0,.093-1.3,1.274,1.274,0,0,0-1.237-.683H14.526a1.477,1.477,0,0,0-1.073.412,1.2,1.2,0,0,0-.334.869A1.256,1.256,0,0,0,14.519,12.868Z" transform="translate(35.235 21.85)" fill="#e6ecf8"/>
      </g>
    </g>
  </g>
</svg>
