<svg xmlns="http://www.w3.org/2000/svg" xmlns:xlink="http://www.w3.org/1999/xlink" width="179" height="179" viewBox="0 0 179 179">
  <defs>
    <filter id="Ellipse_4062" x="0" y="0" width="179" height="179" filterUnits="userSpaceOnUse">
      <feOffset dy="3" input="SourceAlpha"/>
      <feGaussianBlur stdDeviation="3" result="blur"/>
      <feFlood flood-opacity="0.161"/>
      <feComposite operator="in" in2="blur"/>
      <feComposite in="SourceGraphic"/>
    </filter>
  </defs>
  <g id="t1-t2" transform="translate(-276 -856.273)">
    <g transform="matrix(1, 0, 0, 1, 276, 856.27)" filter="url(#Ellipse_4062)">
      <circle id="Ellipse_4062-2" data-name="Ellipse 4062" cx="80.5" cy="80.5" r="80.5" transform="translate(9 6)" fill="#fff"/>
    </g>
    <circle id="Ellipse_4063" data-name="Ellipse 4063" cx="62" cy="62" r="62" transform="translate(302 881.273)" fill="#ba68c8"/>
    <g id="noun_cargo_delivered_3082629" data-name="noun_cargo delivered_3082629" transform="translate(319.2 901.272)">
      <g id="Group_128906" data-name="Group 128906" transform="translate(0 0)">
        <rect id="Rectangle_39571" data-name="Rectangle 39571" width="40.923" height="1.877" transform="translate(11.639 52.938)" fill="none"/>
        <rect id="Rectangle_39572" data-name="Rectangle 39572" width="2.628" height="15.769" transform="translate(22.527 34.165)" fill="none"/>
        <rect id="Rectangle_39573" data-name="Rectangle 39573" width="2.628" height="15.769" transform="translate(17.27 34.165)" fill="none"/>
        <rect id="Rectangle_39574" data-name="Rectangle 39574" width="2.628" height="15.769" transform="translate(28.158 34.165)" fill="none"/>
        <rect id="Rectangle_39575" data-name="Rectangle 39575" width="2.628" height="15.769" transform="translate(33.79 34.165)" fill="none"/>
        <path id="Path_197032" data-name="Path 197032" d="M22.656,19.1A5.133,5.133,0,0,0,17.4,24.356a5.133,5.133,0,0,0,5.256,5.256,5.133,5.133,0,0,0,5.256-5.256A5.369,5.369,0,0,0,22.656,19.1Zm0,7.509a2.253,2.253,0,1,1,2.253-2.253A2.254,2.254,0,0,1,22.656,26.609Z" transform="translate(47.927 47.729)" fill="none"/>
        <path id="Path_197033" data-name="Path 197033" d="M35.8,23.083a1.615,1.615,0,0,1-1.5-1.5,1.615,1.615,0,0,1,1.5-1.5h1.5V16.7H15.9V29.09h2.872a8.211,8.211,0,0,1,15.915-.375H37.3V23.083Z" transform="translate(43.795 41.118)" fill="none"/>
        <rect id="Rectangle_39576" data-name="Rectangle 39576" width="2.628" height="15.769" transform="translate(39.046 34.165)" fill="none"/>
        <rect id="Rectangle_39577" data-name="Rectangle 39577" width="2.628" height="15.769" transform="translate(11.639 34.165)" fill="none"/>
        <path id="Path_197034" data-name="Path 197034" d="M35.735,24.16,27.914,12.9H15.9V24.16Z" transform="translate(43.795 30.651)" fill="none"/>
        <path id="Path_197035" data-name="Path 197035" d="M5.7,11.981H27.476L16.588,7.1Z" transform="translate(15.7 14.676)" fill="none"/>
        <path id="Path_197036" data-name="Path 197036" d="M2.5,16.7V29.465H9.036a8.24,8.24,0,0,1,16.212,0H49.806V16.7H2.5Z" transform="translate(6.886 41.118)" fill="none"/>
        <rect id="Rectangle_39578" data-name="Rectangle 39578" width="40.923" height="1.877" transform="translate(11.639 29.66)" fill="none"/>
        <rect id="Rectangle_39579" data-name="Rectangle 39579" width="3.004" height="5.256" transform="translate(30.786 3.004)" fill="none"/>
        <path id="Path_197037" data-name="Path 197037" d="M10.256,19.1A5.133,5.133,0,0,0,5,24.356a5.133,5.133,0,0,0,5.256,5.256,5.133,5.133,0,0,0,5.256-5.256A5.369,5.369,0,0,0,10.256,19.1Zm0,7.509a2.253,2.253,0,1,1,2.253-2.253A2.254,2.254,0,0,1,10.256,26.609Z" transform="translate(13.772 47.729)" fill="none"/>
        <rect id="Rectangle_39580" data-name="Rectangle 39580" width="2.628" height="15.769" transform="translate(49.934 34.165)" fill="none"/>
        <rect id="Rectangle_39581" data-name="Rectangle 39581" width="2.628" height="15.769" transform="translate(44.678 34.165)" fill="none"/>
        <ellipse id="Ellipse_5547" data-name="Ellipse 5547" cx="2.253" cy="2.253" rx="2.253" ry="2.253" transform="translate(21.776 69.833)" fill="#e6ecf8"/>
        <ellipse id="Ellipse_5548" data-name="Ellipse 5548" cx="2.253" cy="2.253" rx="2.253" ry="2.253" transform="translate(68.33 69.833)" fill="#e6ecf8"/>
        <path id="Path_197038" data-name="Path 197038" d="M88.6,1.3H1.5A1.615,1.615,0,0,0,0,2.8,1.615,1.615,0,0,0,1.5,4.3H27.407v6.758a1.615,1.615,0,0,0,1.5,1.5h1.5a6.054,6.054,0,0,0,2.253,4.881c.375.375.751.751.751,1.126a1.615,1.615,0,0,1-1.5,1.5,1.327,1.327,0,0,1-1.5-1.5,1.5,1.5,0,1,0-3,0,4.993,4.993,0,0,0,1.126,3L13.891,27.957H10.137a1.615,1.615,0,0,0-1.5,1.5V56.115H7.884a1.615,1.615,0,0,0-1.5,1.5V73.385a1.615,1.615,0,0,0,1.5,1.5h8.038a8.228,8.228,0,0,0,16.242-.315l25.654.315,4.629-.289a8.215,8.215,0,0,0,16.317-.462H82.6a1.615,1.615,0,0,0,1.5-1.5V57.992L73.587,42.6c-.375-.375-.751-.751-1.126-.751H58.194a1.615,1.615,0,0,0-1.5,1.5v12.39H55.565V29.083a1.615,1.615,0,0,0-1.5-1.5H50.309L35.292,21.2a4.056,4.056,0,0,0,1.126-2.628,3.943,3.943,0,0,0-1.877-3.379,3.408,3.408,0,0,1-1.126-2.628h1.5a1.615,1.615,0,0,0,1.5-1.5V4.3H88.6a1.615,1.615,0,0,0,1.5-1.5A1.615,1.615,0,0,0,88.6,1.3ZM70.583,78.641a5.256,5.256,0,0,1,0-10.512,5.369,5.369,0,0,1,5.256,5.256A5.133,5.133,0,0,1,70.583,78.641Zm7.9-7.509a8.211,8.211,0,0,0-15.915.375H59.7V59.118H81.1V62.5h-1.5a1.5,1.5,0,0,0,0,3h1.5v5.632ZM71.709,44.851l7.82,11.26H59.7V44.851ZM11.639,35.465h2.628V51.234H11.639Zm0,18.772H52.562v1.877H11.639Zm5.632-3V35.465H19.9V51.234Zm5.256,0V35.465h2.628V51.234Zm5.632,0V35.465h2.628V51.234Zm5.632,0V35.465h2.628V51.234Zm5.256,0V35.465h2.628V51.234Zm5.632,0V35.465h2.628V51.234Zm5.256,0V35.465h2.628V51.234ZM24.028,78.641a5.256,5.256,0,0,1,0-10.512,5.369,5.369,0,0,1,5.256,5.256A5.133,5.133,0,0,1,24.028,78.641ZM56.692,59.118V71.883H32.134a8.24,8.24,0,0,0-16.212,0H9.386V59.118H56.692ZM52.562,30.96v1.877H11.639V30.96Zm-9.386-3H21.4l10.888-4.881ZM33.79,9.56h-3V4.3h3Z" transform="translate(0 -1.3)" fill="#e6ecf8"/>
      </g>
    </g>
  </g>
</svg>
