<svg xmlns="http://www.w3.org/2000/svg" width="244.768" height="144.524" viewBox="0 0 244.768 144.524">
  <g id="t3-ic2" transform="translate(0 0)">
    <g id="illustration" transform="translate(0 0)">
      <rect id="Rectangle_39586" data-name="Rectangle 39586" width="124.218" height="64.588" transform="translate(115.316 16.408)" fill="#cfdfe0"/>
      <rect id="Rectangle_39587" data-name="Rectangle 39587" width="121.286" height="6.339" transform="translate(118.247 16.884)" fill="#95a5a6"/>
      <rect id="Rectangle_39588" data-name="Rectangle 39588" width="121.286" height="5.126" transform="translate(123.481 16.469)" fill="#2c535e"/>
      <path id="Path_197154" data-name="Path 197154" d="M150.981,67.043v61.042H35.88V67.043L93.438,43.36Z" transform="translate(-2.819 -36.96)" fill="#deeff0"/>
      <path id="Path_197155" data-name="Path 197155" d="M150.981,67.043v5.541L93.407,48.625,35.88,73.428V67.043L93.438,43.36Z" transform="translate(-2.819 -36.96)" fill="#a5b5b6"/>
      <rect id="Rectangle_39589" data-name="Rectangle 39589" width="79.691" height="50.574" transform="translate(50.774 40.551)" fill="#2c545e"/>
      <rect id="Rectangle_39590" data-name="Rectangle 39590" width="53.813" height="43.821" transform="translate(167.686 37.175)" fill="#213f47"/>
      <rect id="Rectangle_39591" data-name="Rectangle 39591" width="82.316" height="13.43" transform="translate(49.454 40.551)" fill="#e0e0e0"/>
      <rect id="Rectangle_39592" data-name="Rectangle 39592" width="82.316" height="0.737" transform="translate(49.454 48.702)" fill="silver"/>
      <rect id="Rectangle_39593" data-name="Rectangle 39593" width="82.316" height="0.737" transform="translate(49.454 44.864)" fill="silver"/>
      <rect id="Rectangle_39594" data-name="Rectangle 39594" width="86.322" height="2.609" transform="translate(47.459 39.231)" fill="#b5c5c6"/>
      <rect id="Rectangle_39595" data-name="Rectangle 39595" width="86.322" height="2.609" transform="translate(47.459 37.927)" fill="#e8f9fa"/>
      <rect id="Rectangle_39596" data-name="Rectangle 39596" width="54.273" height="8.887" transform="translate(167.548 28.656)" fill="#e0e0e0"/>
      <rect id="Rectangle_39597" data-name="Rectangle 39597" width="54.273" height="0.737" transform="translate(167.548 36.822)" fill="silver"/>
      <rect id="Rectangle_39598" data-name="Rectangle 39598" width="54.273" height="0.737" transform="translate(167.548 32.985)" fill="silver"/>
      <rect id="Rectangle_39599" data-name="Rectangle 39599" width="56.913" height="2.609" transform="translate(166.228 27.352)" fill="#b5c5c6"/>
      <rect id="Rectangle_39600" data-name="Rectangle 39600" width="56.913" height="2.609" transform="translate(166.228 26.032)" fill="#deeff0"/>
      <rect id="Rectangle_39601" data-name="Rectangle 39601" width="3.822" height="3.822" transform="translate(107.902 69.376)" fill="#213f47"/>
      <rect id="Rectangle_39602" data-name="Rectangle 39602" width="3.822" height="3.822" transform="translate(111.831 69.376)" fill="#213f47"/>
      <rect id="Rectangle_39603" data-name="Rectangle 39603" width="3.822" height="3.822" transform="translate(115.761 69.376)" fill="#213f47"/>
      <rect id="Rectangle_39604" data-name="Rectangle 39604" width="3.822" height="3.822" transform="translate(107.902 73.352)" fill="#213f47"/>
      <rect id="Rectangle_39605" data-name="Rectangle 39605" width="3.822" height="3.822" transform="translate(111.831 73.352)" fill="#213f47"/>
      <rect id="Rectangle_39606" data-name="Rectangle 39606" width="3.822" height="3.822" transform="translate(115.761 73.352)" fill="#213f47"/>
      <rect id="Rectangle_39607" data-name="Rectangle 39607" width="3.822" height="3.822" transform="translate(107.902 61.426)" fill="#213f47"/>
      <rect id="Rectangle_39608" data-name="Rectangle 39608" width="3.822" height="3.822" transform="translate(111.831 61.426)" fill="#213f47"/>
      <rect id="Rectangle_39609" data-name="Rectangle 39609" width="3.822" height="3.822" transform="translate(115.761 61.426)" fill="#213f47"/>
      <rect id="Rectangle_39610" data-name="Rectangle 39610" width="3.822" height="3.822" transform="translate(107.902 65.401)" fill="#213f47"/>
      <rect id="Rectangle_39611" data-name="Rectangle 39611" width="3.822" height="3.822" transform="translate(111.831 65.401)" fill="#213f47"/>
      <rect id="Rectangle_39612" data-name="Rectangle 39612" width="3.822" height="3.822" transform="translate(115.761 65.401)" fill="#213f47"/>
      <rect id="Rectangle_39613" data-name="Rectangle 39613" width="3.822" height="3.822" transform="translate(107.902 77.573)" fill="#213f47"/>
      <rect id="Rectangle_39614" data-name="Rectangle 39614" width="3.822" height="3.822" transform="translate(111.831 77.573)" fill="#213f47"/>
      <rect id="Rectangle_39615" data-name="Rectangle 39615" width="3.822" height="3.822" transform="translate(115.761 77.573)" fill="#213f47"/>
      <rect id="Rectangle_39616" data-name="Rectangle 39616" width="3.822" height="3.822" transform="translate(107.902 81.548)" fill="#213f47"/>
      <rect id="Rectangle_39617" data-name="Rectangle 39617" width="3.822" height="3.822" transform="translate(111.831 81.548)" fill="#213f47"/>
      <rect id="Rectangle_39618" data-name="Rectangle 39618" width="3.822" height="3.822" transform="translate(115.761 81.548)" fill="#213f47"/>
      <rect id="Rectangle_39619" data-name="Rectangle 39619" width="5.679" height="4.912" transform="translate(52.493 67.535)" fill="#213f47"/>
      <rect id="Rectangle_39620" data-name="Rectangle 39620" width="5.679" height="4.912" transform="translate(58.326 67.535)" fill="#213f47"/>
      <rect id="Rectangle_39621" data-name="Rectangle 39621" width="5.679" height="4.912" transform="translate(64.143 67.535)" fill="#213f47"/>
      <rect id="Rectangle_39622" data-name="Rectangle 39622" width="5.679" height="4.912" transform="translate(52.493 72.646)" fill="#213f47"/>
      <rect id="Rectangle_39623" data-name="Rectangle 39623" width="5.679" height="4.912" transform="translate(58.326 72.646)" fill="#213f47"/>
      <rect id="Rectangle_39624" data-name="Rectangle 39624" width="5.679" height="4.912" transform="translate(64.143 72.646)" fill="#213f47"/>
      <rect id="Rectangle_39625" data-name="Rectangle 39625" width="5.679" height="4.912" transform="translate(52.493 57.343)" fill="#213f47"/>
      <rect id="Rectangle_39626" data-name="Rectangle 39626" width="5.679" height="4.912" transform="translate(58.326 57.343)" fill="#213f47"/>
      <rect id="Rectangle_39627" data-name="Rectangle 39627" width="5.679" height="4.912" transform="translate(64.143 57.343)" fill="#213f47"/>
      <rect id="Rectangle_39628" data-name="Rectangle 39628" width="5.679" height="4.912" transform="translate(52.493 62.439)" fill="#213f47"/>
      <rect id="Rectangle_39629" data-name="Rectangle 39629" width="5.679" height="4.912" transform="translate(58.326 62.439)" fill="#213f47"/>
      <rect id="Rectangle_39630" data-name="Rectangle 39630" width="5.679" height="4.912" transform="translate(64.143 62.439)" fill="#213f47"/>
      <rect id="Rectangle_39631" data-name="Rectangle 39631" width="5.679" height="4.912" transform="translate(52.493 78.064)" fill="#213f47"/>
      <rect id="Rectangle_39632" data-name="Rectangle 39632" width="5.679" height="4.912" transform="translate(58.326 78.064)" fill="#213f47"/>
      <rect id="Rectangle_39633" data-name="Rectangle 39633" width="5.679" height="4.912" transform="translate(64.143 78.064)" fill="#213f47"/>
      <rect id="Rectangle_39634" data-name="Rectangle 39634" width="5.679" height="4.912" transform="translate(52.493 83.16)" fill="#213f47"/>
      <rect id="Rectangle_39635" data-name="Rectangle 39635" width="5.679" height="4.912" transform="translate(58.326 83.16)" fill="#213f47"/>
      <rect id="Rectangle_39636" data-name="Rectangle 39636" width="5.679" height="4.912" transform="translate(64.143 83.16)" fill="#213f47"/>
      <rect id="Rectangle_39637" data-name="Rectangle 39637" width="51.572" height="9.593" transform="translate(63.728 26.154)" fill="#469da7"/>
      <rect id="Rectangle_39638" data-name="Rectangle 39638" width="2.348" height="12.525" transform="translate(77.435 23.238)" fill="#deeff0"/>
      <rect id="Rectangle_39639" data-name="Rectangle 39639" width="2.348" height="12.525" transform="translate(98.632 23.238)" fill="#deeff0"/>
      <rect id="Rectangle_39640" data-name="Rectangle 39640" width="1.688" height="3.991" transform="translate(27.843 96.252)" fill="#ad7c5e"/>
      <rect id="Rectangle_39641" data-name="Rectangle 39641" width="1.688" height="3.991" transform="translate(36.392 96.252)" fill="#ad7c5e"/>
      <rect id="Rectangle_39642" data-name="Rectangle 39642" width="1.688" height="3.991" transform="translate(44.941 96.252)" fill="#ad7c5e"/>
      <rect id="Rectangle_39643" data-name="Rectangle 39643" width="1.688" height="3.991" transform="translate(53.491 96.252)" fill="#ad7c5e"/>
      <rect id="Rectangle_39644" data-name="Rectangle 39644" width="1.688" height="3.991" transform="translate(62.055 96.252)" fill="#ad7c5e"/>
      <rect id="Rectangle_39645" data-name="Rectangle 39645" width="38.909" height="1.473" transform="translate(26.323 95.515)" fill="#cd9c7d"/>
      <rect id="Rectangle_39646" data-name="Rectangle 39646" width="38.909" height="1.473" transform="translate(26.323 99.506)" fill="#cd9c7d"/>
      <rect id="Rectangle_39647" data-name="Rectangle 39647" width="0.982" height="2.333" transform="translate(150.91 83.896)" fill="#ad7c5e"/>
      <rect id="Rectangle_39648" data-name="Rectangle 39648" width="0.982" height="2.333" transform="translate(155.913 83.896)" fill="#ad7c5e"/>
      <rect id="Rectangle_39649" data-name="Rectangle 39649" width="0.982" height="2.333" transform="translate(160.902 83.896)" fill="#ad7c5e"/>
      <rect id="Rectangle_39650" data-name="Rectangle 39650" width="0.982" height="2.333" transform="translate(165.905 83.896)" fill="#ad7c5e"/>
      <rect id="Rectangle_39651" data-name="Rectangle 39651" width="0.982" height="2.333" transform="translate(170.909 83.896)" fill="#ad7c5e"/>
      <rect id="Rectangle_39652" data-name="Rectangle 39652" width="22.732" height="0.86" transform="translate(150.035 83.467)" fill="#cd9c7d"/>
      <rect id="Rectangle_39653" data-name="Rectangle 39653" width="22.732" height="0.86" transform="translate(150.035 85.8)" fill="#cd9c7d"/>
      <rect id="Rectangle_39654" data-name="Rectangle 39654" width="38.096" height="33.675" rx="0.68" transform="translate(175.56 49.807)" fill="#ccc"/>
      <path id="Path_197156" data-name="Path 197156" d="M159.69,74.86h0l-.767-4.175a1.535,1.535,0,0,0-1.535-1.535H135.332a1.535,1.535,0,0,0-1.535,1.535l-.752,4.175h0a1.535,1.535,0,0,0-1.535,1.535v16.73a1.535,1.535,0,0,0,1.535,1.535h26.8a1.535,1.535,0,0,0,1.535-1.535v-16.7a1.535,1.535,0,0,0-1.688-1.566Z" transform="translate(48.332 -23.165)" fill="#fff"/>
      <rect id="Rectangle_39655" data-name="Rectangle 39655" width="27.705" height="9.547" rx="1.02" transform="translate(180.778 54.565)" fill="#333"/>
      <path id="Path_197157" data-name="Path 197157" d="M148.476,70.028a.553.553,0,0,1-.553.553h-9.731a.553.553,0,0,1-.553-.553h0a.568.568,0,0,1,.553-.568H148a.568.568,0,0,1,.553.568Z" transform="translate(51.611 -22.999)" fill="gray"/>
      <path id="Path_197158" data-name="Path 197158" d="M138.022,74.084a.614.614,0,0,1-.614.614h-2.394a.614.614,0,0,1-.614-.614h0a.614.614,0,0,1,.614-.614h2.394A.614.614,0,0,1,138.022,74.084Z" transform="translate(49.878 -20.854)" fill="#fbcb43"/>
      <path id="Path_197159" data-name="Path 197159" d="M143.6,74.084a.614.614,0,0,1-.629.614h-2.394a.614.614,0,0,1-.614-.614h0a.614.614,0,0,1,.614-.614h2.394a.614.614,0,0,1,.629.614Z" transform="translate(52.852 -20.854)" fill="#fbcb43"/>
      <path id="Path_197160" data-name="Path 197160" d="M149.158,74.084a.614.614,0,0,1-.614.614h-2.394a.614.614,0,0,1-.629-.614h0a.614.614,0,0,1,.629-.614h2.394A.614.614,0,0,1,149.158,74.084Z" transform="translate(55.826 -20.854)" fill="#fbcb43"/>
      <path id="Path_197161" data-name="Path 197161" d="M134.429,82.938a1.2,1.2,0,0,1-1.2,1.2h0a1.2,1.2,0,0,1-1.182-1.2V76.952a1.182,1.182,0,0,1,1.182-1.182h0a1.182,1.182,0,0,1,1.2,1.182Z" transform="translate(48.621 -19.624)" fill="#666"/>
      <path id="Path_197162" data-name="Path 197162" d="M150.919,82.938a1.2,1.2,0,0,1-1.2,1.2h0a1.182,1.182,0,0,1-1.182-1.2V76.952a1.167,1.167,0,0,1,1.182-1.182h0a1.182,1.182,0,0,1,1.2,1.182Z" transform="translate(57.441 -19.624)" fill="#666"/>
      <path id="Path_197163" data-name="Path 197163" d="M146.933,86.963a4.252,4.252,0,1,1,4.19-4.252,4.252,4.252,0,0,1-4.19,4.252Zm0-7.674a3.469,3.469,0,1,0,3.407,3.469,3.423,3.423,0,0,0-3.407-3.469Z" transform="translate(54.275 -18.185)" fill="#4d4d4d"/>
      <path id="Path_197164" data-name="Path 197164" d="M163.191,88.541h0a1.672,1.672,0,0,0,0-.4V81.665a1.535,1.535,0,0,0-1.535-1.535h-28.2a1.535,1.535,0,0,0-1.535,1.535V88.1a2.082,2.082,0,0,0,0,.322,1.227,1.227,0,0,0-.246.123c-1.351.292-2.41,2.456-2.41,5.08a9.2,9.2,0,0,0,.077,1.151,5.72,5.72,0,0,0,.123.767,1.535,1.535,0,0,0,1.427.89H164a1.535,1.535,0,0,0,1.412-.89,2.721,2.721,0,0,0,0-.307.659.659,0,0,0,0-.169v-.292a9.305,9.305,0,0,0,0-1.151C165.585,91,164.542,88.833,163.191,88.541Z" transform="translate(47.134 -17.292)" fill="#fff"/>
      <rect id="Rectangle_39656" data-name="Rectangle 39656" width="5.756" height="7.582" rx="1.02" transform="translate(177.294 86.46)" fill="#1a1a1a"/>
      <rect id="Rectangle_39657" data-name="Rectangle 39657" width="5.756" height="7.582" rx="1.02" transform="translate(206.058 86.46)" fill="#1a1a1a"/>
      <path id="Path_197165" data-name="Path 197165" d="M147.214,89.58a.66.66,0,0,1-.66.66H138.88a.675.675,0,0,1-.66-.66h0a.66.66,0,0,1,.66-.66h7.674a.66.66,0,0,1,.66.66Z" transform="translate(51.921 -12.591)" fill="#4d4d4d"/>
      <path id="Path_197166" data-name="Path 197166" d="M152.031,87.718a1.228,1.228,0,0,1-1.228,1.243H137.526a1.243,1.243,0,0,1-1.243-1.243L135.5,83.3a1.228,1.228,0,0,1,1.243-1.228h14.873a1.228,1.228,0,0,1,1.228,1.228Z" transform="translate(50.466 -16.254)" fill="#a0a0a0"/>
      <path id="Path_197167" data-name="Path 197167" d="M140.042,90.521a.906.906,0,0,1-.875.645h-7.813a.89.89,0,0,1-.875-.706,3.668,3.668,0,0,1,3.653-3.269C135.576,87.19,139.643,88.326,140.042,90.521Z" transform="translate(47.781 -13.516)" fill="#ccc"/>
      <path id="Path_197168" data-name="Path 197168" d="M140.086,90.858a.906.906,0,0,1-.906.906h-7.813a.921.921,0,0,1-.906-.906,3.224,3.224,0,0,1,0-.4,3.668,3.668,0,0,1,3.653-3.269c1.443,0,5.51,1.136,5.909,3.331v.153A.753.753,0,0,1,140.086,90.858Z" transform="translate(47.768 -13.516)" fill="#ccc"/>
      <path id="Path_197169" data-name="Path 197169" d="M145.82,90.521a.906.906,0,0,0,.86.645h7.813a.921.921,0,0,0,.89-.706,3.668,3.668,0,0,0-3.653-3.269C150.286,87.19,146.2,88.326,145.82,90.521Z" transform="translate(55.986 -13.516)" fill="#ccc"/>
      <path id="Path_197170" data-name="Path 197170" d="M145.79,90.858a.921.921,0,0,0,.906.906h7.813a.906.906,0,0,0,.906-.906,3.336,3.336,0,0,0,0-.4,3.668,3.668,0,0,0-3.653-3.269c-1.443,0-5.526,1.136-5.909,3.331v.153C145.851,90.72,145.79,90.8,145.79,90.858Z" transform="translate(55.97 -13.516)" fill="#ccc"/>
      <rect id="Rectangle_39658" data-name="Rectangle 39658" width="37.129" height="10.053" rx="1.02" transform="translate(176.066 79.031)" fill="#333"/>
      <rect id="Rectangle_39659" data-name="Rectangle 39659" width="35.809" height="3.653" rx="1.02" transform="translate(176.726 82.346)" fill="gray"/>
      <rect id="Rectangle_39660" data-name="Rectangle 39660" width="4.313" height="4.313" rx="1.02" transform="translate(172.981 59.86)" fill="#404040"/>
      <path id="Path_197171" data-name="Path 197171" d="M134.1,85.1a.414.414,0,0,1-.384-.276l-1.243-3.714a.338.338,0,0,1,0-.123.86.86,0,0,0-.86-.86h-2.471a.391.391,0,1,1,0-.783h2.517a1.658,1.658,0,0,1,1.642,1.535l1.228,3.668a.414.414,0,0,1-.246.507Z" transform="translate(46.85 -17.715)" fill="#404040"/>
      <rect id="Rectangle_39661" data-name="Rectangle 39661" width="4.313" height="4.313" rx="1.02" transform="translate(211.921 59.86)" fill="#404040"/>
      <path id="Path_197172" data-name="Path 197172" d="M150.092,85.08h0a.414.414,0,0,1-.246-.507l1.228-3.668a1.658,1.658,0,0,1,1.642-1.535h2.517a.4.4,0,0,1,.4.4.384.384,0,0,1-.4.384h-2.517a.86.86,0,0,0-.86.86.339.339,0,0,1,0,.123l-1.243,3.714a.414.414,0,0,1-.522.23Z" transform="translate(58.13 -17.699)" fill="#404040"/>
      <path id="Path_197173" data-name="Path 197173" d="M134.316,94.353A1.013,1.013,0,1,1,133.3,93.34,1.013,1.013,0,0,1,134.316,94.353Z" transform="translate(48.749 -10.226)" fill="#999"/>
      <path id="Path_197174" data-name="Path 197174" d="M133.492,95.854a1.412,1.412,0,1,1,1.412-1.412A1.412,1.412,0,0,1,133.492,95.854Z" transform="translate(48.637 -10.392)" fill="#666"/>
      <path id="Path_197175" data-name="Path 197175" d="M150.706,94.353a1,1,0,0,1-1,1.013,1.013,1.013,0,1,1,1-1.013Z" transform="translate(57.516 -10.226)" fill="#999"/>
      <path id="Path_197176" data-name="Path 197176" d="M149.837,95.854a1.412,1.412,0,1,1,1.4-1.412,1.412,1.412,0,0,1-1.4,1.412Z" transform="translate(57.372 -10.392)" fill="#666"/>
      <path id="Path_197177" data-name="Path 197177" d="M154.7,92.84H134.59v.2c0,.844,1.535,1.535,2.3,1.535h4.467a.43.43,0,0,0,0,.2.752.752,0,0,0,.752.752h5.265a.752.752,0,0,0,.737-.752.784.784,0,0,0,0-.2h4.436c.829,0,2.287-.675,2.287-1.535a.874.874,0,0,0-.138-.2Z" transform="translate(49.98 -10.494)" fill="#292929"/>
      <path id="Path_197178" data-name="Path 197178" d="M33.977,74.135,31.49,68.379,95.725,40.69l64.342,26.784-2.41,5.786L95.756,47.5Z" transform="translate(-5.167 -38.388)" fill="#33616e"/>
      <rect id="Rectangle_39662" data-name="Rectangle 39662" width="2.41" height="4.374" transform="translate(203.449 12.033)" fill="#b5c5c6"/>
      <rect id="Rectangle_39663" data-name="Rectangle 39663" width="2.41" height="4.374" transform="translate(141.531 12.033)" fill="#b5c5c6"/>
      <rect id="Rectangle_39664" data-name="Rectangle 39664" width="2.41" height="4.374" transform="translate(172.49 12.033)" fill="#b5c5c6"/>
      <rect id="Rectangle_39665" data-name="Rectangle 39665" width="2.41" height="4.374" transform="translate(234.392 12.033)" fill="#b5c5c6"/>
      <rect id="Rectangle_39666" data-name="Rectangle 39666" width="107.288" height="13.599" transform="translate(135.53)" fill="#cfdfe0"/>
      <path id="Path_197179" data-name="Path 197179" d="M121.418,48.6h-1.335l-1.274-4.451a6.826,6.826,0,0,0-.2-.844l-.153-.767a4.656,4.656,0,0,1-.153.86,7.4,7.4,0,0,1-.2.767L116.875,48.6h-1.335l-.967-3.745-.982-3.714h1.243l1.074,4.344a16.02,16.02,0,0,1,.353,1.857,5.275,5.275,0,0,1,.169-.982c.077-.368.154-.645.215-.86l1.213-4.359h1.213l1.289,4.39a16.884,16.884,0,0,1,.384,1.827,11.967,11.967,0,0,1,.368-1.873l1.059-4.328H123.4Z" transform="translate(38.747 -38.147)" fill="#2c545e"/>
      <path id="Path_197180" data-name="Path 197180" d="M125.618,48.616l-.737-2.072h-2.855l-.737,2.072H120l2.793-7.506h1.335l2.793,7.506Zm-1.013-3.07L123.9,43.52l-.215-.645q-.138-.43-.184-.645a14.274,14.274,0,0,1-.4,1.381l-.721,1.934Z" transform="translate(42.176 -38.163)" fill="#2c545e"/>
      <path id="Path_197181" data-name="Path 197181" d="M126.428,45.636V48.6H125.2V41.154h2.1a3.438,3.438,0,0,1,2.149.537,1.934,1.934,0,0,1,.691,1.627,2.041,2.041,0,0,1-1.443,2l2.026,3.285h-1.381l-1.8-2.978Zm0-1.013h.844A1.873,1.873,0,0,0,128.5,44.3a1.136,1.136,0,0,0,.384-.936,1,1,0,0,0-.414-.906,2.256,2.256,0,0,0-1.243-.276h-.8Z" transform="translate(44.957 -38.146)" fill="#2c545e"/>
      <path id="Path_197182" data-name="Path 197182" d="M133.731,48.594H129.51V41.15h4.221v1.028h-3.07V44.2h2.824v1.028h-2.763v2.348h3.07Z" transform="translate(47.262 -38.142)" fill="#2c545e"/>
      <path id="Path_197183" data-name="Path 197183" d="M139.558,48.594h-1.535l-3.638-5.94h0v5.94H133.28V41.15h1.535l3.653,5.909h0V41.15h1.12Z" transform="translate(49.279 -38.142)" fill="#2c545e"/>
      <path id="Path_197184" data-name="Path 197184" d="M144.544,48.594h-1.228V45.248h-3.438v3.346H138.65V41.15h1.228v3.07h3.438V41.15h1.228Z" transform="translate(52.151 -38.142)" fill="#2c545e"/>
      <path id="Path_197185" data-name="Path 197185" d="M150.529,44.91a4.144,4.144,0,0,1-.906,2.84,3.822,3.822,0,0,1-5.188,0,4.927,4.927,0,0,1,0-5.694,3.392,3.392,0,0,1,2.609-.982,3.346,3.346,0,0,1,2.579,1,4.144,4.144,0,0,1,.906,2.84Zm-5.694,0A3.346,3.346,0,0,0,145.387,47a1.965,1.965,0,0,0,1.642.721,1.934,1.934,0,0,0,1.642-.706,3.376,3.376,0,0,0,.553-2.1,3.453,3.453,0,0,0-.537-2.087,2.287,2.287,0,0,0-3.3,0,3.346,3.346,0,0,0-.553,2.087Z" transform="translate(54.761 -38.187)" fill="#2c545e"/>
      <path id="Path_197186" data-name="Path 197186" d="M155.066,41.15v4.82a2.977,2.977,0,0,1-.353,1.535,2.471,2.471,0,0,1-1.028.952,3.469,3.469,0,0,1-1.612.338,3.07,3.07,0,0,1-2.164-.737,2.7,2.7,0,0,1-.767-2.026V41.15h1.228v4.712a1.842,1.842,0,0,0,.43,1.366,1.78,1.78,0,0,0,1.32.445c1.151,0,1.719-.614,1.719-1.811V41.15Z" transform="translate(57.761 -38.142)" fill="#2c545e"/>
      <path id="Path_197187" data-name="Path 197187" d="M158.663,46.655a1.9,1.9,0,0,1-.721,1.535,3.162,3.162,0,0,1-1.98.568,4.743,4.743,0,0,1-2.072-.4V47.207a5.925,5.925,0,0,0,1.074.384,4.6,4.6,0,0,0,1.074.138,1.7,1.7,0,0,0,1.074-.276.921.921,0,0,0,.338-.752.967.967,0,0,0-.307-.706,4.6,4.6,0,0,0-1.32-.691,3.423,3.423,0,0,1-1.427-.936,1.98,1.98,0,0,1-.43-1.289,1.827,1.827,0,0,1,.675-1.535,2.732,2.732,0,0,1,1.78-.522,5.341,5.341,0,0,1,2.133.46l-.384,1a4.759,4.759,0,0,0-1.78-.414,1.3,1.3,0,0,0-.906.261.86.86,0,0,0-.307.675.967.967,0,0,0,.123.491,1.228,1.228,0,0,0,.4.4,10.741,10.741,0,0,0,1.013.491,5.065,5.065,0,0,1,1.213.629,1.888,1.888,0,0,1,.553.675A1.934,1.934,0,0,1,158.663,46.655Z" transform="translate(60.303 -38.213)" fill="#2c545e"/>
      <path id="Path_197188" data-name="Path 197188" d="M162.176,48.594H157.94V41.15h4.236v1.028h-3.07V44.2h2.809v1.028h-2.809v2.348h3.07Z" transform="translate(62.469 -38.142)" fill="#2c545e"/>
      <rect id="Rectangle_39667" data-name="Rectangle 39667" width="17.191" height="10.591" transform="translate(152.537 72.769)" fill="#d7ba76"/>
      <rect id="Rectangle_39668" data-name="Rectangle 39668" width="7.383" height="3.315" transform="translate(153.304 79.292)" fill="#fcf7ea"/>
      <rect id="Rectangle_39669" data-name="Rectangle 39669" width="0.43" height="2.824" transform="translate(153.703 79.537)" fill="#354546"/>
      <rect id="Rectangle_39670" data-name="Rectangle 39670" width="0.153" height="2.824" transform="translate(154.394 79.537)" fill="#354546"/>
      <rect id="Rectangle_39671" data-name="Rectangle 39671" width="0.153" height="2.824" transform="translate(159.183 79.537)" fill="#354546"/>
      <rect id="Rectangle_39672" data-name="Rectangle 39672" width="0.43" height="2.824" transform="translate(155.1 79.537)" fill="#354546"/>
      <rect id="Rectangle_39673" data-name="Rectangle 39673" width="0.215" height="2.824" transform="translate(155.806 79.537)" fill="#354546"/>
      <rect id="Rectangle_39674" data-name="Rectangle 39674" width="0.215" height="2.824" transform="translate(154.731 79.537)" fill="#354546"/>
      <rect id="Rectangle_39675" data-name="Rectangle 39675" width="0.737" height="2.824" transform="translate(156.205 79.537)" fill="#354546"/>
      <rect id="Rectangle_39676" data-name="Rectangle 39676" width="0.43" height="2.824" transform="translate(158.599 79.537)" fill="#354546"/>
      <rect id="Rectangle_39677" data-name="Rectangle 39677" width="0.43" height="2.824" transform="translate(157.602 79.537)" fill="#354546"/>
      <rect id="Rectangle_39678" data-name="Rectangle 39678" width="0.215" height="2.824" transform="translate(157.203 79.537)" fill="#354546"/>
      <rect id="Rectangle_39679" data-name="Rectangle 39679" width="0.215" height="2.824" transform="translate(158.185 79.537)" fill="#354546"/>
      <rect id="Rectangle_39680" data-name="Rectangle 39680" width="0.721" height="2.824" transform="translate(159.428 79.537)" fill="#354546"/>
      <rect id="Rectangle_39681" data-name="Rectangle 39681" width="0.537" height="10.591" transform="translate(161.132 72.769)" fill="#b59d63"/>
      <rect id="Rectangle_39682" data-name="Rectangle 39682" width="17.191" height="2.425" transform="translate(152.537 72.769)" fill="#b59d63"/>
      <rect id="Rectangle_39683" data-name="Rectangle 39683" width="0.46" height="1.827" transform="translate(163.542 80.044)" fill="#b59d63"/>
      <path id="Path_197189" data-name="Path 197189" d="M120.59,91.882l.691-1.182.675,1.182Z" transform="translate(42.491 -11.638)" fill="#b59d63"/>
      <rect id="Rectangle_39684" data-name="Rectangle 39684" width="0.46" height="1.827" transform="translate(165.061 80.044)" fill="#b59d63"/>
      <path id="Path_197190" data-name="Path 197190" d="M121.58,91.882l.675-1.182.691,1.182Z" transform="translate(43.021 -11.638)" fill="#b59d63"/>
      <rect id="Rectangle_39685" data-name="Rectangle 39685" width="2.87" height="0.292" transform="translate(163.081 82.085)" fill="#b59d63"/>
      <g id="Group_128911" data-name="Group 128911" transform="translate(155.315 72.769)">
        <rect id="Rectangle_39686" data-name="Rectangle 39686" width="1.888" height="4.666" fill="#b59d63"/>
      </g>
      <g id="Group_128912" data-name="Group 128912" transform="translate(164.708 72.769)">
        <rect id="Rectangle_39687" data-name="Rectangle 39687" width="1.888" height="4.666" transform="translate(0)" fill="#b59d63"/>
      </g>
      <path id="Path_197191" data-name="Path 197191" d="M92.823,91.321H85.317v9.961H84.8V94.391A.307.307,0,0,0,84.5,94.1h-.414V89.694a.414.414,0,0,0-.414-.414H82.14a.414.414,0,0,0-.414.414V95.68h-.353l-1.9-7.429a.814.814,0,0,0-.829-.721H72.317a.813.813,0,0,0-.829.783V93.47H64.7a.4.4,0,0,0-.384.4v.721a.384.384,0,0,0,.384.4h.553a1.273,1.273,0,0,0,0,.338v5.357a1.443,1.443,0,0,0,1.443,1.443h.322a.657.657,0,0,1,0,.077,2.118,2.118,0,0,0,4.006.982.6.6,0,0,0,.4.491h.184a.629.629,0,0,0,.491-.261h5.541a1.32,1.32,0,0,0,.6-.138.614.614,0,0,0,.553.384h.184a.583.583,0,0,0,.4-.553,2.118,2.118,0,1,0,3.576-2.226.583.583,0,0,0,.675-.875h0a.4.4,0,0,0,.246-.107v1.7h0a.322.322,0,0,0,.107.215.384.384,0,0,0,.292.138h7.214a.4.4,0,0,0,.384-.4h0a.553.553,0,0,0,0-.153h2.655V91.321ZM72.317,88.374h6.324a.2.2,0,0,0,0,.092L80.467,95.7h-.153l-1-2.195a.292.292,0,0,0,.107-.368v-.107a.307.307,0,0,0-.4-.153l-1.535.675a.322.322,0,0,0-.153.414v.092a.307.307,0,0,0,.4.153l1.2-.537,1.044,2.318a.737.737,0,0,0-.107.353v1.934a.66.66,0,0,0,.092.338h-1.7a1.243,1.243,0,0,0,.246-.737v-.307a1.213,1.213,0,0,0-1.12-1.2.8.8,0,0,0,.261-.445.783.783,0,0,0-.783-.783H75.08a.829.829,0,0,0-.338,0l-.967-2.133a.476.476,0,0,0-.629-.215.46.46,0,0,0-.23.614l1,2.164a.491.491,0,0,0,.384.261h0a.783.783,0,0,0,.23.553h-1.3a1.243,1.243,0,0,0-.952.46V88.39Z" transform="translate(12.393 -13.334)" fill="#213f47"/>
      <rect id="Rectangle_39688" data-name="Rectangle 39688" width="5.08" height="5.08" transform="translate(113.32 68.317)" fill="#827047"/>
      <rect id="Rectangle_39689" data-name="Rectangle 39689" width="5.08" height="5.08" transform="translate(118.539 68.317)" fill="#827047"/>
      <rect id="Rectangle_39690" data-name="Rectangle 39690" width="5.08" height="5.08" transform="translate(123.742 68.317)" fill="#827047"/>
      <rect id="Rectangle_39691" data-name="Rectangle 39691" width="5.08" height="5.08" transform="translate(113.32 73.597)" fill="#827047"/>
      <rect id="Rectangle_39692" data-name="Rectangle 39692" width="5.08" height="5.08" transform="translate(118.539 73.597)" fill="#827047"/>
      <rect id="Rectangle_39693" data-name="Rectangle 39693" width="5.08" height="5.08" transform="translate(123.742 73.597)" fill="#827047"/>
      <rect id="Rectangle_39694" data-name="Rectangle 39694" width="5.08" height="5.08" transform="translate(113.32 57.773)" fill="#827047"/>
      <rect id="Rectangle_39695" data-name="Rectangle 39695" width="5.08" height="5.08" transform="translate(118.539 57.773)" fill="#827047"/>
      <rect id="Rectangle_39696" data-name="Rectangle 39696" width="5.08" height="5.08" transform="translate(123.742 57.773)" fill="#827047"/>
      <rect id="Rectangle_39697" data-name="Rectangle 39697" width="5.08" height="5.08" transform="translate(113.32 63.053)" fill="#827047"/>
      <rect id="Rectangle_39698" data-name="Rectangle 39698" width="5.08" height="5.08" transform="translate(118.539 63.053)" fill="#827047"/>
      <rect id="Rectangle_39699" data-name="Rectangle 39699" width="5.08" height="5.08" transform="translate(123.742 63.053)" fill="#827047"/>
      <rect id="Rectangle_39700" data-name="Rectangle 39700" width="5.08" height="5.08" transform="translate(113.32 79.184)" fill="#827047"/>
      <rect id="Rectangle_39701" data-name="Rectangle 39701" width="5.08" height="5.08" transform="translate(118.539 79.184)" fill="#827047"/>
      <rect id="Rectangle_39702" data-name="Rectangle 39702" width="5.08" height="5.08" transform="translate(123.742 79.184)" fill="#827047"/>
      <rect id="Rectangle_39703" data-name="Rectangle 39703" width="5.08" height="5.08" transform="translate(113.32 84.464)" fill="#827047"/>
      <rect id="Rectangle_39704" data-name="Rectangle 39704" width="5.08" height="5.08" transform="translate(118.539 84.464)" fill="#827047"/>
      <rect id="Rectangle_39705" data-name="Rectangle 39705" width="5.08" height="5.08" transform="translate(123.742 84.464)" fill="#827047"/>
      <rect id="Rectangle_39706" data-name="Rectangle 39706" width="1.074" height="2.548" transform="translate(108.992 88.102)" fill="#ad7c5e"/>
      <rect id="Rectangle_39707" data-name="Rectangle 39707" width="1.074" height="2.548" transform="translate(114.441 88.102)" fill="#ad7c5e"/>
      <rect id="Rectangle_39708" data-name="Rectangle 39708" width="1.074" height="2.548" transform="translate(119.89 88.102)" fill="#ad7c5e"/>
      <rect id="Rectangle_39709" data-name="Rectangle 39709" width="1.074" height="2.548" transform="translate(125.354 88.102)" fill="#ad7c5e"/>
      <rect id="Rectangle_39710" data-name="Rectangle 39710" width="1.074" height="2.548" transform="translate(130.803 88.102)" fill="#ad7c5e"/>
      <rect id="Rectangle_39711" data-name="Rectangle 39711" width="6.8" height="6.8" transform="translate(110.266 73.782)" fill="#d7ba76"/>
      <rect id="Rectangle_39712" data-name="Rectangle 39712" width="6.8" height="6.8" transform="translate(117.234 73.782)" fill="#d7ba76"/>
      <rect id="Rectangle_39713" data-name="Rectangle 39713" width="6.8" height="6.8" transform="translate(124.203 73.782)" fill="#d7ba76"/>
      <rect id="Rectangle_39714" data-name="Rectangle 39714" width="6.8" height="6.8" transform="translate(110.266 80.842)" fill="#d7ba76"/>
      <rect id="Rectangle_39715" data-name="Rectangle 39715" width="6.8" height="6.8" transform="translate(117.234 80.842)" fill="#d7ba76"/>
      <rect id="Rectangle_39716" data-name="Rectangle 39716" width="6.8" height="6.8" transform="translate(124.203 80.842)" fill="#d7ba76"/>
      <rect id="Rectangle_39717" data-name="Rectangle 39717" width="24.804" height="0.936" transform="translate(108.025 87.641)" fill="#cd9c7d"/>
      <rect id="Rectangle_39718" data-name="Rectangle 39718" width="24.804" height="0.936" transform="translate(108.025 90.189)" fill="#cd9c7d"/>
      <rect id="Rectangle_39719" data-name="Rectangle 39719" width="6.8" height="6.8" transform="translate(53.368 77.312)" fill="#a68f5b"/>
      <rect id="Rectangle_39720" data-name="Rectangle 39720" width="6.8" height="6.8" transform="translate(60.336 77.312)" fill="#a68f5b"/>
      <rect id="Rectangle_39721" data-name="Rectangle 39721" width="6.8" height="6.8" transform="translate(67.305 77.312)" fill="#a68f5b"/>
      <rect id="Rectangle_39722" data-name="Rectangle 39722" width="6.8" height="6.8" transform="translate(53.368 84.372)" fill="#a68f5b"/>
      <rect id="Rectangle_39723" data-name="Rectangle 39723" width="6.8" height="6.8" transform="translate(60.336 84.372)" fill="#a68f5b"/>
      <rect id="Rectangle_39724" data-name="Rectangle 39724" width="6.8" height="6.8" transform="translate(67.305 84.372)" fill="#a68f5b"/>
      <rect id="Rectangle_39725" data-name="Rectangle 39725" width="6.8" height="6.8" transform="translate(53.368 63.206)" fill="#a68f5b"/>
      <rect id="Rectangle_39726" data-name="Rectangle 39726" width="6.8" height="6.8" transform="translate(60.336 63.206)" fill="#a68f5b"/>
      <rect id="Rectangle_39727" data-name="Rectangle 39727" width="6.8" height="6.8" transform="translate(67.305 63.206)" fill="#a68f5b"/>
      <rect id="Rectangle_39728" data-name="Rectangle 39728" width="6.8" height="6.8" transform="translate(53.368 70.251)" fill="#a68f5b"/>
      <rect id="Rectangle_39729" data-name="Rectangle 39729" width="6.8" height="6.8" transform="translate(60.336 70.251)" fill="#a68f5b"/>
      <rect id="Rectangle_39730" data-name="Rectangle 39730" width="6.8" height="6.8" transform="translate(67.305 70.251)" fill="#a68f5b"/>
      <rect id="Rectangle_39731" data-name="Rectangle 39731" width="10.437" height="11.696" transform="translate(30.099 83.651)" fill="#d7ba76"/>
      <rect id="Rectangle_39732" data-name="Rectangle 39732" width="4.482" height="2.011" transform="translate(30.559 92.875)" fill="#fcf7ea"/>
      <rect id="Rectangle_39733" data-name="Rectangle 39733" width="3.837" height="1.719" transform="translate(30.897 93.029)" fill="#354546"/>
      <rect id="Rectangle_39734" data-name="Rectangle 39734" width="0.322" height="11.696" transform="translate(35.318 83.651)" fill="#b59d63"/>
      <rect id="Rectangle_39735" data-name="Rectangle 39735" width="10.437" height="1.473" transform="translate(30.099 83.651)" fill="#b59d63"/>
      <g id="Group_128913" data-name="Group 128913" transform="translate(31.787 83.651)">
        <rect id="Rectangle_39736" data-name="Rectangle 39736" width="1.151" height="2.84" fill="#b59d63"/>
      </g>
      <g id="Group_128914" data-name="Group 128914" transform="translate(37.497 83.651)">
        <rect id="Rectangle_39737" data-name="Rectangle 39737" width="1.151" height="2.84" fill="#b59d63"/>
      </g>
      <rect id="Rectangle_39738" data-name="Rectangle 39738" width="10.437" height="11.696" transform="translate(41.749 83.651)" fill="#d7ba76"/>
      <rect id="Rectangle_39739" data-name="Rectangle 39739" width="4.482" height="2.011" transform="translate(42.209 92.875)" fill="#fcf7ea"/>
      <rect id="Rectangle_39740" data-name="Rectangle 39740" width="3.837" height="1.719" transform="translate(42.547 93.029)" fill="#354546"/>
      <rect id="Rectangle_39741" data-name="Rectangle 39741" width="0.322" height="11.696" transform="translate(46.967 83.651)" fill="#b59d63"/>
      <rect id="Rectangle_39742" data-name="Rectangle 39742" width="10.437" height="1.473" transform="translate(41.749 83.651)" fill="#b59d63"/>
      <g id="Group_128915" data-name="Group 128915" transform="translate(43.437 83.651)">
        <rect id="Rectangle_39743" data-name="Rectangle 39743" width="1.151" height="2.84" fill="#b59d63"/>
      </g>
      <g id="Group_128916" data-name="Group 128916" transform="translate(49.147 83.651)">
        <rect id="Rectangle_39744" data-name="Rectangle 39744" width="1.151" height="2.84" fill="#b59d63"/>
      </g>
      <rect id="Rectangle_39745" data-name="Rectangle 39745" width="10.437" height="11.696" transform="translate(53.199 83.651)" fill="#d7ba76"/>
      <rect id="Rectangle_39746" data-name="Rectangle 39746" width="4.482" height="2.011" transform="translate(53.659 92.875)" fill="#fcf7ea"/>
      <rect id="Rectangle_39747" data-name="Rectangle 39747" width="3.837" height="1.719" transform="translate(53.997 93.029)" fill="#354546"/>
      <rect id="Rectangle_39748" data-name="Rectangle 39748" width="0.322" height="11.696" transform="translate(58.418 83.651)" fill="#b59d63"/>
      <rect id="Rectangle_39749" data-name="Rectangle 39749" width="10.437" height="1.473" transform="translate(53.199 83.651)" fill="#b59d63"/>
      <g id="Group_128917" data-name="Group 128917" transform="translate(54.887 83.651)">
        <rect id="Rectangle_39750" data-name="Rectangle 39750" width="1.151" height="2.84" fill="#b59d63"/>
      </g>
      <g id="Group_128918" data-name="Group 128918" transform="translate(60.582 83.651)">
        <rect id="Rectangle_39751" data-name="Rectangle 39751" width="1.151" height="2.84" fill="#b59d63"/>
      </g>
      <rect id="Rectangle_39752" data-name="Rectangle 39752" width="10.437" height="11.696" transform="translate(30.099 71.802)" fill="#d7ba76"/>
      <rect id="Rectangle_39753" data-name="Rectangle 39753" width="4.482" height="2.011" transform="translate(30.559 81.026)" fill="#fcf7ea"/>
      <rect id="Rectangle_39754" data-name="Rectangle 39754" width="3.837" height="1.719" transform="translate(30.897 81.164)" fill="#354546"/>
      <rect id="Rectangle_39755" data-name="Rectangle 39755" width="0.322" height="11.696" transform="translate(35.318 71.802)" fill="#b59d63"/>
      <rect id="Rectangle_39756" data-name="Rectangle 39756" width="10.437" height="1.473" transform="translate(30.099 71.802)" fill="#b59d63"/>
      <g id="Group_128919" data-name="Group 128919" transform="translate(31.787 71.802)">
        <rect id="Rectangle_39757" data-name="Rectangle 39757" width="1.151" height="2.84" fill="#b59d63"/>
      </g>
      <g id="Group_128920" data-name="Group 128920" transform="translate(37.497 71.802)">
        <rect id="Rectangle_39758" data-name="Rectangle 39758" width="1.151" height="2.84" fill="#b59d63"/>
      </g>
      <rect id="Rectangle_39759" data-name="Rectangle 39759" width="10.437" height="11.696" transform="translate(41.749 71.802)" fill="#d7ba76"/>
      <rect id="Rectangle_39760" data-name="Rectangle 39760" width="4.482" height="2.011" transform="translate(42.209 81.026)" fill="#fcf7ea"/>
      <rect id="Rectangle_39761" data-name="Rectangle 39761" width="3.837" height="1.719" transform="translate(42.547 81.164)" fill="#354546"/>
      <rect id="Rectangle_39762" data-name="Rectangle 39762" width="0.322" height="11.696" transform="translate(46.967 71.802)" fill="#b59d63"/>
      <rect id="Rectangle_39763" data-name="Rectangle 39763" width="10.437" height="1.473" transform="translate(41.749 71.802)" fill="#b59d63"/>
      <g id="Group_128921" data-name="Group 128921" transform="translate(43.437 71.802)">
        <rect id="Rectangle_39764" data-name="Rectangle 39764" width="1.151" height="2.84" fill="#b59d63"/>
      </g>
      <g id="Group_128922" data-name="Group 128922" transform="translate(49.147 71.802)">
        <rect id="Rectangle_39765" data-name="Rectangle 39765" width="1.151" height="2.84" fill="#b59d63"/>
      </g>
      <rect id="Rectangle_39766" data-name="Rectangle 39766" width="10.437" height="11.696" transform="translate(53.199 71.802)" fill="#d7ba76"/>
      <rect id="Rectangle_39767" data-name="Rectangle 39767" width="4.482" height="2.011" transform="translate(53.659 81.026)" fill="#fcf7ea"/>
      <rect id="Rectangle_39768" data-name="Rectangle 39768" width="3.837" height="1.719" transform="translate(53.997 81.164)" fill="#354546"/>
      <rect id="Rectangle_39769" data-name="Rectangle 39769" width="0.322" height="11.696" transform="translate(58.418 71.802)" fill="#b59d63"/>
      <rect id="Rectangle_39770" data-name="Rectangle 39770" width="10.437" height="1.473" transform="translate(53.199 71.802)" fill="#b59d63"/>
      <g id="Group_128923" data-name="Group 128923" transform="translate(54.887 71.802)">
        <rect id="Rectangle_39771" data-name="Rectangle 39771" width="1.151" height="2.84" fill="#b59d63"/>
      </g>
      <g id="Group_128924" data-name="Group 128924" transform="translate(60.582 71.802)">
        <rect id="Rectangle_39772" data-name="Rectangle 39772" width="1.151" height="2.84" fill="#b59d63"/>
      </g>
      <rect id="Rectangle_39773" data-name="Rectangle 39773" width="4.804" height="21.166" rx="0.54" transform="translate(34.074 105.339)" fill="#455556"/>
      <path id="Path_197192" data-name="Path 197192" d="M41.7,125.865a4.175,4.175,0,1,1-4.175-4.175A4.175,4.175,0,0,1,41.7,125.865Z" transform="translate(-4.172 4.937)" fill="#354546"/>
      <rect id="Rectangle_39774" data-name="Rectangle 39774" width="13.093" height="16.178" rx="1.84" transform="translate(1.75 114.486)" fill="#ef893a"/>
      <path id="Path_197193" data-name="Path 197193" d="M36.374,129.076H25.63a2.793,2.793,0,0,1-2.732-2.195l-.706-3.254A2.793,2.793,0,0,1,25,120.25H37.709c1.965,0,4.037.153,3.315,1.98l-2,5.08A2.793,2.793,0,0,1,36.374,129.076Z" transform="translate(-10.173 4.167)" fill="#ef893a"/>
      <path id="Path_197194" data-name="Path 197194" d="M26.07,125.865a4.175,4.175,0,1,1-4.175-4.175A4.175,4.175,0,0,1,26.07,125.865Z" transform="translate(-12.532 4.937)" fill="#354546"/>
      <path id="Path_197195" data-name="Path 197195" d="M23.626,125.287a2.333,2.333,0,1,1-.721-1.642A2.333,2.333,0,0,1,23.626,125.287Z" transform="translate(-11.869 5.638)" fill="#657576"/>
      <path id="Path_197196" data-name="Path 197196" d="M39.216,125.287A2.333,2.333,0,1,1,36.883,123a2.333,2.333,0,0,1,2.333,2.287Z" transform="translate(-3.53 5.638)" fill="#657576"/>
      <path id="Path_197197" data-name="Path 197197" d="M28.55,118.285h0a.952.952,0,0,1-1.228-.46l-1.965-4.252a.921.921,0,0,1,.46-1.213h0a.906.906,0,0,1,1.213.445L29,117.057A.936.936,0,0,1,28.55,118.285Z" transform="translate(-8.489 -0.099)" fill="#455556"/>
      <path id="Path_197198" data-name="Path 197198" d="M33.623,116.775h0a1.535,1.535,0,0,1-1.535,1.535H28.635a1.535,1.535,0,0,1-1.535-1.535h0a1.535,1.535,0,0,1,1.535-1.535h3.438a1.535,1.535,0,0,1,1.55,1.535Z" transform="translate(-7.515 1.487)" fill="#455556"/>
      <rect id="Rectangle_39775" data-name="Rectangle 39775" width="12.77" height="5.372" rx="1.56" transform="translate(15.073 119.337)" fill="#758586"/>
      <rect id="Rectangle_39776" data-name="Rectangle 39776" width="6.354" height="6.631" rx="0.92" transform="translate(30.698 117.909)" fill="#354546"/>
      <rect id="Rectangle_39777" data-name="Rectangle 39777" width="0.767" height="8.902" transform="translate(28.393 113.059) rotate(-24.21)" fill="#354546"/>
      <path id="Path_197199" data-name="Path 197199" d="M34.881,113.808l-2.932,1.32a.6.6,0,0,1-.8-.307l-.092-.184a.6.6,0,0,1,.307-.8l2.932-1.32a.6.6,0,0,1,.8.307l.092.184a.614.614,0,0,1-.307.8Z" transform="translate(-5.426 0.003)" fill="#354546"/>
      <path id="Path_197200" data-name="Path 197200" d="M42.681,128.945H25.137a1.535,1.535,0,0,1-1.627-1.535V107.2a1.535,1.535,0,0,1,1.627-1.535h12.4a1.535,1.535,0,0,1,1.612,1.427l5.065,20.122a.814.814,0,0,1,0,.2,1.535,1.535,0,0,1-1.535,1.535ZM25.076,127.41H42.681l-5.065-19.953a.767.767,0,0,1,0-.184H25.045v20.153Z" transform="translate(-9.435 -3.638)" fill="#354546"/>
      <path id="Path_197201" data-name="Path 197201" d="M33.387,129.545a1.151,1.151,0,0,1-1.09-.8,6.353,6.353,0,0,1,10.483-6.6,1.151,1.151,0,1,1-1.627,1.627,4.021,4.021,0,0,0-6.14.491,4.083,4.083,0,0,0-.522,3.76,1.166,1.166,0,0,1-.737,1.535,1.029,1.029,0,0,1-.368-.015Z" transform="translate(-4.93 4.188)" fill="#f3aa43"/>
      <path id="Path_197202" data-name="Path 197202" d="M26.972,129.551a1.028,1.028,0,0,1-.368,0,1.151,1.151,0,0,1-.737-1.535,4.129,4.129,0,0,0-.522-3.76,4.052,4.052,0,0,0-3.269-1.673,3.975,3.975,0,0,0-2.84,1.182,1.151,1.151,0,0,1-1.627,0,1.136,1.136,0,0,1,0-1.627,6.337,6.337,0,0,1,10.453,6.6A1.167,1.167,0,0,1,26.972,129.551Z" transform="translate(-12.775 4.183)" fill="#f3aa43"/>
      <rect id="Rectangle_39778" data-name="Rectangle 39778" width="14.766" height="2.978" rx="0.5" transform="translate(0 113.658)" fill="#354546"/>
      <rect id="Rectangle_39779" data-name="Rectangle 39779" width="1.704" height="15.656" rx="0.37" transform="translate(38.556 114.671)" fill="#354546"/>
      <rect id="Rectangle_39780" data-name="Rectangle 39780" width="15.686" height="1.566" rx="0.5" transform="translate(38.556 128.884)" fill="#354546"/>
      <rect id="Rectangle_39781" data-name="Rectangle 39781" width="17.881" height="20.015" transform="translate(41.304 109.329)" fill="#d7ba76"/>
      <rect id="Rectangle_39782" data-name="Rectangle 39782" width="7.674" height="3.453" transform="translate(42.086 125.123)" fill="#fcf7ea"/>
      <rect id="Rectangle_39783" data-name="Rectangle 39783" width="0.46" height="2.947" transform="translate(42.501 125.384)" fill="#354546"/>
      <rect id="Rectangle_39784" data-name="Rectangle 39784" width="0.153" height="2.947" transform="translate(43.238 125.384)" fill="#354546"/>
      <rect id="Rectangle_39785" data-name="Rectangle 39785" width="0.153" height="2.947" transform="translate(48.211 125.384)" fill="#354546"/>
      <rect id="Rectangle_39786" data-name="Rectangle 39786" width="0.46" height="2.947" transform="translate(43.959 125.384)" fill="#354546"/>
      <rect id="Rectangle_39787" data-name="Rectangle 39787" width="0.23" height="2.947" transform="translate(44.696 125.384)" fill="#354546"/>
      <rect id="Rectangle_39788" data-name="Rectangle 39788" width="0.23" height="2.947" transform="translate(43.575 125.384)" fill="#354546"/>
      <rect id="Rectangle_39789" data-name="Rectangle 39789" width="0.752" height="2.947" transform="translate(45.126 125.384)" fill="#354546"/>
      <rect id="Rectangle_39790" data-name="Rectangle 39790" width="0.46" height="2.947" transform="translate(47.612 125.384)" fill="#354546"/>
      <rect id="Rectangle_39791" data-name="Rectangle 39791" width="0.46" height="2.947" transform="translate(46.568 125.384)" fill="#354546"/>
      <rect id="Rectangle_39792" data-name="Rectangle 39792" width="0.23" height="2.947" transform="translate(46.154 125.384)" fill="#354546"/>
      <rect id="Rectangle_39793" data-name="Rectangle 39793" width="0.23" height="2.947" transform="translate(47.167 125.384)" fill="#354546"/>
      <rect id="Rectangle_39794" data-name="Rectangle 39794" width="0.752" height="2.947" transform="translate(48.472 125.384)" fill="#354546"/>
      <rect id="Rectangle_39795" data-name="Rectangle 39795" width="0.553" height="20.015" transform="translate(50.237 109.329)" fill="#b59d63"/>
      <rect id="Rectangle_39796" data-name="Rectangle 39796" width="17.881" height="2.533" transform="translate(41.304 109.329)" fill="#b59d63"/>
      <rect id="Rectangle_39797" data-name="Rectangle 39797" width="0.476" height="1.903" transform="translate(52.754 125.906)" fill="#b59d63"/>
      <path id="Path_197203" data-name="Path 197203" d="M48.4,121.788l.706-1.228.706,1.228Z" transform="translate(3.878 4.333)" fill="#b59d63"/>
      <rect id="Rectangle_39798" data-name="Rectangle 39798" width="0.476" height="1.903" transform="translate(54.319 125.906)" fill="#b59d63"/>
      <path id="Path_197204" data-name="Path 197204" d="M49.42,121.788l.706-1.228.721,1.228Z" transform="translate(4.424 4.333)" fill="#b59d63"/>
      <rect id="Rectangle_39799" data-name="Rectangle 39799" width="2.993" height="0.292" transform="translate(52.278 128.024)" fill="#b59d63"/>
      <g id="Group_128925" data-name="Group 128925" transform="translate(44.189 109.329)">
        <rect id="Rectangle_39800" data-name="Rectangle 39800" width="1.965" height="4.85" fill="#b59d63"/>
      </g>
      <g id="Group_128926" data-name="Group 128926" transform="translate(53.951 109.329)">
        <rect id="Rectangle_39801" data-name="Rectangle 39801" width="1.965" height="4.85" fill="#b59d63"/>
      </g>
      <path id="Path_197205" data-name="Path 197205" d="M165.569,131.007a.952.952,0,0,1-.952.952h0a.967.967,0,0,1-.967-.952v-7.076a.967.967,0,0,1,.967-.952h0a.952.952,0,0,1,.952.952Z" transform="translate(65.523 5.627)" fill="#f0851d"/>
      <path id="Path_197206" data-name="Path 197206" d="M168.755,125.142a.66.66,0,0,1-.66.66h0a.675.675,0,0,1-.675-.66V120.23a.675.675,0,0,1,.675-.66h0a.66.66,0,0,1,.66.66Z" transform="translate(67.54 3.803)" fill="#f7971e"/>
      <rect id="Rectangle_39802" data-name="Rectangle 39802" width="17.62" height="8.918" rx="1.66" transform="translate(82.116 132.291)" fill="#333"/>
      <rect id="Rectangle_39803" data-name="Rectangle 39803" width="5.879" height="28.702" rx="1.66" transform="translate(110.588 99.936)" fill="#1a1a1a"/>
      <rect id="Rectangle_39804" data-name="Rectangle 39804" width="5.879" height="28.702" rx="1.66" transform="translate(110.588 99.936)" fill="#1a1a1a"/>
      <path id="Path_197207" data-name="Path 197207" d="M67.33,119.464v8.657a8.411,8.411,0,0,0,8.411,8.411h14.52a8.426,8.426,0,0,0,8.411-8.411V104.745a.783.783,0,0,0-.476-.706,15.349,15.349,0,0,0-5.74-.967,29.593,29.593,0,0,0-8.426,1.335c-.614.184-1.274.414-2.011.675a22.578,22.578,0,0,0-8.442,4.16,19.953,19.953,0,0,0-3.285,3.07l-.614.767A10.744,10.744,0,0,0,67.33,119.464Z" transform="translate(14.003 -5.024)" fill="#b2b2b2"/>
      <path id="Path_197208" data-name="Path 197208" d="M67.33,116.253v7.582l2.594-.276h.169l2.655-.292,1.965-.215,5.6-.6,2.118-.23c2.7,0,4.881-1.351,4.881-3.07V112.14c0-1.658-2.18-3.07-4.881-3.07H70.292l-.614.767a12.662,12.662,0,0,0-1.642,2.916A9.209,9.209,0,0,0,67.33,116.253Z" transform="translate(14.003 -1.813)" fill="#4d4d4d"/>
      <path id="Path_197209" data-name="Path 197209" d="M71.744,109.43a2.548,2.548,0,0,0,1.827,2.44,2.287,2.287,0,0,0,.721.107H93.785a2.548,2.548,0,0,0,2.548-2.548v-6.462a2.563,2.563,0,0,0-2.548-2.548l-14.9,2.548C70.731,104.38,71.744,109.43,71.744,109.43Z" transform="translate(16.343 -6.439)" fill="#b2b2b2"/>
      <path id="Path_197210" data-name="Path 197210" d="M67.33,124.952v8.488a2.5,2.5,0,0,0,.537,1.535h0a2.594,2.594,0,0,0,1.535.906H96.017a2.548,2.548,0,0,0,2.655-2.44V117.83l-28.718,4.6h-.061a2.594,2.594,0,0,0-1.642.6,2.7,2.7,0,0,0-.737,1.059A2.486,2.486,0,0,0,67.33,124.952Z" transform="translate(14.003 2.873)" fill="#b2b2b2"/>
      <path id="Path_197211" data-name="Path 197211" d="M113.07,131.49a6.14,6.14,0,1,0,6.14-6.14A6.139,6.139,0,0,0,113.07,131.49Z" transform="translate(38.469 6.895)" fill="#333"/>
      <path id="Path_197212" data-name="Path 197212" d="M113.46,131.22a5.51,5.51,0,1,0,5.51-5.51,5.51,5.51,0,0,0-5.51,5.51Z" transform="translate(38.677 7.088)" fill="#1a1a1a"/>
      <path id="Path_197213" data-name="Path 197213" d="M114.87,130.506a3.346,3.346,0,1,0,3.346-3.346,3.346,3.346,0,0,0-3.346,3.346Z" transform="translate(39.432 7.863)" fill="#666"/>
      <path id="Path_197214" data-name="Path 197214" d="M114.71,130.6a3.607,3.607,0,1,1,3.592,3.592A3.607,3.607,0,0,1,114.71,130.6Z" transform="translate(39.346 7.767)" fill="gray"/>
      <path id="Path_197215" data-name="Path 197215" d="M132.42,131.49a6.14,6.14,0,1,0,6.14-6.14A6.139,6.139,0,0,0,132.42,131.49Z" transform="translate(48.819 6.895)" fill="#333"/>
      <path id="Path_197216" data-name="Path 197216" d="M132.81,131.22a5.51,5.51,0,1,0,5.51-5.51,5.51,5.51,0,0,0-5.51,5.51Z" transform="translate(49.027 7.088)" fill="#1a1a1a"/>
      <path id="Path_197217" data-name="Path 197217" d="M134.22,130.506a3.346,3.346,0,1,0,3.346-3.346A3.346,3.346,0,0,0,134.22,130.506Z" transform="translate(49.782 7.863)" fill="#666"/>
      <path id="Path_197218" data-name="Path 197218" d="M134.06,130.6a3.607,3.607,0,1,1,3.592,3.592A3.607,3.607,0,0,1,134.06,130.6Z" transform="translate(49.696 7.767)" fill="gray"/>
      <path id="Path_197219" data-name="Path 197219" d="M151.77,131.49a6.14,6.14,0,1,0,6.14-6.14A6.139,6.139,0,0,0,151.77,131.49Z" transform="translate(59.169 6.895)" fill="#333"/>
      <path id="Path_197220" data-name="Path 197220" d="M152.16,131.22a5.51,5.51,0,1,0,5.51-5.51A5.51,5.51,0,0,0,152.16,131.22Z" transform="translate(59.377 7.088)" fill="#1a1a1a"/>
      <path id="Path_197221" data-name="Path 197221" d="M153.57,130.506a3.346,3.346,0,1,0,3.346-3.346A3.346,3.346,0,0,0,153.57,130.506Z" transform="translate(60.132 7.863)" fill="#666"/>
      <path id="Path_197222" data-name="Path 197222" d="M153.41,130.6A3.607,3.607,0,1,1,157,134.194,3.607,3.607,0,0,1,153.41,130.6Z" transform="translate(60.046 7.767)" fill="gray"/>
      <rect id="Rectangle_39805" data-name="Rectangle 39805" width="22.762" height="9.47" rx="1.66" transform="translate(120.887 126.305)" fill="#1a1a1a"/>
      <rect id="Rectangle_39806" data-name="Rectangle 39806" width="30.114" height="8.918" transform="translate(102.208 132.798)" fill="gray"/>
      <rect id="Rectangle_39807" data-name="Rectangle 39807" width="82.761" height="11.205" rx="1.66" transform="translate(147.211 128.638)" fill="#4d4d4d"/>
      <path id="Path_197223" data-name="Path 197223" d="M76.94,131.49a6.14,6.14,0,1,0,6.14-6.14A6.139,6.139,0,0,0,76.94,131.49Z" transform="translate(19.144 6.895)" fill="#333"/>
      <path id="Path_197224" data-name="Path 197224" d="M77.34,131.22a5.51,5.51,0,1,0,5.51-5.51A5.51,5.51,0,0,0,77.34,131.22Z" transform="translate(19.358 7.088)" fill="#1a1a1a"/>
      <path id="Path_197225" data-name="Path 197225" d="M78.75,130.506A3.346,3.346,0,1,0,82.1,127.16,3.346,3.346,0,0,0,78.75,130.506Z" transform="translate(20.112 7.863)" fill="#666"/>
      <path id="Path_197226" data-name="Path 197226" d="M78.58,130.6a3.607,3.607,0,1,1,3.607,3.592A3.607,3.607,0,0,1,78.58,130.6Z" transform="translate(20.021 7.767)" fill="gray"/>
      <path id="Path_197227" data-name="Path 197227" d="M79.81,129.944a1.719,1.719,0,1,0,1.719-1.7,1.719,1.719,0,0,0-1.719,1.7Z" transform="translate(20.679 8.441)" fill="gray"/>
      <path id="Path_197228" data-name="Path 197228" d="M98.17,131.49a6.14,6.14,0,1,0,6.14-6.14A6.139,6.139,0,0,0,98.17,131.49Z" transform="translate(30.499 6.895)" fill="#333"/>
      <path id="Path_197229" data-name="Path 197229" d="M98.56,131.22a5.51,5.51,0,1,0,5.51-5.51,5.51,5.51,0,0,0-5.51,5.51Z" transform="translate(30.708 7.088)" fill="#1a1a1a"/>
      <path id="Path_197230" data-name="Path 197230" d="M100,130.506a3.346,3.346,0,1,0,3.346-3.346A3.346,3.346,0,0,0,100,130.506Z" transform="translate(31.478 7.863)" fill="#666"/>
      <path id="Path_197231" data-name="Path 197231" d="M99.81,130.6a3.607,3.607,0,1,1,3.592,3.592A3.607,3.607,0,0,1,99.81,130.6Z" transform="translate(31.376 7.767)" fill="gray"/>
      <path id="Path_197232" data-name="Path 197232" d="M101,129.944a1.7,1.7,0,1,0,1.7-1.7,1.7,1.7,0,0,0-1.7,1.7Z" transform="translate(32.013 8.441)" fill="gray"/>
      <path id="Path_197233" data-name="Path 197233" d="M75.5,113.614v6.324a2.594,2.594,0,0,0,.445,1.443l2.118-.23c2.7,0,4.881-1.351,4.881-3.07v-6.446a2.533,2.533,0,0,0-1.658-.614H78.048a2.548,2.548,0,0,0-2.548,2.594Z" transform="translate(18.373 -0.77)" fill="#333"/>
      <path id="Path_197234" data-name="Path 197234" d="M67.33,115.057v7.582l2.594-.276,4.789-.537a2.609,2.609,0,0,0-.153-1.228l-3.07-7.674a2.548,2.548,0,0,0-3.3-1.443l-.215.092a9.209,9.209,0,0,0-.645,3.484Z" transform="translate(14.003 -0.617)" fill="#333"/>
      <path id="Path_197235" data-name="Path 197235" d="M69.13,120.02l2.655-.292,3.07-2.44a.906.906,0,0,0,.138-1.3.921.921,0,0,0-.721-.353.859.859,0,0,0-.583.215l-4.221,3.423a.906.906,0,0,0-.338.752Z" transform="translate(14.966 1.696)" fill="#1a1a1a"/>
      <path id="Path_197236" data-name="Path 197236" d="M68.33,116.232v7.582l1.949-.215v-7.367a10.744,10.744,0,0,1,2.348-6.354c.184-.261.384-.507.6-.767H71.277c-.215.261-.414.507-.6.767a10.744,10.744,0,0,0-2.348,6.354Z" transform="translate(14.538 -1.791)" fill="#b2b2b2"/>
      <path id="Path_197237" data-name="Path 197237" d="M67.33,123.191h0v10.023a1.872,1.872,0,0,0,.246.921h0a1.842,1.842,0,0,0,1.612.936h.322a1.78,1.78,0,0,0,.982-.506,1.842,1.842,0,0,0,.537-1.32V123.222a1.849,1.849,0,0,0-2.978-1.458l-.169.153a1.919,1.919,0,0,0-.553,1.274Z" transform="translate(14.003 4.772)" fill="gray"/>
      <path id="Path_197238" data-name="Path 197238" d="M67.33,123.56v8.488a1.872,1.872,0,0,0,.246.921h.292a2.486,2.486,0,0,0,1.2-.66,2.456,2.456,0,0,0,.6-1,2.195,2.195,0,0,0,.107-.706V126a2.41,2.41,0,0,0-2.425-2.41Z" transform="translate(14.003 5.938)" fill="#f7971e"/>
      <path id="Path_197239" data-name="Path 197239" d="M72.873,121.335a.967.967,0,0,0,1.09.8l2.9-.46a.952.952,0,0,0,.783-1.105h0a.936.936,0,0,0-1.09-.783l-2.886.46a.967.967,0,0,0-.8,1.09Z" transform="translate(16.963 3.911)" fill="#4d4d4d"/>
      <rect id="Rectangle_39808" data-name="Rectangle 39808" width="6.093" height="27.259" transform="translate(106.567 105.538)" fill="#b2b2b2"/>
      <path id="Path_197240" data-name="Path 197240" d="M76.415,134.416a1.535,1.535,0,0,0,1.535-1.535,6.232,6.232,0,0,1,12.448,0,1.589,1.589,0,1,0,3.177,0,9.409,9.409,0,1,0-18.8,0,1.535,1.535,0,0,0,1.642,1.535Z" transform="translate(17.98 5.687)" fill="#b2b2b2"/>
      <path id="Path_197241" data-name="Path 197241" d="M97.638,134.284a1.535,1.535,0,0,0,1.535-1.535,6.216,6.216,0,1,1,12.433,0,1.6,1.6,0,0,0,3.193,0,9.409,9.409,0,1,0-18.818,0,1.535,1.535,0,0,0,1.658,1.535Z" transform="translate(29.328 5.82)" fill="#b2b2b2"/>
      <rect id="Rectangle_39809" data-name="Rectangle 39809" width="20.245" height="6.446" rx="1.66" transform="translate(108.424 134.593)" fill="#b2b2b2"/>
      <rect id="Rectangle_39810" data-name="Rectangle 39810" width="121.148" height="41.181" rx="1.66" transform="translate(114.257 90.588)" fill="#ef893a"/>
      <path id="Path_197242" data-name="Path 197242" d="M73.05,108.038v1.535H95.613v-3.5a1.028,1.028,0,0,0-1.028-1.013L74.063,107.1a1.013,1.013,0,0,0-.952.691.752.752,0,0,0-.061.246Z" transform="translate(17.063 -3.958)" fill="#666"/>
      <path id="Path_197243" data-name="Path 197243" d="M69.12,107.68a.89.89,0,0,0,.89.89H97.638v-1.78H70.01A.89.89,0,0,0,69.12,107.68Z" transform="translate(14.961 -3.032)" fill="#4d4d4d"/>
      <path id="Path_197244" data-name="Path 197244" d="M107.979,111.6h0a.551.551,0,0,0,0-.154h0l-5.51-4.144a.368.368,0,0,0-.445,0l-5.74,4.006a.414.414,0,0,0-.153.322h0l-.2,7.751a.43.43,0,0,0,.2.353l5.71,3.377h0a.323.323,0,0,0,.169,0h0a.323.323,0,0,0,.169,0h0l5.725-3.377a.414.414,0,0,0,.184-.338v-7.674Zm-5.909-3.684,4.85,3.653-4.835,3.07-5.034-3.162Zm-5.341,4.236,4.958,3.208-.169,6.707-4.958-2.916Zm5.556,9.9.184-6.692,4.743-3.07v6.861Z" transform="translate(29.301 -2.796)" fill="#fff"/>
    </g>
  </g>
</svg>
