<svg xmlns="http://www.w3.org/2000/svg" xmlns:xlink="http://www.w3.org/1999/xlink" width="828.593" height="833.797" viewBox="0 0 828.593 833.797">
  <defs>
    <linearGradient id="linear-gradient" x1="-0.05" y1="0.546" x2="0.954" y2="0.546" gradientUnits="objectBoundingBox">
      <stop offset="0" stop-color="#5c22c3"/>
      <stop offset="1" stop-color="#91b3fa"/>
    </linearGradient>
    <filter id="Ellipse_5477" x="296.406" y="0" width="216.108" height="216.108" filterUnits="userSpaceOnUse">
      <feOffset dy="6" input="SourceAlpha"/>
      <feGaussianBlur stdDeviation="3" result="blur"/>
      <feFlood flood-opacity="0.161"/>
      <feComposite operator="in" in2="blur"/>
      <feComposite in="SourceGraphic"/>
    </filter>
    <filter id="Ellipse_5479" x="296.621" y="617.689" width="216.108" height="216.108" filterUnits="userSpaceOnUse">
      <feOffset dy="6" input="SourceAlpha"/>
      <feGaussianBlur stdDeviation="3" result="blur-2"/>
      <feFlood flood-opacity="0.161"/>
      <feComposite operator="in" in2="blur-2"/>
      <feComposite in="SourceGraphic"/>
    </filter>
    <filter id="Ellipse_5481" x="11.621" y="168.69" width="216.108" height="216.108" filterUnits="userSpaceOnUse">
      <feOffset dy="6" input="SourceAlpha"/>
      <feGaussianBlur stdDeviation="3" result="blur-3"/>
      <feFlood flood-opacity="0.161"/>
      <feComposite operator="in" in2="blur-3"/>
      <feComposite in="SourceGraphic"/>
    </filter>
    <filter id="Ellipse_5483" x="600.621" y="168.689" width="216.108" height="216.108" filterUnits="userSpaceOnUse">
      <feOffset dy="6" input="SourceAlpha"/>
      <feGaussianBlur stdDeviation="3" result="blur-4"/>
      <feFlood flood-opacity="0.161"/>
      <feComposite operator="in" in2="blur-4"/>
      <feComposite in="SourceGraphic"/>
    </filter>
    <filter id="Ellipse_5485" x="11.621" y="476.689" width="216.108" height="216.108" filterUnits="userSpaceOnUse">
      <feOffset dy="6" input="SourceAlpha"/>
      <feGaussianBlur stdDeviation="3" result="blur-5"/>
      <feFlood flood-opacity="0.161"/>
      <feComposite operator="in" in2="blur-5"/>
      <feComposite in="SourceGraphic"/>
    </filter>
    <filter id="Ellipse_5487" x="600.621" y="476.689" width="216.108" height="216.108" filterUnits="userSpaceOnUse">
      <feOffset dy="6" input="SourceAlpha"/>
      <feGaussianBlur stdDeviation="3" result="blur-6"/>
      <feFlood flood-opacity="0.161"/>
      <feComposite operator="in" in2="blur-6"/>
      <feComposite in="SourceGraphic"/>
    </filter>
    <filter id="Ellipse_4884" x="200.621" y="217.69" width="420.425" height="420.425" filterUnits="userSpaceOnUse">
      <feOffset dy="6" input="SourceAlpha"/>
      <feGaussianBlur stdDeviation="3" result="blur-7"/>
      <feFlood flood-color="#2e1161" flood-opacity="0.69"/>
      <feComposite operator="in" in2="blur-7"/>
      <feComposite in="SourceGraphic"/>
    </filter>
  </defs>
  <g id="t3-info1" transform="translate(-71.936 -27.009)">
    <g id="OBJECTS" transform="translate(45.91 28.598)">
      <path id="Path_192992" data-name="Path 192992" d="M439.1,781.548a343.913,343.913,0,0,1-171.988-45.92l-11.927-6.88A345.042,345.042,0,0,1,83.2,430.841v-13.8A345.042,345.042,0,0,1,255.295,119.153l11.927-6.879a345.042,345.042,0,0,1,344,0l11.906,6.88a345.042,345.042,0,0,1,171.9,297.886v13.78A345.042,345.042,0,0,1,623.02,728.705l-11.927,6.9A344.062,344.062,0,0,1,439.1,781.548Zm0-619.414a248.175,248.175,0,0,0-124.066,33.141l-11.927,6.88A248.856,248.856,0,0,0,179.045,417.039v13.78A248.792,248.792,0,0,0,303.111,645.7l11.927,6.88a248.856,248.856,0,0,0,248.153,0l11.906-6.9A248.813,248.813,0,0,0,699.185,430.8V417.039A248.877,248.877,0,0,0,575.1,202.133l-11.906-6.88A248.26,248.26,0,0,0,439.1,162.134Z" transform="translate(-3.777 14.055)" fill="url(#linear-gradient)"/>
      <g transform="matrix(1, 0, 0, 1, 26.03, -1.59)" filter="url(#Ellipse_5477)">
        <ellipse id="Ellipse_5477-2" data-name="Ellipse 5477" cx="99.054" cy="99.054" rx="99.054" ry="99.054" transform="translate(305.41 3)" fill="#f2f6fe"/>
      </g>
      <path id="Ellipse_5478" data-name="Ellipse 5478" d="M83.209-1.5A85.328,85.328,0,0,1,100.279.221a84.252,84.252,0,0,1,30.292,12.747A84.952,84.952,0,0,1,161.26,50.236a84.294,84.294,0,0,1,4.936,15.9,85.52,85.52,0,0,1,0,34.14,84.252,84.252,0,0,1-12.747,30.292,84.951,84.951,0,0,1-37.268,30.689,84.293,84.293,0,0,1-15.9,4.936,85.52,85.52,0,0,1-34.14,0,84.253,84.253,0,0,1-30.292-12.747A84.952,84.952,0,0,1,5.157,116.181a84.294,84.294,0,0,1-4.936-15.9,85.52,85.52,0,0,1,0-34.14A84.253,84.253,0,0,1,12.968,35.846,84.952,84.952,0,0,1,50.236,5.157,84.294,84.294,0,0,1,66.138.221,85.328,85.328,0,0,1,83.209-1.5Zm0,166.417A81.709,81.709,0,1,0,1.5,83.209,81.8,81.8,0,0,0,83.209,164.917Z" transform="translate(330.655 162.752) rotate(-76.96)" fill="#34d9c7"/>
      <g transform="matrix(1, 0, 0, 1, 26.03, -1.59)" filter="url(#Ellipse_5479)">
        <ellipse id="Ellipse_5479-2" data-name="Ellipse 5479" cx="99.054" cy="99.054" rx="99.054" ry="99.054" transform="translate(305.62 620.69)" fill="#f2f6fe"/>
      </g>
      <path id="Ellipse_5480" data-name="Ellipse 5480" d="M83.209-1.5A85.328,85.328,0,0,1,100.279.221a84.252,84.252,0,0,1,30.292,12.747A84.952,84.952,0,0,1,161.26,50.236a84.294,84.294,0,0,1,4.936,15.9,85.52,85.52,0,0,1,0,34.14,84.252,84.252,0,0,1-12.747,30.292,84.951,84.951,0,0,1-37.268,30.689,84.293,84.293,0,0,1-15.9,4.936,85.52,85.52,0,0,1-34.14,0,84.253,84.253,0,0,1-30.292-12.747A84.952,84.952,0,0,1,5.157,116.181a84.294,84.294,0,0,1-4.936-15.9,85.52,85.52,0,0,1,0-34.14A84.253,84.253,0,0,1,12.968,35.846,84.952,84.952,0,0,1,50.236,5.157,84.294,84.294,0,0,1,66.138.221,85.328,85.328,0,0,1,83.209-1.5Zm0,166.417A81.709,81.709,0,1,0,1.5,83.209,81.8,81.8,0,0,0,83.209,164.917Z" transform="translate(330.147 780.726) rotate(-76.96)" fill="#34d9c7"/>
      <path id="Path_192993" data-name="Path 192993" d="M456.118,227.706a54.952,54.952,0,0,0-19.659,3.812,1.853,1.853,0,0,0-1,1.15,1.831,1.831,0,0,0,.149,1.342c-2.79-1.044-6.709-2.6-10.649-4.26-6.667-3-10.969-2.13-15.74,1.683H394.309c0-.6.149-1.15.192-1.683a1.811,1.811,0,0,0-.554-1.512c-2.13-2.13-8.967-3.195-14.185-3.749v3.749a43.427,43.427,0,0,1,10.948,2.258c-.98,8.094-5.431,22.513-6.794,26.858H376.29v3.706h8.967a1.853,1.853,0,0,0,1.768-1.278s.192-.6.426-1.342l1.363,1.427c1.661,1.725,3.365,3.493,4.515,4.473,6.9,5.772,15.186,11.991,16.847,13.078a14.163,14.163,0,0,0,6.56,2.13,6.39,6.39,0,0,0,4.26-1.235,5.708,5.708,0,0,0,4.26,0,7.242,7.242,0,0,0,3.855-3.557,7.136,7.136,0,0,0,4.664-.66,6.389,6.389,0,0,0,3.088-3.237,6.049,6.049,0,0,0,4.26-1.512,5.836,5.836,0,0,0,2-5.6l2.939-1.981c.192.639.383,1.235.49,1.661a1.874,1.874,0,0,0,1.789,1.363h7.838v-3.706h-6.39c-1.747-5.708-6.943-20.617-9.819-26.794a59.829,59.829,0,0,1,16.272-2.747Zm-17.465,38.7a2.13,2.13,0,0,1-2.236.469c-1.384-1.108-5.729-5.389-9.35-9.159a1.853,1.853,0,1,0-2.684,2.556c.852.895,6.39,6.624,9.031,8.9a2.619,2.619,0,0,1-1.342,1.491,2.833,2.833,0,0,1-2.9,0h0c-2.13-1.768-10.458-10.649-11.714-11.97a1.855,1.855,0,1,0-2.748,2.492s7.8,8.52,11.246,11.587a3.493,3.493,0,0,1-1.96,2,1.981,1.981,0,0,1-2.13-.319h0a76.521,76.521,0,0,1-6.39-6.241,1.853,1.853,0,1,0-2.7,2.535c1.193,1.278,3,3.195,5.069,5.069a4.887,4.887,0,0,1-.873,0,10.649,10.649,0,0,1-4.537-1.555c-1.3-.852-9.457-6.943-16.485-12.779-1-.831-2.7-2.62-4.26-4.26-1.108-1.15-2.13-2.13-2.811-2.854,1.555-5.09,3.791-12.928,5.005-19.3h11.374c-2.535,2.535-5.942,7.646-5.048,11.374a4.537,4.537,0,0,0,3.174,3.344,9.265,9.265,0,0,0,10.884-3.727,24.4,24.4,0,0,0,4.068-1.427c2.13,1.981,4.984,4.26,7.987,6.73,5.453,4.409,11.629,9.393,13.014,12.289a2.13,2.13,0,0,1-.681,2.662Zm2.769-6.134a83.612,83.612,0,0,0-12.886-11.8c-3.365-2.726-6.539-5.282-8.519-7.305a1.874,1.874,0,0,0-1.938-.447,45.535,45.535,0,0,0-6.39,2.556c-2.62,3.919-5.325,3.6-7.135,2.982-.575-.192-.682-.447-.745-.682-.383-1.619,1.555-5.41,4.089-7.944,6.028-6.006,9.137-7.519,15.676-4.6s12.439,5.069,14.355,5.751c2.13,5.282,5.112,13.482,7.007,19.169Z" transform="translate(327.382 192.738)" fill="#fff"/>
      <path id="Path_192994" data-name="Path 192994" d="M109.485,221.9H102.52a1.15,1.15,0,0,0-1.15,1.15v6.965a1.15,1.15,0,0,0,1.15,1.15h6.965a1.15,1.15,0,0,0,1.15-1.15V223.05a1.15,1.15,0,0,0-1.15-1.15Zm-1.171,6.943h-4.622v-4.6h4.622Zm0,0" transform="translate(16.754 189.812)" fill="#fff"/>
      <path id="Path_192995" data-name="Path 192995" d="M109.485,216.46H102.52a1.15,1.15,0,0,0-1.15,1.15v6.965a1.15,1.15,0,0,0,1.15,1.15h6.965a1.15,1.15,0,0,0,1.15-1.15V217.61a1.15,1.15,0,0,0-1.15-1.15Zm-1.171,6.943h-4.622v-4.622h4.622Zm0,0" transform="translate(16.754 183.665)" fill="#fff"/>
      <path id="Path_192996" data-name="Path 192996" d="M104.045,221.9H97.08a1.15,1.15,0,0,0-1.15,1.15v6.965a1.15,1.15,0,0,0,1.15,1.15h6.965a1.15,1.15,0,0,0,1.15-1.15V223.05a1.15,1.15,0,0,0-1.15-1.15Zm-1.171,6.943H98.209v-4.6h4.622Zm0,0" transform="translate(10.607 189.812)" fill="#fff"/>
      <path id="Path_192997" data-name="Path 192997" d="M104.045,216.46H97.08a1.15,1.15,0,0,0-1.15,1.15v6.965a1.15,1.15,0,0,0,1.15,1.15h6.965a1.15,1.15,0,0,0,1.15-1.15V217.61a1.15,1.15,0,0,0-1.15-1.15Zm-1.171,6.943H98.209v-4.622h4.622Zm0,0" transform="translate(10.607 183.665)" fill="#fff"/>
      <path id="Path_192998" data-name="Path 192998" d="M104.045,227.34H97.08a1.15,1.15,0,0,0-1.15,1.15v6.965a1.15,1.15,0,0,0,1.15,1.15h6.965a1.15,1.15,0,0,0,1.15-1.15V228.49a1.15,1.15,0,0,0-1.15-1.15Zm-1.171,6.943H98.209v-4.622h4.622Zm0,0" transform="translate(10.607 195.958)" fill="#fff"/>
      <path id="Path_192999" data-name="Path 192999" d="M104.045,232.78H97.08a1.15,1.15,0,0,0-1.15,1.15v6.965a1.15,1.15,0,0,0,1.15,1.15h6.965a1.15,1.15,0,0,0,1.15-1.15V233.93a1.15,1.15,0,0,0-1.15-1.15Zm-1.171,6.858H98.209v-4.622h4.622Zm0,0" transform="translate(10.607 202.105)" fill="#fff"/>
      <path id="Path_193000" data-name="Path 193000" d="M110.68,244.236h6.965a1.171,1.171,0,0,0,1.15-1.171v-6.943a1.171,1.171,0,0,0-1.15-1.171H110.68a1.171,1.171,0,0,0-1.15,1.171v6.943a1.171,1.171,0,0,0,1.15,1.171Zm1.171-6.965h4.622v4.643h-4.622Zm0,0" transform="translate(25.973 204.557)" fill="#fff"/>
      <path id="Path_193001" data-name="Path 193001" d="M110.68,238.8h6.965a1.171,1.171,0,0,0,1.15-1.171v-6.943a1.171,1.171,0,0,0-1.15-1.171H110.68a1.171,1.171,0,0,0-1.15,1.171v6.943a1.171,1.171,0,0,0,1.15,1.171Zm1.171-6.965h4.622v4.643h-4.622Zm0,0" transform="translate(25.973 198.41)" fill="#fff"/>
      <path id="Path_193002" data-name="Path 193002" d="M109.841,231.165h6.943a1.171,1.171,0,0,0,1.171-1.15V223.05a1.171,1.171,0,0,0-1.171-1.15h-6.943a1.171,1.171,0,0,0-1.171,1.15v6.965A1.171,1.171,0,0,0,109.841,231.165Zm1.15-6.943h4.643v4.622h-4.643Zm0,0" transform="translate(25.002 189.812)" fill="#fff"/>
      <path id="Path_193003" data-name="Path 193003" d="M110.68,249.655h6.965a1.15,1.15,0,0,0,1.15-1.15v-6.943a1.171,1.171,0,0,0-1.15-1.171H110.68a1.171,1.171,0,0,0-1.15,1.171V248.5A1.15,1.15,0,0,0,110.68,249.655Zm1.171-6.943h4.622v4.643h-4.622Zm0,0" transform="translate(25.973 210.703)" fill="#fff"/>
      <path id="Path_193004" data-name="Path 193004" d="M105.24,244.236H112.2a1.171,1.171,0,0,0,1.15-1.171v-6.943a1.172,1.172,0,0,0-1.15-1.171H105.24a1.171,1.171,0,0,0-1.15,1.171v6.943a1.171,1.171,0,0,0,1.15,1.171Zm1.171-6.965h4.622v4.643h-4.622Zm0,0" transform="translate(19.827 204.557)" fill="#fff"/>
      <path id="Path_193005" data-name="Path 193005" d="M105.24,238.8H112.2a1.171,1.171,0,0,0,1.15-1.171v-6.943a1.172,1.172,0,0,0-1.15-1.171H105.24a1.171,1.171,0,0,0-1.15,1.171v6.943a1.171,1.171,0,0,0,1.15,1.171Zm1.171-6.965h4.622v4.643h-4.622Zm0,0" transform="translate(19.827 198.41)" fill="#fff"/>
      <path id="Path_193006" data-name="Path 193006" d="M105.24,254.3H112.2a1.15,1.15,0,0,0,1.15-1.15V241.561a1.171,1.171,0,0,0-1.15-1.171H105.24a1.172,1.172,0,0,0-1.15,1.171v11.587A1.15,1.15,0,0,0,105.24,254.3Zm1.171-11.587h4.622v9.265h-4.622Zm0,0" transform="translate(19.827 210.703)" fill="#fff"/>
      <path id="Path_193007" data-name="Path 193007" d="M156.118,281.478h-6.943V243.14a1.15,1.15,0,0,0-1.15-1.15h-16.23V215.451a1.171,1.171,0,0,0-1.15-1.171H100.507a1.171,1.171,0,0,0-1.15,1.171v66.027H88.941a1.161,1.161,0,1,0,0,2.322h67.177a1.161,1.161,0,1,0,0-2.322ZM116.736,243.14v38.338H101.678V216.6h27.689V242.16H117.78a1.15,1.15,0,0,0-1.044,1.086Zm30.117,38.338h-27.8v-37.06h27.8Z" transform="translate(1.387 181.202)" fill="#fff"/>
      <path id="Path_193008" data-name="Path 193008" d="M103.9,240.39H96.96a1.172,1.172,0,0,0-1.15,1.171v11.587a1.15,1.15,0,0,0,1.15,1.15H103.9a1.171,1.171,0,0,0,1.171-1.15V241.561A1.171,1.171,0,0,0,103.9,240.39Zm-1.171,11.587h-4.6V242.52h4.6Z" transform="translate(10.471 210.703)" fill="#fff"/>
      <path id="Path_193009" data-name="Path 193009" d="M122,219.52H107.33v16.656h17.039V221.948A2.428,2.428,0,0,0,122,219.52Zm-.277,16.421H109.694V222.268h12.034Z" transform="translate(23.488 187.123)" fill="#fff"/>
      <path id="Path_193010" data-name="Path 193010" d="M220.12,369.416H158.481a1.342,1.342,0,1,0,0,2.662H220.12a1.342,1.342,0,1,0,0-2.662Zm0,0" transform="translate(79.576 356.476)" fill="#fff"/>
      <path id="Path_193011" data-name="Path 193011" d="M167.693,361.884h-8.051a1.363,1.363,0,0,0-1.342,1.342v16.017a1.342,1.342,0,0,0,1.342,1.342h8.051a1.342,1.342,0,0,0,1.342-1.342V363.162a1.342,1.342,0,0,0-1.342-1.342Zm-1.342,16.1h-5.367V364.568h5.367Zm0,0" transform="translate(81.078 347.906)" fill="#fff"/>
      <path id="Path_193012" data-name="Path 193012" d="M175.243,355.56h-8.051a1.342,1.342,0,0,0-1.342,1.342v29.414a1.342,1.342,0,0,0,1.342,1.342h8.051a1.342,1.342,0,0,0,1.342-1.342V356.9A1.342,1.342,0,0,0,175.243,355.56Zm-1.342,29.5h-5.367V358.244H173.9Zm0,0" transform="translate(89.609 340.833)" fill="#fff"/>
      <path id="Path_193013" data-name="Path 193013" d="M182.827,358.08h-8.115a1.342,1.342,0,0,0-1.342,1.342v24.046a1.342,1.342,0,0,0,1.342,1.342h8.03a1.342,1.342,0,0,0,1.342-1.342V359.422a1.342,1.342,0,0,0-1.342-1.342Zm-1.342,24.132h-5.367V360.764h5.367Zm0,0" transform="translate(98.105 343.68)" fill="#fff"/>
      <path id="Path_193014" data-name="Path 193014" d="M190.332,350.53H182.3a1.342,1.342,0,0,0-1.342,1.342V392a1.342,1.342,0,0,0,1.342,1.342h8.03A1.342,1.342,0,0,0,191.695,392V351.872a1.342,1.342,0,0,0-1.342-1.342Zm-1.342,40.212h-5.346V353.214h5.346Zm0,0" transform="translate(106.681 335.149)" fill="#fff"/>
      <path id="Path_193015" data-name="Path 193015" d="M163.667,351.79a5.367,5.367,0,1,0,5.367,5.346,5.368,5.368,0,0,0-5.367-5.346Zm0,8.03a2.684,2.684,0,1,1,2.684-2.684,2.683,2.683,0,0,1-2.684,2.684Zm0,0" transform="translate(81.078 336.573)" fill="#fff"/>
      <path id="Path_193016" data-name="Path 193016" d="M171.217,345.49a5.367,5.367,0,1,0,5.367,5.367A5.367,5.367,0,0,0,171.217,345.49Zm0,8.051a2.684,2.684,0,1,1,2.684-2.684A2.684,2.684,0,0,1,171.217,353.541Zm0,0" transform="translate(89.609 329.455)" fill="#fff"/>
      <path id="Path_193017" data-name="Path 193017" d="M178.767,348a5.346,5.346,0,1,0,3.8,1.566,5.367,5.367,0,0,0-3.8-1.566Zm0,8.051a2.684,2.684,0,1,1,2.684-2.684,2.684,2.684,0,0,1-2.684,2.684Zm0,0" transform="translate(98.139 332.29)" fill="#fff"/>
      <path id="Path_193018" data-name="Path 193018" d="M186.306,340.46a12.032,12.032,0,1,1,.021.043Zm0,8.051a2.684,2.684,0,1,1,2.684-2.684,2.684,2.684,0,0,1-2.684,2.684Zm0,0" transform="translate(106.681 323.771)" fill="#fff"/>
      <path id="Path_193019" data-name="Path 193019" d="M189.324,344.083a1.32,1.32,0,0,0-1.9,0l-10.415,10.394a1.363,1.363,0,0,0,0,1.9,1.405,1.405,0,0,0,.958.383,1.321,1.321,0,0,0,.937-.383l10.415-10.394A1.363,1.363,0,0,0,189.324,344.083Zm0,0" transform="translate(101.789 327.411)" fill="#fff"/>
      <path id="Path_193020" data-name="Path 193020" d="M179.812,350.414l-8.52-2.471a1.342,1.342,0,0,0-.745,2.577l8.626,2.471h.362a1.32,1.32,0,0,0,1.278-.98,1.3,1.3,0,0,0-.916-1.64Zm0,0" transform="translate(93.858 332.177)" fill="#fff"/>
      <path id="Path_193021" data-name="Path 193021" d="M174.016,349.055a1.342,1.342,0,0,0-1.874-.213l-10.117,8.072a1.342,1.342,0,0,0,.852,2.385,1.426,1.426,0,0,0,.831-.3l10.1-8.051a1.342,1.342,0,0,0,.213-1.9Zm0,0" transform="translate(84.723 332.918)" fill="#fff"/>
      <path id="Path_193022" data-name="Path 193022" d="M367.609,369.452H343.328V345.108a1.768,1.768,0,0,0-1.768-1.768,27.88,27.88,0,1,0,27.88,27.88,1.768,1.768,0,0,0-1.768-1.768ZM341.5,395.565a24.345,24.345,0,0,1-1.768-48.625V371.22a1.768,1.768,0,0,0,1.768,1.768h24.281A24.387,24.387,0,0,1,341.5,395.565Zm0,0" transform="translate(256.64 327.025)" fill="#fff"/>
      <path id="Path_193023" data-name="Path 193023" d="M358.728,367.985a27.9,27.9,0,0,0-27.88-27.795,1.768,1.768,0,0,0-1.768,1.768V368.07a1.768,1.768,0,0,0,1.768,1.768H356.96a1.768,1.768,0,0,0,1.768-1.768Zm-26.112-1.661V343.811a24.409,24.409,0,0,1,22.513,22.513Zm0,0" transform="translate(274.04 323.466)" fill="#fff"/>
      <path id="Path_193024" data-name="Path 193024" d="M340.029,97.6a25.75,25.75,0,0,0-9.095,49.839v13.78a1.512,1.512,0,0,0,1.512,1.512h1.512v3.024a1.512,1.512,0,0,0,1.512,1.512h9.095a1.512,1.512,0,0,0,1.512-1.512v-3.024h1.512a1.512,1.512,0,0,0,1.512-1.512v-13.78A25.75,25.75,0,0,0,340.029,97.6Zm4.537,62.086a1.512,1.512,0,0,0-1.512,1.534v3.024h-6.07V161.22a1.512,1.512,0,0,0-1.512-1.534h-1.512v-7.561h12.119v7.561Zm2.556-14.76a1.512,1.512,0,0,0-1.044,1.427V149.1H333.959v-2.748a1.491,1.491,0,0,0-1.044-1.427,22.726,22.726,0,1,1,14.206,0Zm0,0" transform="translate(257.319 49.367)" fill="#fff"/>
      <path id="Path_193025" data-name="Path 193025" d="M327.184,100.993a1.491,1.491,0,0,0,1.491-1.512V93.432a1.491,1.491,0,0,0-1.491-1.512,1.512,1.512,0,0,0-1.534,1.512v6.049a1.512,1.512,0,0,0,1.534,1.512Zm0,0" transform="translate(270.165 42.949)" fill="#fff"/>
      <path id="Path_193026" data-name="Path 193026" d="M347.441,109h-6.049a1.512,1.512,0,0,0,0,3.024h6.049a1.512,1.512,0,0,0,0-3.024Zm0,0" transform="translate(286.243 62.248)" fill="#fff"/>
      <path id="Path_193027" data-name="Path 193027" d="M316.172,109H310.1a1.512,1.512,0,0,0,0,3.024h6.07a1.512,1.512,0,0,0,0-3.024Zm0,0" transform="translate(250.889 62.248)" fill="#fff"/>
      <path id="Path_193028" data-name="Path 193028" d="M340.422,97.306l-4.26,4.26a1.512,1.512,0,0,0,0,2.13,1.491,1.491,0,0,0,2.13,0l4.26-4.26a1.512,1.512,0,0,0-2.13-2.13Zm0,0" transform="translate(281.547 48.638)" fill="#fff"/>
      <path id="Path_193029" data-name="Path 193029" d="M318.307,119.436l-4.26,4.26a1.491,1.491,0,0,0,0,2.13,1.47,1.47,0,0,0,1.065.447,1.491,1.491,0,0,0,1.065-.447l4.26-4.26a1.512,1.512,0,0,0-2.13-2.13Zm0,0" transform="translate(256.549 73.643)" fill="#fff"/>
      <path id="Path_193030" data-name="Path 193030" d="M338.236,119.436a1.512,1.512,0,0,0-2.13,2.13l4.26,4.26a1.512,1.512,0,0,0,2.13-2.13Zm0,0" transform="translate(281.582 73.643)" fill="#fff"/>
      <path id="Path_193031" data-name="Path 193031" d="M318.3,103.767a1.47,1.47,0,0,0,1.065.447,1.491,1.491,0,0,0,1.065-.447,1.512,1.512,0,0,0,0-2.13l-4.26-4.26a1.491,1.491,0,0,0-2.13,0,1.512,1.512,0,0,0,0,2.13Zm0,0" transform="translate(256.554 48.61)" fill="#fff"/>
      <path id="Path_193032" data-name="Path 193032" d="M165.212,135.585a2.407,2.407,0,0,1-1.768-.745,3.749,3.749,0,0,1-.234-4.068l7.22-17.87a19.169,19.169,0,0,1,5.389-8.52c2.13-1.661,9.606,1.619,12.311,3.387l-1.214,1.9c-3.429-2.258-8.839-3.876-9.8-3.472a17.572,17.572,0,0,0-4.6,7.5l-7.22,17.87c-.511,1.257-.319,1.6-.256,1.661a.17.17,0,0,0,.192,0,2.96,2.96,0,0,0,1.683-1.129,27.69,27.69,0,0,0,3.6-5.729,5.3,5.3,0,0,1,1.619-2.236,4.835,4.835,0,0,1,2.62-.639,29.031,29.031,0,0,1,4.494.341l-.341,2.13a24.687,24.687,0,0,0-4.132-.3,2.7,2.7,0,0,0-1.384.234,3.2,3.2,0,0,0-.788,1.257,30.969,30.969,0,0,1-3.94,6.39,5.069,5.069,0,0,1-3.344,1.959Z" transform="translate(86.072 56.514)" fill="#fff"/>
      <path id="Path_193033" data-name="Path 193033" d="M180.38,152.783a1.129,1.129,0,0,1-.511-2.13,77.059,77.059,0,0,0,37.912-47.433,4.366,4.366,0,0,0-.7-3.876l-.107-.128a4.686,4.686,0,0,0-4.941-1.384c-19.638,6.049-37.081,25.047-41.448,45.2a1.15,1.15,0,0,1-1.342.852,1.086,1.086,0,0,1-.852-1.342c4.537-20.873,22.619-40.574,42.981-46.858a6.858,6.858,0,0,1,7.327,2.13l.128.17a6.56,6.56,0,0,1,1.108,5.878c-5.985,21.171-20.575,39.424-39.062,48.817A.979.979,0,0,1,180.38,152.783Z" transform="translate(92.437 46.835)" fill="#fff"/>
      <path id="Path_193034" data-name="Path 193034" d="M175.7,142.663a2.513,2.513,0,0,1-1.384-.4,2.386,2.386,0,0,1-1.086-1.7,4.984,4.984,0,0,1,1.235-3.642,28.347,28.347,0,0,1,5.282-5.069,3.472,3.472,0,0,0,1.129-1.108,2.876,2.876,0,0,0,0-1.406c-.128-.66-.3-1.3-.49-1.959l2.13-.618c.192.724.362,1.427.511,2.13a4.686,4.686,0,0,1,0,2.7,4.984,4.984,0,0,1-1.81,1.981,28.177,28.177,0,0,0-4.941,4.728,3.045,3.045,0,0,0-.788,1.9.256.256,0,0,0,.107.17s.469.17,1.6-.6l16.038-10.649a17.337,17.337,0,0,0,6.39-6.091,19.425,19.425,0,0,0-4.451-7.817l1.7-1.448c1.3,1.534,5.964,7.8,4.75,10.245a19.3,19.3,0,0,1-7.2,6.986L178.381,141.64a4.963,4.963,0,0,1-2.684,1.022Z" transform="translate(97.93 67.626)" fill="#fff"/>
      <path id="Path_193035" data-name="Path 193035" d="M188.2,108.955a4.26,4.26,0,1,1,2.748-7.71h0a4.26,4.26,0,0,1-2.748,7.71Zm0-7.284a2.9,2.9,0,0,0-2.279,1.086,2.939,2.939,0,1,0,4.132-.426h0a2.875,2.875,0,0,0-1.853-.7Z" transform="translate(110.345 52.58)" fill="#fff"/>
      <path id="Path_193036" data-name="Path 193036" d="M169.763,141.278a2.79,2.79,0,0,1-1.81-.66,2.854,2.854,0,0,1-.575-3.813l16.4-24.792a5.538,5.538,0,0,1,10.16,2.811,5.41,5.41,0,0,1-1.534,4.089L171.85,140.362A2.833,2.833,0,0,1,169.763,141.278Zm1.981-7.029-2.492,3.791a.66.66,0,0,0,.128.852.639.639,0,0,0,.873,0l20.553-21.469a3.3,3.3,0,1,0-5.133-4.111Z" transform="translate(90.786 62.833)" fill="#fff"/>
      <g transform="matrix(1, 0, 0, 1, 26.03, -1.59)" filter="url(#Ellipse_5481)">
        <ellipse id="Ellipse_5481-2" data-name="Ellipse 5481" cx="99.054" cy="99.054" rx="99.054" ry="99.054" transform="translate(20.62 171.69)" fill="#f2f6fe"/>
      </g>
      <path id="Ellipse_5482" data-name="Ellipse 5482" d="M83.209-1.5A85.328,85.328,0,0,1,100.279.221a84.252,84.252,0,0,1,30.292,12.747A84.952,84.952,0,0,1,161.26,50.236a84.3,84.3,0,0,1,4.936,15.9,85.52,85.52,0,0,1,0,34.14,84.252,84.252,0,0,1-12.747,30.292,84.952,84.952,0,0,1-37.268,30.689,84.3,84.3,0,0,1-15.9,4.936,85.52,85.52,0,0,1-34.14,0,84.252,84.252,0,0,1-30.292-12.747A84.952,84.952,0,0,1,5.157,116.181a84.3,84.3,0,0,1-4.936-15.9,85.52,85.52,0,0,1,0-34.14A84.252,84.252,0,0,1,12.968,35.846,84.952,84.952,0,0,1,50.236,5.157,84.3,84.3,0,0,1,66.138.221,85.328,85.328,0,0,1,83.209-1.5Zm0,166.417A81.709,81.709,0,1,0,1.5,83.209,81.8,81.8,0,0,0,83.209,164.917Z" transform="translate(28.147 268.275) rotate(-45)" fill="#34d9c7"/>
      <g transform="matrix(1, 0, 0, 1, 26.03, -1.59)" filter="url(#Ellipse_5483)">
        <ellipse id="Ellipse_5483-2" data-name="Ellipse 5483" cx="99.054" cy="99.054" rx="99.054" ry="99.054" transform="translate(609.62 171.69)" fill="#f2f6fe"/>
      </g>
      <path id="Ellipse_5484" data-name="Ellipse 5484" d="M83.209-1.5A85.328,85.328,0,0,1,100.279.221a84.252,84.252,0,0,1,30.292,12.747A84.952,84.952,0,0,1,161.26,50.236a84.294,84.294,0,0,1,4.936,15.9,85.52,85.52,0,0,1,0,34.14,84.252,84.252,0,0,1-12.747,30.292,84.951,84.951,0,0,1-37.268,30.689,84.293,84.293,0,0,1-15.9,4.936,85.52,85.52,0,0,1-34.14,0,84.253,84.253,0,0,1-30.292-12.747A84.952,84.952,0,0,1,5.157,116.181a84.294,84.294,0,0,1-4.936-15.9,85.52,85.52,0,0,1,0-34.14A84.253,84.253,0,0,1,12.968,35.846,84.952,84.952,0,0,1,50.236,5.157,84.294,84.294,0,0,1,66.138.221,85.328,85.328,0,0,1,83.209-1.5Zm0,166.417A81.709,81.709,0,1,0,1.5,83.209,81.8,81.8,0,0,0,83.209,164.917Z" transform="translate(634.147 330.399) rotate(-76.47)" fill="#34d9c7"/>
      <g transform="matrix(1, 0, 0, 1, 26.03, -1.59)" filter="url(#Ellipse_5485)">
        <ellipse id="Ellipse_5485-2" data-name="Ellipse 5485" cx="99.054" cy="99.054" rx="99.054" ry="99.054" transform="translate(20.62 479.69)" fill="#f2f6fe"/>
      </g>
      <path id="Ellipse_5486" data-name="Ellipse 5486" d="M83.209-1.5A85.328,85.328,0,0,1,100.279.221a84.252,84.252,0,0,1,30.292,12.747A84.952,84.952,0,0,1,161.26,50.236a84.294,84.294,0,0,1,4.936,15.9,85.52,85.52,0,0,1,0,34.14,84.252,84.252,0,0,1-12.747,30.292,84.951,84.951,0,0,1-37.268,30.689,84.293,84.293,0,0,1-15.9,4.936,85.52,85.52,0,0,1-34.14,0,84.253,84.253,0,0,1-30.292-12.747A84.952,84.952,0,0,1,5.157,116.181a84.294,84.294,0,0,1-4.936-15.9,85.52,85.52,0,0,1,0-34.14A84.253,84.253,0,0,1,12.968,35.846,84.952,84.952,0,0,1,50.236,5.157,84.294,84.294,0,0,1,66.138.221,85.328,85.328,0,0,1,83.209-1.5Zm0,166.417A81.709,81.709,0,1,0,1.5,83.209,81.8,81.8,0,0,0,83.209,164.917Z" transform="translate(45.147 639.399) rotate(-76.47)" fill="#34d9c7"/>
      <g transform="matrix(1, 0, 0, 1, 26.03, -1.59)" filter="url(#Ellipse_5487)">
        <ellipse id="Ellipse_5487-2" data-name="Ellipse 5487" cx="99.054" cy="99.054" rx="99.054" ry="99.054" transform="translate(609.62 479.69)" fill="#f2f6fe"/>
      </g>
      <path id="Ellipse_5488" data-name="Ellipse 5488" d="M83.209-1.5A85.328,85.328,0,0,1,100.279.221a84.252,84.252,0,0,1,30.292,12.747A84.952,84.952,0,0,1,161.26,50.236a84.3,84.3,0,0,1,4.936,15.9,85.52,85.52,0,0,1,0,34.14,84.252,84.252,0,0,1-12.747,30.292,84.952,84.952,0,0,1-37.268,30.689,84.3,84.3,0,0,1-15.9,4.936,85.52,85.52,0,0,1-34.14,0,84.252,84.252,0,0,1-30.292-12.747A84.952,84.952,0,0,1,5.157,116.181a84.3,84.3,0,0,1-4.936-15.9,85.52,85.52,0,0,1,0-34.14A84.252,84.252,0,0,1,12.968,35.846,84.952,84.952,0,0,1,50.236,5.157,84.3,84.3,0,0,1,66.138.221,85.328,85.328,0,0,1,83.209-1.5Zm0,166.417A81.709,81.709,0,1,0,1.5,83.209,81.8,81.8,0,0,0,83.209,164.917Z" transform="translate(617.147 577.275) rotate(-45)" fill="#34d9c7"/>
      <path id="Path_247174" data-name="Path 247174" d="M13.177,11.568H8.326v3.059h5.73V17H5.241V4.2h8.833V6.585H8.326v2.7h4.852Zm6.979,2.76a.684.684,0,0,0-.4-.606,6.016,6.016,0,0,0-1.5-.475,6.853,6.853,0,0,1-1.828-.646,3.062,3.062,0,0,1-1.1-.971,2.319,2.319,0,0,1-.378-1.31,2.628,2.628,0,0,1,1.081-2.158,4.453,4.453,0,0,1,2.83-.848,4.934,4.934,0,0,1,3.023.853,2.666,2.666,0,0,1,1.143,2.241H20.059q0-1.143-1.2-1.143a1.194,1.194,0,0,0-.782.259.8.8,0,0,0-.316.646.737.737,0,0,0,.387.642,3.654,3.654,0,0,0,1.235.4,10.671,10.671,0,0,1,1.49.378,2.706,2.706,0,0,1,2.145,2.646,2.491,2.491,0,0,1-1.156,2.118,5.068,5.068,0,0,1-2.993.817,5.172,5.172,0,0,1-2.18-.439,3.645,3.645,0,0,1-1.494-1.2,2.707,2.707,0,0,1-.536-1.591h2.769a1.145,1.145,0,0,0,.439.962,1.808,1.808,0,0,0,1.081.3,1.422,1.422,0,0,0,.91-.246A.787.787,0,0,0,20.156,14.328Zm13.069-2.013a5.735,5.735,0,0,1-1,3.538,3.2,3.2,0,0,1-2.694,1.323,2.742,2.742,0,0,1-2.153-.958v4.438H24.418V7.49h2.769l.088.879a2.742,2.742,0,0,1,2.241-1.055,3.224,3.224,0,0,1,2.733,1.3,5.805,5.805,0,0,1,.976,3.564Zm-2.962-.185q0-2.531-1.477-2.531a1.394,1.394,0,0,0-1.406.756V14.1a1.439,1.439,0,0,0,1.424.791q1.415,0,1.459-2.443Zm8.868,5.045a4.889,4.889,0,0,1-3.542-1.305,4.507,4.507,0,0,1-1.354-3.4v-.246a5.84,5.84,0,0,1,.541-2.575,3.955,3.955,0,0,1,1.578-1.727,4.763,4.763,0,0,1,2.461-.611,4.117,4.117,0,0,1,3.164,1.244,4.887,4.887,0,0,1,1.16,3.467v1.151H37.25a2.135,2.135,0,0,0,.694,1.257,2.066,2.066,0,0,0,1.389.457,2.662,2.662,0,0,0,2.2-.984l1.354,1.6a3.784,3.784,0,0,1-1.569,1.217A5.3,5.3,0,0,1,39.131,17.176ZM38.8,9.6q-1.3,0-1.547,1.723h2.988v-.229a1.467,1.467,0,0,0-.36-1.1A1.434,1.434,0,0,0,38.8,9.6Zm9.554,5.291a1.317,1.317,0,0,0,.967-.338,1.241,1.241,0,0,0,.334-.945h2.777a3.288,3.288,0,0,1-1.121,2.566,4.168,4.168,0,0,1-2.887,1,4.22,4.22,0,0,1-3.27-1.3,5.125,5.125,0,0,1-1.2-3.6v-.123A5.792,5.792,0,0,1,44.488,9.6a3.872,3.872,0,0,1,1.534-1.7A4.573,4.573,0,0,1,48.4,7.314a4.116,4.116,0,0,1,2.944,1.028,3.647,3.647,0,0,1,1.09,2.786H49.652A1.626,1.626,0,0,0,49.292,10a1.244,1.244,0,0,0-.967-.4q-1.151,0-1.345,1.468a10.357,10.357,0,0,0-.062,1.283,4.068,4.068,0,0,0,.343,1.986A1.187,1.187,0,0,0,48.351,14.891ZM56.806,17H53.835V7.49h2.971ZM53.66,5.029a1.334,1.334,0,0,1,.457-1.043,1.934,1.934,0,0,1,2.373,0,1.334,1.334,0,0,1,.457,1.043,1.334,1.334,0,0,1-.457,1.043,1.934,1.934,0,0,1-2.373,0A1.334,1.334,0,0,1,53.66,5.029ZM59.32,17V9.547H57.94V7.49h1.38V7.174a3.631,3.631,0,0,1,1.248-2.909,4.987,4.987,0,0,1,3.243-.949,11.509,11.509,0,0,1,3.094.51l-.4,2.338-.492-.132a7.832,7.832,0,0,0-2.021-.255q-1.7,0-1.7,1.547V7.49h1.863V9.547H62.291V17Zm8.947,0H65.288V7.49h2.979Zm5.827-2.109a1.317,1.317,0,0,0,.967-.338,1.241,1.241,0,0,0,.334-.945h2.777a3.288,3.288,0,0,1-1.121,2.566,4.168,4.168,0,0,1-2.887,1,4.22,4.22,0,0,1-3.27-1.3,5.125,5.125,0,0,1-1.2-3.6v-.123A5.792,5.792,0,0,1,70.231,9.6a3.872,3.872,0,0,1,1.534-1.7,4.573,4.573,0,0,1,2.373-.593,4.116,4.116,0,0,1,2.944,1.028,3.647,3.647,0,0,1,1.09,2.786H75.4A1.626,1.626,0,0,0,75.035,10a1.244,1.244,0,0,0-.967-.4q-1.151,0-1.345,1.468a10.357,10.357,0,0,0-.062,1.283A4.068,4.068,0,0,0,73,14.337,1.187,1.187,0,0,0,74.094,14.891ZM84.782,17a3.344,3.344,0,0,1-.281-.853,2.754,2.754,0,0,1-2.285,1.028,3.374,3.374,0,0,1-2.285-.813,2.588,2.588,0,0,1-.94-2.043,2.66,2.66,0,0,1,1.143-2.338,5.821,5.821,0,0,1,3.322-.791h.914v-.5q0-1.316-1.134-1.316a.927.927,0,0,0-1.055,1.042H79.218a2.655,2.655,0,0,1,1.173-2.239,4.931,4.931,0,0,1,2.993-.86,4.323,4.323,0,0,1,2.874.888,3.086,3.086,0,0,1,1.081,2.435v4.21a4.311,4.311,0,0,0,.4,2V17Zm-1.854-1.934a1.652,1.652,0,0,0,.918-.237,1.487,1.487,0,0,0,.523-.536V12.772h-.861q-1.547,0-1.547,1.389a.848.848,0,0,0,.272.655A.986.986,0,0,0,82.927,15.066ZM93,14.891a1.317,1.317,0,0,0,.967-.338,1.241,1.241,0,0,0,.334-.945h2.777a3.288,3.288,0,0,1-1.121,2.566,4.168,4.168,0,0,1-2.887,1,4.22,4.22,0,0,1-3.27-1.3,5.125,5.125,0,0,1-1.2-3.6v-.123A5.792,5.792,0,0,1,89.137,9.6a3.872,3.872,0,0,1,1.534-1.7,4.573,4.573,0,0,1,2.373-.593,4.116,4.116,0,0,1,2.944,1.028,3.647,3.647,0,0,1,1.09,2.786H94.3A1.626,1.626,0,0,0,93.94,10a1.244,1.244,0,0,0-.967-.4q-1.151,0-1.345,1.468a10.357,10.357,0,0,0-.062,1.283,4.068,4.068,0,0,0,.343,1.986A1.187,1.187,0,0,0,93,14.891ZM101.455,17H98.484V7.49h2.971ZM98.308,5.029a1.334,1.334,0,0,1,.457-1.043,1.934,1.934,0,0,1,2.373,0,1.334,1.334,0,0,1,.457,1.043,1.334,1.334,0,0,1-.457,1.043,1.934,1.934,0,0,1-2.373,0A1.334,1.334,0,0,1,98.308,5.029Zm4.6,7.128a5.613,5.613,0,0,1,.554-2.536,3.96,3.96,0,0,1,1.591-1.709,4.791,4.791,0,0,1,2.435-.6,4.373,4.373,0,0,1,3.366,1.323,5.076,5.076,0,0,1,1.23,3.6v.105a4.925,4.925,0,0,1-1.235,3.529,4.384,4.384,0,0,1-3.344,1.305,4.434,4.434,0,0,1-3.261-1.217,4.761,4.761,0,0,1-1.327-3.3Zm2.962.185a3.538,3.538,0,0,0,.413,1.934,1.376,1.376,0,0,0,1.222.615q1.582,0,1.617-2.435v-.3q0-2.558-1.635-2.558-1.485,0-1.608,2.206ZM116.106,7.49l.1,1.116a3.225,3.225,0,0,1,2.716-1.292,2.713,2.713,0,0,1,2.219.888,4.226,4.226,0,0,1,.76,2.672V17h-2.971V11a1.6,1.6,0,0,0-.29-1.059,1.342,1.342,0,0,0-1.055-.338,1.413,1.413,0,0,0-1.292.686V17h-2.962V7.49Zm12.032,9.686a4.889,4.889,0,0,1-3.542-1.305,4.507,4.507,0,0,1-1.354-3.4v-.246a5.84,5.84,0,0,1,.541-2.575,3.955,3.955,0,0,1,1.578-1.727,4.763,4.763,0,0,1,2.461-.611,4.117,4.117,0,0,1,3.164,1.244,4.887,4.887,0,0,1,1.16,3.467v1.151h-5.889a2.135,2.135,0,0,0,.694,1.257,2.066,2.066,0,0,0,1.389.457,2.662,2.662,0,0,0,2.2-.984l1.354,1.6a3.784,3.784,0,0,1-1.569,1.217A5.3,5.3,0,0,1,128.138,17.176ZM127.8,9.6q-1.3,0-1.547,1.723h2.988v-.229a1.467,1.467,0,0,0-.36-1.1A1.434,1.434,0,0,0,127.8,9.6Zm10.512,4.729a.684.684,0,0,0-.4-.606,6.016,6.016,0,0,0-1.5-.475,6.853,6.853,0,0,1-1.828-.646,3.062,3.062,0,0,1-1.1-.971,2.319,2.319,0,0,1-.378-1.31,2.628,2.628,0,0,1,1.081-2.158,4.453,4.453,0,0,1,2.83-.848,4.934,4.934,0,0,1,3.023.853,2.666,2.666,0,0,1,1.143,2.241h-2.971q0-1.143-1.2-1.143a1.194,1.194,0,0,0-.782.259.8.8,0,0,0-.316.646.737.737,0,0,0,.387.642,3.654,3.654,0,0,0,1.235.4,10.671,10.671,0,0,1,1.49.378,2.706,2.706,0,0,1,2.145,2.646,2.491,2.491,0,0,1-1.156,2.118,5.068,5.068,0,0,1-2.993.817,5.172,5.172,0,0,1-2.18-.439,3.645,3.645,0,0,1-1.494-1.2,2.707,2.707,0,0,1-.536-1.591h2.769a1.145,1.145,0,0,0,.439.962,1.808,1.808,0,0,0,1.081.3,1.422,1.422,0,0,0,.91-.246A.787.787,0,0,0,138.316,14.328ZM9.235,37.175a5.809,5.809,0,0,1,.976-3.56,3.211,3.211,0,0,1,2.725-1.3,2.731,2.731,0,0,1,2.145,1V28.5h2.971V42H15.388l-.149-1.02a2.8,2.8,0,0,1-2.32,1.2,3.205,3.205,0,0,1-2.689-1.3A5.993,5.993,0,0,1,9.235,37.175Zm2.962.185q0,2.531,1.477,2.531a1.458,1.458,0,0,0,1.406-.826V35.443a1.419,1.419,0,0,0-1.389-.844q-1.371,0-1.485,2.215Zm12.138,4.816a4.889,4.889,0,0,1-3.542-1.305,4.507,4.507,0,0,1-1.354-3.4v-.246a5.84,5.84,0,0,1,.541-2.575,3.955,3.955,0,0,1,1.578-1.727,4.763,4.763,0,0,1,2.461-.611,4.117,4.117,0,0,1,3.164,1.244,4.887,4.887,0,0,1,1.16,3.467v1.151H22.454a2.135,2.135,0,0,0,.694,1.257,2.066,2.066,0,0,0,1.389.457,2.662,2.662,0,0,0,2.2-.984l1.354,1.6a3.784,3.784,0,0,1-1.569,1.217A5.3,5.3,0,0,1,24.335,42.176ZM24,34.6q-1.3,0-1.547,1.723h2.988v-.229a1.467,1.467,0,0,0-.36-1.1A1.434,1.434,0,0,0,24,34.6ZM37.141,42H34.17V28.5h2.971Zm7.181,0a3.344,3.344,0,0,1-.281-.853,2.754,2.754,0,0,1-2.285,1.028,3.374,3.374,0,0,1-2.285-.813,2.588,2.588,0,0,1-.94-2.043,2.66,2.66,0,0,1,1.143-2.338,5.821,5.821,0,0,1,3.322-.791h.914v-.5q0-1.316-1.134-1.316a.927.927,0,0,0-1.055,1.042H38.758a2.655,2.655,0,0,1,1.173-2.239,4.931,4.931,0,0,1,2.993-.86A4.323,4.323,0,0,1,45.8,33.2a3.086,3.086,0,0,1,1.081,2.435v4.21a4.311,4.311,0,0,0,.4,2V42Zm-1.854-1.934a1.652,1.652,0,0,0,.918-.237,1.487,1.487,0,0,0,.523-.536V37.772h-.861q-1.547,0-1.547,1.389a.848.848,0,0,0,.272.655A.986.986,0,0,0,42.467,40.066ZM55.8,32.49l.1,1.116a3.27,3.27,0,0,1,2.716-1.292,2.407,2.407,0,0,1,2.435,1.433,3.165,3.165,0,0,1,2.795-1.433q2.892,0,2.971,3.5V42H63.842V36a1.813,1.813,0,0,0-.246-1.063,1.048,1.048,0,0,0-.9-.334,1.4,1.4,0,0,0-1.31.782l.009.123V42H58.428V36.015a1.906,1.906,0,0,0-.237-1.081,1.045,1.045,0,0,0-.905-.334,1.42,1.42,0,0,0-1.3.782V42H53.022V32.49Zm17.306,9.686a4.889,4.889,0,0,1-3.542-1.305,4.507,4.507,0,0,1-1.354-3.4v-.246a5.84,5.84,0,0,1,.541-2.575,3.955,3.955,0,0,1,1.578-1.727,4.763,4.763,0,0,1,2.461-.611,4.117,4.117,0,0,1,3.164,1.244,4.887,4.887,0,0,1,1.16,3.467v1.151H71.225a2.135,2.135,0,0,0,.694,1.257,2.066,2.066,0,0,0,1.389.457,2.662,2.662,0,0,0,2.2-.984l1.354,1.6a3.784,3.784,0,0,1-1.569,1.217A5.3,5.3,0,0,1,73.105,42.176ZM72.771,34.6q-1.3,0-1.547,1.723h2.988v-.229a1.467,1.467,0,0,0-.36-1.1A1.434,1.434,0,0,0,72.771,34.6Zm11.285.571-.976-.07a1.752,1.752,0,0,0-1.793.879V42H78.326V32.49H81.1l.1,1.222a2.294,2.294,0,0,1,2.083-1.4,2.888,2.888,0,0,1,.826.105Zm4.922,4.72a1.317,1.317,0,0,0,.967-.338,1.241,1.241,0,0,0,.334-.945h2.777a3.288,3.288,0,0,1-1.121,2.566,4.168,4.168,0,0,1-2.887,1,4.22,4.22,0,0,1-3.27-1.3,5.125,5.125,0,0,1-1.2-3.6v-.123a5.792,5.792,0,0,1,.532-2.544,3.872,3.872,0,0,1,1.534-1.7,4.573,4.573,0,0,1,2.373-.593,4.116,4.116,0,0,1,2.944,1.028,3.647,3.647,0,0,1,1.09,2.786H90.279A1.626,1.626,0,0,0,89.919,35a1.244,1.244,0,0,0-.967-.4q-1.151,0-1.345,1.468a10.357,10.357,0,0,0-.062,1.283,4.068,4.068,0,0,0,.343,1.986A1.187,1.187,0,0,0,88.979,39.891ZM99.666,42a3.344,3.344,0,0,1-.281-.853A2.754,2.754,0,0,1,97.1,42.176a3.374,3.374,0,0,1-2.285-.813,2.588,2.588,0,0,1-.94-2.043,2.66,2.66,0,0,1,1.143-2.338,5.821,5.821,0,0,1,3.322-.791h.914v-.5q0-1.316-1.134-1.316a.927.927,0,0,0-1.055,1.042H94.1a2.655,2.655,0,0,1,1.173-2.239,4.931,4.931,0,0,1,2.993-.86,4.323,4.323,0,0,1,2.874.888,3.086,3.086,0,0,1,1.081,2.435v4.21a4.311,4.311,0,0,0,.4,2V42Zm-1.854-1.934a1.652,1.652,0,0,0,.918-.237,1.487,1.487,0,0,0,.523-.536V37.772h-.861q-1.547,0-1.547,1.389a.848.848,0,0,0,.272.655A.986.986,0,0,0,97.812,40.066Zm8.771-7.576.1,1.116a3.225,3.225,0,0,1,2.716-1.292,2.713,2.713,0,0,1,2.219.888,4.226,4.226,0,0,1,.76,2.672V42H109.4V36a1.6,1.6,0,0,0-.29-1.059,1.342,1.342,0,0,0-1.055-.338,1.413,1.413,0,0,0-1.292.686V42h-2.962V32.49Zm11.452,7.4a1.317,1.317,0,0,0,.967-.338,1.241,1.241,0,0,0,.334-.945h2.777a3.288,3.288,0,0,1-1.121,2.566,4.168,4.168,0,0,1-2.887,1,4.22,4.22,0,0,1-3.27-1.3,5.125,5.125,0,0,1-1.2-3.6v-.123a5.792,5.792,0,0,1,.532-2.544,3.872,3.872,0,0,1,1.534-1.7,4.573,4.573,0,0,1,2.373-.593,4.116,4.116,0,0,1,2.944,1.028,3.647,3.647,0,0,1,1.09,2.786h-2.777a1.626,1.626,0,0,0-.36-1.134,1.244,1.244,0,0,0-.967-.4q-1.151,0-1.345,1.468a10.357,10.357,0,0,0-.062,1.283,4.068,4.068,0,0,0,.343,1.986A1.187,1.187,0,0,0,118.035,39.891ZM126.6,42h-2.979V32.49H126.6Zm-1.107-13.324h3.129l-2.443,2.76-2.417,0ZM133.855,42a3.344,3.344,0,0,1-.281-.853,2.754,2.754,0,0,1-2.285,1.028A3.374,3.374,0,0,1,129,41.363a2.588,2.588,0,0,1-.94-2.043,2.66,2.66,0,0,1,1.143-2.338,5.821,5.821,0,0,1,3.322-.791h.914v-.5q0-1.316-1.134-1.316a.927.927,0,0,0-1.055,1.042h-2.962a2.655,2.655,0,0,1,1.173-2.239,4.931,4.931,0,0,1,2.993-.86,4.323,4.323,0,0,1,2.874.888,3.086,3.086,0,0,1,1.081,2.435v4.21a4.311,4.311,0,0,0,.4,2V42ZM132,40.066a1.652,1.652,0,0,0,.918-.237,1.487,1.487,0,0,0,.523-.536V37.772h-.861q-1.547,0-1.547,1.389a.848.848,0,0,0,.272.655A.986.986,0,0,0,132,40.066Z" transform="translate(364.98 75.964)" fill="#12263f"/>
      <path id="Path_247177" data-name="Path 247177" d="M14.593,17H11.525V11.656H6.981V17H3.9V4.2H6.981v5.08h4.544V4.2h3.067Zm6.416.176a4.889,4.889,0,0,1-3.542-1.305,4.507,4.507,0,0,1-1.354-3.4v-.246a5.84,5.84,0,0,1,.541-2.575,3.955,3.955,0,0,1,1.578-1.727,4.763,4.763,0,0,1,2.461-.611,4.117,4.117,0,0,1,3.164,1.244,4.887,4.887,0,0,1,1.16,3.467v1.151H19.128a2.135,2.135,0,0,0,.694,1.257,2.066,2.066,0,0,0,1.389.457,2.662,2.662,0,0,0,2.2-.984l1.354,1.6a3.784,3.784,0,0,1-1.569,1.217A5.3,5.3,0,0,1,21.009,17.176ZM20.675,9.6q-1.3,0-1.547,1.723h2.988v-.229a1.467,1.467,0,0,0-.36-1.1A1.434,1.434,0,0,0,20.675,9.6Zm11.285.571-.976-.07a1.752,1.752,0,0,0-1.793.879V17H26.229V7.49h2.777l.1,1.222a2.294,2.294,0,0,1,2.083-1.4,2.888,2.888,0,0,1,.826.105Zm6.82,0L37.8,10.1a1.752,1.752,0,0,0-1.793.879V17H33.05V7.49h2.777l.1,1.222a2.294,2.294,0,0,1,2.083-1.4,2.888,2.888,0,0,1,.826.105ZM44.941,17a3.344,3.344,0,0,1-.281-.853,2.754,2.754,0,0,1-2.285,1.028,3.374,3.374,0,0,1-2.285-.813,2.588,2.588,0,0,1-.94-2.043,2.66,2.66,0,0,1,1.143-2.338,5.821,5.821,0,0,1,3.322-.791h.914v-.5q0-1.316-1.134-1.316a.927.927,0,0,0-1.055,1.042H39.378a2.655,2.655,0,0,1,1.173-2.239,4.931,4.931,0,0,1,2.993-.86,4.323,4.323,0,0,1,2.874.888A3.086,3.086,0,0,1,47.5,10.637v4.21a4.311,4.311,0,0,0,.4,2V17Zm-1.854-1.934a1.652,1.652,0,0,0,.918-.237,1.487,1.487,0,0,0,.523-.536V12.772h-.861q-1.547,0-1.547,1.389a.848.848,0,0,0,.272.655A.986.986,0,0,0,43.087,15.066ZM51.938,7.49l.1,1.116A3.27,3.27,0,0,1,54.75,7.314a2.407,2.407,0,0,1,2.435,1.433,3.165,3.165,0,0,1,2.795-1.433q2.892,0,2.971,3.5V17H59.979V11a1.813,1.813,0,0,0-.246-1.063,1.048,1.048,0,0,0-.9-.334,1.4,1.4,0,0,0-1.31.782l.009.123V17H54.565V11.015a1.906,1.906,0,0,0-.237-1.081,1.045,1.045,0,0,0-.905-.334,1.42,1.42,0,0,0-1.3.782V17H49.16V7.49ZM67.767,17H64.8V7.49h2.971ZM64.62,5.029a1.334,1.334,0,0,1,.457-1.043,1.934,1.934,0,0,1,2.373,0,1.334,1.334,0,0,1,.457,1.043,1.334,1.334,0,0,1-.457,1.043,1.934,1.934,0,0,1-2.373,0A1.334,1.334,0,0,1,64.62,5.029Zm9.571,12.146a4.889,4.889,0,0,1-3.542-1.305,4.507,4.507,0,0,1-1.354-3.4v-.246a5.84,5.84,0,0,1,.541-2.575,3.955,3.955,0,0,1,1.578-1.727,4.763,4.763,0,0,1,2.461-.611,4.117,4.117,0,0,1,3.164,1.244,4.887,4.887,0,0,1,1.16,3.467v1.151H72.311A2.135,2.135,0,0,0,73,14.434a2.066,2.066,0,0,0,1.389.457,2.662,2.662,0,0,0,2.2-.984l1.354,1.6a3.784,3.784,0,0,1-1.569,1.217A5.3,5.3,0,0,1,74.191,17.176ZM73.857,9.6q-1.3,0-1.547,1.723H75.3v-.229a1.467,1.467,0,0,0-.36-1.1A1.434,1.434,0,0,0,73.857,9.6ZM82.11,7.49l.1,1.116a3.225,3.225,0,0,1,2.716-1.292,2.713,2.713,0,0,1,2.219.888,4.226,4.226,0,0,1,.76,2.672V17H84.932V11a1.6,1.6,0,0,0-.29-1.059A1.342,1.342,0,0,0,83.587,9.6a1.413,1.413,0,0,0-1.292.686V17H79.333V7.49ZM92.991,5.126V7.49h1.564V9.547H92.991V13.9a1.111,1.111,0,0,0,.193.747,1.037,1.037,0,0,0,.765.211,4.345,4.345,0,0,0,.738-.053v2.118a5.466,5.466,0,0,1-1.67.255,3.1,3.1,0,0,1-2.259-.721,2.954,2.954,0,0,1-.729-2.188V9.547H88.816V7.49h1.213V5.126ZM101.077,17a3.344,3.344,0,0,1-.281-.853,2.754,2.754,0,0,1-2.285,1.028,3.374,3.374,0,0,1-2.285-.813,2.588,2.588,0,0,1-.94-2.043,2.66,2.66,0,0,1,1.143-2.338,5.821,5.821,0,0,1,3.322-.791h.914v-.5q0-1.316-1.134-1.316a.927.927,0,0,0-1.055,1.042H95.514a2.655,2.655,0,0,1,1.173-2.239,4.931,4.931,0,0,1,2.993-.86,4.323,4.323,0,0,1,2.874.888,3.086,3.086,0,0,1,1.081,2.435v4.21a4.311,4.311,0,0,0,.4,2V17Zm-1.854-1.934a1.652,1.652,0,0,0,.918-.237,1.487,1.487,0,0,0,.523-.536V12.772H99.8q-1.547,0-1.547,1.389a.848.848,0,0,0,.272.655A.986.986,0,0,0,99.223,15.066Zm11.03-.738a.684.684,0,0,0-.4-.606,6.016,6.016,0,0,0-1.5-.475,6.853,6.853,0,0,1-1.828-.646,3.062,3.062,0,0,1-1.1-.971,2.319,2.319,0,0,1-.378-1.31,2.628,2.628,0,0,1,1.081-2.158,4.453,4.453,0,0,1,2.83-.848,4.934,4.934,0,0,1,3.023.853,2.666,2.666,0,0,1,1.143,2.241h-2.971q0-1.143-1.2-1.143a1.194,1.194,0,0,0-.782.259.8.8,0,0,0-.316.646.737.737,0,0,0,.387.642,3.654,3.654,0,0,0,1.235.4,10.671,10.671,0,0,1,1.49.378,2.706,2.706,0,0,1,2.145,2.646,2.491,2.491,0,0,1-1.156,2.118,5.068,5.068,0,0,1-2.993.817,5.172,5.172,0,0,1-2.18-.439,3.645,3.645,0,0,1-1.494-1.2,2.707,2.707,0,0,1-.536-1.591h2.769a1.145,1.145,0,0,0,.439.962,1.808,1.808,0,0,0,1.081.3,1.422,1.422,0,0,0,.91-.246A.787.787,0,0,0,110.253,14.328Zm8.35-2.153a5.809,5.809,0,0,1,.976-3.56,3.211,3.211,0,0,1,2.725-1.3,2.731,2.731,0,0,1,2.145,1V3.5h2.971V17h-2.663l-.149-1.02a2.8,2.8,0,0,1-2.32,1.2,3.205,3.205,0,0,1-2.689-1.3A5.993,5.993,0,0,1,118.6,12.175Zm2.962.185q0,2.531,1.477,2.531a1.458,1.458,0,0,0,1.406-.826V10.443a1.419,1.419,0,0,0-1.389-.844q-1.371,0-1.485,2.215ZM133.7,17.176a4.889,4.889,0,0,1-3.542-1.305,4.507,4.507,0,0,1-1.354-3.4v-.246a5.84,5.84,0,0,1,.541-2.575,3.955,3.955,0,0,1,1.578-1.727,4.763,4.763,0,0,1,2.461-.611,4.117,4.117,0,0,1,3.164,1.244,4.887,4.887,0,0,1,1.16,3.467v1.151h-5.889a2.135,2.135,0,0,0,.694,1.257,2.066,2.066,0,0,0,1.389.457,2.662,2.662,0,0,0,2.2-.984l1.354,1.6a3.784,3.784,0,0,1-1.569,1.217A5.3,5.3,0,0,1,133.7,17.176ZM133.368,9.6q-1.3,0-1.547,1.723h2.988v-.229a1.467,1.467,0,0,0-.36-1.1A1.434,1.434,0,0,0,133.368,9.6ZM18.513,39.891a1.317,1.317,0,0,0,.967-.338,1.241,1.241,0,0,0,.334-.945h2.777a3.288,3.288,0,0,1-1.121,2.566,4.168,4.168,0,0,1-2.887,1,4.22,4.22,0,0,1-3.27-1.3,5.125,5.125,0,0,1-1.2-3.6v-.123A5.792,5.792,0,0,1,14.65,34.6a3.872,3.872,0,0,1,1.534-1.7,4.573,4.573,0,0,1,2.373-.593A4.116,4.116,0,0,1,21.5,33.343a3.647,3.647,0,0,1,1.09,2.786H19.813A1.626,1.626,0,0,0,19.453,35a1.244,1.244,0,0,0-.967-.4q-1.151,0-1.345,1.468a10.357,10.357,0,0,0-.062,1.283,4.068,4.068,0,0,0,.343,1.986A1.187,1.187,0,0,0,18.513,39.891Zm4.957-2.733a5.613,5.613,0,0,1,.554-2.536,3.96,3.96,0,0,1,1.591-1.709,4.791,4.791,0,0,1,2.435-.6,4.373,4.373,0,0,1,3.366,1.323,5.076,5.076,0,0,1,1.23,3.6v.105a4.925,4.925,0,0,1-1.235,3.529,4.384,4.384,0,0,1-3.344,1.305,4.434,4.434,0,0,1-3.261-1.217,4.761,4.761,0,0,1-1.327-3.3Zm2.962.185a3.538,3.538,0,0,0,.413,1.934,1.376,1.376,0,0,0,1.222.615q1.582,0,1.617-2.435v-.3q0-2.558-1.635-2.558-1.485,0-1.608,2.206ZM36.75,32.49l.1,1.116a3.27,3.27,0,0,1,2.716-1.292A2.407,2.407,0,0,1,42,33.747a3.165,3.165,0,0,1,2.795-1.433q2.892,0,2.971,3.5V42H44.792V36a1.813,1.813,0,0,0-.246-1.063,1.048,1.048,0,0,0-.9-.334,1.4,1.4,0,0,0-1.31.782l.009.123V42H39.378V36.015a1.906,1.906,0,0,0-.237-1.081,1.045,1.045,0,0,0-.905-.334,1.42,1.42,0,0,0-1.3.782V42H33.973V32.49Zm18.369,8.481a3.054,3.054,0,0,1-2.54,1.2,3,3,0,0,1-2.369-.91,3.826,3.826,0,0,1-.8-2.615V32.49h2.962v6.179a1.065,1.065,0,0,0,1.187,1.222A1.548,1.548,0,0,0,55,39.161V32.49h2.979V42H55.207Zm7.207-8.481.1,1.116a3.225,3.225,0,0,1,2.716-1.292,2.713,2.713,0,0,1,2.219.888,4.226,4.226,0,0,1,.76,2.672V42H65.147V36a1.6,1.6,0,0,0-.29-1.059A1.342,1.342,0,0,0,63.8,34.6a1.413,1.413,0,0,0-1.292.686V42H59.549V32.49ZM72.882,42H69.911V32.49h2.971ZM69.735,30.029a1.334,1.334,0,0,1,.457-1.043,1.934,1.934,0,0,1,2.373,0,1.42,1.42,0,0,1,0,2.087,1.934,1.934,0,0,1-2.373,0A1.334,1.334,0,0,1,69.735,30.029Zm8.991,9.861a1.317,1.317,0,0,0,.967-.338,1.241,1.241,0,0,0,.334-.945H82.8a3.288,3.288,0,0,1-1.121,2.566,4.168,4.168,0,0,1-2.887,1,4.22,4.22,0,0,1-3.27-1.3,5.125,5.125,0,0,1-1.2-3.6v-.123a5.792,5.792,0,0,1,.532-2.544,3.872,3.872,0,0,1,1.534-1.7,4.573,4.573,0,0,1,2.373-.593,4.116,4.116,0,0,1,2.944,1.028,3.647,3.647,0,0,1,1.09,2.786H80.027A1.626,1.626,0,0,0,79.667,35a1.244,1.244,0,0,0-.967-.4q-1.151,0-1.345,1.468a10.357,10.357,0,0,0-.062,1.283,4.068,4.068,0,0,0,.343,1.986A1.187,1.187,0,0,0,78.727,39.891ZM89.414,42a3.344,3.344,0,0,1-.281-.853,2.754,2.754,0,0,1-2.285,1.028,3.374,3.374,0,0,1-2.285-.813,2.588,2.588,0,0,1-.94-2.043,2.66,2.66,0,0,1,1.143-2.338,5.821,5.821,0,0,1,3.322-.791H89v-.5q0-1.316-1.134-1.316a.927.927,0,0,0-1.055,1.042H83.851a2.655,2.655,0,0,1,1.173-2.239,4.931,4.931,0,0,1,2.993-.86,4.323,4.323,0,0,1,2.874.888,3.086,3.086,0,0,1,1.081,2.435v4.21a4.311,4.311,0,0,0,.4,2V42ZM87.56,40.066a1.652,1.652,0,0,0,.918-.237A1.487,1.487,0,0,0,89,39.293V37.772H88.14q-1.547,0-1.547,1.389a.848.848,0,0,0,.272.655A.986.986,0,0,0,87.56,40.066Zm10.072-.176a1.317,1.317,0,0,0,.967-.338,1.241,1.241,0,0,0,.334-.945h2.777a3.288,3.288,0,0,1-1.121,2.566,4.168,4.168,0,0,1-2.887,1,4.22,4.22,0,0,1-3.27-1.3,5.125,5.125,0,0,1-1.2-3.6v-.123a5.792,5.792,0,0,1,.532-2.544,3.872,3.872,0,0,1,1.534-1.7,4.573,4.573,0,0,1,2.373-.593,4.116,4.116,0,0,1,2.944,1.028,3.647,3.647,0,0,1,1.09,2.786H98.933A1.626,1.626,0,0,0,98.572,35a1.244,1.244,0,0,0-.967-.4q-1.151,0-1.345,1.468a10.357,10.357,0,0,0-.062,1.283,4.068,4.068,0,0,0,.343,1.986A1.187,1.187,0,0,0,97.632,39.891ZM106.087,42h-2.971V32.49h2.971ZM102.94,30.029a1.334,1.334,0,0,1,.457-1.043,1.934,1.934,0,0,1,2.373,0,1.42,1.42,0,0,1,0,2.087,1.934,1.934,0,0,1-2.373,0A1.334,1.334,0,0,1,102.94,30.029Zm4.6,7.128a5.613,5.613,0,0,1,.554-2.536,3.96,3.96,0,0,1,1.591-1.709,4.791,4.791,0,0,1,2.435-.6,4.373,4.373,0,0,1,3.366,1.323,5.076,5.076,0,0,1,1.23,3.6v.105a4.925,4.925,0,0,1-1.235,3.529,4.384,4.384,0,0,1-3.344,1.305,4.434,4.434,0,0,1-3.261-1.217,4.761,4.761,0,0,1-1.327-3.3Zm2.962.185a3.538,3.538,0,0,0,.413,1.934,1.376,1.376,0,0,0,1.222.615q1.582,0,1.617-2.435v-.3q0-2.558-1.635-2.558-1.485,0-1.608,2.206Zm2.021-8.842h3.129l-2.443,2.76-2.417,0Zm8.218,3.99.1,1.116a3.225,3.225,0,0,1,2.716-1.292,2.713,2.713,0,0,1,2.219.888,4.226,4.226,0,0,1,.76,2.672V42H123.56V36a1.6,1.6,0,0,0-.29-1.059,1.342,1.342,0,0,0-1.055-.338,1.413,1.413,0,0,0-1.292.686V42h-2.962V32.49Z" transform="translate(359.647 694.101)" fill="#12263f"/>
      <path id="Path_247175" data-name="Path 247175" d="M16.428,17H13.352V4.2h3.076Zm4.729-9.51.1,1.116a3.225,3.225,0,0,1,2.716-1.292,2.713,2.713,0,0,1,2.219.888,4.226,4.226,0,0,1,.76,2.672V17H23.978V11a1.6,1.6,0,0,0-.29-1.059A1.342,1.342,0,0,0,22.633,9.6a1.413,1.413,0,0,0-1.292.686V17H18.379V7.49Zm7.058,4.685a5.809,5.809,0,0,1,.976-3.56,3.211,3.211,0,0,1,2.725-1.3,2.731,2.731,0,0,1,2.145,1V3.5H37.03V17H34.367l-.149-1.02a2.8,2.8,0,0,1-2.32,1.2,3.205,3.205,0,0,1-2.689-1.3A5.993,5.993,0,0,1,28.214,12.175Zm2.962.185q0,2.531,1.477,2.531a1.458,1.458,0,0,0,1.406-.826V10.443A1.419,1.419,0,0,0,32.67,9.6q-1.371,0-1.485,2.215ZM41.837,17H38.867V7.49h2.971ZM38.691,5.029a1.334,1.334,0,0,1,.457-1.043,1.934,1.934,0,0,1,2.373,0,1.334,1.334,0,0,1,.457,1.043,1.334,1.334,0,0,1-.457,1.043,1.934,1.934,0,0,1-2.373,0A1.334,1.334,0,0,1,38.691,5.029Zm8.991,9.861a1.317,1.317,0,0,0,.967-.338,1.241,1.241,0,0,0,.334-.945H51.76a3.288,3.288,0,0,1-1.121,2.566,4.168,4.168,0,0,1-2.887,1,4.22,4.22,0,0,1-3.27-1.3,5.125,5.125,0,0,1-1.2-3.6v-.123A5.792,5.792,0,0,1,43.819,9.6a3.872,3.872,0,0,1,1.534-1.7,4.573,4.573,0,0,1,2.373-.593A4.116,4.116,0,0,1,50.67,8.343a3.647,3.647,0,0,1,1.09,2.786H48.983A1.626,1.626,0,0,0,48.623,10a1.244,1.244,0,0,0-.967-.4q-1.151,0-1.345,1.468a10.357,10.357,0,0,0-.062,1.283,4.068,4.068,0,0,0,.343,1.986A1.187,1.187,0,0,0,47.682,14.891ZM58.37,17a3.344,3.344,0,0,1-.281-.853A2.754,2.754,0,0,1,55.8,17.176a3.374,3.374,0,0,1-2.285-.813,2.588,2.588,0,0,1-.94-2.043,2.66,2.66,0,0,1,1.143-2.338,5.821,5.821,0,0,1,3.322-.791h.914v-.5q0-1.316-1.134-1.316a.927.927,0,0,0-1.055,1.042H52.806a2.655,2.655,0,0,1,1.173-2.239,4.931,4.931,0,0,1,2.993-.86,4.323,4.323,0,0,1,2.874.888,3.086,3.086,0,0,1,1.081,2.435v4.21a4.311,4.311,0,0,0,.4,2V17Zm-1.854-1.934a1.652,1.652,0,0,0,.918-.237,1.487,1.487,0,0,0,.523-.536V12.772H57.1q-1.547,0-1.547,1.389a.848.848,0,0,0,.272.655A.986.986,0,0,0,56.515,15.066Zm5.678-2.892a5.809,5.809,0,0,1,.976-3.56,3.211,3.211,0,0,1,2.725-1.3,2.731,2.731,0,0,1,2.145,1V3.5h2.971V17H68.345L68.2,15.98a2.8,2.8,0,0,1-2.32,1.2,3.205,3.205,0,0,1-2.689-1.3A5.993,5.993,0,0,1,62.193,12.175Zm2.962.185q0,2.531,1.477,2.531a1.458,1.458,0,0,0,1.406-.826V10.443A1.419,1.419,0,0,0,66.649,9.6q-1.371,0-1.485,2.215Zm7.163-.2a5.613,5.613,0,0,1,.554-2.536,3.96,3.96,0,0,1,1.591-1.709,4.791,4.791,0,0,1,2.435-.6,4.373,4.373,0,0,1,3.366,1.323,5.076,5.076,0,0,1,1.23,3.6v.105a4.925,4.925,0,0,1-1.235,3.529,4.384,4.384,0,0,1-3.344,1.305,4.434,4.434,0,0,1-3.261-1.217,4.761,4.761,0,0,1-1.327-3.3Zm2.962.185a3.538,3.538,0,0,0,.413,1.934,1.376,1.376,0,0,0,1.222.615q1.582,0,1.617-2.435v-.3Q78.532,9.6,76.9,9.6q-1.485,0-1.608,2.206Zm13.271-2.171-.976-.07a1.752,1.752,0,0,0-1.793.879V17H82.821V7.49H85.6l.1,1.222a2.294,2.294,0,0,1,2.083-1.4,2.888,2.888,0,0,1,.826.105Zm5.5,7a4.889,4.889,0,0,1-3.542-1.305,4.507,4.507,0,0,1-1.354-3.4v-.246A5.84,5.84,0,0,1,89.7,9.652a3.955,3.955,0,0,1,1.578-1.727,4.763,4.763,0,0,1,2.461-.611A4.117,4.117,0,0,1,96.9,8.558a4.887,4.887,0,0,1,1.16,3.467v1.151H92.172a2.135,2.135,0,0,0,.694,1.257,2.066,2.066,0,0,0,1.389.457,2.662,2.662,0,0,0,2.2-.984l1.354,1.6a3.784,3.784,0,0,1-1.569,1.217A5.3,5.3,0,0,1,94.053,17.176ZM93.719,9.6q-1.3,0-1.547,1.723h2.988v-.229a1.467,1.467,0,0,0-.36-1.1A1.434,1.434,0,0,0,93.719,9.6Zm10.512,4.729a.684.684,0,0,0-.4-.606,6.016,6.016,0,0,0-1.5-.475A6.853,6.853,0,0,1,100.5,12.6a3.062,3.062,0,0,1-1.1-.971,2.319,2.319,0,0,1-.378-1.31,2.628,2.628,0,0,1,1.081-2.158,4.453,4.453,0,0,1,2.83-.848,4.934,4.934,0,0,1,3.023.853,2.666,2.666,0,0,1,1.143,2.241h-2.971q0-1.143-1.2-1.143a1.194,1.194,0,0,0-.782.259.8.8,0,0,0-.316.646.737.737,0,0,0,.387.642,3.654,3.654,0,0,0,1.235.4,10.671,10.671,0,0,1,1.49.378,2.706,2.706,0,0,1,2.145,2.646,2.491,2.491,0,0,1-1.156,2.118,5.068,5.068,0,0,1-2.993.817,5.172,5.172,0,0,1-2.18-.439,3.645,3.645,0,0,1-1.494-1.2,2.707,2.707,0,0,1-.536-1.591H101.5a1.145,1.145,0,0,0,.439.962,1.808,1.808,0,0,0,1.081.3,1.422,1.422,0,0,0,.91-.246A.787.787,0,0,0,104.231,14.328ZM17.782,37.175a5.809,5.809,0,0,1,.976-3.56,3.211,3.211,0,0,1,2.725-1.3,2.731,2.731,0,0,1,2.145,1V28.5H26.6V42H23.934l-.149-1.02a2.8,2.8,0,0,1-2.32,1.2,3.205,3.205,0,0,1-2.689-1.3A5.993,5.993,0,0,1,17.782,37.175Zm2.962.185q0,2.531,1.477,2.531a1.458,1.458,0,0,0,1.406-.826V35.443a1.419,1.419,0,0,0-1.389-.844q-1.371,0-1.485,2.215Zm12.138,4.816a4.889,4.889,0,0,1-3.542-1.305,4.507,4.507,0,0,1-1.354-3.4v-.246a5.84,5.84,0,0,1,.541-2.575A3.955,3.955,0,0,1,30.1,32.925a4.763,4.763,0,0,1,2.461-.611,4.117,4.117,0,0,1,3.164,1.244,4.887,4.887,0,0,1,1.16,3.467v1.151H31a2.135,2.135,0,0,0,.694,1.257,2.066,2.066,0,0,0,1.389.457,2.662,2.662,0,0,0,2.2-.984l1.354,1.6a3.784,3.784,0,0,1-1.569,1.217A5.3,5.3,0,0,1,32.881,42.176ZM32.547,34.6q-1.3,0-1.547,1.723h2.988v-.229a1.467,1.467,0,0,0-.36-1.1A1.434,1.434,0,0,0,32.547,34.6Zm9.668,2.575a6.421,6.421,0,0,1,.475-2.549,3.821,3.821,0,0,1,1.362-1.709,3.591,3.591,0,0,1,2.065-.6,2.855,2.855,0,0,1,2.32,1l.105-.826h2.689V41.64a4.009,4.009,0,0,1-.584,2.184,3.75,3.75,0,0,1-1.692,1.424,6.219,6.219,0,0,1-2.566.5,5.365,5.365,0,0,1-2.026-.4,3.657,3.657,0,0,1-1.5-1.028L44.1,42.58a2.716,2.716,0,0,0,2.18.976,1.764,1.764,0,0,0,1.969-2.021v-.3a2.781,2.781,0,0,1-2.153.94,3.437,3.437,0,0,1-2.812-1.332,5.517,5.517,0,0,1-1.072-3.564Zm2.971.185a3.383,3.383,0,0,0,.439,1.85,1.387,1.387,0,0,0,1.23.681,1.573,1.573,0,0,0,1.4-.642v-4a1.534,1.534,0,0,0-1.38-.65,1.4,1.4,0,0,0-1.239.708A3.858,3.858,0,0,0,45.186,37.359Zm12.331,4.816a4.889,4.889,0,0,1-3.542-1.305,4.507,4.507,0,0,1-1.354-3.4v-.246a5.84,5.84,0,0,1,.541-2.575,3.955,3.955,0,0,1,1.578-1.727,4.763,4.763,0,0,1,2.461-.611,4.117,4.117,0,0,1,3.164,1.244,4.887,4.887,0,0,1,1.16,3.467v1.151H55.636a2.135,2.135,0,0,0,.694,1.257,2.066,2.066,0,0,0,1.389.457,2.662,2.662,0,0,0,2.2-.984l1.354,1.6A3.784,3.784,0,0,1,59.7,41.723,5.3,5.3,0,0,1,57.517,42.176ZM57.183,34.6q-1.3,0-1.547,1.723h2.988v-.229a1.467,1.467,0,0,0-.36-1.1A1.434,1.434,0,0,0,57.183,34.6Zm10.512,4.729a.684.684,0,0,0-.4-.606,6.016,6.016,0,0,0-1.5-.475,6.853,6.853,0,0,1-1.828-.646,3.062,3.062,0,0,1-1.1-.971,2.319,2.319,0,0,1-.378-1.31,2.628,2.628,0,0,1,1.081-2.158,4.453,4.453,0,0,1,2.83-.848,4.934,4.934,0,0,1,3.023.853,2.666,2.666,0,0,1,1.143,2.241H67.6q0-1.143-1.2-1.143a1.194,1.194,0,0,0-.782.259.8.8,0,0,0-.316.646.737.737,0,0,0,.387.642,3.654,3.654,0,0,0,1.235.4,10.671,10.671,0,0,1,1.49.378,2.706,2.706,0,0,1,2.145,2.646A2.491,2.491,0,0,1,69.4,41.358a5.068,5.068,0,0,1-2.993.817,5.172,5.172,0,0,1-2.18-.439,3.645,3.645,0,0,1-1.494-1.2,2.707,2.707,0,0,1-.536-1.591h2.769a1.145,1.145,0,0,0,.439.962,1.808,1.808,0,0,0,1.081.3,1.422,1.422,0,0,0,.91-.246A.787.787,0,0,0,67.695,39.328Zm7.69-9.2V32.49H76.95v2.057H75.385V38.9a1.111,1.111,0,0,0,.193.747,1.037,1.037,0,0,0,.765.211,4.345,4.345,0,0,0,.738-.053v2.118a5.466,5.466,0,0,1-1.67.255,3.1,3.1,0,0,1-2.259-.721,2.954,2.954,0,0,1-.729-2.188v-4.72H71.21V32.49h1.213V30.126ZM81.239,42H78.268V32.49h2.971ZM78.092,30.029a1.334,1.334,0,0,1,.457-1.043,1.934,1.934,0,0,1,2.373,0,1.42,1.42,0,0,1,0,2.087,1.934,1.934,0,0,1-2.373,0A1.334,1.334,0,0,1,78.092,30.029Zm4.6,7.128a5.613,5.613,0,0,1,.554-2.536,3.96,3.96,0,0,1,1.591-1.709,4.791,4.791,0,0,1,2.435-.6,4.373,4.373,0,0,1,3.366,1.323,5.076,5.076,0,0,1,1.23,3.6v.105a4.925,4.925,0,0,1-1.235,3.529,4.384,4.384,0,0,1-3.344,1.305,4.434,4.434,0,0,1-3.261-1.217,4.761,4.761,0,0,1-1.327-3.3Zm2.962.185a3.538,3.538,0,0,0,.413,1.934,1.376,1.376,0,0,0,1.222.615q1.582,0,1.617-2.435v-.3q0-2.558-1.635-2.558-1.485,0-1.608,2.206ZM87.672,28.5H90.8l-2.443,2.76-2.417,0Zm8.218,3.99.1,1.116A3.225,3.225,0,0,1,98.7,32.314a2.713,2.713,0,0,1,2.219.888,4.226,4.226,0,0,1,.76,2.672V42H98.711V36a1.6,1.6,0,0,0-.29-1.059,1.342,1.342,0,0,0-1.055-.338,1.413,1.413,0,0,0-1.292.686V42H93.113V32.49Z" transform="translate(674.647 244.1)" fill="#12263f"/>
      <path id="Path_247179" data-name="Path 247179" d="M31.574,4.2l2.856,8.9,2.848-8.9h4.061V17H38.245V14.012l.3-6.117L35.45,17H33.411l-3.1-9.114.3,6.126V17H27.522V4.2ZM47.764,17.176a4.889,4.889,0,0,1-3.542-1.305,4.507,4.507,0,0,1-1.354-3.4v-.246a5.84,5.84,0,0,1,.541-2.575,3.955,3.955,0,0,1,1.578-1.727,4.763,4.763,0,0,1,2.461-.611,4.117,4.117,0,0,1,3.164,1.244,4.887,4.887,0,0,1,1.16,3.467v1.151H45.883a2.135,2.135,0,0,0,.694,1.257,2.066,2.066,0,0,0,1.389.457,2.662,2.662,0,0,0,2.2-.984l1.354,1.6a3.784,3.784,0,0,1-1.569,1.217A5.3,5.3,0,0,1,47.764,17.176ZM47.43,9.6q-1.3,0-1.547,1.723h2.988v-.229a1.467,1.467,0,0,0-.36-1.1A1.434,1.434,0,0,0,47.43,9.6Zm5.159,2.575a5.809,5.809,0,0,1,.976-3.56,3.211,3.211,0,0,1,2.725-1.3,2.731,2.731,0,0,1,2.145,1V3.5H61.4V17H58.741l-.149-1.02a2.8,2.8,0,0,1-2.32,1.2,3.205,3.205,0,0,1-2.689-1.3A5.993,5.993,0,0,1,52.589,12.175Zm2.962.185q0,2.531,1.477,2.531a1.458,1.458,0,0,0,1.406-.826V10.443A1.419,1.419,0,0,0,57.045,9.6q-1.371,0-1.485,2.215ZM66.212,17H63.241V7.49h2.971ZM63.065,5.029a1.334,1.334,0,0,1,.457-1.043,1.934,1.934,0,0,1,2.373,0,1.334,1.334,0,0,1,.457,1.043A1.334,1.334,0,0,1,65.9,6.073a1.934,1.934,0,0,1-2.373,0A1.334,1.334,0,0,1,63.065,5.029Zm4.6,7.128a5.613,5.613,0,0,1,.554-2.536,3.96,3.96,0,0,1,1.591-1.709,4.791,4.791,0,0,1,2.435-.6,4.373,4.373,0,0,1,3.366,1.323,5.076,5.076,0,0,1,1.23,3.6v.105A4.925,4.925,0,0,1,75.6,15.871a4.384,4.384,0,0,1-3.344,1.305A4.434,4.434,0,0,1,69,15.958a4.761,4.761,0,0,1-1.327-3.3Zm2.962.185a3.538,3.538,0,0,0,.413,1.934,1.376,1.376,0,0,0,1.222.615q1.582,0,1.617-2.435v-.3q0-2.558-1.635-2.558-1.485,0-1.608,2.206Zm12.5,1.986a.684.684,0,0,0-.4-.606,6.016,6.016,0,0,0-1.5-.475A6.853,6.853,0,0,1,79.4,12.6a3.062,3.062,0,0,1-1.1-.971,2.319,2.319,0,0,1-.378-1.31A2.628,2.628,0,0,1,79,8.163a4.453,4.453,0,0,1,2.83-.848,4.934,4.934,0,0,1,3.023.853A2.666,2.666,0,0,1,86,10.408H83.025q0-1.143-1.2-1.143a1.194,1.194,0,0,0-.782.259.8.8,0,0,0-.316.646.737.737,0,0,0,.387.642,3.654,3.654,0,0,0,1.235.4,10.671,10.671,0,0,1,1.49.378,2.706,2.706,0,0,1,2.145,2.646,2.491,2.491,0,0,1-1.156,2.118,5.068,5.068,0,0,1-2.993.817,5.172,5.172,0,0,1-2.18-.439,3.645,3.645,0,0,1-1.494-1.2,2.707,2.707,0,0,1-.536-1.591h2.769a1.145,1.145,0,0,0,.439.962,1.808,1.808,0,0,0,1.081.3,1.422,1.422,0,0,0,.91-.246A.787.787,0,0,0,83.122,14.328Zm8.35-2.153a5.809,5.809,0,0,1,.976-3.56,3.211,3.211,0,0,1,2.725-1.3,2.731,2.731,0,0,1,2.145,1V3.5h2.971V17H97.624l-.149-1.02a2.8,2.8,0,0,1-2.32,1.2,3.205,3.205,0,0,1-2.689-1.3A5.993,5.993,0,0,1,91.472,12.175Zm2.962.185q0,2.531,1.477,2.531a1.458,1.458,0,0,0,1.406-.826V10.443A1.419,1.419,0,0,0,95.928,9.6q-1.371,0-1.485,2.215Zm12.138,4.816a4.889,4.889,0,0,1-3.542-1.305,4.507,4.507,0,0,1-1.354-3.4v-.246a5.84,5.84,0,0,1,.541-2.575,3.955,3.955,0,0,1,1.578-1.727,4.763,4.763,0,0,1,2.461-.611,4.117,4.117,0,0,1,3.164,1.244,4.887,4.887,0,0,1,1.16,3.467v1.151H104.69a2.135,2.135,0,0,0,.694,1.257,2.066,2.066,0,0,0,1.389.457,2.662,2.662,0,0,0,2.2-.984l1.354,1.6a3.784,3.784,0,0,1-1.569,1.217A5.3,5.3,0,0,1,106.571,17.176ZM106.237,9.6q-1.3,0-1.547,1.723h2.988v-.229a1.467,1.467,0,0,0-.36-1.1A1.434,1.434,0,0,0,106.237,9.6ZM30.458,30.126V32.49h1.564v2.057H30.458V38.9a1.111,1.111,0,0,0,.193.747,1.037,1.037,0,0,0,.765.211,4.345,4.345,0,0,0,.738-.053v2.118a5.466,5.466,0,0,1-1.67.255,3.1,3.1,0,0,1-2.259-.721,2.954,2.954,0,0,1-.729-2.188v-4.72H26.283V32.49H27.5V30.126Zm8.481,5.045-.976-.07a1.752,1.752,0,0,0-1.793.879V42H33.209V32.49h2.777l.1,1.222a2.294,2.294,0,0,1,2.083-1.4,2.888,2.888,0,0,1,.826.105ZM45.1,42a3.344,3.344,0,0,1-.281-.853,2.754,2.754,0,0,1-2.285,1.028,3.374,3.374,0,0,1-2.285-.813,2.588,2.588,0,0,1-.94-2.043,2.66,2.66,0,0,1,1.143-2.338,5.821,5.821,0,0,1,3.322-.791h.914v-.5q0-1.316-1.134-1.316A.927.927,0,0,0,42.5,35.413H39.537a2.655,2.655,0,0,1,1.173-2.239,4.931,4.931,0,0,1,2.993-.86,4.323,4.323,0,0,1,2.874.888,3.086,3.086,0,0,1,1.081,2.435v4.21a4.311,4.311,0,0,0,.4,2V42Zm-1.854-1.934a1.652,1.652,0,0,0,.918-.237,1.487,1.487,0,0,0,.523-.536V37.772h-.861q-1.547,0-1.547,1.389a.848.848,0,0,0,.272.655A.986.986,0,0,0,43.246,40.066Zm8.771-7.576.1,1.116a3.225,3.225,0,0,1,2.716-1.292,2.713,2.713,0,0,1,2.219.888,4.226,4.226,0,0,1,.76,2.672V42H54.839V36a1.6,1.6,0,0,0-.29-1.059,1.342,1.342,0,0,0-1.055-.338,1.413,1.413,0,0,0-1.292.686V42H49.24V32.49Zm12.41,6.838a.684.684,0,0,0-.4-.606,6.016,6.016,0,0,0-1.5-.475A6.853,6.853,0,0,1,60.7,37.6a3.062,3.062,0,0,1-1.1-.971,2.319,2.319,0,0,1-.378-1.31,2.628,2.628,0,0,1,1.081-2.158,4.453,4.453,0,0,1,2.83-.848,4.934,4.934,0,0,1,3.023.853A2.666,2.666,0,0,1,67.3,35.408H64.331q0-1.143-1.2-1.143a1.194,1.194,0,0,0-.782.259.8.8,0,0,0-.316.646.737.737,0,0,0,.387.642,3.654,3.654,0,0,0,1.235.4,10.671,10.671,0,0,1,1.49.378,2.706,2.706,0,0,1,2.145,2.646,2.491,2.491,0,0,1-1.156,2.118,5.068,5.068,0,0,1-2.993.817,5.172,5.172,0,0,1-2.18-.439,3.645,3.645,0,0,1-1.494-1.2,2.707,2.707,0,0,1-.536-1.591h2.769a1.145,1.145,0,0,0,.439.962,1.808,1.808,0,0,0,1.081.3,1.422,1.422,0,0,0,.91-.246A.787.787,0,0,0,64.428,39.328ZM77.5,37.315a5.735,5.735,0,0,1-1,3.538,3.2,3.2,0,0,1-2.694,1.323,2.742,2.742,0,0,1-2.153-.958v4.438H68.69V32.49h2.769l.088.879a2.742,2.742,0,0,1,2.241-1.055,3.224,3.224,0,0,1,2.733,1.3,5.805,5.805,0,0,1,.976,3.564Zm-2.962-.185q0-2.531-1.477-2.531a1.394,1.394,0,0,0-1.406.756V39.1a1.439,1.439,0,0,0,1.424.791q1.415,0,1.459-2.443Zm3.894.026a5.613,5.613,0,0,1,.554-2.536,3.96,3.96,0,0,1,1.591-1.709,4.791,4.791,0,0,1,2.435-.6,4.373,4.373,0,0,1,3.366,1.323,5.076,5.076,0,0,1,1.23,3.6v.105a4.925,4.925,0,0,1-1.235,3.529,4.384,4.384,0,0,1-3.344,1.305,4.434,4.434,0,0,1-3.261-1.217,4.761,4.761,0,0,1-1.327-3.3Zm2.962.185a3.538,3.538,0,0,0,.413,1.934,1.376,1.376,0,0,0,1.222.615q1.582,0,1.617-2.435v-.3q0-2.558-1.635-2.558-1.485,0-1.608,2.206Zm13.271-2.171-.976-.07a1.752,1.752,0,0,0-1.793.879V42H88.932V32.49h2.777l.1,1.222a2.294,2.294,0,0,1,2.083-1.4,2.888,2.888,0,0,1,.826.105Zm4.957-5.045V32.49h1.564v2.057H99.619V38.9a1.111,1.111,0,0,0,.193.747,1.037,1.037,0,0,0,.765.211,4.345,4.345,0,0,0,.738-.053v2.118a5.466,5.466,0,0,1-1.67.255,3.1,3.1,0,0,1-2.259-.721,2.954,2.954,0,0,1-.729-2.188v-4.72H95.444V32.49h1.213V30.126Zm7.33,12.05a4.889,4.889,0,0,1-3.542-1.305,4.507,4.507,0,0,1-1.354-3.4v-.246a5.84,5.84,0,0,1,.541-2.575,3.955,3.955,0,0,1,1.578-1.727,4.763,4.763,0,0,1,2.461-.611,4.117,4.117,0,0,1,3.164,1.244,4.887,4.887,0,0,1,1.16,3.467v1.151h-5.889a2.135,2.135,0,0,0,.694,1.257,2.066,2.066,0,0,0,1.389.457,2.662,2.662,0,0,0,2.2-.984l1.354,1.6a3.784,3.784,0,0,1-1.569,1.217A5.3,5.3,0,0,1,106.949,42.176Zm-.334-7.576q-1.3,0-1.547,1.723h2.988v-.229a1.467,1.467,0,0,0-.36-1.1A1.434,1.434,0,0,0,106.615,34.6Z" transform="translate(77.647 244.101)" fill="#12263f"/>
      <path id="Path_247178" data-name="Path 247178" d="M16.595,17H13.527L8.992,9.037V17H5.907V4.2H8.992l4.526,7.963V4.2h3.076Zm1.441-4.843a5.613,5.613,0,0,1,.554-2.536,3.96,3.96,0,0,1,1.591-1.709,4.791,4.791,0,0,1,2.435-.6,4.373,4.373,0,0,1,3.366,1.323,5.076,5.076,0,0,1,1.23,3.6v.105a4.925,4.925,0,0,1-1.235,3.529,4.384,4.384,0,0,1-3.344,1.305,4.434,4.434,0,0,1-3.261-1.217,4.761,4.761,0,0,1-1.327-3.3ZM21,12.342a3.538,3.538,0,0,0,.413,1.934,1.376,1.376,0,0,0,1.222.615q1.582,0,1.617-2.435v-.3q0-2.558-1.635-2.558-1.485,0-1.608,2.206ZM34.27,10.171l-.976-.07a1.752,1.752,0,0,0-1.793.879V17H28.539V7.49h2.777l.1,1.222a2.294,2.294,0,0,1,2.083-1.4,2.888,2.888,0,0,1,.826.105ZM38.137,7.49l.1,1.116a3.27,3.27,0,0,1,2.716-1.292,2.407,2.407,0,0,1,2.435,1.433,3.165,3.165,0,0,1,2.795-1.433q2.892,0,2.971,3.5V17H46.179V11a1.813,1.813,0,0,0-.246-1.063,1.048,1.048,0,0,0-.9-.334,1.4,1.4,0,0,0-1.31.782l.009.123V17H40.765V11.015a1.906,1.906,0,0,0-.237-1.081,1.045,1.045,0,0,0-.905-.334,1.42,1.42,0,0,0-1.3.782V17H35.359V7.49ZM56.2,17a3.344,3.344,0,0,1-.281-.853,2.754,2.754,0,0,1-2.285,1.028,3.374,3.374,0,0,1-2.285-.813,2.588,2.588,0,0,1-.94-2.043,2.66,2.66,0,0,1,1.143-2.338,5.821,5.821,0,0,1,3.322-.791h.914v-.5q0-1.316-1.134-1.316A.927.927,0,0,0,53.6,10.413H50.635a2.655,2.655,0,0,1,1.173-2.239,4.931,4.931,0,0,1,2.993-.86,4.323,4.323,0,0,1,2.874.888,3.086,3.086,0,0,1,1.081,2.435v4.21a4.311,4.311,0,0,0,.4,2V17Zm-1.854-1.934a1.652,1.652,0,0,0,.918-.237,1.487,1.487,0,0,0,.523-.536V12.772h-.861q-1.547,0-1.547,1.389a.848.848,0,0,0,.272.655A.986.986,0,0,0,54.344,15.066Zm9.5-9.94V7.49h1.564V9.547H63.845V13.9a1.111,1.111,0,0,0,.193.747,1.037,1.037,0,0,0,.765.211,4.345,4.345,0,0,0,.738-.053v2.118a5.466,5.466,0,0,1-1.67.255,3.1,3.1,0,0,1-2.259-.721,2.954,2.954,0,0,1-.729-2.188V9.547H59.67V7.49h1.213V5.126ZM69.7,17H66.728V7.49H69.7ZM66.552,5.029a1.334,1.334,0,0,1,.457-1.043,1.934,1.934,0,0,1,2.373,0,1.334,1.334,0,0,1,.457,1.043,1.334,1.334,0,0,1-.457,1.043,1.934,1.934,0,0,1-2.373,0A1.334,1.334,0,0,1,66.552,5.029Zm8.763,8.446,1.5-5.985h3.12L76.835,17H73.812l-3.1-9.51h3.129ZM86.046,17a3.344,3.344,0,0,1-.281-.853,2.754,2.754,0,0,1-2.285,1.028,3.374,3.374,0,0,1-2.285-.813,2.588,2.588,0,0,1-.94-2.043A2.66,2.66,0,0,1,81.4,11.981a5.821,5.821,0,0,1,3.322-.791h.914v-.5q0-1.316-1.134-1.316a.927.927,0,0,0-1.055,1.042H80.482a2.655,2.655,0,0,1,1.173-2.239,4.931,4.931,0,0,1,2.993-.86,4.323,4.323,0,0,1,2.874.888A3.086,3.086,0,0,1,88.6,10.637v4.21a4.311,4.311,0,0,0,.4,2V17Zm-1.854-1.934a1.652,1.652,0,0,0,.918-.237,1.487,1.487,0,0,0,.523-.536V12.772h-.861q-1.547,0-1.547,1.389a.848.848,0,0,0,.272.655A.986.986,0,0,0,84.191,15.066Zm10.16-2.892a5.809,5.809,0,0,1,.976-3.56,3.211,3.211,0,0,1,2.725-1.3,2.731,2.731,0,0,1,2.145,1V3.5h2.971V17H100.5l-.149-1.02a2.8,2.8,0,0,1-2.32,1.2,3.205,3.205,0,0,1-2.689-1.3A5.993,5.993,0,0,1,94.352,12.175Zm2.962.185q0,2.531,1.477,2.531a1.458,1.458,0,0,0,1.406-.826V10.443A1.419,1.419,0,0,0,98.808,9.6q-1.371,0-1.485,2.215Zm12.138,4.816a4.889,4.889,0,0,1-3.542-1.305,4.507,4.507,0,0,1-1.354-3.4v-.246a5.84,5.84,0,0,1,.541-2.575,3.955,3.955,0,0,1,1.578-1.727,4.763,4.763,0,0,1,2.461-.611A4.117,4.117,0,0,1,112.3,8.558a4.887,4.887,0,0,1,1.16,3.467v1.151H107.57a2.135,2.135,0,0,0,.694,1.257,2.066,2.066,0,0,0,1.389.457,2.662,2.662,0,0,0,2.2-.984l1.354,1.6a3.784,3.784,0,0,1-1.569,1.217A5.3,5.3,0,0,1,109.451,17.176ZM109.117,9.6q-1.3,0-1.547,1.723h2.988v-.229a1.467,1.467,0,0,0-.36-1.1A1.434,1.434,0,0,0,109.117,9.6ZM32.841,37.315a5.735,5.735,0,0,1-1,3.538,3.2,3.2,0,0,1-2.694,1.323A2.742,2.742,0,0,1,27,41.218v4.438H24.035V32.49H26.8l.088.879a2.742,2.742,0,0,1,2.241-1.055,3.224,3.224,0,0,1,2.733,1.3,5.805,5.805,0,0,1,.976,3.564Zm-2.962-.185q0-2.531-1.477-2.531A1.394,1.394,0,0,0,27,35.355V39.1a1.439,1.439,0,0,0,1.424.791q1.415,0,1.459-2.443Zm10.02-1.96-.976-.07a1.752,1.752,0,0,0-1.793.879V42H34.168V32.49h2.777l.1,1.222a2.294,2.294,0,0,1,2.083-1.4,2.888,2.888,0,0,1,.826.105Zm.378,1.986a5.613,5.613,0,0,1,.554-2.536,3.96,3.96,0,0,1,1.591-1.709,4.791,4.791,0,0,1,2.435-.6,4.373,4.373,0,0,1,3.366,1.323,5.076,5.076,0,0,1,1.23,3.6v.105a4.925,4.925,0,0,1-1.235,3.529,4.384,4.384,0,0,1-3.344,1.305,4.434,4.434,0,0,1-3.261-1.217,4.761,4.761,0,0,1-1.327-3.3Zm2.962.185a3.538,3.538,0,0,0,.413,1.934,1.376,1.376,0,0,0,1.222.615q1.582,0,1.617-2.435v-.3q0-2.558-1.635-2.558-1.485,0-1.608,2.206Zm7.146-.167a5.809,5.809,0,0,1,.976-3.56,3.211,3.211,0,0,1,2.725-1.3,2.731,2.731,0,0,1,2.145,1V28.5H59.2V42H56.537l-.149-1.02a2.8,2.8,0,0,1-2.32,1.2,3.205,3.205,0,0,1-2.689-1.3A5.993,5.993,0,0,1,50.384,37.175Zm2.962.185q0,2.531,1.477,2.531a1.458,1.458,0,0,0,1.406-.826V35.443A1.419,1.419,0,0,0,54.84,34.6q-1.371,0-1.485,2.215Zm13.2,3.612a3.054,3.054,0,0,1-2.54,1.2,3,3,0,0,1-2.369-.91,3.826,3.826,0,0,1-.8-2.615V32.49H63.8v6.179a1.065,1.065,0,0,0,1.187,1.222,1.548,1.548,0,0,0,1.45-.729V32.49h2.979V42H66.635Zm8.508-1.081a1.317,1.317,0,0,0,.967-.338,1.241,1.241,0,0,0,.334-.945h2.777a3.288,3.288,0,0,1-1.121,2.566,4.168,4.168,0,0,1-2.887,1,4.22,4.22,0,0,1-3.27-1.3,5.125,5.125,0,0,1-1.2-3.6v-.123a5.792,5.792,0,0,1,.532-2.544,3.872,3.872,0,0,1,1.534-1.7,4.573,4.573,0,0,1,2.373-.593,4.116,4.116,0,0,1,2.944,1.028,3.647,3.647,0,0,1,1.09,2.786H76.356A1.626,1.626,0,0,0,76,35a1.244,1.244,0,0,0-.967-.4q-1.151,0-1.345,1.468a10.357,10.357,0,0,0-.062,1.283,4.068,4.068,0,0,0,.343,1.986A1.187,1.187,0,0,0,75.055,39.891Zm8.78-9.765V32.49H85.4v2.057H83.835V38.9a1.111,1.111,0,0,0,.193.747,1.037,1.037,0,0,0,.765.211,4.345,4.345,0,0,0,.738-.053v2.118a5.466,5.466,0,0,1-1.67.255,3.1,3.1,0,0,1-2.259-.721,2.954,2.954,0,0,1-.729-2.188v-4.72H79.661V32.49h1.213V30.126Zm2.092,7.031a5.613,5.613,0,0,1,.554-2.536,3.96,3.96,0,0,1,1.591-1.709,4.791,4.791,0,0,1,2.435-.6,4.373,4.373,0,0,1,3.366,1.323,5.076,5.076,0,0,1,1.23,3.6v.105a4.925,4.925,0,0,1-1.235,3.529,4.384,4.384,0,0,1-3.344,1.305,4.434,4.434,0,0,1-3.261-1.217,4.761,4.761,0,0,1-1.327-3.3Zm2.962.185a3.538,3.538,0,0,0,.413,1.934,1.376,1.376,0,0,0,1.222.615q1.582,0,1.617-2.435v-.3q0-2.558-1.635-2.558-1.485,0-1.608,2.206Z" transform="translate(86.647 553.101)" fill="#12263f"/>
      <path id="Path_247176" data-name="Path 247176" d="M27.687,12.658V17H24.6V4.2h5.106a5.948,5.948,0,0,1,2.6.541,4.074,4.074,0,0,1,1.749,1.538,4.2,4.2,0,0,1,.62,2.263,3.7,3.7,0,0,1-1.34,2.993,5.561,5.561,0,0,1-3.678,1.121Zm0-2.382h2.021a1.906,1.906,0,0,0,1.367-.448,1.665,1.665,0,0,0,.47-1.266,2.059,2.059,0,0,0-.483-1.433,1.712,1.712,0,0,0-1.318-.545H27.687Zm14.247-.105-.976-.07a1.752,1.752,0,0,0-1.793.879V17H36.2V7.49h2.777l.1,1.222a2.294,2.294,0,0,1,2.083-1.4,2.888,2.888,0,0,1,.826.105Zm.378,1.986a5.613,5.613,0,0,1,.554-2.536,3.96,3.96,0,0,1,1.591-1.709,4.791,4.791,0,0,1,2.435-.6,4.373,4.373,0,0,1,3.366,1.323,5.076,5.076,0,0,1,1.23,3.6v.105a4.925,4.925,0,0,1-1.235,3.529,4.384,4.384,0,0,1-3.344,1.305,4.434,4.434,0,0,1-3.261-1.217,4.761,4.761,0,0,1-1.327-3.3Zm2.962.185a3.538,3.538,0,0,0,.413,1.934,1.376,1.376,0,0,0,1.222.615q1.582,0,1.617-2.435v-.3q0-2.558-1.635-2.558-1.485,0-1.608,2.206Zm11.54,2.549a1.317,1.317,0,0,0,.967-.338,1.241,1.241,0,0,0,.334-.945h2.777a3.288,3.288,0,0,1-1.121,2.566,4.168,4.168,0,0,1-2.887,1,4.22,4.22,0,0,1-3.27-1.3,5.125,5.125,0,0,1-1.2-3.6v-.123A5.792,5.792,0,0,1,52.951,9.6a3.872,3.872,0,0,1,1.534-1.7,4.573,4.573,0,0,1,2.373-.593A4.116,4.116,0,0,1,59.8,8.343a3.647,3.647,0,0,1,1.09,2.786H58.115A1.626,1.626,0,0,0,57.754,10a1.244,1.244,0,0,0-.967-.4q-1.151,0-1.345,1.468a10.357,10.357,0,0,0-.062,1.283,4.068,4.068,0,0,0,.343,1.986A1.187,1.187,0,0,0,56.814,14.891Zm9.932,2.285A4.889,4.889,0,0,1,63.2,15.871a4.507,4.507,0,0,1-1.354-3.4v-.246a5.84,5.84,0,0,1,.541-2.575,3.955,3.955,0,0,1,1.578-1.727,4.763,4.763,0,0,1,2.461-.611,4.117,4.117,0,0,1,3.164,1.244,4.887,4.887,0,0,1,1.16,3.467v1.151H64.865a2.135,2.135,0,0,0,.694,1.257,2.066,2.066,0,0,0,1.389.457,2.662,2.662,0,0,0,2.2-.984l1.354,1.6a3.784,3.784,0,0,1-1.569,1.217A5.3,5.3,0,0,1,66.746,17.176ZM66.412,9.6q-1.3,0-1.547,1.723h2.988v-.229a1.467,1.467,0,0,0-.36-1.1A1.434,1.434,0,0,0,66.412,9.6Zm10.512,4.729a.684.684,0,0,0-.4-.606,6.016,6.016,0,0,0-1.5-.475A6.853,6.853,0,0,1,73.2,12.6a3.062,3.062,0,0,1-1.1-.971,2.319,2.319,0,0,1-.378-1.31A2.628,2.628,0,0,1,72.8,8.163a4.453,4.453,0,0,1,2.83-.848,4.934,4.934,0,0,1,3.023.853A2.666,2.666,0,0,1,79.8,10.408H76.827q0-1.143-1.2-1.143a1.194,1.194,0,0,0-.782.259.8.8,0,0,0-.316.646.737.737,0,0,0,.387.642,3.654,3.654,0,0,0,1.235.4,10.671,10.671,0,0,1,1.49.378A2.706,2.706,0,0,1,79.78,14.24a2.491,2.491,0,0,1-1.156,2.118,5.068,5.068,0,0,1-2.993.817,5.172,5.172,0,0,1-2.18-.439,3.645,3.645,0,0,1-1.494-1.2,2.707,2.707,0,0,1-.536-1.591H74.19a1.145,1.145,0,0,0,.439.962,1.808,1.808,0,0,0,1.081.3,1.422,1.422,0,0,0,.91-.246A.787.787,0,0,0,76.923,14.328Zm3.867-2.171a5.613,5.613,0,0,1,.554-2.536,3.96,3.96,0,0,1,1.591-1.709,4.791,4.791,0,0,1,2.435-.6,4.373,4.373,0,0,1,3.366,1.323,5.076,5.076,0,0,1,1.23,3.6v.105a4.925,4.925,0,0,1-1.235,3.529,4.384,4.384,0,0,1-3.344,1.305,4.434,4.434,0,0,1-3.261-1.217,4.761,4.761,0,0,1-1.327-3.3Zm2.962.185a3.538,3.538,0,0,0,.413,1.934,1.376,1.376,0,0,0,1.222.615q1.582,0,1.617-2.435v-.3Q87,9.6,85.37,9.6q-1.485,0-1.608,2.206Zm12.5,1.986a.684.684,0,0,0-.4-.606,6.016,6.016,0,0,0-1.5-.475,6.853,6.853,0,0,1-1.828-.646,3.062,3.062,0,0,1-1.1-.971,2.319,2.319,0,0,1-.378-1.31,2.628,2.628,0,0,1,1.081-2.158,4.453,4.453,0,0,1,2.83-.848,4.934,4.934,0,0,1,3.023.853,2.666,2.666,0,0,1,1.143,2.241H96.154q0-1.143-1.2-1.143a1.194,1.194,0,0,0-.782.259.8.8,0,0,0-.316.646.737.737,0,0,0,.387.642,3.654,3.654,0,0,0,1.235.4,10.671,10.671,0,0,1,1.49.378,2.706,2.706,0,0,1,2.145,2.646,2.491,2.491,0,0,1-1.156,2.118,5.068,5.068,0,0,1-2.993.817,5.172,5.172,0,0,1-2.18-.439,3.645,3.645,0,0,1-1.494-1.2,2.707,2.707,0,0,1-.536-1.591h2.769a1.145,1.145,0,0,0,.439.962,1.808,1.808,0,0,0,1.081.3,1.422,1.422,0,0,0,.91-.246A.787.787,0,0,0,96.25,14.328ZM17.5,37.175a5.809,5.809,0,0,1,.976-3.56,3.211,3.211,0,0,1,2.725-1.3,2.731,2.731,0,0,1,2.145,1V28.5h2.971V42H23.653L23.5,40.98a2.8,2.8,0,0,1-2.32,1.2,3.205,3.205,0,0,1-2.689-1.3A5.993,5.993,0,0,1,17.5,37.175Zm2.962.185q0,2.531,1.477,2.531a1.458,1.458,0,0,0,1.406-.826V35.443a1.419,1.419,0,0,0-1.389-.844q-1.371,0-1.485,2.215ZM32.6,42.176a4.889,4.889,0,0,1-3.542-1.305,4.507,4.507,0,0,1-1.354-3.4v-.246a5.84,5.84,0,0,1,.541-2.575,3.955,3.955,0,0,1,1.578-1.727,4.763,4.763,0,0,1,2.461-.611,4.117,4.117,0,0,1,3.164,1.244,4.887,4.887,0,0,1,1.16,3.467v1.151H30.719a2.135,2.135,0,0,0,.694,1.257,2.066,2.066,0,0,0,1.389.457,2.662,2.662,0,0,0,2.2-.984l1.354,1.6a3.784,3.784,0,0,1-1.569,1.217A5.3,5.3,0,0,1,32.6,42.176ZM32.266,34.6q-1.3,0-1.547,1.723h2.988v-.229a1.467,1.467,0,0,0-.36-1.1A1.434,1.434,0,0,0,32.266,34.6Zm15.768.571-.976-.07a1.752,1.752,0,0,0-1.793.879V42H42.3V32.49h2.777l.1,1.222a2.294,2.294,0,0,1,2.083-1.4,2.888,2.888,0,0,1,.826.105Zm5.5,7a4.889,4.889,0,0,1-3.542-1.305,4.507,4.507,0,0,1-1.354-3.4v-.246a5.84,5.84,0,0,1,.541-2.575,3.955,3.955,0,0,1,1.578-1.727,4.763,4.763,0,0,1,2.461-.611,4.117,4.117,0,0,1,3.164,1.244,4.887,4.887,0,0,1,1.16,3.467v1.151H51.655a2.135,2.135,0,0,0,.694,1.257,2.066,2.066,0,0,0,1.389.457,2.662,2.662,0,0,0,2.2-.984l1.354,1.6a3.784,3.784,0,0,1-1.569,1.217A5.3,5.3,0,0,1,53.536,42.176ZM53.2,34.6q-1.3,0-1.547,1.723h2.988v-.229a1.467,1.467,0,0,0-.36-1.1A1.434,1.434,0,0,0,53.2,34.6Zm9.554,5.291a1.317,1.317,0,0,0,.967-.338,1.241,1.241,0,0,0,.334-.945h2.777a3.288,3.288,0,0,1-1.121,2.566,4.168,4.168,0,0,1-2.887,1,4.22,4.22,0,0,1-3.27-1.3,5.125,5.125,0,0,1-1.2-3.6v-.123a5.792,5.792,0,0,1,.532-2.544,3.872,3.872,0,0,1,1.534-1.7,4.573,4.573,0,0,1,2.373-.593,4.116,4.116,0,0,1,2.944,1.028,3.647,3.647,0,0,1,1.09,2.786H64.056A1.626,1.626,0,0,0,63.7,35a1.244,1.244,0,0,0-.967-.4q-1.151,0-1.345,1.468a10.357,10.357,0,0,0-.062,1.283,4.068,4.068,0,0,0,.343,1.986A1.187,1.187,0,0,0,62.755,39.891ZM71.21,42H68.24V32.49H71.21ZM68.064,30.029a1.334,1.334,0,0,1,.457-1.043,1.934,1.934,0,0,1,2.373,0,1.42,1.42,0,0,1,0,2.087,1.934,1.934,0,0,1-2.373,0A1.334,1.334,0,0,1,68.064,30.029Zm13.8,7.295a5.8,5.8,0,0,1-.967,3.595,3.238,3.238,0,0,1-2.725,1.257,2.81,2.81,0,0,1-2.338-1.151L75.71,42H73.056V28.5h2.962v4.755a2.711,2.711,0,0,1,2.136-.94A3.239,3.239,0,0,1,80.9,33.589a5.826,5.826,0,0,1,.967,3.586Zm-2.971-.189a3.866,3.866,0,0,0-.365-1.952,1.229,1.229,0,0,0-1.121-.584,1.418,1.418,0,0,0-1.389.763v3.773a1.426,1.426,0,0,0,1.406.755,1.258,1.258,0,0,0,1.327-1.018A7.309,7.309,0,0,0,78.892,37.135Zm3.9.022a5.613,5.613,0,0,1,.554-2.536,3.96,3.96,0,0,1,1.591-1.709,4.791,4.791,0,0,1,2.435-.6,4.373,4.373,0,0,1,3.366,1.323,5.076,5.076,0,0,1,1.23,3.6v.105a4.925,4.925,0,0,1-1.235,3.529,4.384,4.384,0,0,1-3.344,1.305,4.434,4.434,0,0,1-3.261-1.217,4.761,4.761,0,0,1-1.327-3.3Zm2.962.185a3.538,3.538,0,0,0,.413,1.934,1.376,1.376,0,0,0,1.222.615q1.582,0,1.617-2.435v-.3q0-2.558-1.635-2.558-1.485,0-1.608,2.206Zm15.8.51,1.582-5.361h3.173l-3.876,11.1-.167.4a2.944,2.944,0,0,1-2.918,1.846,4.642,4.642,0,0,1-1.222-.175v-2.11h.387a2.026,2.026,0,0,0,.954-.18,1.094,1.094,0,0,0,.488-.647l.237-.633-3.3-9.605h3.164ZM22.879,62.175a5.809,5.809,0,0,1,.976-3.56,3.211,3.211,0,0,1,2.725-1.3,2.731,2.731,0,0,1,2.145,1V53.5h2.971V67H29.032l-.149-1.02a2.8,2.8,0,0,1-2.32,1.2,3.205,3.205,0,0,1-2.689-1.3A5.993,5.993,0,0,1,22.879,62.175Zm2.962.185q0,2.531,1.477,2.531a1.458,1.458,0,0,0,1.406-.826V60.443a1.419,1.419,0,0,0-1.389-.844q-1.371,0-1.485,2.215Zm12.138,4.816a4.889,4.889,0,0,1-3.542-1.305,4.507,4.507,0,0,1-1.354-3.4v-.246a5.84,5.84,0,0,1,.541-2.575A3.955,3.955,0,0,1,35.2,57.925a4.763,4.763,0,0,1,2.461-.611,4.117,4.117,0,0,1,3.164,1.244,4.887,4.887,0,0,1,1.16,3.467v1.151H36.1a2.135,2.135,0,0,0,.694,1.257,2.066,2.066,0,0,0,1.389.457,2.662,2.662,0,0,0,2.2-.984l1.354,1.6a3.784,3.784,0,0,1-1.569,1.217A5.3,5.3,0,0,1,37.979,67.176ZM37.645,59.6q-1.3,0-1.547,1.723h2.988v-.229a1.467,1.467,0,0,0-.36-1.1A1.434,1.434,0,0,0,37.645,59.6Zm10.512,4.729a.684.684,0,0,0-.4-.606,6.016,6.016,0,0,0-1.5-.475A6.853,6.853,0,0,1,44.43,62.6a3.062,3.062,0,0,1-1.1-.971,2.319,2.319,0,0,1-.378-1.31,2.628,2.628,0,0,1,1.081-2.158,4.453,4.453,0,0,1,2.83-.848,4.934,4.934,0,0,1,3.023.853,2.666,2.666,0,0,1,1.143,2.241H48.06q0-1.143-1.2-1.143a1.194,1.194,0,0,0-.782.259.8.8,0,0,0-.316.646.737.737,0,0,0,.387.642,3.654,3.654,0,0,0,1.235.4,10.671,10.671,0,0,1,1.49.378,2.706,2.706,0,0,1,2.145,2.646,2.491,2.491,0,0,1-1.156,2.118,5.068,5.068,0,0,1-2.993.817,5.172,5.172,0,0,1-2.18-.439,3.645,3.645,0,0,1-1.494-1.2,2.707,2.707,0,0,1-.536-1.591h2.769a1.145,1.145,0,0,0,.439.962,1.808,1.808,0,0,0,1.081.3,1.422,1.422,0,0,0,.91-.246A.787.787,0,0,0,48.157,64.328Zm13.069-2.013a5.735,5.735,0,0,1-1,3.538,3.2,3.2,0,0,1-2.694,1.323,2.742,2.742,0,0,1-2.153-.958v4.438H52.419V57.49h2.769l.088.879a2.742,2.742,0,0,1,2.241-1.055,3.224,3.224,0,0,1,2.733,1.3,5.805,5.805,0,0,1,.976,3.564Zm-2.962-.185q0-2.531-1.477-2.531a1.394,1.394,0,0,0-1.406.756V64.1a1.439,1.439,0,0,0,1.424.791q1.415,0,1.459-2.443ZM67.888,67a3.344,3.344,0,0,1-.281-.853,2.754,2.754,0,0,1-2.285,1.028,3.374,3.374,0,0,1-2.285-.813,2.588,2.588,0,0,1-.94-2.043,2.66,2.66,0,0,1,1.143-2.338,5.821,5.821,0,0,1,3.322-.791h.914v-.5q0-1.316-1.134-1.316a.927.927,0,0,0-1.055,1.042H62.325A2.655,2.655,0,0,1,63.5,58.175a4.931,4.931,0,0,1,2.993-.86,4.323,4.323,0,0,1,2.874.888,3.086,3.086,0,0,1,1.081,2.435v4.21a4.311,4.311,0,0,0,.4,2V67Zm-1.854-1.934a1.652,1.652,0,0,0,.918-.237,1.487,1.487,0,0,0,.523-.536V62.772h-.861q-1.547,0-1.547,1.389a.848.848,0,0,0,.272.655A.986.986,0,0,0,66.034,65.066Zm10.072-.176a1.317,1.317,0,0,0,.967-.338,1.241,1.241,0,0,0,.334-.945h2.777a3.288,3.288,0,0,1-1.121,2.566,4.168,4.168,0,0,1-2.887,1,4.22,4.22,0,0,1-3.27-1.3,5.125,5.125,0,0,1-1.2-3.6v-.123a5.792,5.792,0,0,1,.532-2.544,3.872,3.872,0,0,1,1.534-1.7,4.573,4.573,0,0,1,2.373-.593,4.116,4.116,0,0,1,2.944,1.028,3.647,3.647,0,0,1,1.09,2.786H77.407A1.626,1.626,0,0,0,77.046,60a1.244,1.244,0,0,0-.967-.4q-1.151,0-1.345,1.468a10.357,10.357,0,0,0-.062,1.283,4.068,4.068,0,0,0,.343,1.986A1.187,1.187,0,0,0,76.106,64.891Zm8.227-6.381a3.251,3.251,0,0,1,4.8-.264A4.186,4.186,0,0,1,89.949,61v6H86.978V61.067a1.674,1.674,0,0,0-.308-1.112,1.322,1.322,0,0,0-1.046-.356,1.424,1.424,0,0,0-1.292.58V67H81.371V53.5h2.962Zm6.891,3.647a5.613,5.613,0,0,1,.554-2.536,3.96,3.96,0,0,1,1.591-1.709,4.791,4.791,0,0,1,2.435-.6,4.373,4.373,0,0,1,3.366,1.323,5.076,5.076,0,0,1,1.23,3.6v.105a4.925,4.925,0,0,1-1.235,3.529,4.384,4.384,0,0,1-3.344,1.305,4.434,4.434,0,0,1-3.261-1.217,4.761,4.761,0,0,1-1.327-3.3Zm2.962.185a3.538,3.538,0,0,0,.413,1.934,1.376,1.376,0,0,0,1.222.615q1.582,0,1.617-2.435v-.3q0-2.558-1.635-2.558-1.485,0-1.608,2.206Z" transform="translate(673.647 540.101)" fill="#12263f"/>
      <g transform="matrix(1, 0, 0, 1, 26.03, -1.59)" filter="url(#Ellipse_4884)">
        <circle id="Ellipse_4884-2" data-name="Ellipse 4884" cx="142.278" cy="142.278" r="142.278" transform="translate(209.62 421.9) rotate(-45)" fill="#c08dd5" opacity="0.4"/>
      </g>
      <path id="Path_247173" data-name="Path 247173" d="M6.636,29V7.672h6.87a10.106,10.106,0,0,1,5.083,1.282,9.009,9.009,0,0,1,3.523,3.618,10.924,10.924,0,0,1,1.282,5.237v.981a10.987,10.987,0,0,1-1.238,5.251,9.048,9.048,0,0,1-3.486,3.633A9.884,9.884,0,0,1,13.653,29Zm5.142-17.358v13.4h1.787a4,4,0,0,0,3.4-1.575,7.717,7.717,0,0,0,1.187-4.68v-.923a7.653,7.653,0,0,0-1.187-4.658,4.069,4.069,0,0,0-3.457-1.567ZM33.472,29.293a8.148,8.148,0,0,1-5.9-2.175,7.512,7.512,0,0,1-2.256-5.662v-.41a9.734,9.734,0,0,1,.9-4.292,6.592,6.592,0,0,1,2.629-2.878,7.938,7.938,0,0,1,4.1-1.018,6.861,6.861,0,0,1,5.273,2.073,8.145,8.145,0,0,1,1.934,5.779v1.919H30.337a3.558,3.558,0,0,0,1.157,2.095,3.443,3.443,0,0,0,2.314.762,4.437,4.437,0,0,0,3.662-1.641l2.256,2.666a6.306,6.306,0,0,1-2.615,2.029A8.836,8.836,0,0,1,33.472,29.293Zm-.557-12.627q-2.168,0-2.578,2.871h4.98v-.381a2.445,2.445,0,0,0-.6-1.838A2.39,2.39,0,0,0,32.916,16.666Zm17.52,7.881a1.14,1.14,0,0,0-.659-1.011,10.027,10.027,0,0,0-2.5-.791,11.422,11.422,0,0,1-3.047-1.077,5.1,5.1,0,0,1-1.831-1.619,3.865,3.865,0,0,1-.63-2.183,4.381,4.381,0,0,1,1.8-3.6,7.422,7.422,0,0,1,4.717-1.414,8.223,8.223,0,0,1,5.039,1.421,4.443,4.443,0,0,1,1.9,3.735H50.274q0-1.9-2.007-1.9a1.989,1.989,0,0,0-1.3.432,1.338,1.338,0,0,0-.527,1.077,1.228,1.228,0,0,0,.645,1.069,6.09,6.09,0,0,0,2.058.674,17.785,17.785,0,0,1,2.483.63Q55.2,21.222,55.2,24.4a4.151,4.151,0,0,1-1.926,3.53,8.447,8.447,0,0,1-4.988,1.362,8.62,8.62,0,0,1-3.633-.732,6.075,6.075,0,0,1-2.49-1.992,4.511,4.511,0,0,1-.894-2.651h4.614a1.908,1.908,0,0,0,.732,1.6,3.013,3.013,0,0,0,1.8.505,2.37,2.37,0,0,0,1.516-.41A1.312,1.312,0,0,0,50.435,24.547Zm21.782-3.354a9.558,9.558,0,0,1-1.663,5.9,5.331,5.331,0,0,1-4.49,2.2,4.569,4.569,0,0,1-3.589-1.6v7.4H57.54V13.15h4.614l.146,1.465a4.57,4.57,0,0,1,3.735-1.758,5.374,5.374,0,0,1,4.556,2.161,9.676,9.676,0,0,1,1.626,5.94Zm-4.937-.308q0-4.219-2.461-4.219a2.323,2.323,0,0,0-2.344,1.26v6.24a2.4,2.4,0,0,0,2.373,1.318q2.358,0,2.432-4.072ZM83.321,29a5.574,5.574,0,0,1-.469-1.421,4.59,4.59,0,0,1-3.809,1.714,5.623,5.623,0,0,1-3.809-1.355,4.313,4.313,0,0,1-1.567-3.406,4.433,4.433,0,0,1,1.9-3.9,9.7,9.7,0,0,1,5.537-1.318h1.523v-.839q0-2.193-1.89-2.193a1.545,1.545,0,0,0-1.758,1.737H74.048A4.425,4.425,0,0,1,76,14.291a8.218,8.218,0,0,1,4.988-1.434,7.205,7.205,0,0,1,4.79,1.479,5.144,5.144,0,0,1,1.8,4.058v7.017a7.186,7.186,0,0,0,.674,3.34V29ZM80.23,25.777a2.754,2.754,0,0,0,1.531-.4,2.479,2.479,0,0,0,.872-.894V21.954H81.2q-2.578,0-2.578,2.314a1.413,1.413,0,0,0,.454,1.091A1.643,1.643,0,0,0,80.23,25.777Zm16.787-.293a2.2,2.2,0,0,0,1.611-.564,2.068,2.068,0,0,0,.557-1.575h4.629a5.48,5.48,0,0,1-1.868,4.277,6.947,6.947,0,0,1-4.812,1.67,7.034,7.034,0,0,1-5.449-2.168,8.542,8.542,0,0,1-1.992-6.006v-.205a9.654,9.654,0,0,1,.886-4.241,6.453,6.453,0,0,1,2.556-2.827,7.622,7.622,0,0,1,3.955-.989A6.86,6.86,0,0,1,102,14.571a6.079,6.079,0,0,1,1.816,4.644H99.185a2.71,2.71,0,0,0-.6-1.89,2.073,2.073,0,0,0-1.611-.659q-1.919,0-2.241,2.446a17.262,17.262,0,0,0-.1,2.139,6.78,6.78,0,0,0,.571,3.311A1.978,1.978,0,0,0,97.017,25.484ZM110.728,14.85a5.418,5.418,0,0,1,8-.439A6.977,6.977,0,0,1,120.088,19V29h-4.951V19.112a2.79,2.79,0,0,0-.513-1.853,2.2,2.2,0,0,0-1.743-.593,2.373,2.373,0,0,0-2.153.967V29h-4.937V6.5h4.937Zm11.484,6.079a9.355,9.355,0,0,1,.923-4.226,6.6,6.6,0,0,1,2.651-2.849,7.985,7.985,0,0,1,4.058-1,7.288,7.288,0,0,1,5.61,2.2,8.46,8.46,0,0,1,2.051,6v.176a8.208,8.208,0,0,1-2.058,5.881,7.307,7.307,0,0,1-5.574,2.175,7.39,7.39,0,0,1-5.435-2.029,7.935,7.935,0,0,1-2.212-5.5Zm4.937.308a5.9,5.9,0,0,0,.688,3.223,2.294,2.294,0,0,0,2.036,1.025q2.637,0,2.7-4.058v-.5q0-4.263-2.725-4.263-2.476,0-2.681,3.677Zm19.38-.278a9.682,9.682,0,0,1,1.626-5.933,5.352,5.352,0,0,1,4.541-2.168,4.552,4.552,0,0,1,3.574,1.67V6.5h4.951V29h-4.438l-.249-1.7a4.674,4.674,0,0,1-3.867,1.992,5.342,5.342,0,0,1-4.482-2.168A9.989,9.989,0,0,1,146.529,20.958Zm4.937.308q0,4.219,2.461,4.219a2.43,2.43,0,0,0,2.344-1.377V18.072a2.365,2.365,0,0,0-2.314-1.406q-2.285,0-2.476,3.691Zm20.229,8.027a8.148,8.148,0,0,1-5.9-2.175,7.512,7.512,0,0,1-2.256-5.662v-.41a9.734,9.734,0,0,1,.9-4.292,6.592,6.592,0,0,1,2.629-2.878,7.938,7.938,0,0,1,4.1-1.018,6.861,6.861,0,0,1,5.273,2.073,8.145,8.145,0,0,1,1.934,5.779v1.919H168.56a3.558,3.558,0,0,0,1.157,2.095,3.443,3.443,0,0,0,2.314.762,4.437,4.437,0,0,0,3.662-1.641l2.256,2.666a6.306,6.306,0,0,1-2.615,2.029A8.836,8.836,0,0,1,171.695,29.293Zm-.557-12.627q-2.168,0-2.578,2.871h4.98v-.381a2.445,2.445,0,0,0-.6-1.838A2.39,2.39,0,0,0,171.138,16.666ZM19.49,48.15l.161,1.86a5.45,5.45,0,0,1,4.526-2.153,4.012,4.012,0,0,1,4.058,2.388,5.275,5.275,0,0,1,4.658-2.388q4.819,0,4.951,5.83V64H32.894V54a3.022,3.022,0,0,0-.41-1.772,1.746,1.746,0,0,0-1.494-.557,2.339,2.339,0,0,0-2.183,1.3l.015.205V64H23.87V54.024a3.176,3.176,0,0,0-.4-1.8,1.741,1.741,0,0,0-1.509-.557,2.367,2.367,0,0,0-2.168,1.3V64H14.861V48.15ZM48.333,64.293a8.148,8.148,0,0,1-5.9-2.175,7.512,7.512,0,0,1-2.256-5.662v-.41a9.734,9.734,0,0,1,.9-4.292A6.592,6.592,0,0,1,43.7,48.875a7.938,7.938,0,0,1,4.1-1.018,6.861,6.861,0,0,1,5.273,2.073,8.145,8.145,0,0,1,1.934,5.779v1.919H45.2a3.558,3.558,0,0,0,1.157,2.095,3.443,3.443,0,0,0,2.314.762,4.437,4.437,0,0,0,3.662-1.641l2.256,2.666a6.306,6.306,0,0,1-2.615,2.029A8.836,8.836,0,0,1,48.333,64.293Zm-.557-12.627q-2.168,0-2.578,2.871h4.98v-.381a2.445,2.445,0,0,0-.6-1.838A2.39,2.39,0,0,0,47.776,51.666Zm18.809.952L64.959,52.5q-2.329,0-2.988,1.465V64H57.034V48.15h4.629l.161,2.036A3.823,3.823,0,0,1,65.3,47.857a4.814,4.814,0,0,1,1.377.176Zm8.2,7.866A2.2,2.2,0,0,0,76.4,59.92a2.068,2.068,0,0,0,.557-1.575h4.629a5.48,5.48,0,0,1-1.868,4.277,6.947,6.947,0,0,1-4.812,1.67,7.034,7.034,0,0,1-5.449-2.168,8.542,8.542,0,0,1-1.992-6.006v-.205a9.654,9.654,0,0,1,.886-4.241,6.453,6.453,0,0,1,2.556-2.827,7.622,7.622,0,0,1,3.955-.989,6.86,6.86,0,0,1,4.907,1.714,6.079,6.079,0,0,1,1.816,4.644H76.956a2.71,2.71,0,0,0-.6-1.89,2.073,2.073,0,0,0-1.611-.659q-1.919,0-2.241,2.446a17.262,17.262,0,0,0-.1,2.139,6.78,6.78,0,0,0,.571,3.311A1.978,1.978,0,0,0,74.788,60.484ZM92.6,64a5.574,5.574,0,0,1-.469-1.421,4.59,4.59,0,0,1-3.809,1.714,5.623,5.623,0,0,1-3.809-1.355,4.313,4.313,0,0,1-1.567-3.406,4.433,4.433,0,0,1,1.9-3.9,9.7,9.7,0,0,1,5.537-1.318h1.523v-.839q0-2.193-1.89-2.193a1.545,1.545,0,0,0-1.758,1.737H83.328a4.425,4.425,0,0,1,1.956-3.731,8.218,8.218,0,0,1,4.988-1.434,7.205,7.205,0,0,1,4.79,1.479,5.144,5.144,0,0,1,1.8,4.058v7.017a7.186,7.186,0,0,0,.674,3.34V64ZM89.51,60.777a2.754,2.754,0,0,0,1.531-.4,2.479,2.479,0,0,0,.872-.894V56.954H90.477q-2.578,0-2.578,2.314a1.413,1.413,0,0,0,.454,1.091A1.643,1.643,0,0,0,89.51,60.777ZM104.129,48.15l.161,1.86a5.375,5.375,0,0,1,4.526-2.153,4.522,4.522,0,0,1,3.7,1.479,7.044,7.044,0,0,1,1.267,4.453V64h-4.951V54a2.675,2.675,0,0,0-.483-1.765,2.236,2.236,0,0,0-1.758-.564,2.354,2.354,0,0,0-2.153,1.143V64H99.5V48.15Zm19.087,12.334a2.2,2.2,0,0,0,1.611-.564,2.068,2.068,0,0,0,.557-1.575h4.629a5.48,5.48,0,0,1-1.868,4.277,6.947,6.947,0,0,1-4.812,1.67,7.034,7.034,0,0,1-5.449-2.168,8.542,8.542,0,0,1-1.992-6.006v-.205a9.654,9.654,0,0,1,.886-4.241,6.453,6.453,0,0,1,2.556-2.827,7.622,7.622,0,0,1,3.955-.989,6.86,6.86,0,0,1,4.907,1.714,6.079,6.079,0,0,1,1.816,4.644h-4.629a2.71,2.71,0,0,0-.6-1.89,2.073,2.073,0,0,0-1.611-.659q-1.919,0-2.241,2.446a17.262,17.262,0,0,0-.1,2.139,6.78,6.78,0,0,0,.571,3.311A1.978,1.978,0,0,0,123.216,60.484ZM137.483,64h-4.966V48.15h4.966Zm-1.846-22.207h5.215l-4.072,4.6-4.028-.007ZM149.583,64a5.574,5.574,0,0,1-.469-1.421,4.59,4.59,0,0,1-3.809,1.714,5.623,5.623,0,0,1-3.809-1.355,4.313,4.313,0,0,1-1.567-3.406,4.433,4.433,0,0,1,1.9-3.9,9.7,9.7,0,0,1,5.537-1.318h1.523v-.839q0-2.193-1.89-2.193a1.545,1.545,0,0,0-1.758,1.737h-4.937a4.425,4.425,0,0,1,1.956-3.731,8.218,8.218,0,0,1,4.988-1.434,7.205,7.205,0,0,1,4.79,1.479,5.144,5.144,0,0,1,1.8,4.058v7.017a7.186,7.186,0,0,0,.674,3.34V64Zm-3.091-3.223a2.754,2.754,0,0,0,1.531-.4,2.479,2.479,0,0,0,.872-.894V56.954h-1.436q-2.578,0-2.578,2.314a1.413,1.413,0,0,0,.454,1.091A1.643,1.643,0,0,0,146.492,60.777Zm18.384-1.23a1.14,1.14,0,0,0-.659-1.011,10.027,10.027,0,0,0-2.5-.791,11.422,11.422,0,0,1-3.047-1.077,5.1,5.1,0,0,1-1.831-1.619,3.865,3.865,0,0,1-.63-2.183,4.381,4.381,0,0,1,1.8-3.6,7.422,7.422,0,0,1,4.717-1.414,8.223,8.223,0,0,1,5.039,1.421,4.443,4.443,0,0,1,1.9,3.735h-4.951q0-1.9-2.007-1.9a1.989,1.989,0,0,0-1.3.432,1.338,1.338,0,0,0-.527,1.077,1.228,1.228,0,0,0,.645,1.069,6.09,6.09,0,0,0,2.058.674,17.785,17.785,0,0,1,2.483.63q3.574,1.23,3.574,4.409a4.151,4.151,0,0,1-1.926,3.53,8.447,8.447,0,0,1-4.988,1.362,8.62,8.62,0,0,1-3.633-.732,6.075,6.075,0,0,1-2.49-1.992,4.511,4.511,0,0,1-.894-2.651h4.614a1.908,1.908,0,0,0,.732,1.6,3.013,3.013,0,0,0,1.8.505,2.37,2.37,0,0,0,1.516-.41A1.312,1.312,0,0,0,164.876,59.547Z" transform="translate(344.647 335.101)" fill="#7b1fa2"/>
      <g id="noun_Customs_Clearance_1328100" data-name="noun_Customs Clearance_1328100" transform="translate(384.647 430.101)" opacity="0.6">
        <g id="Group_129218" data-name="Group 129218">
          <g id="Group_129208" data-name="Group 129208">
            <path id="Path_204514" data-name="Path 204514" d="M103.168,20.508,92.522,2.5A5.254,5.254,0,0,0,87.982,0H36.477a5.254,5.254,0,0,0-4.54,2.5l-10.489,18c-.157.157-.157.626-.157.783V40.7H1.566A1.479,1.479,0,0,0,0,42.269v59.49a1.479,1.479,0,0,0,1.566,1.566h52.6a1.479,1.479,0,0,0,1.566-1.566V75.3H96.749a6.615,6.615,0,0,0,6.575-6.575V21.291C103.324,21.135,103.168,20.665,103.168,20.508ZM50.41,22.857h23.8v11.9H50.41ZM89.861,4.227,99.1,19.882H76.867L72.17,3.131H88.139A2.124,2.124,0,0,1,89.861,4.227Zm-20.978-1.1,4.853,16.595H50.879L55.732,3.131Zm-34.128,1.1a1.925,1.925,0,0,1,1.722-1.1H52.445L47.592,19.726H25.518ZM3.131,100.193V43.835h31.78v14.09a1.479,1.479,0,0,0,1.566,1.566H52.6v40.86H3.131ZM49.94,56.2H37.886V45.557Zm50.253,12.524a3.475,3.475,0,0,1-3.444,3.444H55.732v-14.4a2.082,2.082,0,0,0-.47-1.252L37.572,40.86a1.49,1.49,0,0,0-1.1-.313H24.422V22.857H47.279V36.32a1.479,1.479,0,0,0,1.566,1.566H75.771a1.479,1.479,0,0,0,1.566-1.566V22.857h22.857Z" fill="#7b1fa2"/>
          </g>
          <g id="Group_129209" data-name="Group 129209" transform="translate(58.081 44.148)">
            <path id="Path_204515" data-name="Path 204515" d="M46.963,28.67h0c-.157-.157-.313-.313-.47-.313a1.331,1.331,0,0,0-1.252,0c-.157.157-.313.157-.47.313h0l-7.2,7.358a1.55,1.55,0,0,0,2.192,2.192l4.54-4.7V50.274a1.566,1.566,0,0,0,3.131,0V33.679l4.54,4.7a1.55,1.55,0,1,0,2.192-2.192Z" transform="translate(-37.1 -28.2)" fill="#7b1fa2"/>
          </g>
          <g id="Group_129210" data-name="Group 129210" transform="translate(80.211 44.304)">
            <path id="Path_204516" data-name="Path 204516" d="M51.649,38.163a1.513,1.513,0,0,0,2.192,0l4.54-4.7V50.217a1.566,1.566,0,0,0,3.131,0V33.623l4.54,4.7a1.55,1.55,0,1,0,2.192-2.192l-7.2-7.358h0a1.513,1.513,0,0,0-2.192,0h0l-7.2,7.358A1.462,1.462,0,0,0,51.649,38.163Z" transform="translate(-51.236 -28.3)" fill="#7b1fa2"/>
          </g>
          <g id="Group_129211" data-name="Group 129211" transform="translate(25.831 76.084)">
            <path id="Path_204517" data-name="Path 204517" d="M39.513,48.6H18.066A1.479,1.479,0,0,0,16.5,50.166v17.69a1.479,1.479,0,0,0,1.566,1.566H39.513a1.479,1.479,0,0,0,1.566-1.566V50.166A1.569,1.569,0,0,0,39.513,48.6ZM37.948,66.134H19.631V51.574H37.948Z" transform="translate(-16.5 -48.6)" fill="#7b1fa2"/>
          </g>
          <g id="Group_129212" data-name="Group 129212" transform="translate(30.263 80.937)">
            <path id="Path_204518" data-name="Path 204518" d="M23.04,62.659a1.585,1.585,0,0,0,1.1.626,1.778,1.778,0,0,0,1.252-.47l8.923-8.454A1.55,1.55,0,1,0,32.12,52.17l-7.514,7.2-2.348-3.6A1.585,1.585,0,1,0,19.6,57.492Z" transform="translate(-19.331 -51.7)" fill="#7b1fa2"/>
          </g>
          <g id="Group_129213" data-name="Group 129213" transform="translate(5.636 51.036)">
            <path id="Path_204519" data-name="Path 204519" d="M5.166,35.731H27.709a1.566,1.566,0,1,0,0-3.131H5.166a1.566,1.566,0,1,0,0,3.131Z" transform="translate(-3.6 -32.6)" fill="#7b1fa2"/>
          </g>
          <g id="Group_129214" data-name="Group 129214" transform="translate(5.636 60.899)">
            <path id="Path_204520" data-name="Path 204520" d="M5.166,42.031H45.712a1.566,1.566,0,1,0,0-3.131H5.166a1.566,1.566,0,1,0,0,3.131Z" transform="translate(-3.6 -38.9)" fill="#7b1fa2"/>
          </g>
          <g id="Group_129215" data-name="Group 129215" transform="translate(5.636 70.605)">
            <path id="Path_204521" data-name="Path 204521" d="M5.166,48.231H45.712a1.566,1.566,0,1,0,0-3.131H5.166A1.479,1.479,0,0,0,3.6,46.666,1.569,1.569,0,0,0,5.166,48.231Z" transform="translate(-3.6 -45.1)" fill="#7b1fa2"/>
          </g>
          <g id="Group_129216" data-name="Group 129216" transform="translate(5.636 80.781)">
            <path id="Path_204522" data-name="Path 204522" d="M19.881,51.6H5.166a1.566,1.566,0,0,0,0,3.131H19.881a1.566,1.566,0,0,0,0-3.131Z" transform="translate(-3.6 -51.6)" fill="#7b1fa2"/>
          </g>
          <g id="Group_129217" data-name="Group 129217" transform="translate(5.636 90.957)">
            <path id="Path_204523" data-name="Path 204523" d="M19.881,58.1H5.166a1.566,1.566,0,1,0,0,3.131H19.881a1.566,1.566,0,1,0,0-3.131Z" transform="translate(-3.6 -58.1)" fill="#7b1fa2"/>
          </g>
        </g>
      </g>
    </g>
    <g id="OBJECTS-2" data-name="OBJECTS" transform="translate(457.578 350.493) rotate(-90)">
      <path id="Union_2" data-name="Union 2" d="M8553.946,10571.584h-54.29c6.051-10.4,5.966-18.5-.382-28.782h54.672v-7.146l21.537,21.536-21.537,21.537Z" transform="translate(-8452.673 -10534.016)" fill="#cfddfc"/>
      <path id="Union_5" data-name="Union 5" d="M8553.946,10571.584h-54.29c6.051-10.4,5.966-18.5-.382-28.782h54.672v-7.146l21.537,21.536-21.537,21.537Z" transform="translate(4877.198 -12491.007) rotate(60)" fill="#cfddfc"/>
      <path id="Union_6" data-name="Union 6" d="M21.538,35.929h54.29c-6.051-10.4-5.966-18.5.382-28.783H21.538V0L0,21.536,21.538,43.073Z" transform="matrix(-0.588, 0.809, -0.809, -0.588, 53.718, -142.428)" fill="#cfddfc"/>
      <path id="Union_7" data-name="Union 7" d="M54.672,35.93H.382C6.433,25.527,6.348,17.433,0,7.146H54.672V0L76.21,21.537,54.672,43.074Z" transform="translate(-170.61 -124.26) rotate(-106)" fill="#cfddfc"/>
      <path id="Union_8" data-name="Union 8" d="M21.538,35.929h54.29c-6.051-10.4-5.966-18.5.382-28.783H21.538V0L0,21.537,21.538,43.074Z" transform="translate(-191.617 245.868) rotate(-74)" fill="#cfddfc"/>
      <path id="Union_3" data-name="Union 3" d="M8553.946,10571.584h-54.29c6.051-10.4,5.966-18.5-.382-28.782h54.672v-7.146l21.537,21.536-21.537,21.537Z" transform="translate(11699.027 6493.303) rotate(157)" fill="#cfddfc"/>
      <path id="Union_4" data-name="Union 4" d="M21.537,35.929H75.828c-6.051-10.4-5.966-18.5.382-28.782H21.537V0L0,21.536,21.537,43.073Z" transform="matrix(0.921, 0.391, -0.391, 0.921, -311.356, -92.536)" fill="#cfddfc"/>
    </g>
  </g>
</svg>
