<svg xmlns="http://www.w3.org/2000/svg" width="161" height="161" viewBox="0 0 161 161">
  <g id="t7-ic1" transform="translate(-300 -1529)">
    <circle id="Ellipse_5489" data-name="Ellipse 5489" cx="80.5" cy="80.5" r="80.5" transform="translate(300 1529)" fill="#fff"/>
    <g id="noun_Barcode_4376506" transform="translate(331.598 1554)">
      <path id="Path_197828" data-name="Path 197828" d="M87.227,84.485,73.953,71.21A18.449,18.449,0,0,0,70.3,44.534v-28.7A5.84,5.84,0,0,0,64.461,10H15.835A5.84,5.84,0,0,0,10,15.835V64.461A5.84,5.84,0,0,0,15.835,70.3H44.563A18.415,18.415,0,0,0,71.21,73.953L84.485,87.227a1.939,1.939,0,1,0,2.742-2.743ZM45.011,59.6A14.573,14.573,0,0,1,55.047,45.73a1.944,1.944,0,0,0-1.206-3.7A18.448,18.448,0,0,0,42.433,66.406h-26.6a1.951,1.951,0,0,1-1.945-1.945V15.835a1.951,1.951,0,0,1,1.945-1.945H64.461a1.951,1.951,0,0,1,1.945,1.945V42.482a1.943,1.943,0,0,0-1.07,3.705A14.567,14.567,0,0,1,70,69.8a1.03,1.03,0,0,0-.117.1c-.039.039-.058.078-.1.117A14.572,14.572,0,0,1,45.011,59.6ZM62.516,43.066a1.945,1.945,0,1,1-1.945-1.945A1.951,1.951,0,0,1,62.516,43.066Zm-.973,13.615v7.78a1.945,1.945,0,0,1-3.89,0v-7.78a1.945,1.945,0,1,1,3.89,0Zm5.835-1.945v9.725a1.945,1.945,0,0,1-3.89,0V54.736a1.945,1.945,0,0,1,3.89,0Zm-11.67,0v9.725a1.945,1.945,0,0,1-3.89,0V54.736a1.945,1.945,0,1,1,3.89,0ZM37.23,25.56V31.4a1.951,1.951,0,0,1-1.945,1.945H19.725A1.951,1.951,0,0,1,17.78,31.4V19.725a1.951,1.951,0,0,1,1.945-1.945H29.45a1.945,1.945,0,1,1,0,3.89H21.67v7.78H33.34V25.56a1.945,1.945,0,0,1,3.89,0Zm0-5.835a1.945,1.945,0,1,1-1.945-1.945A1.951,1.951,0,0,1,37.23,19.725Z"/>
    </g>
  </g>
</svg>
