<svg xmlns="http://www.w3.org/2000/svg" width="483.817" height="484.378" viewBox="0 0 483.817 484.378">
  <path id="circle2" d="M1123.049,546.778a243.391,243.391,0,0,1-48.75-4.921,240.452,240.452,0,0,1-86.5-36.445,242.867,242.867,0,0,1-87.643-106.555,241.2,241.2,0,0,1-14.1-45.464,244.216,244.216,0,0,1-4.915-48.8h5c0,130.786,106.277,237.189,236.909,237.189s236.909-106.4,236.909-237.189S1253.681,67.4,1123.049,67.4v-5a243.386,243.386,0,0,1,48.75,4.921,240.45,240.45,0,0,1,86.5,36.445,242.866,242.866,0,0,1,87.643,106.555,241.182,241.182,0,0,1,14.1,45.464,244.775,244.775,0,0,1,0,97.609,241.025,241.025,0,0,1-36.4,86.6,242.657,242.657,0,0,1-106.431,87.746,240.5,240.5,0,0,1-45.412,14.114A243.391,243.391,0,0,1,1123.049,546.778Z" transform="translate(-881.14 -62.4)" fill="#5f4ad9"/>
</svg>
