<svg id="t-a2" xmlns="http://www.w3.org/2000/svg" width="742.077" height="280.208" viewBox="0 0 742.077 280.208">
  <g id="Layer_1" data-name="Layer 1" transform="translate(0 0)">
    <path id="Path_225839" data-name="Path 225839" d="M946.115,456.329a2.959,2.959,0,0,0,2.81-3.09V432.1a2.827,2.827,0,1,0-5.626,0v21.134a2.959,2.959,0,0,0,2.816,3.09Z" transform="translate(-423.209 -203.161)" fill="#333"/>
    <path id="Path_225840" data-name="Path 225840" d="M792.856,456.163a2.964,2.964,0,0,0,2.816-3.09V431.939a2.856,2.856,0,1,0-5.632,0v21.134A2.965,2.965,0,0,0,792.856,456.163Z" transform="translate(-357.48 -202.995)" fill="#333"/>
    <path id="Path_225841" data-name="Path 225841" d="M791.144,443.741h88.93c2.1,0,3.81-1.211,3.81-2.673s-1.714-2.668-3.81-2.668h-88.93c-2.1,0-3.8,1.188-3.8,2.668S789.031,443.741,791.144,443.741Z" transform="translate(-356.34 -207.195)" fill="#333"/>
    <path id="Path_225842" data-name="Path 225842" d="M791.144,465.461h88.93c2.1,0,3.81-1.194,3.81-2.673s-1.714-2.667-3.81-2.667h-88.93c-2.1,0-3.8,1.188-3.8,2.667S789.031,465.461,791.144,465.461Z" transform="translate(-356.34 -216.508)" fill="#333"/>
    <rect id="Rectangle_42615" data-name="Rectangle 42615" width="3.547" height="17.753" transform="translate(715.335 227.062) rotate(-45)" fill="#333"/>
    <rect id="Rectangle_42616" data-name="Rectangle 42616" width="7.031" height="24.139" transform="translate(726.717 226.716)" fill="#333"/>
    <rect id="Rectangle_42617" data-name="Rectangle 42617" width="4.193" height="5.763" transform="translate(729.054 233.016)" fill="#333"/>
    <rect id="Rectangle_42618" data-name="Rectangle 42618" width="2.102" height="5.763" transform="translate(731.144 233.016)" fill="#af1d1d"/>
    <path id="Path_225843" data-name="Path 225843" d="M980.066,450.414h33.575c1.222,0,2.211-1.388,2.211-3.107V432.13c0-1.714-.988-3.09-2.211-3.09H980.066c-1.222,0-2.216,1.382-2.216,3.09V447.3C977.85,449.009,978.844,450.414,980.066,450.414Z" transform="translate(-438.03 -203.181)" fill="#333"/>
    <rect id="Rectangle_42619" data-name="Rectangle 42619" width="5.592" height="36.346" transform="translate(404.497 222.186)" fill="#333"/>
    <rect id="Rectangle_42620" data-name="Rectangle 42620" width="9.436" height="4.198" transform="translate(402.497 225.322)" fill="#333"/>
    <path id="Path_225844" data-name="Path 225844" d="M746.708,482.361l-4.056-7.031-4.073,7.031Z" transform="translate(-335.431 -223.03)" fill="#333"/>
    <path id="Path_225845" data-name="Path 225845" d="M743.43,443.211l2.7,2.7,19.489-19.5-2.685-2.7Z" transform="translate(-337.511 -200.896)" fill="#333"/>
    <rect id="Rectangle_42621" data-name="Rectangle 42621" width="3.701" height="9.316" transform="translate(406.861 235.695)" fill="#333"/>
    <rect id="Rectangle_42622" data-name="Rectangle 42622" width="5.592" height="36.346" transform="translate(479.473 222.186)" fill="#333"/>
    <rect id="Rectangle_42623" data-name="Rectangle 42623" width="9.436" height="4.198" transform="translate(477.473 225.322)" fill="#333"/>
    <path id="Path_225846" data-name="Path 225846" d="M877.968,482.361l-4.056-7.031-4.073,7.031Z" transform="translate(-391.715 -223.03)" fill="#333"/>
    <path id="Path_225847" data-name="Path 225847" d="M874.69,443.211l2.7,2.7,19.489-19.5-2.685-2.7Z" transform="translate(-393.795 -200.896)" fill="#333"/>
    <rect id="Rectangle_42624" data-name="Rectangle 42624" width="3.701" height="9.316" transform="translate(481.837 235.695)" fill="#333"/>
    <path id="Path_225848" data-name="Path 225848" d="M1131.4,456.562a27.007,27.007,0,0,1-23.7,26.812,25.71,25.71,0,0,1-3.336.211,27.024,27.024,0,0,1-27.041-27.024,27.773,27.773,0,0,1,.571-5.415,27.058,27.058,0,0,1,26.5-21.637,24.26,24.26,0,0,1,3.313.217,27.029,27.029,0,0,1,23.185,21.42A27.772,27.772,0,0,1,1131.4,456.562Z" transform="translate(-480.682 -203.383)" fill="#333"/>
    <g id="Group_129916" data-name="Group 129916" transform="translate(606.039 235.547)" opacity="0.5">
      <path id="Path_225849" data-name="Path 225849" d="M1093.78,463.627A17.65,17.65,0,1,0,1111.421,446a17.65,17.65,0,0,0-17.641,17.627Z" transform="translate(-1093.78 -446)"/>
    </g>
    <path id="Path_225850" data-name="Path 225850" d="M1099.64,466.119A14.28,14.28,0,1,0,1103.812,456a14.28,14.28,0,0,0-4.172,10.116Z" transform="translate(-490.253 -212.945)" fill="#e2e2e2"/>
    <path id="Path_225851" data-name="Path 225851" d="M1105.37,468.574A11.03,11.03,0,1,0,1116.4,457.55a11.03,11.03,0,0,0-11.026,11.024Z" transform="translate(-492.71 -215.406)"/>
    <path id="Path_225852" data-name="Path 225852" d="M1131.4,456.562a27.007,27.007,0,0,1-23.7,26.812,25.71,25.71,0,0,1-3.336.211,27.024,27.024,0,0,1-27.041-27.024,27.773,27.773,0,0,1,.571-5.415,27.058,27.058,0,0,1,26.5-21.637,24.26,24.26,0,0,1,3.313.217,27.029,27.029,0,0,1,23.185,21.42A27.772,27.772,0,0,1,1131.4,456.562Z" transform="translate(-480.682 -203.383)" fill="#fff" opacity="0.3"/>
    <path id="Path_225853" data-name="Path 225853" d="M1143.081,456.562a27.035,27.035,0,0,1-27.041,27.024,25.469,25.469,0,0,1-3.324-.211A27.024,27.024,0,0,1,1089,456.562a27.754,27.754,0,0,1,.571-5.415,27.029,27.029,0,0,1,23.151-21.42,24.843,24.843,0,0,1,3.347-.217,27.069,27.069,0,0,1,26.5,21.637A28.215,28.215,0,0,1,1143.081,456.562Z" transform="translate(-485.691 -203.383)" fill="#333"/>
    <g id="Group_129917" data-name="Group 129917" transform="translate(612.705 235.546)" opacity="0.5">
      <path id="Path_225854" data-name="Path 225854" d="M1105.45,463.627A17.644,17.644,0,1,0,1123.094,446a17.645,17.645,0,0,0-17.645,17.627Z" transform="translate(-1105.45 -446)"/>
    </g>
    <path id="Path_225855" data-name="Path 225855" d="M1111.31,466.119A14.28,14.28,0,1,0,1115.482,456a14.28,14.28,0,0,0-4.172,10.116Z" transform="translate(-495.257 -212.945)" fill="#e2e2e2"/>
    <path id="Path_225856" data-name="Path 225856" d="M1115.53,467.91a11.881,11.881,0,1,0,3.472-8.422A11.887,11.887,0,0,0,1115.53,467.91Z" transform="translate(-497.067 -214.741)"/>
    <path id="Path_225857" data-name="Path 225857" d="M1138.749,448.441H1075.26c1.091-14.092,14.851-25.241,31.747-25.241S1137.647,434.35,1138.749,448.441Z" transform="translate(-479.799 -200.677)"/>
    <path id="Path_225858" data-name="Path 225858" d="M1136.687,448.441a28.2,28.2,0,0,1,.537,5.415,27.035,27.035,0,0,1-27.041,27.024,26.335,26.335,0,0,0-6.66,0,27.024,27.024,0,0,1-27.041-27.024,27.773,27.773,0,0,1,.571-5.415h-1.714c1.091-14.092,14.851-25.241,31.747-25.241s30.639,11.15,31.742,25.241Z" transform="translate(-479.833 -200.677)" opacity="0.5"/>
    <path id="Path_225859" data-name="Path 225859" d="M1018.093,456.562a27.006,27.006,0,0,1-23.7,26.812,25.852,25.852,0,0,1-3.342.211A27.023,27.023,0,0,1,964,456.562a27.755,27.755,0,0,1,.537-5.415,27.058,27.058,0,0,1,26.5-21.637,24.26,24.26,0,0,1,3.313.217,27.041,27.041,0,0,1,23.191,21.42A27.764,27.764,0,0,1,1018.093,456.562Z" transform="translate(-432.091 -203.383)" fill="#333"/>
    <g id="Group_129918" data-name="Group 129918" transform="translate(541.317 235.546)" opacity="0.5">
      <path id="Path_225860" data-name="Path 225860" d="M980.47,463.627A17.644,17.644,0,1,0,998.114,446a17.645,17.645,0,0,0-17.644,17.627Z" transform="translate(-980.47 -446)"/>
    </g>
    <path id="Path_225861" data-name="Path 225861" d="M986.33,466.119A14.28,14.28,0,1,0,990.5,456,14.28,14.28,0,0,0,986.33,466.119Z" transform="translate(-441.666 -212.945)" fill="#e2e2e2"/>
    <path id="Path_225862" data-name="Path 225862" d="M992.06,468.574a11.018,11.018,0,1,0,3.227-7.8A11.024,11.024,0,0,0,992.06,468.574Z" transform="translate(-444.123 -215.406)"/>
    <path id="Path_225863" data-name="Path 225863" d="M1018.093,456.562a27.006,27.006,0,0,1-23.7,26.812,25.852,25.852,0,0,1-3.342.211A27.023,27.023,0,0,1,964,456.562a27.755,27.755,0,0,1,.537-5.415,27.058,27.058,0,0,1,26.5-21.637,24.26,24.26,0,0,1,3.313.217,27.041,27.041,0,0,1,23.191,21.42A27.764,27.764,0,0,1,1018.093,456.562Z" transform="translate(-432.091 -203.383)" fill="#fff" opacity="0.3"/>
    <path id="Path_225864" data-name="Path 225864" d="M1029.753,456.562a27.035,27.035,0,0,1-27.052,27.024,25.408,25.408,0,0,1-3.324-.211,27.018,27.018,0,0,1-23.716-26.812,27.779,27.779,0,0,1,.537-5.415,27.041,27.041,0,0,1,23.151-21.42,24.936,24.936,0,0,1,3.353-.217,27.058,27.058,0,0,1,26.5,21.637A27.754,27.754,0,0,1,1029.753,456.562Z" transform="translate(-437.091 -203.383)" fill="#333"/>
    <g id="Group_129919" data-name="Group 129919" transform="translate(547.977 235.546)" opacity="0.5">
      <path id="Path_225865" data-name="Path 225865" d="M992.13,463.627A17.65,17.65,0,1,0,1009.767,446,17.65,17.65,0,0,0,992.13,463.627Z" transform="translate(-992.13 -446)"/>
    </g>
    <path id="Path_225866" data-name="Path 225866" d="M998,466.119A14.28,14.28,0,1,0,1002.172,456,14.28,14.28,0,0,0,998,466.119Z" transform="translate(-446.67 -212.945)" fill="#e2e2e2"/>
    <path id="Path_225867" data-name="Path 225867" d="M1002.22,467.91a11.881,11.881,0,1,0,3.466-8.416,11.887,11.887,0,0,0-3.466,8.416Z" transform="translate(-448.48 -214.742)"/>
    <path id="Path_225868" data-name="Path 225868" d="M1025.461,448.441H962c1.091-14.092,14.851-25.241,31.742-25.241S1024.352,434.35,1025.461,448.441Z" transform="translate(-431.234 -200.677)"/>
    <path id="Path_225869" data-name="Path 225869" d="M1023.333,448.441a27.769,27.769,0,0,1,.537,5.415,27.035,27.035,0,0,1-27.052,27.024,25.4,25.4,0,0,1-3.324-.211,25.835,25.835,0,0,1-3.341.211,27.024,27.024,0,0,1-27.035-27.024,27.774,27.774,0,0,1,.537-5.415H961.94c1.091-14.092,14.851-25.241,31.742-25.241s30.639,11.15,31.747,25.241Z" transform="translate(-431.208 -200.677)" opacity="0.5"/>
    <rect id="Rectangle_42625" data-name="Rectangle 42625" width="252.637" height="12.601" transform="translate(399.419 216.468)" fill="#666"/>
    <rect id="Rectangle_42626" data-name="Rectangle 42626" width="447.559" height="32.65" transform="translate(199.784 175.45)" fill="#62616a"/>
    <rect id="Rectangle_42627" data-name="Rectangle 42627" width="447.559" height="32.65" transform="translate(199.784 175.45)" fill="#e2e2e2"/>
    <rect id="Rectangle_42628" data-name="Rectangle 42628" width="447.559" height="32.65" transform="translate(199.784 175.45)"/>
    <path id="Path_225870" data-name="Path 225870" d="M827.224,326.37H373.118c-2.736,0-4.958.434-4.958.948v47.227c0,.531,2.222.948,4.958.948H827.224c2.736,0,4.958-.417,4.958-.948V327.3C832.182,326.8,829.96,326.37,827.224,326.37ZM815.7,359.014H454.657V342.849H815.7Z" transform="translate(-176.596 -159.156)" fill="#e2e2e2"/>
    <rect id="Rectangle_42629" data-name="Rectangle 42629" width="252.637" height="12.601" transform="translate(399.419 216.468)" fill="#fff" opacity="0.5"/>
    <path id="Path_225871" data-name="Path 225871" d="M832.182,327.288v47.227c0,.531-2.222.948-4.958.948H373.118c-2.736,0-4.958-.417-4.958-.948V327.288c0-.514,2.222-.948,4.958-.948H827.224C829.96,326.357,832.182,326.791,832.182,327.288Z" transform="translate(-176.596 -159.144)" fill="#fff" opacity="0.5"/>
    <path id="Path_225872" data-name="Path 225872" d="M1091.561,380.16h-.051c0-.268.034-.526.051-.8Z" transform="translate(-486.767 -181.878)" fill="#a02e2e"/>
    <path id="Path_225873" data-name="Path 225873" d="M1005.34,380.181h-.04v-.771C1005.317,379.673,1005.317,379.924,1005.34,380.181Z" transform="translate(-449.8 -181.9)" fill="#a02e2e"/>
    <rect id="Rectangle_42630" data-name="Rectangle 42630" width="16.479" height="45.525" transform="translate(508.93 167.214)" fill="#e2e2e2"/>
    <rect id="Rectangle_42631" data-name="Rectangle 42631" width="16.479" height="41.275" transform="translate(348.496 171.458)" fill="#e2e2e2"/>
    <rect id="Rectangle_42632" data-name="Rectangle 42632" width="262.616" height="12.601" transform="translate(475.948 216.468)" fill="#666"/>
    <path id="Path_225874" data-name="Path 225874" d="M1243.034,380.16H1243c0-.268.034-.526.051-.8Z" transform="translate(-551.726 -181.878)" fill="#a02e2e"/>
    <path id="Path_225875" data-name="Path 225875" d="M1156.8,380.181h-.04v-.771C1156.777,379.673,1156.777,379.924,1156.8,380.181Z" transform="translate(-514.746 -181.9)" fill="#a02e2e"/>
    <rect id="Rectangle_42633" data-name="Rectangle 42633" width="447.559" height="32.65" transform="translate(286.298 175.45)" fill="#62616a"/>
    <rect id="Rectangle_42634" data-name="Rectangle 42634" width="447.559" height="32.65" transform="translate(286.298 175.45)" fill="#e2e2e2"/>
    <rect id="Rectangle_42635" data-name="Rectangle 42635" width="447.559" height="32.65" transform="translate(286.298 175.45)"/>
    <path id="Path_225876" data-name="Path 225876" d="M536.069,342.836H967.144v16.171H536.069Zm-11.521-16.479c-2.736,0-4.958.434-4.958.948v47.233c0,.526,2.222.943,4.958.943H978.654c2.736,0,4.952-.417,4.952-.943v-47.25c0-.514-2.216-.948-4.952-.948Z" transform="translate(-241.529 -159.144)" fill="#e2e2e2"/>
    <rect id="Rectangle_42636" data-name="Rectangle 42636" width="16.479" height="45.525" transform="translate(595.444 167.214)" fill="#e2e2e2"/>
    <rect id="Rectangle_42637" data-name="Rectangle 42637" width="16.479" height="41.275" transform="translate(435.01 171.458)" fill="#e2e2e2"/>
    <path id="Path_225877" data-name="Path 225877" d="M1048.465,456.329a2.959,2.959,0,0,0,2.81-3.09V432.1a2.827,2.827,0,1,0-5.626,0v21.134A2.959,2.959,0,0,0,1048.465,456.329Z" transform="translate(-467.096 -203.161)" fill="#333"/>
    <path id="Path_225878" data-name="Path 225878" d="M895.226,456.163a2.964,2.964,0,0,0,2.816-3.09V431.939a2.856,2.856,0,1,0-5.632,0v21.134A2.965,2.965,0,0,0,895.226,456.163Z" transform="translate(-401.376 -202.995)" fill="#333"/>
    <path id="Path_225879" data-name="Path 225879" d="M893.474,443.741h88.919c2.1,0,3.8-1.211,3.8-2.673s-1.714-2.668-3.8-2.668H893.474c-2.1,0-3.8,1.188-3.8,2.668S891.372,443.741,893.474,443.741Z" transform="translate(-400.219 -207.195)" fill="#333"/>
    <path id="Path_225880" data-name="Path 225880" d="M893.474,465.461h88.919c2.1,0,3.8-1.194,3.8-2.673s-1.714-2.667-3.8-2.667H893.474c-2.1,0-3.8,1.188-3.8,2.667S891.372,465.461,893.474,465.461Z" transform="translate(-400.219 -216.508)" fill="#333"/>
    <rect id="Rectangle_42638" data-name="Rectangle 42638" width="55.355" height="27.343" transform="translate(126.179 60.353)" fill="#f7931e"/>
    <rect id="Rectangle_42639" data-name="Rectangle 42639" width="55.355" height="27.343" transform="translate(126.179 60.353)" fill="#fff" opacity="0.5"/>
    <rect id="Rectangle_42640" data-name="Rectangle 42640" width="54.813" height="4.667" transform="translate(225.962 221.449)" fill="#333"/>
    <rect id="Rectangle_42641" data-name="Rectangle 42641" width="28.874" height="9.756" transform="translate(238.922 216.366)" fill="#333"/>
    <rect id="Rectangle_42642" data-name="Rectangle 42642" width="313.618" height="15.497" transform="translate(5.198 225.796)" fill="#666"/>
    <path id="Path_225881" data-name="Path 225881" d="M162.871,202.2v44.765l-9.3,4.958v79.785H41.89V272.755l5.2-22.06,9.276-39.23,1.108-4.632c.457-1.908,8.568-3.541,19.718-4.261h.074c3.816-.24,8-.371,12.321-.371Z" transform="translate(-36.692 -105.913)" fill="#f7931e"/>
    <path id="Path_225882" data-name="Path 225882" d="M50.764,400.269v32.37H41.785a8.979,8.979,0,0,1-8.362-5.918,9.237,9.237,0,0,1-.623-3.382V400.857a3.1,3.1,0,0,1,3.107-3.107H48.245A2.519,2.519,0,0,1,50.764,400.269Z" transform="translate(-32.794 -189.764)" fill="#666"/>
    <path id="Path_225883" data-name="Path 225883" d="M48.1,348.22v11.521c0,3.427-1.788,6.192-4,6.192h-4V342h4C46.326,342,48.1,344.787,48.1,348.22Z" transform="translate(-35.924 -165.858)" fill="#fff"/>
    <path id="Path_225884" data-name="Path 225884" d="M48.1,371v3.684a3.836,3.836,0,0,1-4,3.661h-4V371Z" transform="translate(-35.924 -178.294)" fill="#fbb03b"/>
    <path id="Path_225885" data-name="Path 225885" d="M189.379,139.29v29.92h-4.455c-2.468,0-4.461,1.342-4.461,3v3.016l-76.678.371h-.074l10.7-9.373c5.918-4.947,24.088-12.709,40.555-17.33Z" transform="translate(-63.2 -78.937)" fill="#f7931e"/>
    <rect id="Rectangle_42643" data-name="Rectangle 42643" width="4.215" height="6.889" transform="translate(310.728 230.046)" fill="#333"/>
    <rect id="Rectangle_42644" data-name="Rectangle 42644" width="1.931" height="6.889" transform="translate(313.013 230.046)" fill="#af1d1d"/>
    <path id="Path_225886" data-name="Path 225886" d="M351.606,304.733v15.5H50.76v1.582H41.781a8.979,8.979,0,0,1-8.362-5.918,9.242,9.242,0,0,1-.628-3.382V290.03a3.107,3.107,0,0,1,3.113-3.107h2.085v-7.911H36.96V255.078h1.028v-9.3l5.2-22.06,9.276-39.23,1.108-4.632c.451-1.908,8.568-3.541,19.718-4.261L84,166.222c5.918-4.947,24.088-12.709,40.555-17.33l34.386-9.6v29.92h-4.455c-2.473,0-4.461,1.342-4.461,3v3.016h8.916v44.765l-9.3,4.958v79.785h109.1v-4.347H271.7V295.3h28.874v5.084h12.978v4.347Z" transform="translate(-32.79 -78.937)" fill="#fff" opacity="0.5"/>
    <path id="Path_225887" data-name="Path 225887" d="M113.516,456.552a27.006,27.006,0,0,1-23.7,26.812,25.851,25.851,0,0,1-3.336.211A27.024,27.024,0,0,1,59.44,456.552a27.767,27.767,0,0,1,.537-5.415,27.064,27.064,0,0,1,26.5-21.637,24.246,24.246,0,0,1,3.307.217,27.035,27.035,0,0,1,23.191,21.42A27.767,27.767,0,0,1,113.516,456.552Z" transform="translate(-44.217 -203.378)" fill="#333"/>
    <g id="Group_129920" data-name="Group 129920" transform="translate(24.613 235.512)" opacity="0.5">
      <path id="Path_225888" data-name="Path 225888" d="M75.88,463.6a17.639,17.639,0,1,0,5.164-12.487A17.644,17.644,0,0,0,75.88,463.6Z" transform="translate(-75.88 -445.94)"/>
    </g>
    <path id="Path_225889" data-name="Path 225889" d="M81.74,466.109a14.28,14.28,0,1,0,4.172-10.116A14.28,14.28,0,0,0,81.74,466.109Z" transform="translate(-53.78 -212.941)" fill="#e2e2e2"/>
    <path id="Path_225890" data-name="Path 225890" d="M87.47,468.564A11.024,11.024,0,1,0,98.494,457.54,11.024,11.024,0,0,0,87.47,468.564Z" transform="translate(-56.237 -215.402)"/>
    <path id="Path_225891" data-name="Path 225891" d="M113.516,456.552a27.006,27.006,0,0,1-23.7,26.812,25.851,25.851,0,0,1-3.336.211A27.024,27.024,0,0,1,59.44,456.552a27.767,27.767,0,0,1,.537-5.415,27.064,27.064,0,0,1,26.5-21.637,24.246,24.246,0,0,1,3.307.217,27.035,27.035,0,0,1,23.191,21.42A27.767,27.767,0,0,1,113.516,456.552Z" transform="translate(-44.217 -203.378)" fill="#fff" opacity="0.3"/>
    <path id="Path_225892" data-name="Path 225892" d="M125.181,456.552a27.035,27.035,0,0,1-27.041,27.024,25.406,25.406,0,0,1-3.324-.211A27.018,27.018,0,0,1,71.1,456.552a27.765,27.765,0,0,1,.537-5.415,27.046,27.046,0,0,1,23.151-21.42,24.923,24.923,0,0,1,3.353-.217,27.058,27.058,0,0,1,26.5,21.637A27.767,27.767,0,0,1,125.181,456.552Z" transform="translate(-49.217 -203.378)" fill="#333"/>
    <g id="Group_129921" data-name="Group 129921" transform="translate(31.273 235.512)" opacity="0.5">
      <path id="Path_225893" data-name="Path 225893" d="M87.54,463.6a17.65,17.65,0,1,0,17.644-17.656A17.65,17.65,0,0,0,87.54,463.6Z" transform="translate(-87.54 -445.94)"/>
    </g>
    <path id="Path_225894" data-name="Path 225894" d="M93.4,466.109a14.28,14.28,0,1,0,4.172-10.116A14.28,14.28,0,0,0,93.4,466.109Z" transform="translate(-58.779 -212.941)" fill="#e2e2e2"/>
    <path id="Path_225895" data-name="Path 225895" d="M112.05,474.1a3.65,3.65,0,1,0,3.644-3.65A3.65,3.65,0,0,0,112.05,474.1Z" transform="translate(-66.776 -220.938)"/>
    <path id="Path_225896" data-name="Path 225896" d="M120.849,448.431H57.36C58.451,434.34,72.211,423.19,89.1,423.19S119.741,434.34,120.849,448.431Z" transform="translate(-43.326 -200.673)"/>
    <path id="Path_225897" data-name="Path 225897" d="M118.756,448.431a27.765,27.765,0,0,1,.543,5.415A27.035,27.035,0,0,1,92.258,480.87a25.4,25.4,0,0,1-3.324-.211,25.829,25.829,0,0,1-3.336.211,27.024,27.024,0,0,1-27.041-27.024,27.766,27.766,0,0,1,.537-5.415H57.38c1.091-14.092,14.851-25.241,31.742-25.241s30.639,11.15,31.747,25.241Z" transform="translate(-43.334 -200.673)" opacity="0.5"/>
    <path id="Path_225898" data-name="Path 225898" d="M511.811,456.552a27.006,27.006,0,0,1-23.7,26.812,25.764,25.764,0,0,1-3.336.211,27.024,27.024,0,0,1-27.041-27.024,27.763,27.763,0,0,1,.543-5.415,27.058,27.058,0,0,1,26.5-21.637,24.333,24.333,0,0,1,3.313.217,27.035,27.035,0,0,1,23.185,21.42A27.768,27.768,0,0,1,511.811,456.552Z" transform="translate(-215.003 -203.378)" fill="#333"/>
    <g id="Group_129922" data-name="Group 129922" transform="translate(252.117 235.512)" opacity="0.5">
      <path id="Path_225899" data-name="Path 225899" d="M474.17,463.6a17.639,17.639,0,1,0,5.162-12.486A17.65,17.65,0,0,0,474.17,463.6Z" transform="translate(-474.17 -445.94)"/>
    </g>
    <path id="Path_225900" data-name="Path 225900" d="M480,466.109a14.28,14.28,0,1,0,4.172-10.116A14.28,14.28,0,0,0,480,466.109Z" transform="translate(-224.553 -212.941)" fill="#e2e2e2"/>
    <path id="Path_225901" data-name="Path 225901" d="M485.76,468.564a11.024,11.024,0,1,0,11.024-11.024,11.024,11.024,0,0,0-11.024,11.024Z" transform="translate(-227.023 -215.402)"/>
    <path id="Path_225902" data-name="Path 225902" d="M511.811,456.552a27.006,27.006,0,0,1-23.7,26.812,25.764,25.764,0,0,1-3.336.211,27.024,27.024,0,0,1-27.041-27.024,27.763,27.763,0,0,1,.543-5.415,27.058,27.058,0,0,1,26.5-21.637,24.333,24.333,0,0,1,3.313.217,27.035,27.035,0,0,1,23.185,21.42A27.768,27.768,0,0,1,511.811,456.552Z" transform="translate(-215.003 -203.378)" fill="#fff" opacity="0.3"/>
    <path id="Path_225903" data-name="Path 225903" d="M523.471,456.552a27.035,27.035,0,0,1-27.041,27.024,25.4,25.4,0,0,1-3.324-.211,27.018,27.018,0,0,1-23.716-26.812,27.764,27.764,0,0,1,.543-5.415,27.035,27.035,0,0,1,23.151-21.42,24.773,24.773,0,0,1,3.347-.217,27.058,27.058,0,0,1,26.5,21.637,27.763,27.763,0,0,1,.543,5.415Z" transform="translate(-220.003 -203.378)" fill="#333"/>
    <g id="Group_129923" data-name="Group 129923" transform="translate(258.777 235.512)" opacity="0.5">
      <path id="Path_225904" data-name="Path 225904" d="M485.83,463.6a17.65,17.65,0,1,0,17.644-17.656A17.65,17.65,0,0,0,485.83,463.6Z" transform="translate(-485.83 -445.94)"/>
    </g>
    <path id="Path_225905" data-name="Path 225905" d="M491.7,466.109a14.28,14.28,0,1,0,4.172-10.116A14.28,14.28,0,0,0,491.7,466.109Z" transform="translate(-229.57 -212.941)" fill="#e2e2e2"/>
    <path id="Path_225906" data-name="Path 225906" d="M495.92,467.91a11.881,11.881,0,1,0,3.472-8.422,11.887,11.887,0,0,0-3.472,8.422Z" transform="translate(-231.379 -214.741)"/>
    <path id="Path_225907" data-name="Path 225907" d="M519.139,448.431H455.65c1.091-14.092,14.851-25.241,31.742-25.241S518.037,434.34,519.139,448.431Z" transform="translate(-214.112 -200.673)"/>
    <path id="Path_225908" data-name="Path 225908" d="M517.071,448.431a27.764,27.764,0,0,1,.571,5.415A27.035,27.035,0,0,1,490.6,480.87a25.4,25.4,0,0,1-3.324-.211,25.763,25.763,0,0,1-3.336.211A27.024,27.024,0,0,1,456.9,453.846a27.773,27.773,0,0,1,.543-5.415H455.73c1.091-14.092,14.851-25.241,31.742-25.241s30.645,11.15,31.747,25.241Z" transform="translate(-214.146 -200.673)" opacity="0.5"/>
    <path id="Path_225909" data-name="Path 225909" d="M101.708,397.749v34.889H50.117c-5.078,0-9.436-2.45-11.167-5.918V398.983a4.724,4.724,0,0,1,3.313-1.234Z" transform="translate(-35.431 -189.763)" fill="#666"/>
    <path id="Path_225910" data-name="Path 225910" d="M101.708,397.749v34.889H50.117c-5.078,0-9.436-2.45-11.167-5.918V398.983a4.724,4.724,0,0,1,3.313-1.234Z" transform="translate(-35.431 -189.763)" fill="#fff" opacity="0.5"/>
    <rect id="Rectangle_42645" data-name="Rectangle 42645" width="57.292" height="7.094" transform="translate(48.689 249.615)"/>
    <rect id="Rectangle_42646" data-name="Rectangle 42646" width="57.292" height="7.094" transform="translate(274.04 249.615)"/>
    <path id="Path_225911" data-name="Path 225911" d="M3.6,0H26.013a3.6,3.6,0,0,1,3.6,3.6V26.338a3.6,3.6,0,0,1-3.6,3.6H3.6a3.6,3.6,0,0,1-3.6-3.6V3.6A3.6,3.6,0,0,1,3.6,0Z" transform="translate(198.995 225.796) rotate(180)" fill="#666"/>
    <path id="Path_225912" data-name="Path 225912" d="M330.33,378.98l1.177-1.16,13.018,13.166,13.023-13.166,1.171,1.16-13.035,13.183,13.035,13.178-1.171,1.16-13.023-13.166L331.507,406.5l-1.177-1.16,13.035-13.178Z" transform="translate(-160.374 -181.218)" opacity="0.5"/>
    <path id="Path_225913" data-name="Path 225913" d="M211.83,463.953l214.446,4.073.1-4.4L211.944,459.56Z" transform="translate(-109.562 -216.268)" fill="#333"/>
    <rect id="Rectangle_42647" data-name="Rectangle 42647" width="54.807" height="4.667" transform="translate(281.311 221.449)" fill="#333"/>
    <path id="Path_225914" data-name="Path 225914" d="M512.478,417.5V412.41H441.232V417.5H428.38v4.672H538.536V417.5Z" transform="translate(-202.418 -196.05)" fill="#333"/>
    <path id="Path_225915" data-name="Path 225915" d="M512.478,417.5V412.41H441.232V417.5H428.38v4.672H538.536V417.5Z" transform="translate(-202.418 -196.05)" fill="#fff" opacity="0.5"/>
    <rect id="Rectangle_42648" data-name="Rectangle 42648" width="28.88" height="9.756" transform="translate(294.272 216.36)" fill="#333"/>
    <rect id="Rectangle_42649" data-name="Rectangle 42649" width="313.624" height="15.497" transform="translate(60.547 225.796)" fill="#666"/>
    <path id="Path_225916" data-name="Path 225916" d="M138.79,331.7H250.466V251.919l9.311-4.958V202.19H186.5c-17.136,0-31.508,2.079-32.119,4.638l-1.1,4.632L144,250.7l-5.209,22.06Z" transform="translate(-78.243 -105.908)" fill="#f7931e"/>
    <path id="Path_225917" data-name="Path 225917" d="M129.7,423.334V400.852a3.107,3.107,0,0,1,3.107-3.1h12.338a2.525,2.525,0,0,1,2.525,2.525v32.359H138.69a9.139,9.139,0,0,1-8.991-9.3Z" transform="translate(-74.344 -189.764)" fill="#666"/>
    <rect id="Rectangle_42650" data-name="Rectangle 42650" width="43.171" height="39.424" transform="translate(95.522 106.352)" fill="#29abe2"/>
    <rect id="Rectangle_42651" data-name="Rectangle 42651" width="30.691" height="31.77" transform="translate(103.485 111.767)" fill="#fff" opacity="0.5"/>
    <path id="Path_225918" data-name="Path 225918" d="M138.676,348.225v11.521c0,3.427-1.788,6.192-4,6.192h-10.03a2.382,2.382,0,0,1-2.388-2.376V344.4a2.388,2.388,0,0,1,2.388-2.388h10.03C136.888,342,138.676,344.792,138.676,348.225Z" transform="translate(-71.155 -165.863)" fill="#f2f2f2"/>
    <path id="Path_225919" data-name="Path 225919" d="M138.676,371v3.684a3.836,3.836,0,0,1-4,3.661h-10.03a2.382,2.382,0,0,1-2.388-2.376V371Z" transform="translate(-71.155 -178.294)" fill="#fbb03b"/>
    <path id="Path_225920" data-name="Path 225920" d="M132.427,342v23.933h-7.78a2.382,2.382,0,0,1-2.388-2.376V344.393a2.388,2.388,0,0,1,2.388-2.388Z" transform="translate(-71.155 -165.858)" fill="#fff" opacity="0.5"/>
    <path id="Path_225921" data-name="Path 225921" d="M49.787,344.393v19.164a2.382,2.382,0,0,1-2.388,2.376H39.62V342H47.4a2.388,2.388,0,0,1,2.388,2.393Z" transform="translate(-35.719 -165.858)" fill="#f2f2f2"/>
    <path id="Path_225922" data-name="Path 225922" d="M49.787,371v4.969a2.382,2.382,0,0,1-2.388,2.376H39.62V371Z" transform="translate(-35.719 -178.294)" fill="#fbb03b"/>
    <path id="Path_225923" data-name="Path 225923" d="M49.787,344.393v19.164a2.382,2.382,0,0,1-2.388,2.376H39.62V342H47.4a2.388,2.388,0,0,1,2.388,2.393Z" transform="translate(-35.719 -165.858)" fill="#fff" opacity="0.5"/>
    <path id="Path_225924" data-name="Path 225924" d="M211.307,166.224c5.912-4.958,24.082-12.715,40.555-17.336l34.392-9.608V169.2h-4.467c-2.462,0-4.455,1.348-4.455,3v3.01l-76.752.371Z" transform="translate(-104.738 -78.933)" fill="#f7931e"/>
    <g id="Group_129924" data-name="Group 129924" transform="translate(88.988 101.188)" opacity="0.5">
      <path id="Path_225925" data-name="Path 225925" d="M188.58,318.217V210.78h55.075V325.443H220.522Zm53-105.375h-50.94V316.578l30.108,6.8h20.832Z" transform="translate(-188.58 -210.78)" fill="#2f3031"/>
    </g>
    <path id="Path_225926" data-name="Path 225926" d="M171.13,219.82v39.43H155.61l2.113-8.956,1.3-5.449,4-16.942,1.908-8.083Z" transform="translate(-85.455 -113.468)" fill="#29abe2"/>
    <g id="Group_129925" data-name="Group 129925" transform="translate(129.212 151.997)" opacity="0.5">
      <path id="Path_225927" data-name="Path 225927" d="M259,303.02v-3.29h10.539v3.29a2.776,2.776,0,0,1-2.776,2.776h-4.987A2.776,2.776,0,0,1,259,303.02Zm8.477-1.234h-6.437v1.954h6.415Z" transform="translate(-259 -299.73)"/>
    </g>
    <path id="Path_225928" data-name="Path 225928" d="M419.288,446.3v9.139a11.841,11.841,0,0,1-11.835,11.824H354.188a11.841,11.841,0,0,1-11.858-11.824V446.3a11.835,11.835,0,0,1,11.858-11.818h53.265A11.835,11.835,0,0,1,419.288,446.3Z" transform="translate(-165.52 -205.514)" fill="#e2e2e2"/>
    <path id="Path_225929" data-name="Path 225929" d="M419.288,446.3v9.139a11.841,11.841,0,0,1-11.835,11.824H354.188a11.841,11.841,0,0,1-11.858-11.824V446.3a11.835,11.835,0,0,1,11.858-11.818h53.265A11.835,11.835,0,0,1,419.288,446.3Z" transform="translate(-165.52 -205.514)" fill="#fff" opacity="0.5"/>
    <rect id="Rectangle_42652" data-name="Rectangle 42652" width="4.215" height="6.889" transform="translate(366.078 230.046)" fill="#333"/>
    <rect id="Rectangle_42653" data-name="Rectangle 42653" width="1.931" height="6.889" transform="translate(368.362 230.046)" fill="#af1d1d"/>
    <path id="Path_225930" data-name="Path 225930" d="M586.195,420.48c-16.445,0-29.874,11.15-30.942,25.247-.04-.617-.1-1.205-.1-1.8,0-14.948,13.9-27.052,31.045-27.052s31.056,12.1,31.056,27.052c0,.571-.057,1.188-.1,1.8C616.069,431.63,602.64,420.48,586.195,420.48Z" transform="translate(-256.777 -197.963)" fill="#333"/>
    <path id="Path_225931" data-name="Path 225931" d="M586.272,423.19c16.445,0,29.874,11.15,30.953,25.247h-61.9C556.4,434.34,569.827,423.19,586.272,423.19Z" transform="translate(-256.854 -200.673)"/>
    <path id="Path_225932" data-name="Path 225932" d="M611.461,456.552a27.023,27.023,0,1,1-7.909-19.131,27.041,27.041,0,0,1,7.909,19.131Z" transform="translate(-257.733 -203.378)" fill="#333"/>
    <g id="Group_129926" data-name="Group 129926" transform="translate(309.043 235.512)" opacity="0.5">
      <path id="Path_225933" data-name="Path 225933" d="M573.83,463.6a17.65,17.65,0,1,0,17.644-17.656A17.65,17.65,0,0,0,573.83,463.6Z" transform="translate(-573.83 -445.94)"/>
    </g>
    <path id="Path_225934" data-name="Path 225934" d="M579.69,466.109a14.28,14.28,0,1,0,4.172-10.116A14.28,14.28,0,0,0,579.69,466.109Z" transform="translate(-267.3 -212.941)" fill="#e2e2e2"/>
    <path id="Path_225935" data-name="Path 225935" d="M585.42,468.564a11.03,11.03,0,1,0,11.026-11.024,11.03,11.03,0,0,0-11.026,11.024Z" transform="translate(-269.757 -215.402)"/>
    <path id="Path_225936" data-name="Path 225936" d="M611.461,456.552a27.023,27.023,0,1,1-7.909-19.131,27.041,27.041,0,0,1,7.909,19.131Z" transform="translate(-257.733 -203.378)" fill="#fff" opacity="0.3"/>
    <path id="Path_225937" data-name="Path 225937" d="M566.29,456.546a27.029,27.029,0,1,0,7.915-19.128,27.039,27.039,0,0,0-7.915,19.128Z" transform="translate(-261.554 -203.378)" fill="#333"/>
    <g id="Group_129927" data-name="Group 129927" transform="translate(314.127 235.512)" opacity="0.5">
      <path id="Path_225938" data-name="Path 225938" d="M582.73,463.6a17.65,17.65,0,1,0,17.644-17.656A17.65,17.65,0,0,0,582.73,463.6Z" transform="translate(-582.73 -445.94)"/>
    </g>
    <path id="Path_225939" data-name="Path 225939" d="M588.59,466.109a14.28,14.28,0,1,0,4.172-10.116A14.28,14.28,0,0,0,588.59,466.109Z" transform="translate(-271.116 -212.941)" fill="#e2e2e2"/>
    <path id="Path_225940" data-name="Path 225940" d="M594.32,468.564a11.03,11.03,0,1,0,11.026-11.024,11.03,11.03,0,0,0-11.026,11.024Z" transform="translate(-273.573 -215.402)"/>
    <path id="Path_225941" data-name="Path 225941" d="M187.686,420.48c-16.5,0-29.96,11.15-31.033,25.247-.04-.617-.1-1.205-.1-1.8,0-14.948,13.937-27.052,31.136-27.052s31.142,12.1,31.142,27.052c0,.571-.063,1.188-.109,1.8C217.646,431.63,204.183,420.48,187.686,420.48Z" transform="translate(-85.858 -197.963)" fill="#333"/>
    <path id="Path_225942" data-name="Path 225942" d="M187.763,423.19c16.5,0,29.96,11.15,31.033,25.247H156.73C157.8,434.34,171.267,423.19,187.763,423.19Z" transform="translate(-85.935 -200.673)"/>
    <path id="Path_225943" data-name="Path 225943" d="M213.091,456.562a27.024,27.024,0,1,1-7.912-19.134,27.041,27.041,0,0,1,7.912,19.134Z" transform="translate(-86.913 -203.383)" fill="#333"/>
    <g id="Group_129928" data-name="Group 129928" transform="translate(81.493 235.546)" opacity="0.5">
      <path id="Path_225944" data-name="Path 225944" d="M175.46,463.627A17.644,17.644,0,1,0,193.1,446a17.644,17.644,0,0,0-17.644,17.627Z" transform="translate(-175.46 -446)"/>
    </g>
    <path id="Path_225945" data-name="Path 225945" d="M181.32,466.119A14.28,14.28,0,1,0,185.492,456a14.28,14.28,0,0,0-4.172,10.116Z" transform="translate(-96.479 -212.945)" fill="#e2e2e2"/>
    <path id="Path_225946" data-name="Path 225946" d="M187.05,468.574a11.024,11.024,0,1,0,11.024-11.024A11.024,11.024,0,0,0,187.05,468.574Z" transform="translate(-98.936 -215.406)"/>
    <path id="Path_225947" data-name="Path 225947" d="M213.091,456.562a27.024,27.024,0,1,1-7.912-19.134,27.041,27.041,0,0,1,7.912,19.134Z" transform="translate(-86.913 -203.383)" fill="#fff" opacity="0.3"/>
    <path id="Path_225948" data-name="Path 225948" d="M168,456.546a27.029,27.029,0,1,0,7.915-19.128A27.039,27.039,0,0,0,168,456.546Z" transform="translate(-90.768 -203.378)" fill="#333"/>
    <g id="Group_129929" data-name="Group 129929" transform="translate(86.623 235.512)" opacity="0.5">
      <path id="Path_225949" data-name="Path 225949" d="M184.44,463.6a17.65,17.65,0,1,0,17.644-17.656A17.65,17.65,0,0,0,184.44,463.6Z" transform="translate(-184.44 -445.94)"/>
    </g>
    <path id="Path_225950" data-name="Path 225950" d="M190.3,466.109a14.28,14.28,0,1,0,4.172-10.116,14.28,14.28,0,0,0-4.172,10.116Z" transform="translate(-100.33 -212.941)" fill="#e2e2e2"/>
    <path id="Path_225951" data-name="Path 225951" d="M209,474.1a3.65,3.65,0,1,0,3.644-3.65A3.65,3.65,0,0,0,209,474.1Z" transform="translate(-108.348 -220.938)"/>
    <g id="Group_129933" data-name="Group 129933" transform="translate(95.522 106.352)" opacity="0.5">
      <g id="Group_129930" data-name="Group 129930" transform="translate(21.1)">
        <path id="Path_225952" data-name="Path 225952" d="M259.031,219.82v22.088L236.96,219.82Z" transform="translate(-236.96 -219.82)" fill="#fff"/>
      </g>
      <g id="Group_129931" data-name="Group 129931" transform="translate(0 19.095)">
        <path id="Path_225953" data-name="Path 225953" d="M220.355,273.585H200.02V253.25Z" transform="translate(-200.02 -253.25)" fill="#fff"/>
      </g>
      <g id="Group_129932" data-name="Group 129932">
        <path id="Path_225954" data-name="Path 225954" d="M243.191,259.056v.194h-5.318L200.02,221.385V219.82h3.964Z" transform="translate(-200.02 -219.82)" fill="#fff"/>
      </g>
    </g>
    <g id="Group_129936" data-name="Group 129936" transform="translate(72.269 106.352)" opacity="0.5">
      <g id="Group_129934" data-name="Group 129934" transform="translate(5.295)">
        <path id="Path_225955" data-name="Path 225955" d="M176.691,219.82v16.2L168.58,227.9l1.908-8.083Z" transform="translate(-168.58 -219.82)" fill="#fff"/>
      </g>
      <g id="Group_129935" data-name="Group 129935" transform="translate(0 25.024)">
        <path id="Path_225956" data-name="Path 225956" d="M172.716,275.757v2.279h-4.45l-8.956-8.956,1.3-5.449Z" transform="translate(-159.31 -263.63)" fill="#fff"/>
      </g>
    </g>
    <path id="Path_225957" data-name="Path 225957" d="M359.94,446.3v9.111a11.847,11.847,0,0,0,11.87,11.83h53.282a11.835,11.835,0,0,0,11.824-11.83V446.3a11.835,11.835,0,0,0-11.824-11.83H371.81A11.847,11.847,0,0,0,359.94,446.3Z" transform="translate(-173.071 -205.509)" fill="#e2e2e2"/>
    <g id="Group_129937" data-name="Group 129937" transform="translate(201.337 228.961)">
      <rect id="Rectangle_42654" data-name="Rectangle 42654" width="0.891" height="32.764" transform="translate(49.466)" fill="#363535"/>
      <rect id="Rectangle_42655" data-name="Rectangle 42655" width="0.857" height="32.764" transform="translate(39.613)" fill="#363535"/>
      <rect id="Rectangle_42656" data-name="Rectangle 42656" width="0.891" height="32.764" transform="translate(29.68)" fill="#363535"/>
      <rect id="Rectangle_42657" data-name="Rectangle 42657" width="0.857" height="32.764" transform="translate(19.826)" fill="#363535"/>
      <rect id="Rectangle_42658" data-name="Rectangle 42658" width="0.857" height="32.764" transform="translate(9.933)" fill="#363535"/>
      <rect id="Rectangle_42659" data-name="Rectangle 42659" width="0.891" height="32.764" fill="#363535"/>
    </g>
    <g id="Group_129938" data-name="Group 129938" transform="translate(201.337 228.961)">
      <rect id="Rectangle_42660" data-name="Rectangle 42660" width="0.891" height="32.764" transform="translate(49.466)" fill="#363535"/>
      <rect id="Rectangle_42661" data-name="Rectangle 42661" width="0.857" height="32.764" transform="translate(39.613)" fill="#363535"/>
      <rect id="Rectangle_42662" data-name="Rectangle 42662" width="0.891" height="32.764" transform="translate(29.68)" fill="#363535"/>
      <rect id="Rectangle_42663" data-name="Rectangle 42663" width="0.857" height="32.764" transform="translate(19.826)" fill="#363535"/>
      <rect id="Rectangle_42664" data-name="Rectangle 42664" width="0.857" height="32.764" transform="translate(9.933)" fill="#363535"/>
      <rect id="Rectangle_42665" data-name="Rectangle 42665" width="0.891" height="32.764" fill="#363535"/>
    </g>
    <path id="Path_225958" data-name="Path 225958" d="M370.7,443.516a2.787,2.787,0,1,0,2.787-2.776,2.788,2.788,0,0,0-2.787,2.776Z" transform="translate(-177.685 -208.198)"/>
    <path id="Path_225959" data-name="Path 225959" d="M319.114,209.448V207.3h-9.95v8.894H307.09v44.554h2.073V300.28a2.905,2.905,0,0,0,2.525,3.1h.057a2.882,2.882,0,0,0,2.593-3.1V260.742h2.445V216.188h-2.445v-6.74Z" transform="translate(-150.409 -108.099)" fill="#2f3031"/>
    <path id="Path_225960" data-name="Path 225960" d="M310.3,205v6.746h2.422V256.3h-2.445V295.83a2.863,2.863,0,0,1-2.593,3.1h-.063a2.884,2.884,0,0,1-2.519-3.1V256.292H303.02V211.738H305.1V202.85h9.95V205Z" transform="translate(-148.664 -106.191)" fill="#e2e2e2"/>
    <path id="Path_225961" data-name="Path 225961" d="M307.658,202.85V298.9a2.884,2.884,0,0,1-2.519-3.1v-39.51H303.06V211.738h2.079V202.85Z" transform="translate(-148.681 -106.191)" fill="#fff"/>
    <path id="Path_225962" data-name="Path 225962" d="M114.73,218.42l-1.708,7.209-7.574,32.022H54.48l1.954-8.277,7.323-30.953Z" transform="translate(-42.091 -112.868)" fill="#29abe2"/>
    <path id="Path_225963" data-name="Path 225963" d="M124.574,231.04,117,263.062H81.42l.251-1.068,7.306-30.953Z" transform="translate(-53.642 -118.279)" fill="#fff" opacity="0.5"/>
    <g id="Group_129943" data-name="Group 129943" transform="translate(14.343 105.552)" opacity="0.5">
      <g id="Group_129939" data-name="Group 129939" transform="translate(28.554 0)">
        <path id="Path_225964" data-name="Path 225964" d="M137.632,218.42l-9.282,39.23H107.89l22.157-39.23Z" transform="translate(-107.89 -218.42)" fill="#fff"/>
      </g>
      <g id="Group_129940" data-name="Group 129940" transform="translate(0 0)">
        <path id="Path_225965" data-name="Path 225965" d="M75.379,218.42,57.9,249.373l7.323-30.953Z" transform="translate(-57.9 -218.42)" fill="#fff"/>
      </g>
      <g id="Group_129941" data-name="Group 129941" transform="translate(0.543 0)">
        <path id="Path_225966" data-name="Path 225966" d="M86.742,218.42,64.573,257.65H58.85l22.157-39.23Z" transform="translate(-58.85 -218.42)" fill="#fff"/>
      </g>
      <g id="Group_129942" data-name="Group 129942" transform="translate(14.383 0)">
        <path id="Path_225967" data-name="Path 225967" d="M110.972,218.42,88.8,257.65H83.08l22.151-39.23Z" transform="translate(-83.08 -218.42)" fill="#fff"/>
      </g>
    </g>
    <rect id="Rectangle_42666" data-name="Rectangle 42666" width="30.588" height="2.645" transform="translate(17.473 178.129)" fill="#2f3031"/>
    <rect id="Rectangle_42667" data-name="Rectangle 42667" width="30.588" height="2.645" transform="translate(17.473 183.287)" fill="#2f3031"/>
    <rect id="Rectangle_42668" data-name="Rectangle 42668" width="30.588" height="2.645" transform="translate(17.473 188.439)" fill="#2f3031"/>
    <rect id="Rectangle_42669" data-name="Rectangle 42669" width="30.588" height="2.645" transform="translate(17.473 193.592)" fill="#2f3031"/>
    <rect id="Rectangle_42670" data-name="Rectangle 42670" width="30.588" height="2.645" transform="translate(17.473 198.75)" fill="#2f3031"/>
    <rect id="Rectangle_42671" data-name="Rectangle 42671" width="30.588" height="2.645" transform="translate(17.473 178.129)" fill="#2f3031"/>
    <rect id="Rectangle_42672" data-name="Rectangle 42672" width="30.588" height="2.645" transform="translate(17.473 183.287)" fill="#2f3031"/>
    <rect id="Rectangle_42673" data-name="Rectangle 42673" width="30.588" height="2.645" transform="translate(17.473 188.439)" fill="#2f3031"/>
    <rect id="Rectangle_42674" data-name="Rectangle 42674" width="30.588" height="2.645" transform="translate(17.473 193.592)" fill="#2f3031"/>
    <rect id="Rectangle_42675" data-name="Rectangle 42675" width="30.588" height="2.645" transform="translate(17.473 198.75)" fill="#2f3031"/>
    <rect id="Rectangle_42676" data-name="Rectangle 42676" width="57.292" height="7.094" transform="translate(631.03 250.563)"/>
    <path id="Path_225968" data-name="Path 225968" d="M1206.035,420.48c-16.451,0-29.874,11.15-30.948,25.247-.04-.617-.1-1.205-.1-1.8,0-14.948,13.9-27.052,31.045-27.052s31.056,12.1,31.056,27.052c0,.571-.057,1.188-.1,1.8C1235.909,431.63,1222.48,420.48,1206.035,420.48Z" transform="translate(-522.563 -197.963)" fill="#333"/>
    <path id="Path_225969" data-name="Path 225969" d="M1206.108,423.19c16.445,0,29.874,11.15,30.953,25.247h-61.9C1176.211,434.34,1189.657,423.19,1206.108,423.19Z" transform="translate(-522.636 -200.673)"/>
    <path id="Path_225970" data-name="Path 225970" d="M1231.3,456.552a27.023,27.023,0,1,1-7.912-19.134A27.041,27.041,0,0,1,1231.3,456.552Z" transform="translate(-523.519 -203.378)" fill="#333"/>
    <g id="Group_129944" data-name="Group 129944" transform="translate(663.097 235.512)" opacity="0.5">
      <path id="Path_225971" data-name="Path 225971" d="M1193.67,463.6a17.639,17.639,0,1,0,5.162-12.486,17.65,17.65,0,0,0-5.162,12.486Z" transform="translate(-1193.67 -445.94)"/>
    </g>
    <path id="Path_225972" data-name="Path 225972" d="M1199.53,466.109a14.28,14.28,0,1,0,4.172-10.116,14.28,14.28,0,0,0-4.172,10.116Z" transform="translate(-533.086 -212.941)" fill="#e2e2e2"/>
    <path id="Path_225973" data-name="Path 225973" d="M1205.26,468.564a11.024,11.024,0,1,0,11.024-11.024,11.024,11.024,0,0,0-11.024,11.024Z" transform="translate(-535.543 -215.402)"/>
    <path id="Path_225974" data-name="Path 225974" d="M1231.3,456.552a27.023,27.023,0,1,1-7.912-19.134A27.041,27.041,0,0,1,1231.3,456.552Z" transform="translate(-523.519 -203.378)" fill="#fff" opacity="0.3"/>
    <path id="Path_225975" data-name="Path 225975" d="M1186.12,456.546a27.041,27.041,0,1,0,27.043-27.046,27.039,27.039,0,0,0-27.043,27.046Z" transform="translate(-527.336 -203.378)" fill="#333"/>
    <g id="Group_129945" data-name="Group 129945" transform="translate(668.181 235.512)" opacity="0.5">
      <path id="Path_225976" data-name="Path 225976" d="M1202.57,463.6a17.639,17.639,0,1,0,5.162-12.486,17.65,17.65,0,0,0-5.162,12.486Z" transform="translate(-1202.57 -445.94)"/>
    </g>
    <path id="Path_225977" data-name="Path 225977" d="M1208.43,466.109a14.28,14.28,0,1,0,4.172-10.116A14.28,14.28,0,0,0,1208.43,466.109Z" transform="translate(-536.902 -212.941)" fill="#e2e2e2"/>
    <path id="Path_225978" data-name="Path 225978" d="M1214.16,468.564a11.024,11.024,0,1,0,11.024-11.024,11.024,11.024,0,0,0-11.024,11.024Z" transform="translate(-539.359 -215.402)"/>
    <rect id="Rectangle_42677" data-name="Rectangle 42677" width="57.292" height="7.094" transform="translate(563.679 250.563)"/>
    <path id="Path_225979" data-name="Path 225979" d="M1093,420.48c-16.445,0-29.874,11.15-30.942,25.247-.04-.617-.1-1.205-.1-1.8,0-14.948,13.9-27.052,31.045-27.052s31.056,12.1,31.056,27.052c0,.571-.057,1.188-.1,1.8C1122.879,431.63,1109.45,420.48,1093,420.48Z" transform="translate(-474.096 -197.963)" fill="#333"/>
    <path id="Path_225980" data-name="Path 225980" d="M1093.082,423.19c16.445,0,29.874,11.15,30.953,25.247h-61.9C1063.2,434.34,1076.637,423.19,1093.082,423.19Z" transform="translate(-474.173 -200.673)"/>
    <path id="Path_225981" data-name="Path 225981" d="M1118.271,456.552a27.024,27.024,0,1,1-7.909-19.131,27.041,27.041,0,0,1,7.909,19.131Z" transform="translate(-475.052 -203.378)" fill="#333"/>
    <g id="Group_129946" data-name="Group 129946" transform="translate(598.534 235.512)" opacity="0.5">
      <path id="Path_225982" data-name="Path 225982" d="M1080.64,463.6a17.65,17.65,0,1,0,17.644-17.656A17.65,17.65,0,0,0,1080.64,463.6Z" transform="translate(-1080.64 -445.94)"/>
    </g>
    <path id="Path_225983" data-name="Path 225983" d="M1086.5,466.109a14.28,14.28,0,1,0,4.172-10.116,14.28,14.28,0,0,0-4.172,10.116Z" transform="translate(-484.619 -212.941)" fill="#e2e2e2"/>
    <path id="Path_225984" data-name="Path 225984" d="M1092.23,468.564a11.03,11.03,0,1,0,11.026-11.024,11.03,11.03,0,0,0-11.026,11.024Z" transform="translate(-487.076 -215.402)"/>
    <path id="Path_225985" data-name="Path 225985" d="M1118.271,456.552a27.024,27.024,0,1,1-7.909-19.131,27.041,27.041,0,0,1,7.909,19.131Z" transform="translate(-475.052 -203.378)" fill="#fff" opacity="0.3"/>
    <path id="Path_225986" data-name="Path 225986" d="M1073.1,456.546a27.029,27.029,0,1,0,7.915-19.128,27.04,27.04,0,0,0-7.915,19.128Z" transform="translate(-478.873 -203.378)" fill="#333"/>
    <g id="Group_129947" data-name="Group 129947" transform="translate(603.618 235.512)" opacity="0.5">
      <path id="Path_225987" data-name="Path 225987" d="M1089.54,463.6a17.65,17.65,0,1,0,17.645-17.656A17.65,17.65,0,0,0,1089.54,463.6Z" transform="translate(-1089.54 -445.94)"/>
    </g>
    <path id="Path_225988" data-name="Path 225988" d="M1095.4,466.109a14.28,14.28,0,1,0,4.172-10.116,14.28,14.28,0,0,0-4.172,10.116Z" transform="translate(-488.435 -212.941)" fill="#e2e2e2"/>
    <path id="Path_225989" data-name="Path 225989" d="M1101.13,468.564a11.03,11.03,0,1,0,11.026-11.024,11.03,11.03,0,0,0-11.026,11.024Z" transform="translate(-490.892 -215.402)"/>
    <rect id="Rectangle_42678" data-name="Rectangle 42678" width="445.223" height="148.969" transform="translate(201.789 7.843)" fill="#62616a"/>
    <rect id="Rectangle_42679" data-name="Rectangle 42679" width="445.223" height="148.969" transform="translate(201.789 7.843)" fill="#e2e2e2"/>
    <rect id="Rectangle_42680" data-name="Rectangle 42680" width="445.223" height="148.969" transform="translate(201.789 7.843)"/>
    <path id="Path_225990" data-name="Path 225990" d="M828.4,33.64H376.645c-2.725,0-4.935.411-4.935.9V197.386c0,.5,2.211.9,4.935.9H828.4c2.719,0,4.93-.4,4.93-.9V34.542C833.327,34.051,831.122,33.64,828.4,33.64ZM816.933,182.6H457.773V49.325h359.16Z" transform="translate(-178.118 -33.634)" fill="#e2e2e2"/>
    <path id="Path_225991" data-name="Path 225991" d="M833.327,34.542V197.386c0,.5-2.211.9-4.93.9H376.645c-2.725,0-4.935-.4-4.935-.9V34.542c0-.491,2.211-.9,4.935-.9H828.4C831.122,33.64,833.327,34.051,833.327,34.542Z" transform="translate(-178.118 -33.634)" fill="#fff" opacity="0.5"/>
    <path id="Path_225992" data-name="Path 225992" d="M1091.371,291.225h-.051c0-.263.034-.508.051-.765Z" transform="translate(-486.686 -143.758)" fill="#a02e2e"/>
    <path id="Path_225993" data-name="Path 225993" d="M1005.6,291.247h-.04v-.737C1005.577,290.756,1005.577,291,1005.6,291.247Z" transform="translate(-449.912 -143.78)" fill="#a02e2e"/>
    <rect id="Rectangle_42681" data-name="Rectangle 42681" width="16.393" height="161.222" transform="translate(509.318)" fill="#e2e2e2"/>
    <rect id="Rectangle_42682" data-name="Rectangle 42682" width="16.393" height="157.178" transform="translate(349.724 4.044)" fill="#e2e2e2"/>
    <path id="Path_225994" data-name="Path 225994" d="M1242.04,291.225H1242a4.277,4.277,0,0,1,.046-.765Z" transform="translate(-551.297 -143.758)" fill="#a02e2e"/>
    <path id="Path_225995" data-name="Path 225995" d="M1156.27,291.247h-.04v-.737C1156.247,290.756,1156.247,291,1156.27,291.247Z" transform="translate(-514.519 -143.78)" fill="#a02e2e"/>
    <rect id="Rectangle_42683" data-name="Rectangle 42683" width="445.223" height="148.969" transform="translate(287.852 7.843)" fill="#62616a"/>
    <path id="Path_225996" data-name="Path 225996" d="M979.063,33.63H527.3c-2.719,0-4.93.411-4.93.9v162.85c0,.5,2.211.9,4.93.9H979.063c2.719,0,4.924-.394,4.924-.9V34.533C983.987,34.041,981.782,33.63,979.063,33.63ZM967.593,182.6H538.769V49.315H967.593Z" transform="translate(-242.721 -33.63)" fill="#e2e2e2"/>
    <rect id="Rectangle_42684" data-name="Rectangle 42684" width="445.223" height="148.969" transform="translate(287.852 7.843)" fill="#e2e2e2"/>
    <rect id="Rectangle_42685" data-name="Rectangle 42685" width="445.223" height="148.969" transform="translate(287.852 7.843)" fill="#e2e2e2"/>
    <rect id="Rectangle_42686" data-name="Rectangle 42686" width="445.223" height="148.969" transform="translate(287.852 7.843)" fill="#e2e2e2" opacity="0.1"/>
    <rect id="Rectangle_42687" data-name="Rectangle 42687" width="49.398" height="79.146" transform="translate(214.943 9.293)"/>
    <rect id="Rectangle_42688" data-name="Rectangle 42688" width="49.398" height="79.146" transform="translate(204.502 9.293)" fill="#fff"/>
    <rect id="Rectangle_42689" data-name="Rectangle 42689" width="40.544" height="1.948" transform="translate(208.929 15.982)" opacity="0.2"/>
    <rect id="Rectangle_42690" data-name="Rectangle 42690" width="40.544" height="1.948" transform="translate(208.929 25.099)" opacity="0.2"/>
    <rect id="Rectangle_42691" data-name="Rectangle 42691" width="40.544" height="1.948" transform="translate(208.929 34.215)" opacity="0.2"/>
    <rect id="Rectangle_42692" data-name="Rectangle 42692" width="40.544" height="1.948" transform="translate(208.929 43.337)" opacity="0.2"/>
    <rect id="Rectangle_42693" data-name="Rectangle 42693" width="40.544" height="1.948" transform="translate(208.929 52.453)" opacity="0.2"/>
    <rect id="Rectangle_42694" data-name="Rectangle 42694" width="40.544" height="1.948" transform="translate(208.929 61.57)" opacity="0.2"/>
    <rect id="Rectangle_42695" data-name="Rectangle 42695" width="40.544" height="1.948" transform="translate(208.929 70.692)" opacity="0.2"/>
    <rect id="Rectangle_42696" data-name="Rectangle 42696" width="40.544" height="1.948" transform="translate(208.929 79.808)" opacity="0.2"/>
  </g>
</svg>
