<svg id="t-a7" xmlns="http://www.w3.org/2000/svg" width="965.607" height="255.601" viewBox="0 0 965.607 255.601">
  <g id="Layer_1" data-name="Layer 1" transform="translate(0 0)">
    <rect id="Rectangle_41547" data-name="Rectangle 41547" width="6.594" height="42.851" transform="translate(530.141 191.594)" fill="#666"/>
    <rect id="Rectangle_41548" data-name="Rectangle 41548" width="11.139" height="4.947" transform="translate(527.768 195.296)" fill="#666"/>
    <path id="Path_204639" data-name="Path 204639" d="M901.417,427.159l-4.785-8.3-4.791,8.3Z" transform="translate(-363.294 -191.761)" fill="#666"/>
    <rect id="Rectangle_41549" data-name="Rectangle 41549" width="32.496" height="4.48" transform="translate(531.847 215.374) rotate(-45)" fill="#666"/>
    <rect id="Rectangle_41550" data-name="Rectangle 41550" width="4.357" height="10.977" transform="translate(532.916 207.531)" fill="#666"/>
    <path id="Path_204640" data-name="Path 204640" d="M1114.7,397.779a31.162,31.162,0,0,1-27.361,30.935,29.027,29.027,0,0,1-3.845.252,31.187,31.187,0,0,1-31.2-31.187,32.073,32.073,0,0,1,.648-6.25,31.225,31.225,0,0,1,30.577-24.969,28.566,28.566,0,0,1,3.825.253,31.187,31.187,0,0,1,26.752,24.716,32.069,32.069,0,0,1,.6,6.25Z" transform="translate(-419.712 -173.371)" fill="#333"/>
    <g id="Group_129243" data-name="Group 129243" transform="translate(643.412 204.03)" opacity="0.5">
      <path id="Path_204641" data-name="Path 204641" d="M1069,403.652a20.365,20.365,0,1,0,20.359-20.372A20.365,20.365,0,0,0,1069,403.652Z" transform="translate(-1069 -383.28)"/>
    </g>
    <path id="Path_204642" data-name="Path 204642" d="M1075,405.748a16.5,16.5,0,1,0,16.495-16.508A16.5,16.5,0,0,0,1075,405.748Z" transform="translate(-427.698 -181.346)" fill="#e2e2e2"/>
    <path id="Path_204643" data-name="Path 204643" d="M1080.79,407.788a12.715,12.715,0,1,0,3.719-9,12.721,12.721,0,0,0-3.719,9Z" transform="translate(-429.734 -183.392)"/>
    <path id="Path_204644" data-name="Path 204644" d="M1114.7,397.779a31.162,31.162,0,0,1-27.361,30.935,29.027,29.027,0,0,1-3.845.252,31.187,31.187,0,0,1-31.2-31.187,32.073,32.073,0,0,1,.648-6.25,31.225,31.225,0,0,1,30.577-24.969,28.566,28.566,0,0,1,3.825.253,31.187,31.187,0,0,1,26.752,24.716,32.069,32.069,0,0,1,.6,6.25Z" transform="translate(-419.712 -173.371)" fill="#fff" opacity="0.3"/>
    <path id="Path_204645" data-name="Path 204645" d="M1126.546,397.8a31.192,31.192,0,0,1-31.193,31.187,28.693,28.693,0,0,1-3.845-.253A31.174,31.174,0,0,1,1064.14,397.8a32.586,32.586,0,0,1,.648-6.25,31.212,31.212,0,0,1,26.693-24.683,29.088,29.088,0,0,1,3.89-.253,31.232,31.232,0,0,1,30.577,24.969,32.08,32.08,0,0,1,.6,6.218Z" transform="translate(-423.879 -173.389)" fill="#333"/>
    <g id="Group_129244" data-name="Group 129244" transform="translate(651.102 204.03)" opacity="0.5">
      <path id="Path_204646" data-name="Path 204646" d="M1080.86,403.652a20.365,20.365,0,1,0,20.359-20.372A20.365,20.365,0,0,0,1080.86,403.652Z" transform="translate(-1080.86 -383.28)"/>
    </g>
    <path id="Path_204647" data-name="Path 204647" d="M1086.82,405.748a16.488,16.488,0,1,0,4.825-11.674,16.5,16.5,0,0,0-4.825,11.674Z" transform="translate(-431.854 -181.346)" fill="#e2e2e2"/>
    <path id="Path_204648" data-name="Path 204648" d="M1105.77,412.408a4.215,4.215,0,1,0,4.208-4.208A4.215,4.215,0,0,0,1105.77,412.408Z" transform="translate(-438.517 -188.013)"/>
    <path id="Path_204649" data-name="Path 204649" d="M1123.436,389.275H1050.17c1.264-16.255,17.162-29.125,36.633-29.125S1122.159,373.02,1123.436,389.275Z" transform="translate(-418.967 -171.117)"/>
    <path id="Path_204650" data-name="Path 204650" d="M1121.039,389.275a32.082,32.082,0,0,1,.648,6.25,31.192,31.192,0,0,1-31.193,31.187,28.7,28.7,0,0,1-3.845-.253,29.035,29.035,0,0,1-3.851.253,31.187,31.187,0,0,1-31.2-31.187,32.082,32.082,0,0,1,.648-6.25h-2c1.264-16.255,17.162-29.125,36.633-29.125s35.356,12.87,36.633,29.125Z" transform="translate(-418.995 -171.117)" opacity="0.5"/>
    <rect id="Rectangle_41551" data-name="Rectangle 41551" width="66.108" height="8.189" transform="translate(672.621 220.291)"/>
    <path id="Path_204651" data-name="Path 204651" d="M1232.313,397.779a31.154,31.154,0,0,1-27.323,30.934,29.015,29.015,0,0,1-3.845.253,31.187,31.187,0,0,1-31.206-31.187,32.063,32.063,0,0,1,.648-6.25A31.232,31.232,0,0,1,1201.1,366.56a28.478,28.478,0,0,1,3.819.253,31.193,31.193,0,0,1,26.758,24.716,32.075,32.075,0,0,1,.635,6.25Z" transform="translate(-461.081 -173.371)" fill="#333"/>
    <g id="Group_129245" data-name="Group 129245" transform="translate(719.667 204.03)" opacity="0.5">
      <path id="Path_204652" data-name="Path 204652" d="M1186.61,403.652a20.365,20.365,0,1,0,20.359-20.372,20.365,20.365,0,0,0-20.359,20.372Z" transform="translate(-1186.61 -383.28)"/>
    </g>
    <path id="Path_204653" data-name="Path 204653" d="M1192.56,405.748a16.5,16.5,0,1,0,16.495-16.508,16.5,16.5,0,0,0-16.495,16.508Z" transform="translate(-469.035 -181.346)" fill="#e2e2e2"/>
    <path id="Path_204654" data-name="Path 204654" d="M1198.39,407.788a12.715,12.715,0,1,0,3.719-9A12.721,12.721,0,0,0,1198.39,407.788Z" transform="translate(-471.085 -183.392)"/>
    <path id="Path_204655" data-name="Path 204655" d="M1232.313,397.779a31.154,31.154,0,0,1-27.323,30.934,29.015,29.015,0,0,1-3.845.253,31.187,31.187,0,0,1-31.206-31.187,32.063,32.063,0,0,1,.648-6.25A31.232,31.232,0,0,1,1201.1,366.56a28.478,28.478,0,0,1,3.819.253,31.193,31.193,0,0,1,26.758,24.716,32.075,32.075,0,0,1,.635,6.25Z" transform="translate(-461.081 -173.371)" fill="#fff" opacity="0.3"/>
    <path id="Path_204656" data-name="Path 204656" d="M1244.159,397.779a31.192,31.192,0,0,1-31.193,31.187,28.769,28.769,0,0,1-3.845-.253,31.167,31.167,0,0,1-27.361-30.934,32.082,32.082,0,0,1,.648-6.25,31.206,31.206,0,0,1,26.713-24.716,29.077,29.077,0,0,1,3.89-.253,31.225,31.225,0,0,1,30.5,24.969,32.082,32.082,0,0,1,.648,6.25Z" transform="translate(-465.238 -173.371)" fill="#333"/>
    <g id="Group_129246" data-name="Group 129246" transform="translate(727.35 204.03)" opacity="0.5">
      <path id="Path_204657" data-name="Path 204657" d="M1198.46,403.652a20.359,20.359,0,1,0,5.961-14.407,20.365,20.365,0,0,0-5.961,14.407Z" transform="translate(-1198.46 -383.28)"/>
    </g>
    <path id="Path_204658" data-name="Path 204658" d="M1204.42,405.748a16.495,16.495,0,1,0,4.83-11.675,16.5,16.5,0,0,0-4.83,11.675Z" transform="translate(-473.206 -181.346)" fill="#e2e2e2"/>
    <path id="Path_204659" data-name="Path 204659" d="M1223.38,412.408a4.2,4.2,0,1,0,1.231-2.977A4.208,4.208,0,0,0,1223.38,412.408Z" transform="translate(-479.872 -188.013)"/>
    <path id="Path_204660" data-name="Path 204660" d="M1241.036,389.275H1167.77c1.258-16.255,17.156-29.125,36.626-29.125S1239.765,373.02,1241.036,389.275Z" transform="translate(-460.318 -171.117)"/>
    <path id="Path_204661" data-name="Path 204661" d="M1238.613,389.275a32.092,32.092,0,0,1,.648,6.25,31.192,31.192,0,0,1-31.193,31.187,29.306,29.306,0,0,0-7.69,0,31.187,31.187,0,0,1-31.206-31.187,32.064,32.064,0,0,1,.648-6.25h-1.99c1.258-16.255,17.156-29.125,36.626-29.125s35.362,12.87,36.633,29.125Z" transform="translate(-460.339 -171.117)" opacity="0.5"/>
    <rect id="Rectangle_41552" data-name="Rectangle 41552" width="66.108" height="8.189" transform="translate(748.87 220.291)"/>
    <path id="Path_204662" data-name="Path 204662" d="M1349.9,397.779a31.154,31.154,0,0,1-27.348,30.934,29.115,29.115,0,0,1-3.851.253,31.187,31.187,0,0,1-31.2-31.187,32.073,32.073,0,0,1,.648-6.25,31.225,31.225,0,0,1,30.577-24.969,28.413,28.413,0,0,1,3.819.253,31.187,31.187,0,0,1,26.758,24.716A32.066,32.066,0,0,1,1349.9,397.779Z" transform="translate(-502.419 -173.371)" fill="#333"/>
    <g id="Group_129247" data-name="Group 129247" transform="translate(795.915 204.03)" opacity="0.5">
      <path id="Path_204663" data-name="Path 204663" d="M1304.21,403.652a20.365,20.365,0,1,0,20.359-20.372,20.365,20.365,0,0,0-20.359,20.372Z" transform="translate(-1304.21 -383.28)"/>
    </g>
    <path id="Path_204664" data-name="Path 204664" d="M1310.17,405.748a16.488,16.488,0,1,0,4.824-11.674A16.5,16.5,0,0,0,1310.17,405.748Z" transform="translate(-510.39 -181.346)" fill="#e2e2e2"/>
    <path id="Path_204665" data-name="Path 204665" d="M1316,407.788a12.714,12.714,0,1,0,3.722-9,12.728,12.728,0,0,0-3.722,9Z" transform="translate(-512.44 -183.393)"/>
    <path id="Path_204666" data-name="Path 204666" d="M1349.9,397.779a31.154,31.154,0,0,1-27.348,30.934,29.115,29.115,0,0,1-3.851.253,31.187,31.187,0,0,1-31.2-31.187,32.073,32.073,0,0,1,.648-6.25,31.225,31.225,0,0,1,30.577-24.969,28.413,28.413,0,0,1,3.819.253,31.187,31.187,0,0,1,26.758,24.716A32.066,32.066,0,0,1,1349.9,397.779Z" transform="translate(-502.419 -173.371)" fill="#fff" opacity="0.3"/>
    <path id="Path_204667" data-name="Path 204667" d="M1361.756,397.779a31.192,31.192,0,0,1-31.2,31.187,28.667,28.667,0,0,1-3.838-.253,31.167,31.167,0,0,1-27.368-30.934,32.063,32.063,0,0,1,.648-6.25,31.206,31.206,0,0,1,26.713-24.716,29.233,29.233,0,0,1,3.89-.253,31.232,31.232,0,0,1,30.584,24.969A32.082,32.082,0,0,1,1361.756,397.779Z" transform="translate(-506.586 -173.371)" fill="#333"/>
    <g id="Group_129248" data-name="Group 129248" transform="translate(803.605 204.03)" opacity="0.5">
      <path id="Path_204668" data-name="Path 204668" d="M1316.07,403.652a20.365,20.365,0,1,0,20.359-20.372,20.365,20.365,0,0,0-20.359,20.372Z" transform="translate(-1316.07 -383.28)"/>
    </g>
    <path id="Path_204669" data-name="Path 204669" d="M1322,405.748a16.495,16.495,0,1,0,4.83-11.675,16.5,16.5,0,0,0-4.83,11.675Z" transform="translate(-514.55 -181.346)" fill="#e2e2e2"/>
    <path id="Path_204670" data-name="Path 204670" d="M1341,412.408a4.208,4.208,0,1,0,4.208-4.208A4.208,4.208,0,0,0,1341,412.408Z" transform="translate(-521.231 -188.013)"/>
    <path id="Path_204671" data-name="Path 204671" d="M1358.636,389.275H1285.37c1.264-16.255,17.162-29.125,36.633-29.125S1357.365,373.02,1358.636,389.275Z" transform="translate(-501.67 -171.117)"/>
    <path id="Path_204672" data-name="Path 204672" d="M1356.249,389.275a32.073,32.073,0,0,1,.648,6.25,31.192,31.192,0,0,1-31.2,31.187,28.658,28.658,0,0,1-3.838-.253,29.124,29.124,0,0,1-3.851.253,31.187,31.187,0,0,1-31.2-31.187,32.082,32.082,0,0,1,.648-6.25h-2c1.264-16.255,17.162-29.125,36.633-29.125s35.356,12.87,36.626,29.125Z" transform="translate(-501.702 -171.117)" opacity="0.5"/>
    <rect id="Rectangle_41553" data-name="Rectangle 41553" width="66.108" height="8.189" transform="translate(825.125 220.291)"/>
    <path id="Path_204673" data-name="Path 204673" d="M1247.689,365.17v14.737h-206.9L996.9,368.756l-3.709-.94V365.17Z" transform="translate(-398.931 -172.882)" fill="#666"/>
    <rect id="Rectangle_41554" data-name="Rectangle 41554" width="365.572" height="14.53" transform="translate(523.638 181.35)" fill="#666"/>
    <path id="Path_204674" data-name="Path 204674" d="M1257.165,315.4h-.045a6.21,6.21,0,0,1,.045-.914Z" transform="translate(-491.736 -155.062)" fill="#a02e2e"/>
    <path id="Path_204675" data-name="Path 204675" d="M1169.512,315.425h-.052v-.875C1169.48,314.842,1169.493,315.14,1169.512,315.425Z" transform="translate(-460.913 -155.083)" fill="#a02e2e"/>
    <rect id="Rectangle_41555" data-name="Rectangle 41555" width="590.064" height="9.226" transform="translate(309.384 175.21)" fill="#333"/>
    <path id="Path_204676" data-name="Path 204676" d="M1143.884,338.83v9.226h-10.231v11.437h-40.458v11.152h-206.9L842.4,359.494H768.075V348.056H553.82V338.83Z" transform="translate(-244.436 -163.62)" fill="#fff" opacity="0.5"/>
    <path id="Path_204677" data-name="Path 204677" d="M1322.013,365.17v14.737H1142.8l-47.6-12.092V365.17Z" transform="translate(-434.801 -172.882)" fill="#666"/>
    <rect id="Rectangle_41556" data-name="Rectangle 41556" width="365.572" height="14.53" transform="translate(589.792 181.343)" fill="#666"/>
    <path id="Path_204678" data-name="Path 204678" d="M1359.192,315.4h-.052a5.456,5.456,0,0,1,.052-.914Z" transform="translate(-527.609 -155.062)" fill="#a02e2e"/>
    <path id="Path_204679" data-name="Path 204679" d="M1271.535,315.425h-.045v-.875C1271.51,314.842,1271.522,315.14,1271.535,315.425Z" transform="translate(-496.789 -155.083)" fill="#a02e2e"/>
    <rect id="Rectangle_41557" data-name="Rectangle 41557" width="590.07" height="9.226" transform="translate(375.537 175.21)" fill="#333"/>
    <path id="Path_204680" data-name="Path 204680" d="M1506.825,364.5l-2.885,2.9,14.472,14.485,2.911-2.9Z" transform="translate(-578.525 -172.647)" fill="#666"/>
    <rect id="Rectangle_41558" data-name="Rectangle 41558" width="8.111" height="27.841" transform="translate(938.551 194.356)" fill="#666"/>
    <rect id="Rectangle_41559" data-name="Rectangle 41559" width="4.843" height="6.646" transform="translate(941.235 201.624)" fill="#333"/>
    <rect id="Rectangle_41560" data-name="Rectangle 41560" width="2.418" height="6.646" transform="translate(943.66 201.624)" fill="#af1d1d"/>
    <rect id="Rectangle_41561" data-name="Rectangle 41561" width="6.594" height="42.851" transform="translate(595.102 191.594)" fill="#666"/>
    <rect id="Rectangle_41562" data-name="Rectangle 41562" width="11.139" height="4.947" transform="translate(592.729 195.296)" fill="#666"/>
    <path id="Path_204681" data-name="Path 204681" d="M1001.6,427.159l-4.779-8.3-4.8,8.3Z" transform="translate(-398.52 -191.761)" fill="#666"/>
    <rect id="Rectangle_41563" data-name="Rectangle 41563" width="32.496" height="4.48" transform="translate(596.807 215.388) rotate(-45)" fill="#666"/>
    <rect id="Rectangle_41564" data-name="Rectangle 41564" width="4.357" height="10.977" transform="translate(597.87 207.531)" fill="#666"/>
    <path id="Path_204682" data-name="Path 204682" d="M186.556,397.779A31.154,31.154,0,0,1,159.2,428.713a29.016,29.016,0,0,1-3.845.253,31.187,31.187,0,0,1-31.206-31.187,32.075,32.075,0,0,1,.648-6.25,31.232,31.232,0,0,1,30.584-24.969,28.474,28.474,0,0,1,3.819.253,31.193,31.193,0,0,1,26.758,24.716A32.075,32.075,0,0,1,186.556,397.779Z" transform="translate(-93.352 -173.371)" fill="#333"/>
    <g id="Group_129249" data-name="Group 129249" transform="translate(41.638 204.03)" opacity="0.5">
      <path id="Path_204683" data-name="Path 204683" d="M140.87,403.652a20.365,20.365,0,1,0,20.359-20.372A20.365,20.365,0,0,0,140.87,403.652Z" transform="translate(-140.87 -383.28)"/>
    </g>
    <path id="Path_204684" data-name="Path 204684" d="M146.82,405.748a16.495,16.495,0,1,0,4.83-11.675A16.5,16.5,0,0,0,146.82,405.748Z" transform="translate(-101.324 -181.346)" fill="#e2e2e2"/>
    <path id="Path_204685" data-name="Path 204685" d="M152.65,407.788a12.715,12.715,0,1,0,3.722-9,12.721,12.721,0,0,0-3.722,9Z" transform="translate(-103.374 -183.392)"/>
    <path id="Path_204686" data-name="Path 204686" d="M186.556,397.779A31.154,31.154,0,0,1,159.2,428.713a29.016,29.016,0,0,1-3.845.253,31.187,31.187,0,0,1-31.206-31.187,32.075,32.075,0,0,1,.648-6.25,31.232,31.232,0,0,1,30.584-24.969,28.474,28.474,0,0,1,3.819.253,31.193,31.193,0,0,1,26.758,24.716A32.075,32.075,0,0,1,186.556,397.779Z" transform="translate(-93.352 -173.371)" fill="#fff" opacity="0.3"/>
    <path id="Path_204687" data-name="Path 204687" d="M198.406,397.8a31.192,31.192,0,0,1-31.193,31.187,28.764,28.764,0,0,1-3.845-.253A31.167,31.167,0,0,1,136,397.8a32.077,32.077,0,0,1,.648-6.25,31.206,31.206,0,0,1,26.693-24.684,29.176,29.176,0,0,1,3.89-.253,31.226,31.226,0,0,1,30.577,24.969,32.074,32.074,0,0,1,.6,6.218Z" transform="translate(-97.519 -173.389)" fill="#333"/>
    <g id="Group_129250" data-name="Group 129250" transform="translate(49.322 204.03)" opacity="0.5">
      <path id="Path_204688" data-name="Path 204688" d="M152.72,403.652a20.359,20.359,0,1,0,5.961-14.407A20.365,20.365,0,0,0,152.72,403.652Z" transform="translate(-152.72 -383.28)"/>
    </g>
    <path id="Path_204689" data-name="Path 204689" d="M158.68,405.748a16.495,16.495,0,1,0,4.83-11.675A16.5,16.5,0,0,0,158.68,405.748Z" transform="translate(-105.494 -181.346)" fill="#e2e2e2"/>
    <path id="Path_204690" data-name="Path 204690" d="M177.64,412.408a4.2,4.2,0,1,0,1.231-2.977A4.208,4.208,0,0,0,177.64,412.408Z" transform="translate(-112.161 -188.013)"/>
    <path id="Path_204691" data-name="Path 204691" d="M195.266,389.275H122c1.3-16.255,17.182-29.125,36.652-29.125S194.015,373.02,195.266,389.275Z" transform="translate(-92.596 -171.117)"/>
    <path id="Path_204692" data-name="Path 204692" d="M192.861,389.275a32.074,32.074,0,0,1,.648,6.25,31.192,31.192,0,0,1-31.193,31.187,28.768,28.768,0,0,1-3.845-.253,29.026,29.026,0,0,1-3.845.253,31.187,31.187,0,0,1-31.206-31.187,32.076,32.076,0,0,1,.648-6.25H122c1.3-16.255,17.182-29.125,36.652-29.125s35.362,12.87,36.614,29.125Z" transform="translate(-92.596 -171.117)" opacity="0.5"/>
    <path id="Path_204693" data-name="Path 204693" d="M616.219,397.779a31.154,31.154,0,0,1-27.348,30.934,29.114,29.114,0,0,1-3.851.253,31.187,31.187,0,0,1-31.2-31.187,32.078,32.078,0,0,1,.648-6.25,31.226,31.226,0,0,1,30.577-24.969,28.572,28.572,0,0,1,3.825.253,31.187,31.187,0,0,1,26.752,24.716,32.076,32.076,0,0,1,.6,6.25Z" transform="translate(-244.436 -173.371)" fill="#333"/>
    <g id="Group_129251" data-name="Group 129251" transform="translate(320.218 204.03)" opacity="0.5">
      <path id="Path_204694" data-name="Path 204694" d="M570.53,403.652a20.365,20.365,0,1,0,20.359-20.372,20.365,20.365,0,0,0-20.359,20.372Z" transform="translate(-570.53 -383.28)"/>
    </g>
    <path id="Path_204695" data-name="Path 204695" d="M576.49,405.748a16.5,16.5,0,1,0,16.495-16.508A16.5,16.5,0,0,0,576.49,405.748Z" transform="translate(-252.408 -181.346)" fill="#e2e2e2"/>
    <path id="Path_204696" data-name="Path 204696" d="M582.31,407.788a12.714,12.714,0,1,0,3.722-9A12.728,12.728,0,0,0,582.31,407.788Z" transform="translate(-254.454 -183.393)"/>
    <path id="Path_204697" data-name="Path 204697" d="M616.219,397.779a31.154,31.154,0,0,1-27.348,30.934,29.114,29.114,0,0,1-3.851.253,31.187,31.187,0,0,1-31.2-31.187,32.078,32.078,0,0,1,.648-6.25,31.226,31.226,0,0,1,30.577-24.969,28.572,28.572,0,0,1,3.825.253,31.187,31.187,0,0,1,26.752,24.716,32.076,32.076,0,0,1,.6,6.25Z" transform="translate(-244.436 -173.371)" fill="#fff" opacity="0.3"/>
    <path id="Path_204698" data-name="Path 204698" d="M628.076,397.8a31.192,31.192,0,0,1-31.193,31.187,28.693,28.693,0,0,1-3.845-.253A31.167,31.167,0,0,1,565.67,397.8a32.082,32.082,0,0,1,.648-6.25,31.213,31.213,0,0,1,26.693-24.684,29.09,29.09,0,0,1,3.89-.253,31.232,31.232,0,0,1,30.577,24.936,32.08,32.08,0,0,1,.6,6.25Z" transform="translate(-248.603 -173.389)" fill="#333"/>
    <g id="Group_129252" data-name="Group 129252" transform="translate(327.908 204.03)" opacity="0.5">
      <path id="Path_204699" data-name="Path 204699" d="M582.39,403.652a20.365,20.365,0,1,0,20.359-20.372A20.365,20.365,0,0,0,582.39,403.652Z" transform="translate(-582.39 -383.28)"/>
    </g>
    <path id="Path_204700" data-name="Path 204700" d="M588.35,405.748a16.488,16.488,0,1,0,4.825-11.674,16.5,16.5,0,0,0-4.825,11.674Z" transform="translate(-256.578 -181.346)" fill="#e2e2e2"/>
    <path id="Path_204701" data-name="Path 204701" d="M607.3,412.408a4.208,4.208,0,1,0,4.208-4.208A4.208,4.208,0,0,0,607.3,412.408Z" transform="translate(-263.241 -188.013)"/>
    <path id="Path_204702" data-name="Path 204702" d="M624.966,389.275H551.7c1.264-16.255,17.162-29.125,36.633-29.125S623.689,373.02,624.966,389.275Z" transform="translate(-243.691 -171.117)"/>
    <path id="Path_204703" data-name="Path 204703" d="M622.567,389.275a32.082,32.082,0,0,1,.648,6.25,31.192,31.192,0,0,1-31.193,31.187,28.7,28.7,0,0,1-3.845-.253,29.124,29.124,0,0,1-3.851.253,31.187,31.187,0,0,1-31.2-31.187,32.078,32.078,0,0,1,.648-6.25H551.7c1.264-16.255,17.162-29.125,36.633-29.125s35.356,12.87,36.633,29.125Z" transform="translate(-243.691 -171.117)" opacity="0.5"/>
    <path id="Path_204704" data-name="Path 204704" d="M721.6,397.779a31.154,31.154,0,0,1-27.355,30.934,29.021,29.021,0,0,1-3.851.253,31.187,31.187,0,0,1-31.2-31.187,32.082,32.082,0,0,1,.648-6.25,31.232,31.232,0,0,1,30.577-24.969,28.54,28.54,0,0,1,3.825.253A31.193,31.193,0,0,1,721,391.529,32.076,32.076,0,0,1,721.6,397.779Z" transform="translate(-281.487 -173.371)" fill="#333"/>
    <g id="Group_129253" data-name="Group 129253" transform="translate(388.537 204.03)" opacity="0.5">
      <path id="Path_204705" data-name="Path 204705" d="M675.9,403.652a20.359,20.359,0,1,0,5.961-14.407A20.365,20.365,0,0,0,675.9,403.652Z" transform="translate(-675.9 -383.28)"/>
    </g>
    <path id="Path_204706" data-name="Path 204706" d="M681.86,405.748a16.495,16.495,0,1,0,4.83-11.675A16.5,16.5,0,0,0,681.86,405.748Z" transform="translate(-289.459 -181.346)" fill="#e2e2e2"/>
    <path id="Path_204707" data-name="Path 204707" d="M687.69,407.788a12.715,12.715,0,1,0,3.723-9,12.721,12.721,0,0,0-3.723,9Z" transform="translate(-291.509 -183.392)"/>
    <path id="Path_204708" data-name="Path 204708" d="M721.6,397.779a31.154,31.154,0,0,1-27.355,30.934,29.021,29.021,0,0,1-3.851.253,31.187,31.187,0,0,1-31.2-31.187,32.082,32.082,0,0,1,.648-6.25,31.232,31.232,0,0,1,30.577-24.969,28.54,28.54,0,0,1,3.825.253A31.193,31.193,0,0,1,721,391.529,32.076,32.076,0,0,1,721.6,397.779Z" transform="translate(-281.487 -173.371)" fill="#fff" opacity="0.3"/>
    <path id="Path_204709" data-name="Path 204709" d="M733.449,397.8a31.192,31.192,0,0,1-31.193,31.187,28.693,28.693,0,0,1-3.845-.253A31.167,31.167,0,0,1,671.05,397.8a32.077,32.077,0,0,1,.648-6.25,31.206,31.206,0,0,1,26.687-24.683,29.1,29.1,0,0,1,3.89-.253,31.226,31.226,0,0,1,30.577,24.969,32.074,32.074,0,0,1,.6,6.218Z" transform="translate(-285.658 -173.389)" fill="#333"/>
    <g id="Group_129254" data-name="Group 129254" transform="translate(396.227 204.03)" opacity="0.5">
      <path id="Path_204710" data-name="Path 204710" d="M687.76,403.652a20.365,20.365,0,1,0,20.359-20.372A20.365,20.365,0,0,0,687.76,403.652Z" transform="translate(-687.76 -383.28)"/>
    </g>
    <path id="Path_204711" data-name="Path 204711" d="M693.72,405.748a16.5,16.5,0,1,0,16.495-16.508A16.5,16.5,0,0,0,693.72,405.748Z" transform="translate(-293.629 -181.346)" fill="#e2e2e2"/>
    <path id="Path_204712" data-name="Path 204712" d="M712.68,412.408a4.2,4.2,0,1,0,1.23-2.977A4.208,4.208,0,0,0,712.68,412.408Z" transform="translate(-300.296 -188.013)"/>
    <path id="Path_204713" data-name="Path 204713" d="M730.336,389.275H657.07c1.258-16.255,17.156-29.125,36.626-29.125S729.059,373.02,730.336,389.275Z" transform="translate(-280.742 -171.117)"/>
    <path id="Path_204714" data-name="Path 204714" d="M727.943,389.275a32.064,32.064,0,0,1,.648,6.25A31.192,31.192,0,0,1,697.4,426.712a28.7,28.7,0,0,1-3.845-.253,29.035,29.035,0,0,1-3.851.253,31.187,31.187,0,0,1-31.2-31.187,32.073,32.073,0,0,1,.648-6.25h-1.99c1.258-16.255,17.156-29.125,36.627-29.125s35.356,12.87,36.633,29.125Z" transform="translate(-280.774 -171.117)" opacity="0.5"/>
    <path id="Path_204715" data-name="Path 204715" d="M3.748,0H30.422a3.754,3.754,0,0,1,3.754,3.754V30.8a3.754,3.754,0,0,1-3.754,3.754H3.754A3.754,3.754,0,0,1,0,30.8V3.748A3.748,3.748,0,0,1,3.748,0Z" transform="translate(279.578 192.806) rotate(180)" fill="#666"/>
    <path id="Path_204716" data-name="Path 204716" d="M456.17,315.356l1.355-1.336,15.023,15.191,15.029-15.191,1.349,1.336L473.89,330.566l15.036,15.211-1.349,1.336-15.029-15.191-15.023,15.191-1.355-1.336,15.042-15.211Z" transform="translate(-210.1 -154.897)" opacity="0.5"/>
    <path id="Path_204717" data-name="Path 204717" d="M273.026,123.053v48.116A7.78,7.78,0,0,1,270.1,176.8l-2.859,2a7.742,7.742,0,0,0-2.9,5.634V275.77a3.592,3.592,0,0,1-3.592,3.586H83.2a3.592,3.592,0,0,1-3.585-3.586V204.961a5.044,5.044,0,0,1,3.436-4.584l81.805-23.918a1.808,1.808,0,0,1,.4-.071c.22,0,.687-1.576,1.037-3.534l7.489-41.93,1.024-5.719c.182-.973.363-1.861.519-2.645a3.534,3.534,0,0,1,3.475-2.84H270.77a3.579,3.579,0,0,1,2.256,3.333Z" transform="translate(-77.691 -86.575)" fill="#333"/>
    <path id="Path_204718" data-name="Path 204718" d="M273.026,123.053v48.116a7.865,7.865,0,0,1-1.854,4.636,5.9,5.9,0,0,1-1.07,1l-2.859,2a7.742,7.742,0,0,0-2.9,5.634V275.77a3.592,3.592,0,0,1-3.592,3.586H83.2a3.592,3.592,0,0,1-3.585-3.586V204.961a4.668,4.668,0,0,1,.8-2.522,4.8,4.8,0,0,1,2.632-2.062l81.805-23.918a1.807,1.807,0,0,1,.4-.071c.078,0,.195-.208.331-.584a21.4,21.4,0,0,0,.707-2.95l7.489-41.93,1.024-5.719c.182-.973.363-1.861.519-2.645a3.534,3.534,0,0,1,3.475-2.84H270.77a3.579,3.579,0,0,1,2.256,3.333Z" transform="translate(-77.691 -86.575)" fill="#fff" opacity="0.5"/>
    <path id="Path_204719" data-name="Path 204719" d="M271.608,206.22a5.9,5.9,0,0,1-1.07,1l-2.859,2a7.742,7.742,0,0,0-2.9,5.634v18.005H80.85a4.8,4.8,0,0,1,2.632-2.062l81.805-23.918a1.809,1.809,0,0,1,.4-.071c.078,0,.195-.207.331-.584Z" transform="translate(-78.127 -116.991)" fill="#fff" opacity="0.3"/>
    <path id="Path_204720" data-name="Path 204720" d="M374.036,123.053v48.116a7.781,7.781,0,0,1-2.924,5.634l-2.827,2a7.781,7.781,0,0,0-2.918,5.634V275.77a3.592,3.592,0,0,1-3.592,3.586H184.205a3.592,3.592,0,0,1-3.586-3.586V204.961a5.044,5.044,0,0,1,3.436-4.584l81.805-23.918a1.809,1.809,0,0,1,.4-.071c.22,0,.687-1.576,1.037-3.534l7.489-41.93,1.024-5.719c.194-.973.363-1.861.532-2.645a3.521,3.521,0,0,1,3.475-2.84H371.78A3.579,3.579,0,0,1,374.036,123.053Z" transform="translate(-113.209 -86.575)" fill="#333"/>
    <path id="Path_204721" data-name="Path 204721" d="M391.37,136.97v42.5a3.579,3.579,0,0,1-3.573,3.6H335.6a3.008,3.008,0,0,1-3.073-3.54l2.133-14.8,2.73-18.958.467-3.242.8-5.583a4.142,4.142,0,0,1,.4-1.219,4.24,4.24,0,0,1,3.683-2.321H387.8A3.579,3.579,0,0,1,391.37,136.97Z" transform="translate(-166.606 -91.389)" fill="#29abe2"/>
    <path id="Path_204722" data-name="Path 204722" d="M378.986,156.059v33.715H335.6a3.008,3.008,0,0,1-3.073-3.54l2.133-14.8,2.73-18.958h38.027A3.585,3.585,0,0,1,378.986,156.059Z" transform="translate(-166.606 -98.095)" opacity="0.5"/>
    <g id="Group_129255" data-name="Group 129255" transform="translate(160.868 37.32)">
      <path id="Path_204723" data-name="Path 204723" d="M324.76,269.736V184.974a58.916,58.916,0,0,1,.558-7.255l7.262-47.214a5.245,5.245,0,0,1,5.07-4.344H388.5a4.539,4.539,0,0,1,4.539,4.539V269.736a4.539,4.539,0,0,1-4.539,4.539H329.3a4.539,4.539,0,0,1-4.539-4.539ZM337.65,128.06a3.391,3.391,0,0,0-3.19,2.736L327.2,178a55.7,55.7,0,0,0-.545,6.97v84.762a2.645,2.645,0,0,0,2.645,2.632h59.2a2.645,2.645,0,0,0,2.639-2.632V130.692a2.645,2.645,0,0,0-2.639-2.632Z" transform="translate(-324.76 -126.16)"/>
    </g>
    <path id="Path_204724" data-name="Path 204724" d="M411.988,220.21h-2.632a4.778,4.778,0,0,0-4.766,4.778v1.478a4.772,4.772,0,0,0,4.766,4.766h2.632a4.772,4.772,0,0,0,4.753-4.766v-1.478A4.772,4.772,0,0,0,411.988,220.21Zm2.38,6.257a2.379,2.379,0,0,1-2.38,2.38h-2.632a2.379,2.379,0,0,1-2.38-2.38v-1.478a2.379,2.379,0,0,1,.512-1.485v.052c0,1.193,1.452,2.166,3.242,2.166s3.158-.914,3.242-2.068a2.535,2.535,0,0,1,.383,1.336Z" transform="translate(-191.963 -121.91)" fill="#e2e2e2"/>
    <g id="Group_129259" data-name="Group 129259" transform="translate(165.871 41.982)" opacity="0.5">
      <g id="Group_129256" data-name="Group 129256" transform="translate(29.069)">
        <path id="Path_204725" data-name="Path 204725" d="M407.135,136.948v26.227L377.31,133.35h26.253a3.579,3.579,0,0,1,3.573,3.6Z" transform="translate(-377.31 -133.35)" fill="#fff"/>
      </g>
      <g id="Group_129257" data-name="Group 129257" transform="translate(0 31.362)">
        <path id="Path_204726" data-name="Path 204726" d="M352.993,200.056H335.6a3.008,3.008,0,0,1-3.073-3.54l2.133-14.8Z" transform="translate(-332.476 -181.72)" fill="#fff"/>
      </g>
      <g id="Group_129258" data-name="Group 129258" transform="translate(5.377 2.347)">
        <path id="Path_204727" data-name="Path 204727" d="M389.288,184.321h-7.981L340.77,143.771l.8-5.582a4.143,4.143,0,0,1,.4-1.219Z" transform="translate(-340.77 -136.97)" fill="#fff"/>
      </g>
    </g>
    <path id="Path_204728" data-name="Path 204728" d="M453.8,103.338V134.8h-2.82v45.619c0,1.945-1.342,3.573-3,3.573h-.065a3.239,3.239,0,0,1-2.866-2.95,3.891,3.891,0,0,1-.045-.648V134.8H442.62V83.42h2.393V73.13h3.326v7.327h2.645V83.42h.182v19.944Z" transform="translate(-205.335 -70.193)" fill="#2f3031"/>
    <path id="Path_204729" data-name="Path 204729" d="M446.9,78.864h2.827v51.409H446.9v45.619c0,1.945-1.342,3.573-3,3.573h-.285a3.4,3.4,0,0,1-2.691-3.56V130.273H438.54V78.864h2.392V68.6h11.483v2.483H446.9Z" transform="translate(-203.901 -68.6)" fill="#e2e2e2"/>
    <path id="Path_204730" data-name="Path 204730" d="M443.834,68.61V179.482a3.326,3.326,0,0,1-2.9-3.573V130.277h-2.4V78.867h2.4V68.61Z" transform="translate(-203.897 -68.604)" fill="#fff"/>
    <path id="Path_204731" data-name="Path 204731" d="M149.067,334.279v40.257H89.54c-5.835,0-10.893-2.827-12.89-6.827v-32a5.433,5.433,0,0,1,3.825-1.426Z" transform="translate(-76.65 -162.019)" fill="#666"/>
    <path id="Path_204732" data-name="Path 204732" d="M149.067,334.279v40.257H89.54c-5.835,0-10.893-2.827-12.89-6.827v-32a5.433,5.433,0,0,1,3.825-1.426Z" transform="translate(-76.65 -162.019)" fill="#fff" opacity="0.5"/>
    <rect id="Rectangle_41565" data-name="Rectangle 41565" width="66.108" height="8.189" transform="translate(70.186 220.291)"/>
    <rect id="Rectangle_41566" data-name="Rectangle 41566" width="66.108" height="8.189" transform="translate(349.427 220.291)"/>
    <path id="Path_204733" data-name="Path 204733" d="M335.7,402.18l247.451,4.694.123-5.07L335.836,397.11Z" transform="translate(-167.739 -184.113)" fill="#333"/>
    <rect id="Rectangle_41567" data-name="Rectangle 41567" width="63.242" height="5.388" transform="translate(374.565 187.794)" fill="#333"/>
    <path id="Path_204734" data-name="Path 204734" d="M652.882,355.054V349.18H570.675v5.874H555.84v5.388H682.953v-5.388Z" transform="translate(-245.147 -167.26)" fill="#333"/>
    <path id="Path_204735" data-name="Path 204735" d="M652.882,355.054V349.18H570.675v5.874H555.84v5.388H682.953v-5.388Z" transform="translate(-245.147 -167.26)" fill="#fff" opacity="0.5"/>
    <rect id="Rectangle_41568" data-name="Rectangle 41568" width="33.32" height="11.262" transform="translate(389.522 181.92)" fill="#333"/>
    <rect id="Rectangle_41569" data-name="Rectangle 41569" width="458.84" height="17.882" transform="translate(78.278 192.806)" fill="#666"/>
    <path id="Path_204736" data-name="Path 204736" d="M168.909,363.8V337.866a3.592,3.592,0,0,1,3.586-3.586h14.232a2.918,2.918,0,0,1,2.918,2.918v37.346H179.27A10.549,10.549,0,0,1,168.909,363.8Z" transform="translate(-109.09 -162.021)" fill="#666"/>
    <path id="Path_204737" data-name="Path 204737" d="M180.3,271.737v13.292c0,3.962-2.068,7.132-4.629,7.132h-11.56a2.749,2.749,0,0,1-2.756-2.743v-22.1a2.756,2.756,0,0,1,2.756-2.756h11.56C178.227,264.56,180.3,267.776,180.3,271.737Z" transform="translate(-106.433 -137.505)" fill="#f2f2f2"/>
    <path id="Path_204738" data-name="Path 204738" d="M180.3,294.08v4.253a4.43,4.43,0,0,1-4.629,4.221h-11.56a2.749,2.749,0,0,1-2.756-2.743V294.08Z" transform="translate(-106.433 -147.885)" fill="#fbb03b"/>
    <path id="Path_204739" data-name="Path 204739" d="M173.079,264.56v27.614h-8.973a2.749,2.749,0,0,1-2.756-2.743V267.316a2.756,2.756,0,0,1,2.756-2.756Z" transform="translate(-106.433 -137.505)" fill="#fff" opacity="0.5"/>
    <path id="Path_204740" data-name="Path 204740" d="M89.069,267.316v22.116a2.749,2.749,0,0,1-2.756,2.743H77.34V264.56h8.973A2.756,2.756,0,0,1,89.069,267.316Z" transform="translate(-76.893 -137.505)" fill="#f2f2f2"/>
    <path id="Path_204741" data-name="Path 204741" d="M89.069,294.08v5.732a2.749,2.749,0,0,1-2.756,2.743H77.34V294.08Z" transform="translate(-76.893 -147.885)" fill="#fbb03b"/>
    <path id="Path_204742" data-name="Path 204742" d="M89.069,267.316v22.116a2.749,2.749,0,0,1-2.756,2.743H77.34V264.56h8.973A2.756,2.756,0,0,1,89.069,267.316Z" transform="translate(-76.893 -137.505)" fill="#fff" opacity="0.5"/>
    <path id="Path_204743" data-name="Path 204743" d="M557.171,385.266V395.8a13.668,13.668,0,0,1-13.655,13.616H482.051A13.661,13.661,0,0,1,468.37,395.8v-10.53a13.661,13.661,0,0,1,13.681-13.616h61.466A13.668,13.668,0,0,1,557.171,385.266Z" transform="translate(-214.39 -175.161)" fill="#e2e2e2"/>
    <path id="Path_204744" data-name="Path 204744" d="M557.171,385.266V395.8a13.668,13.668,0,0,1-13.655,13.616H482.051A13.661,13.661,0,0,1,468.37,395.8v-10.53a13.661,13.661,0,0,1,13.681-13.616h61.466A13.668,13.668,0,0,1,557.171,385.266Z" transform="translate(-214.39 -175.161)" fill="#fff" opacity="0.5"/>
    <rect id="Rectangle_41570" data-name="Rectangle 41570" width="4.869" height="7.949" transform="translate(527.768 197.708)" fill="#333"/>
    <rect id="Rectangle_41571" data-name="Rectangle 41571" width="2.23" height="7.949" transform="translate(530.407 197.708)" fill="#af1d1d"/>
    <path id="Path_204745" data-name="Path 204745" d="M797.573,357.879c-18.978,0-34.474,12.864-35.706,29.131-.045-.707-.117-1.394-.117-2.081,0-17.253,16.041-31.219,35.823-31.219s35.835,13.966,35.835,31.219c0,.687-.065,1.375-.117,2.081C832.047,370.756,816.55,357.879,797.573,357.879Z" transform="translate(-317.55 -168.853)" fill="#333"/>
    <path id="Path_204746" data-name="Path 204746" d="M797.636,360.14c18.978,0,34.474,12.864,35.719,29.131H761.93C763.162,373.017,778.658,360.14,797.636,360.14Z" transform="translate(-317.614 -171.114)"/>
    <path id="Path_204747" data-name="Path 204747" d="M826.422,397.769a31.187,31.187,0,1,1-9.131-22.082A31.206,31.206,0,0,1,826.422,397.769Z" transform="translate(-318.345 -173.368)" fill="#333"/>
    <g id="Group_129260" data-name="Group 129260" transform="translate(456.512 204.023)" opacity="0.5">
      <path id="Path_204748" data-name="Path 204748" d="M780.74,403.642A20.365,20.365,0,1,0,801.1,383.27,20.365,20.365,0,0,0,780.74,403.642Z" transform="translate(-780.74 -383.27)"/>
    </g>
    <path id="Path_204749" data-name="Path 204749" d="M786.7,405.738a16.488,16.488,0,1,0,4.825-11.674A16.5,16.5,0,0,0,786.7,405.738Z" transform="translate(-326.323 -181.343)" fill="#e2e2e2"/>
    <path id="Path_204750" data-name="Path 204750" d="M792.52,407.781a12.715,12.715,0,1,0,3.725-9A12.728,12.728,0,0,0,792.52,407.781Z" transform="translate(-328.37 -183.393)"/>
    <path id="Path_204751" data-name="Path 204751" d="M826.422,397.769a31.187,31.187,0,1,1-9.131-22.082A31.206,31.206,0,0,1,826.422,397.769Z" transform="translate(-318.345 -173.368)" fill="#fff" opacity="0.3"/>
    <path id="Path_204752" data-name="Path 204752" d="M773.07,397.763a31.2,31.2,0,1,0,31.2-31.213A31.2,31.2,0,0,0,773.07,397.763Z" transform="translate(-321.531 -173.368)" fill="#333"/>
    <g id="Group_129261" data-name="Group 129261" transform="translate(462.38 204.023)" opacity="0.5">
      <path id="Path_204753" data-name="Path 204753" d="M789.79,403.642a20.365,20.365,0,1,0,20.359-20.372,20.365,20.365,0,0,0-20.359,20.372Z" transform="translate(-789.79 -383.27)"/>
    </g>
    <path id="Path_204754" data-name="Path 204754" d="M795.74,405.738a16.495,16.495,0,1,0,4.83-11.675A16.5,16.5,0,0,0,795.74,405.738Z" transform="translate(-329.502 -181.343)" fill="#e2e2e2"/>
    <path id="Path_204755" data-name="Path 204755" d="M801.57,407.781a12.715,12.715,0,1,0,3.724-9A12.721,12.721,0,0,0,801.57,407.781Z" transform="translate(-331.552 -183.392)"/>
    <path id="Path_204756" data-name="Path 204756" d="M692.719,357.879c-18.978,0-34.474,12.864-35.706,29.131-.045-.707-.123-1.394-.123-2.081,0-17.253,16.047-31.219,35.829-31.219s35.836,13.966,35.836,31.219c0,.687-.065,1.375-.117,2.081C727.193,370.756,711.7,357.879,692.719,357.879Z" transform="translate(-280.679 -168.853)" fill="#333"/>
    <path id="Path_204757" data-name="Path 204757" d="M692.786,360.14c18.978,0,34.474,12.864,35.719,29.131H657.08C658.325,373.017,673.808,360.14,692.786,360.14Z" transform="translate(-280.745 -171.114)"/>
    <path id="Path_204758" data-name="Path 204758" d="M721.572,397.769a31.187,31.187,0,1,1-9.131-22.082,31.206,31.206,0,0,1,9.131,22.082Z" transform="translate(-281.477 -173.368)" fill="#333"/>
    <g id="Group_129262" data-name="Group 129262" transform="translate(388.53 204.023)" opacity="0.5">
      <path id="Path_204759" data-name="Path 204759" d="M675.89,403.642a20.365,20.365,0,1,0,20.359-20.372A20.365,20.365,0,0,0,675.89,403.642Z" transform="translate(-675.89 -383.27)"/>
    </g>
    <path id="Path_204760" data-name="Path 204760" d="M681.85,405.738a16.488,16.488,0,1,0,4.825-11.674,16.5,16.5,0,0,0-4.825,11.674Z" transform="translate(-289.455 -181.343)" fill="#e2e2e2"/>
    <path id="Path_204761" data-name="Path 204761" d="M687.67,407.781a12.714,12.714,0,1,0,3.725-9A12.728,12.728,0,0,0,687.67,407.781Z" transform="translate(-291.502 -183.393)"/>
    <path id="Path_204762" data-name="Path 204762" d="M721.572,397.769a31.187,31.187,0,1,1-9.131-22.082,31.206,31.206,0,0,1,9.131,22.082Z" transform="translate(-281.477 -173.368)" fill="#fff" opacity="0.3"/>
    <path id="Path_204763" data-name="Path 204763" d="M668.22,397.763a31.2,31.2,0,1,0,31.193-31.213A31.2,31.2,0,0,0,668.22,397.763Z" transform="translate(-284.663 -173.368)" fill="#333"/>
    <g id="Group_129263" data-name="Group 129263" transform="translate(394.392 204.023)" opacity="0.5">
      <path id="Path_204764" data-name="Path 204764" d="M684.93,403.642a20.359,20.359,0,1,0,5.961-14.407A20.365,20.365,0,0,0,684.93,403.642Z" transform="translate(-684.93 -383.27)"/>
    </g>
    <path id="Path_204765" data-name="Path 204765" d="M690.89,405.738a16.494,16.494,0,1,0,4.83-11.675A16.5,16.5,0,0,0,690.89,405.738Z" transform="translate(-292.634 -181.343)" fill="#e2e2e2"/>
    <path id="Path_204766" data-name="Path 204766" d="M696.72,407.781a12.714,12.714,0,1,0,3.724-9A12.721,12.721,0,0,0,696.72,407.781Z" transform="translate(-294.684 -183.392)"/>
    <path id="Path_204767" data-name="Path 204767" d="M262.006,357.879c-19.03,0-34.571,12.864-35.81,29.131-.045-.707-.117-1.394-.117-2.081,0-17.253,16.086-31.219,35.926-31.219s35.933,13.966,35.933,31.219c0,.687-.071,1.375-.123,2.081C296.577,370.756,281.042,357.879,262.006,357.879Z" transform="translate(-129.194 -168.853)" fill="#333"/>
    <path id="Path_204768" data-name="Path 204768" d="M262.07,360.14c19.036,0,34.571,12.864,35.81,29.131H226.26C227.5,373.017,243.04,360.14,262.07,360.14Z" transform="translate(-129.257 -171.114)"/>
    <path id="Path_204769" data-name="Path 204769" d="M290.982,397.779a31.187,31.187,0,1,1-9.131-22.082A31.206,31.206,0,0,1,290.982,397.779Z" transform="translate(-130.069 -173.371)" fill="#333"/>
    <g id="Group_129264" data-name="Group 129264" transform="translate(109.348 204.03)" opacity="0.5">
      <path id="Path_204770" data-name="Path 204770" d="M245.3,403.652a20.365,20.365,0,1,0,20.359-20.372A20.365,20.365,0,0,0,245.3,403.652Z" transform="translate(-245.3 -383.28)"/>
    </g>
    <path id="Path_204771" data-name="Path 204771" d="M251.26,405.748a16.488,16.488,0,1,0,4.825-11.674,16.5,16.5,0,0,0-4.825,11.674Z" transform="translate(-138.048 -181.346)" fill="#e2e2e2"/>
    <path id="Path_204772" data-name="Path 204772" d="M257.08,407.788a12.715,12.715,0,1,0,3.722-9,12.721,12.721,0,0,0-3.722,9Z" transform="translate(-140.094 -183.392)"/>
    <path id="Path_204773" data-name="Path 204773" d="M290.982,397.779a31.187,31.187,0,1,1-9.131-22.082A31.206,31.206,0,0,1,290.982,397.779Z" transform="translate(-130.069 -173.371)" fill="#fff" opacity="0.3"/>
    <path id="Path_204774" data-name="Path 204774" d="M237.71,397.763a31.193,31.193,0,1,0,9.134-22.074,31.2,31.2,0,0,0-9.134,22.074Z" transform="translate(-133.283 -173.368)" fill="#333"/>
    <g id="Group_129265" data-name="Group 129265" transform="translate(115.268 204.023)" opacity="0.5">
      <path id="Path_204775" data-name="Path 204775" d="M254.43,403.642a20.365,20.365,0,1,0,20.359-20.372A20.365,20.365,0,0,0,254.43,403.642Z" transform="translate(-254.43 -383.27)"/>
    </g>
    <path id="Path_204776" data-name="Path 204776" d="M260.39,405.738a16.5,16.5,0,1,0,16.495-16.508A16.5,16.5,0,0,0,260.39,405.738Z" transform="translate(-141.258 -181.343)" fill="#e2e2e2"/>
    <path id="Path_204777" data-name="Path 204777" d="M279.35,412.4a4.2,4.2,0,1,0,1.231-2.977,4.208,4.208,0,0,0-1.231,2.977Z" transform="translate(-147.925 -188.009)"/>
    <path id="Path_204778" data-name="Path 204778" d="M486.27,385.258v10.517a13.668,13.668,0,0,0,13.694,13.648h61.453a13.655,13.655,0,0,0,13.648-13.648V385.258a13.655,13.655,0,0,0-13.648-13.648H499.964a13.668,13.668,0,0,0-13.694,13.648Z" transform="translate(-220.684 -175.147)" fill="#e2e2e2"/>
    <g id="Group_129266" data-name="Group 129266" transform="translate(282.282 196.463)">
      <rect id="Rectangle_41572" data-name="Rectangle 41572" width="1.031" height="37.813" transform="translate(57.083)" fill="#363535"/>
      <rect id="Rectangle_41573" data-name="Rectangle 41573" width="0.986" height="37.813" transform="translate(45.71)" fill="#363535"/>
      <rect id="Rectangle_41574" data-name="Rectangle 41574" width="1.031" height="37.813" transform="translate(34.247)" fill="#363535"/>
      <rect id="Rectangle_41575" data-name="Rectangle 41575" width="0.986" height="37.813" transform="translate(22.875)" fill="#363535"/>
      <rect id="Rectangle_41576" data-name="Rectangle 41576" width="0.986" height="37.813" transform="translate(11.457)" fill="#363535"/>
      <rect id="Rectangle_41577" data-name="Rectangle 41577" width="1.031" height="37.813" fill="#363535"/>
    </g>
    <g id="Group_129267" data-name="Group 129267" transform="translate(282.282 196.463)">
      <rect id="Rectangle_41578" data-name="Rectangle 41578" width="1.031" height="37.813" transform="translate(57.083)" fill="#363535"/>
      <rect id="Rectangle_41579" data-name="Rectangle 41579" width="0.986" height="37.813" transform="translate(45.71)" fill="#363535"/>
      <rect id="Rectangle_41580" data-name="Rectangle 41580" width="1.031" height="37.813" transform="translate(34.247)" fill="#363535"/>
      <rect id="Rectangle_41581" data-name="Rectangle 41581" width="0.986" height="37.813" transform="translate(22.875)" fill="#363535"/>
      <rect id="Rectangle_41582" data-name="Rectangle 41582" width="0.986" height="37.813" transform="translate(11.457)" fill="#363535"/>
      <rect id="Rectangle_41583" data-name="Rectangle 41583" width="1.031" height="37.813" fill="#363535"/>
    </g>
    <path id="Path_204779" data-name="Path 204779" d="M497.21,381.189a3.242,3.242,0,1,0,3.242-3.209,3.242,3.242,0,0,0-3.242,3.209Z" transform="translate(-224.531 -177.387)"/>
    <rect id="Rectangle_41584" data-name="Rectangle 41584" width="29.695" height="2.464" transform="translate(18.907 143.822)" fill="#2f3031"/>
    <rect id="Rectangle_41585" data-name="Rectangle 41585" width="29.695" height="2.464" transform="translate(18.907 148.62)" fill="#2f3031"/>
    <rect id="Rectangle_41586" data-name="Rectangle 41586" width="29.695" height="2.464" transform="translate(18.907 153.418)" fill="#2f3031"/>
    <rect id="Rectangle_41587" data-name="Rectangle 41587" width="29.695" height="2.464" transform="translate(18.907 158.216)" fill="#2f3031"/>
    <rect id="Rectangle_41588" data-name="Rectangle 41588" width="29.695" height="2.464" transform="translate(18.907 163.014)" fill="#2f3031"/>
    <rect id="Rectangle_41589" data-name="Rectangle 41589" width="29.695" height="2.464" transform="translate(18.907 120.163)" fill="#2f3031"/>
    <rect id="Rectangle_41590" data-name="Rectangle 41590" width="29.695" height="2.464" transform="translate(18.907 124.961)" fill="#2f3031"/>
    <rect id="Rectangle_41591" data-name="Rectangle 41591" width="29.695" height="2.464" transform="translate(18.907 129.759)" fill="#2f3031"/>
    <rect id="Rectangle_41592" data-name="Rectangle 41592" width="29.695" height="2.464" transform="translate(18.907 134.557)" fill="#2f3031"/>
    <rect id="Rectangle_41593" data-name="Rectangle 41593" width="29.695" height="2.464" transform="translate(18.907 139.355)" fill="#2f3031"/>
    <path id="Path_204780" data-name="Path 204780" d="M284.394,124.35a1.783,1.783,0,0,1,1.757,2.094l-1.264,7.132-7.048,39.473a1.789,1.789,0,0,1-1.757,1.472h-55.76a1.783,1.783,0,0,1-1.757-2.094l1.569-8.494,6.775-38.111a1.783,1.783,0,0,1,1.757-1.472Z" transform="translate(-126.542 -88.203)" fill="#29abe2"/>
    <path id="Path_204781" data-name="Path 204781" d="M294.442,138.57l-7.048,39.479a1.789,1.789,0,0,1-1.757,1.472H245.71l.24-1.368,7.028-39.583Z" transform="translate(-136.096 -93.203)" fill="#fff" opacity="0.5"/>
    <g id="Group_129272" data-name="Group 129272" transform="translate(93.592 36.147)" opacity="0.5">
      <g id="Group_129268" data-name="Group 129268" transform="translate(33.631 0)">
        <path id="Path_204782" data-name="Path 204782" d="M305.256,126.444l-8.312,46.6a1.79,1.79,0,0,1-1.757,1.472H272.87l23.925-50.171h6.7a1.783,1.783,0,0,1,1.757,2.094Z" transform="translate(-272.87 -124.35)" fill="#fff"/>
      </g>
      <g id="Group_129269" data-name="Group 129269">
        <path id="Path_204783" data-name="Path 204783" d="M239.848,124.35,221,163.933l6.776-38.111a1.783,1.783,0,0,1,1.757-1.472Z" transform="translate(-221 -124.35)" fill="#fff"/>
      </g>
      <g id="Group_129270" data-name="Group 129270" transform="translate(1.005)">
        <path id="Path_204784" data-name="Path 204784" d="M253.153,124.35l-23.931,50.171H222.55l23.925-50.171Z" transform="translate(-222.55 -124.35)" fill="#fff"/>
      </g>
      <g id="Group_129271" data-name="Group 129271" transform="translate(17.124)">
        <path id="Path_204785" data-name="Path 204785" d="M278.013,124.35l-23.931,50.171H247.41l23.925-50.171Z" transform="translate(-247.41 -124.35)" fill="#fff"/>
      </g>
    </g>
    <rect id="Rectangle_41594" data-name="Rectangle 41594" width="21.02" height="3.423" transform="translate(131.574 108.531)" fill="#2f3031"/>
    <rect id="Rectangle_41595" data-name="Rectangle 41595" width="21.02" height="3.423" transform="translate(131.574 115.131)" fill="#2f3031"/>
    <rect id="Rectangle_41596" data-name="Rectangle 41596" width="21.02" height="3.423" transform="translate(131.574 121.732)" fill="#2f3031"/>
    <rect id="Rectangle_41597" data-name="Rectangle 41597" width="21.02" height="3.423" transform="translate(131.574 128.326)" fill="#2f3031"/>
    <path id="Path_204786" data-name="Path 204786" d="M1427.573,357.879c-18.978,0-34.467,12.864-35.706,29.131-.045-.707-.117-1.394-.117-2.081,0-17.253,16.041-31.219,35.823-31.219s35.842,13.966,35.842,31.219c0,.687-.071,1.375-.123,2.081C1462.059,370.756,1446.563,357.879,1427.573,357.879Z" transform="translate(-539.076 -168.853)" fill="#333"/>
    <path id="Path_204787" data-name="Path 204787" d="M1427.661,360.14c18.978,0,34.474,12.864,35.719,29.131H1392C1393.206,373.017,1408.7,360.14,1427.661,360.14Z" transform="translate(-539.164 -171.114)"/>
    <path id="Path_204788" data-name="Path 204788" d="M1456.449,397.769a31.186,31.186,0,1,1-9.13-22.08,31.2,31.2,0,0,1,9.13,22.08Z" transform="translate(-539.885 -173.368)" fill="#333"/>
    <g id="Group_129273" data-name="Group 129273" transform="translate(865.006 204.023)" opacity="0.5">
      <path id="Path_204789" data-name="Path 204789" d="M1410.77,403.642a20.365,20.365,0,1,0,20.359-20.372A20.365,20.365,0,0,0,1410.77,403.642Z" transform="translate(-1410.77 -383.27)"/>
    </g>
    <path id="Path_204790" data-name="Path 204790" d="M1416.72,405.738a16.495,16.495,0,1,0,4.83-11.675,16.5,16.5,0,0,0-4.83,11.675Z" transform="translate(-547.856 -181.343)" fill="#e2e2e2"/>
    <path id="Path_204791" data-name="Path 204791" d="M1422.55,407.781a12.715,12.715,0,1,0,3.724-9A12.721,12.721,0,0,0,1422.55,407.781Z" transform="translate(-549.906 -183.392)"/>
    <path id="Path_204792" data-name="Path 204792" d="M1456.449,397.769a31.186,31.186,0,1,1-9.13-22.08,31.2,31.2,0,0,1,9.13,22.08Z" transform="translate(-539.885 -173.368)" fill="#fff" opacity="0.3"/>
    <path id="Path_204793" data-name="Path 204793" d="M1403.09,397.763a31.193,31.193,0,1,0,9.134-22.074A31.2,31.2,0,0,0,1403.09,397.763Z" transform="translate(-543.064 -173.368)" fill="#333"/>
    <g id="Group_129274" data-name="Group 129274" transform="translate(870.867 204.023)" opacity="0.5">
      <path id="Path_204794" data-name="Path 204794" d="M1419.81,403.642a20.365,20.365,0,1,0,20.359-20.372A20.365,20.365,0,0,0,1419.81,403.642Z" transform="translate(-1419.81 -383.27)"/>
    </g>
    <path id="Path_204795" data-name="Path 204795" d="M1425.77,405.738a16.5,16.5,0,1,0,16.495-16.508,16.5,16.5,0,0,0-16.495,16.508Z" transform="translate(-551.038 -181.343)" fill="#e2e2e2"/>
    <path id="Path_204796" data-name="Path 204796" d="M1431.6,407.781a12.721,12.721,0,1,0,12.715-12.721A12.721,12.721,0,0,0,1431.6,407.781Z" transform="translate(-553.088 -183.392)"/>
    <path id="Path_204797" data-name="Path 204797" d="M1309.993,357.879c-18.978,0-34.468,12.864-35.706,29.131-.045-.707-.117-1.394-.117-2.081,0-17.253,16.041-31.219,35.823-31.219s35.836,13.966,35.836,31.219c0,.687-.065,1.375-.117,2.081C1344.467,370.756,1328.97,357.879,1309.993,357.879Z" transform="translate(-497.732 -168.853)" fill="#333"/>
    <path id="Path_204798" data-name="Path 204798" d="M1310.056,360.14c18.978,0,34.474,12.864,35.719,29.131H1274.35C1275.588,373.017,1291.078,360.14,1310.056,360.14Z" transform="translate(-497.795 -171.114)"/>
    <path id="Path_204799" data-name="Path 204799" d="M1338.842,397.769a31.187,31.187,0,1,1-9.128-22.078A31.206,31.206,0,0,1,1338.842,397.769Z" transform="translate(-498.526 -173.368)" fill="#333"/>
    <g id="Group_129275" data-name="Group 129275" transform="translate(788.751 204.023)" opacity="0.5">
      <path id="Path_204800" data-name="Path 204800" d="M1293.16,403.642a20.365,20.365,0,1,0,20.359-20.372A20.366,20.366,0,0,0,1293.16,403.642Z" transform="translate(-1293.16 -383.27)"/>
    </g>
    <path id="Path_204801" data-name="Path 204801" d="M1299.12,405.738a16.5,16.5,0,1,0,16.495-16.508A16.5,16.5,0,0,0,1299.12,405.738Z" transform="translate(-506.505 -181.343)" fill="#e2e2e2"/>
    <path id="Path_204802" data-name="Path 204802" d="M1304.94,407.781a12.728,12.728,0,1,0,12.723-12.721,12.728,12.728,0,0,0-12.723,12.721Z" transform="translate(-508.551 -183.393)"/>
    <path id="Path_204803" data-name="Path 204803" d="M1338.842,397.769a31.187,31.187,0,1,1-9.128-22.078A31.206,31.206,0,0,1,1338.842,397.769Z" transform="translate(-498.526 -173.368)" fill="#fff" opacity="0.3"/>
    <path id="Path_204804" data-name="Path 204804" d="M1285.49,397.763a31.193,31.193,0,1,0,9.134-22.074A31.2,31.2,0,0,0,1285.49,397.763Z" transform="translate(-501.712 -173.368)" fill="#333"/>
    <g id="Group_129276" data-name="Group 129276" transform="translate(794.619 204.023)" opacity="0.5">
      <path id="Path_204805" data-name="Path 204805" d="M1302.21,403.642a20.365,20.365,0,1,0,20.359-20.372A20.365,20.365,0,0,0,1302.21,403.642Z" transform="translate(-1302.21 -383.27)"/>
    </g>
    <path id="Path_204806" data-name="Path 204806" d="M1308.17,405.738a16.488,16.488,0,1,0,4.825-11.674A16.5,16.5,0,0,0,1308.17,405.738Z" transform="translate(-509.687 -181.343)" fill="#e2e2e2"/>
    <path id="Path_204807" data-name="Path 204807" d="M1314,407.781a12.715,12.715,0,1,0,3.724-9,12.721,12.721,0,0,0-3.724,9Z" transform="translate(-511.737 -183.392)"/>
    <path id="Path_204808" data-name="Path 204808" d="M1192.389,357.879c-18.978,0-34.474,12.864-35.706,29.131-.052-.707-.123-1.394-.123-2.081,0-17.253,16.047-31.219,35.829-31.219s35.836,13.966,35.836,31.219c0,.687-.071,1.375-.117,2.081C1226.87,370.756,1211.367,357.879,1192.389,357.879Z" transform="translate(-456.377 -168.853)" fill="#333"/>
    <path id="Path_204809" data-name="Path 204809" d="M1192.456,360.14c18.978,0,34.474,12.864,35.719,29.131H1156.75C1157.982,373.017,1173.478,360.14,1192.456,360.14Z" transform="translate(-456.443 -171.114)"/>
    <path id="Path_204810" data-name="Path 204810" d="M1221.242,397.769a30.643,30.643,0,1,1,0-.006Z" transform="translate(-457.175 -173.368)" fill="#333"/>
    <g id="Group_129277" data-name="Group 129277" transform="translate(712.502 204.023)" opacity="0.5">
      <path id="Path_204811" data-name="Path 204811" d="M1175.56,403.642a20.365,20.365,0,1,0,20.359-20.372,20.366,20.366,0,0,0-20.359,20.372Z" transform="translate(-1175.56 -383.27)"/>
    </g>
    <path id="Path_204812" data-name="Path 204812" d="M1181.52,405.738a16.488,16.488,0,1,0,4.834-11.683A16.5,16.5,0,0,0,1181.52,405.738Z" transform="translate(-465.153 -181.343)" fill="#e2e2e2"/>
    <path id="Path_204813" data-name="Path 204813" d="M1187.34,407.781a12.715,12.715,0,1,0,3.733-9.006A12.721,12.721,0,0,0,1187.34,407.781Z" transform="translate(-467.2 -183.392)"/>
    <path id="Path_204814" data-name="Path 204814" d="M1221.242,397.769a30.643,30.643,0,1,1,0-.006Z" transform="translate(-457.175 -173.368)" fill="#fff" opacity="0.3"/>
    <path id="Path_204815" data-name="Path 204815" d="M1167.89,397.763a31.2,31.2,0,1,0,31.193-31.213A31.2,31.2,0,0,0,1167.89,397.763Z" transform="translate(-460.361 -173.368)" fill="#333"/>
    <g id="Group_129278" data-name="Group 129278" transform="translate(718.364 204.023)" opacity="0.5">
      <path id="Path_204816" data-name="Path 204816" d="M1184.6,403.642a20.365,20.365,0,1,0,20.359-20.372A20.365,20.365,0,0,0,1184.6,403.642Z" transform="translate(-1184.6 -383.27)"/>
    </g>
    <path id="Path_204817" data-name="Path 204817" d="M1190.56,405.738a16.5,16.5,0,1,0,16.495-16.508,16.5,16.5,0,0,0-16.495,16.508Z" transform="translate(-468.332 -181.343)" fill="#e2e2e2"/>
    <path id="Path_204818" data-name="Path 204818" d="M1196.39,407.781A12.721,12.721,0,1,0,1209.1,395.06,12.721,12.721,0,0,0,1196.39,407.781Z" transform="translate(-470.382 -183.392)"/>
  </g>
</svg>
