<svg xmlns="http://www.w3.org/2000/svg" width="81" height="81" viewBox="0 0 81 81">
  <g id="t1-ic15" transform="translate(-377 -9281.324)">
    <path id="Rectangle_34487" data-name="Rectangle 34487" d="M1,1V80H80V1H1M0,0H81V81H0Z" transform="translate(377 9281.324)"/>
    <g id="Group_102718" data-name="Group 102718" transform="translate(392 9299.324)">
      <rect id="Rectangle_34512" data-name="Rectangle 34512" width="22.46" height="19.367" transform="translate(16.438 25.959)"/>
      <path id="Line_280" data-name="Line 280" d="M19.205,22.483a1,1,0,0,1-.746-.334L-.746.666A1,1,0,0,1-.666-.746,1,1,0,0,1,.746-.666l19.2,21.483a1,1,0,0,1-.745,1.666Z" transform="translate(17.496)"/>
      <path id="Line_281" data-name="Line 281" d="M0,21.832a1,1,0,0,1-.658-.247,1,1,0,0,1-.094-1.411L17.476-.659a1,1,0,0,1,1.411-.094A1,1,0,0,1,18.981.659L.753,21.491A1,1,0,0,1,0,21.832Z" transform="translate(17.984 0.325)"/>
      <path id="Path_159162" data-name="Path 159162" d="M48.956,1759.427h11.23l-5.615,8.951Z" transform="translate(-48.956 -1731.353)"/>
      <path id="Path_159163" data-name="Path 159163" d="M77.616,1759.427h11.23l-5.615,8.951Z" transform="translate(-37.579 -1731.353)"/>
      <path id="Path_159164" data-name="Path 159164" d="M93.266,1766.5a.5.5,0,0,1-.5-.46s-.018-.214-.068-.586a.5.5,0,1,1,.991-.134c.054.4.073.63.074.64a.5.5,0,0,1-.458.538Zm-40.931-1.465a.5.5,0,0,1-.487-.613,20.1,20.1,0,0,1,.6-1.964.5.5,0,1,1,.943.334c-.4,1.129-.57,1.849-.572,1.857A.5.5,0,0,1,52.334,1765.033Zm40.51-1.116a.5.5,0,0,1-.488-.394c-.138-.636-.3-1.276-.482-1.9a.5.5,0,0,1,.96-.279c.189.65.357,1.313.5,1.972a.5.5,0,0,1-.383.595A.505.505,0,0,1,92.844,1763.917Zm-39.19-2.654a.5.5,0,0,1-.458-.7c.269-.621.563-1.239.871-1.838a.5.5,0,0,1,.889.458c-.3.578-.582,1.176-.842,1.777A.5.5,0,0,1,53.655,1761.263Zm38.075-1.184a.5.5,0,0,1-.469-.327c-.228-.62-.48-1.23-.747-1.814a.5.5,0,0,1,.909-.416c.277.606.538,1.24.775,1.884a.5.5,0,0,1-.469.673Zm-36.241-2.368a.5.5,0,0,1-.427-.76c.355-.585.732-1.157,1.12-1.7a.5.5,0,0,1,.814.581c-.374.524-.737,1.075-1.08,1.639A.5.5,0,0,1,55.488,1757.711Zm34.575-1.264a.5.5,0,0,1-.436-.255c-.324-.575-.671-1.133-1.034-1.657a.5.5,0,1,1,.823-.568c.38.55.744,1.133,1.083,1.735a.5.5,0,0,1-.435.745Zm-32.25-1.986a.5.5,0,0,1-.382-.822c.443-.525.907-1.031,1.382-1.5a.5.5,0,0,1,.706.708c-.454.453-.9.938-1.323,1.441A.5.5,0,0,1,57.814,1754.461Zm29.974-1.3a.5.5,0,0,1-.381-.175,17.593,17.593,0,0,0-1.341-1.407.5.5,0,0,1,.684-.729,18.6,18.6,0,0,1,1.417,1.487.5.5,0,0,1-.38.825Zm-27.142-1.522a.5.5,0,0,1-.319-.885c.528-.437,1.08-.85,1.64-1.227a.5.5,0,0,1,.559.83c-.533.359-1.058.752-1.561,1.168A.5.5,0,0,1,60.646,1751.643Zm24.227-1.2a.5.5,0,0,1-.3-.1,16.037,16.037,0,0,0-1.627-1.053.5.5,0,0,1,.492-.871,17.015,17.015,0,0,1,1.729,1.12.5.5,0,0,1-.3.9Zm-20.913-1.023a.5.5,0,0,1-.236-.941,19.87,19.87,0,0,1,1.857-.871.5.5,0,1,1,.377.926,18.885,18.885,0,0,0-1.763.827A.5.5,0,0,1,63.96,1749.415Zm17.439-.938a.5.5,0,0,1-.191-.038,16.92,16.92,0,0,0-1.833-.639.5.5,0,1,1,.275-.962,17.951,17.951,0,0,1,1.942.677.5.5,0,0,1-.192.962Zm-13.742-.568a.5.5,0,0,1-.14-.98c.648-.189,1.318-.35,1.993-.477a.5.5,0,0,1,.185.983c-.642.121-1.281.274-1.9.454A.5.5,0,0,1,67.657,1747.908Zm9.906-.534a.5.5,0,0,1-.086-.007c-.626-.109-1.278-.189-1.937-.239a.5.5,0,0,1,.076-1c.691.053,1.375.137,2.032.251a.5.5,0,0,1-.085.993Zm-5.982-.209a.5.5,0,0,1-.046-1c.665-.062,1.351-.1,2.039-.1h0a.5.5,0,0,1,0,1c-.66.006-1.317.039-1.954.1Z" transform="translate(-47.615 -1736.459)"/>
    </g>
  </g>
</svg>
