<svg xmlns="http://www.w3.org/2000/svg" width="81" height="81" viewBox="0 0 81 81">
  <g id="t1-ic7" transform="translate(-377 -8506.088)">
    <path id="Rectangle_34503" data-name="Rectangle 34503" d="M1,1V80H80V1H1M0,0H81V81H0Z" transform="translate(377 8506.088)"/>
    <g id="Group_102728" data-name="Group 102728" transform="translate(-195.139 6772.486)">
      <path id="Ellipse_5033" data-name="Ellipse 5033" d="M6.45-.5A6.3,6.3,0,0,1,11.4,2.088a9.857,9.857,0,0,1,2,6.1,9.857,9.857,0,0,1-2,6.1A6.3,6.3,0,0,1,6.45,16.873,6.3,6.3,0,0,1,1.5,14.284a9.857,9.857,0,0,1-2-6.1,9.857,9.857,0,0,1,2-6.1A6.3,6.3,0,0,1,6.45-.5Zm0,16.373c3.281,0,5.95-3.448,5.95-7.686S9.731.5,6.45.5.5,3.948.5,8.186,3.169,15.873,6.45,15.873Z" transform="translate(606.139 1745.489)"/>
      <path id="Ellipse_5034" data-name="Ellipse 5034" d="M6.45-.5A6.3,6.3,0,0,1,11.4,2.088a9.857,9.857,0,0,1,2,6.1,9.857,9.857,0,0,1-2,6.1A6.3,6.3,0,0,1,6.45,16.873,6.3,6.3,0,0,1,1.5,14.284a9.857,9.857,0,0,1-2-6.1,9.857,9.857,0,0,1,2-6.1A6.3,6.3,0,0,1,6.45-.5Zm0,16.373c3.281,0,5.95-3.448,5.95-7.686S9.731.5,6.45.5.5,3.948.5,8.186,3.169,15.873,6.45,15.873Z" transform="translate(606.139 1768.643)"/>
      <path id="Ellipse_5035" data-name="Ellipse 5035" d="M6.45-.5A6.3,6.3,0,0,1,11.4,2.088a9.857,9.857,0,0,1,2,6.1,9.857,9.857,0,0,1-2,6.1A6.3,6.3,0,0,1,6.45,16.873,6.3,6.3,0,0,1,1.5,14.284a9.857,9.857,0,0,1-2-6.1,9.857,9.857,0,0,1,2-6.1A6.3,6.3,0,0,1,6.45-.5Zm0,16.373c3.281,0,5.95-3.448,5.95-7.686S9.731.5,6.45.5.5,3.948.5,8.186,3.169,15.873,6.45,15.873Z" transform="translate(606.139 1790.156)"/>
      <path id="Line_291" data-name="Line 291" d="M.5,8.765h-1V0h1Z" transform="translate(612.589 1741.602)"/>
      <path id="Line_292" data-name="Line 292" d="M.5,13.065h-1V0h1Z" transform="translate(612.589 1758.636)"/>
      <path id="Line_293" data-name="Line 293" d="M.5,12.4h-1V0h1Z" transform="translate(612.589 1782.12)"/>
    </g>
  </g>
</svg>
