<svg xmlns="http://www.w3.org/2000/svg" width="88.241" height="50.186" viewBox="0 0 88.241 50.186">
  <g id="t1-ic7-1" transform="translate(-1059.376 -1683.898)">
    <path id="Path_159174" data-name="Path 159174" d="M1167.912,1683.9a.5.5,0,0,1,.5.513l-.787,31.347a.5.5,0,0,1-.265.429l-23.609,12.591a.5.5,0,0,1-.735-.441v-31.216a.5.5,0,0,1,.269-.443l24.4-12.723A.5.5,0,0,1,1167.912,1683.9Zm-1.28,31.543.758-30.208-23.375,12.19v30.08Z" transform="translate(-20.795)"/>
    <path id="Rectangle_34530" data-name="Rectangle 34530" d="M0-.5H62.564a.5.5,0,0,1,.5.5V31.479a.5.5,0,0,1-.5.5H0a.5.5,0,0,1-.5-.5V0A.5.5,0,0,1,0-.5ZM62.064.5H.5V30.979H62.064Z" transform="translate(1060.157 1696.859)"/>
    <path id="Path_159175" data-name="Path 159175" d="M1083.766,1683.9h63.351a.5.5,0,0,1,.227.945l-24.4,12.46a.5.5,0,0,1-.227.055h-62.564a.5.5,0,0,1-.233-.942l23.609-12.46A.5.5,0,0,1,1083.766,1683.9Zm61.272,1H1083.89l-21.714,11.46H1122.6Z"/>
    <path id="Line_294" data-name="Line 294" d="M62.389.5H0A.5.5,0,0,1-.5,0,.5.5,0,0,1,0-.5H62.389a.5.5,0,0,1,.5.5A.5.5,0,0,1,62.389.5Z" transform="translate(1067.677 1692.89)"/>
    <path id="Line_295" data-name="Line 295" d="M62.389.5H0A.5.5,0,0,1-.5,0,.5.5,0,0,1,0-.5H62.389a.5.5,0,0,1,.5.5A.5.5,0,0,1,62.389.5Z" transform="translate(1075.753 1688.595)"/>
    <path id="Line_296" data-name="Line 296" d="M0,12.237a.5.5,0,0,1-.45-.281.5.5,0,0,1,.231-.668L23.92-.45a.5.5,0,0,1,.668.231.5.5,0,0,1-.231.668L.219,12.186A.5.5,0,0,1,0,12.237Z" transform="translate(1122.721 1694.631)"/>
    <path id="Line_297" data-name="Line 297" d="M0,12.237a.5.5,0,0,1-.45-.281.5.5,0,0,1,.231-.668L23.92-.45a.5.5,0,0,1,.668.231.5.5,0,0,1-.231.668L.219,12.186A.5.5,0,0,1,0,12.237Z" transform="translate(1122.721 1706.368)"/>
    <path id="Line_298" data-name="Line 298" d="M62.564.5H0A.5.5,0,0,1-.5,0,.5.5,0,0,1,0-.5H62.564a.5.5,0,0,1,.5.5A.5.5,0,0,1,62.564.5Z" transform="translate(1060.157 1706.368)"/>
    <path id="Line_299" data-name="Line 299" d="M62.564.5H0A.5.5,0,0,1-.5,0,.5.5,0,0,1,0-.5H62.564a.5.5,0,0,1,.5.5A.5.5,0,0,1,62.564.5Z" transform="translate(1060.157 1717.844)"/>
    <path id="Path_159176" data-name="Path 159176" d="M1106.326,1744.459h-31.347a.5.5,0,0,1-.259-.072l-4.865-2.944h-9.7a.5.5,0,0,1-.5-.5v-2.23a.5.5,0,0,1,1,0v1.73h9.337a.5.5,0,0,1,.259.072l4.865,2.944h31.072l4.342-2.554a.5.5,0,0,1,.254-.069H1122.1l7.47-3.112V1734.8a.5.5,0,0,1,.265-.441l4.853-2.588a.5.5,0,0,1,.735.441v1.153h5.773l5.425-3.7v-2.87l-5.332,2.6.036,3.283a.5.5,0,0,1-.495.505h-.006a.5.5,0,0,1-.5-.495l-.04-3.6a.5.5,0,0,1,.281-.455l6.335-3.09a.5.5,0,0,1,.719.449v3.935a.5.5,0,0,1-.218.413l-5.771,3.935a.5.5,0,0,1-.282.087h-6.427a.5.5,0,0,1-.5-.5v-.819l-3.853,2.055v2.961a.5.5,0,0,1-.308.462l-7.87,3.279a.5.5,0,0,1-.192.038h-11.275l-4.342,2.554A.5.5,0,0,1,1106.326,1744.459Z" transform="translate(0 -10.376)"/>
    <path id="Line_300" data-name="Line 300" d="M0,3.123a.5.5,0,0,1-.5-.5V0A.5.5,0,0,1,0-.5.5.5,0,0,1,.5,0V2.623A.5.5,0,0,1,0,3.123Z" transform="translate(1122.721 1728.337)"/>
    <g id="Group_130119" data-name="Group 130119" transform="translate(427.027 -6850.037)">
      <g id="Group_102731" data-name="Group 102731" transform="matrix(0.588, 0.809, -0.809, 0.588, 1747.696, 7030.665)">
        <path id="Ellipse_5033" data-name="Ellipse 5033" d="M3.519-.5A3.66,3.66,0,0,1,6.4,1,5.606,5.606,0,0,1,7.538,4.466,5.606,5.606,0,0,1,6.4,7.934a3.66,3.66,0,0,1-2.881,1.5,3.66,3.66,0,0,1-2.881-1.5A5.606,5.606,0,0,1-.5,4.466,5.606,5.606,0,0,1,.638,1,3.66,3.66,0,0,1,3.519-.5Zm0,8.933c1.665,0,3.019-1.779,3.019-3.966S5.184.5,3.519.5.5,2.279.5,4.466,1.854,8.433,3.519,8.433Z" transform="translate(606.139 1743.723)"/>
        <path id="Ellipse_5034" data-name="Ellipse 5034" d="M3.519-.5A3.66,3.66,0,0,1,6.4,1,5.606,5.606,0,0,1,7.538,4.466,5.606,5.606,0,0,1,6.4,7.934a3.66,3.66,0,0,1-2.881,1.5,3.66,3.66,0,0,1-2.881-1.5A5.606,5.606,0,0,1-.5,4.466,5.606,5.606,0,0,1,.638,1,3.66,3.66,0,0,1,3.519-.5Zm0,8.933c1.665,0,3.019-1.779,3.019-3.966S5.184.5,3.519.5.5,2.279.5,4.466,1.854,8.433,3.519,8.433Z" transform="translate(606.139 1756.355)"/>
        <path id="Ellipse_5035" data-name="Ellipse 5035" d="M3.519-.5A3.66,3.66,0,0,1,6.4,1,5.606,5.606,0,0,1,7.538,4.466,5.606,5.606,0,0,1,6.4,7.934a3.66,3.66,0,0,1-2.881,1.5,3.66,3.66,0,0,1-2.881-1.5A5.606,5.606,0,0,1-.5,4.466,5.606,5.606,0,0,1,.638,1,3.66,3.66,0,0,1,3.519-.5Zm0,8.933c1.665,0,3.019-1.779,3.019-3.966S5.184.5,3.519.5.5,2.279.5,4.466,1.854,8.433,3.519,8.433Z" transform="translate(606.139 1768.092)"/>
        <path id="Line_291" data-name="Line 291" d="M.5,4.782h-1V0h1Z" transform="translate(609.658 1741.602)"/>
        <path id="Line_292" data-name="Line 292" d="M.5,7.128h-1V0h1Z" transform="translate(609.658 1750.896)"/>
        <path id="Line_293" data-name="Line 293" d="M.5,6.767h-1V0h1Z" transform="translate(609.658 1763.708)"/>
      </g>
      <g id="Group_102732" data-name="Group 102732" transform="matrix(-0.588, 0.809, -0.809, -0.588, 664.126, 8566.395)">
        <path id="Ellipse_5033-2" data-name="Ellipse 5033" d="M3.519-.5A3.66,3.66,0,0,1,6.4,1,5.606,5.606,0,0,1,7.538,4.466,5.606,5.606,0,0,1,6.4,7.934a3.66,3.66,0,0,1-2.881,1.5,3.66,3.66,0,0,1-2.881-1.5A5.606,5.606,0,0,1-.5,4.466,5.606,5.606,0,0,1,.638,1,3.66,3.66,0,0,1,3.519-.5Zm0,8.933c1.665,0,3.019-1.779,3.019-3.966S5.184.5,3.519.5.5,2.279.5,4.466,1.854,8.433,3.519,8.433Z" transform="translate(0 24.37)"/>
        <path id="Ellipse_5034-2" data-name="Ellipse 5034" d="M3.519-.5A3.66,3.66,0,0,1,6.4,1,5.606,5.606,0,0,1,7.538,4.466,5.606,5.606,0,0,1,6.4,7.934a3.66,3.66,0,0,1-2.881,1.5,3.66,3.66,0,0,1-2.881-1.5A5.606,5.606,0,0,1-.5,4.466,5.606,5.606,0,0,1,.638,1,3.66,3.66,0,0,1,3.519-.5Zm0,8.933c1.665,0,3.019-1.779,3.019-3.966S5.184.5,3.519.5.5,2.279.5,4.466,1.854,8.433,3.519,8.433Z" transform="translate(0 11.737)"/>
        <path id="Ellipse_5035-2" data-name="Ellipse 5035" d="M3.519-.5A3.66,3.66,0,0,1,6.4,1,5.606,5.606,0,0,1,7.538,4.466,5.606,5.606,0,0,1,6.4,7.934a3.66,3.66,0,0,1-2.881,1.5,3.66,3.66,0,0,1-2.881-1.5A5.606,5.606,0,0,1-.5,4.466,5.606,5.606,0,0,1,.638,1,3.66,3.66,0,0,1,3.519-.5Zm0,8.933c1.665,0,3.019-1.779,3.019-3.966S5.184.5,3.519.5.5,2.279.5,4.466,1.854,8.433,3.519,8.433Z" transform="translate(0 0)"/>
        <path id="Line_291-2" data-name="Line 291" d="M.5,4.782h-1V0h1Z" transform="translate(3.519 30.64)"/>
        <path id="Line_292-2" data-name="Line 292" d="M.5,7.128h-1V0h1Z" transform="translate(3.519 19.001)"/>
        <path id="Line_293-2" data-name="Line 293" d="M.5,6.767h-1V0h1Z" transform="translate(3.519 6.55)"/>
      </g>
    </g>
  </g>
</svg>
