<svg xmlns="http://www.w3.org/2000/svg" xmlns:xlink="http://www.w3.org/1999/xlink" width="179" height="179" viewBox="0 0 179 179">
  <defs>
    <filter id="Ellipse_4062" x="0" y="0" width="179" height="179" filterUnits="userSpaceOnUse">
      <feOffset dy="3" input="SourceAlpha"/>
      <feGaussianBlur stdDeviation="3" result="blur"/>
      <feFlood flood-opacity="0.161"/>
      <feComposite operator="in" in2="blur"/>
      <feComposite in="SourceGraphic"/>
    </filter>
  </defs>
  <g id="t1-t3" transform="translate(-276 -856.273)">
    <g transform="matrix(1, 0, 0, 1, 276, 856.27)" filter="url(#Ellipse_4062)">
      <circle id="Ellipse_4062-2" data-name="Ellipse 4062" cx="80.5" cy="80.5" r="80.5" transform="translate(9 6)" fill="#fff"/>
    </g>
    <circle id="Ellipse_4063" data-name="Ellipse 4063" cx="62" cy="62" r="62" transform="translate(302 881.273)" fill="#ba68c8"/>
    <g id="noun_container_3082630" transform="translate(325.332 902.601)">
      <g id="Group_128907" data-name="Group 128907" transform="translate(0 0)">
        <path id="Path_197043" data-name="Path 197043" d="M79.778,1A3.093,3.093,0,0,0,77.315.229Q56.254.31,35.2.242a5.371,5.371,0,0,0-3.731,1.526Q16.67,16.641,1.8,31.431A4.979,4.979,0,0,0,.372,34a1.36,1.36,0,0,0-.136.572,1.1,1.1,0,0,0,.037.184c-.014.194-.044.375-.044.583.041,5.118.034,10.238.027,15.356l0,5.346.01,5.734C.273,66.933.287,72.1.212,77.261a3.363,3.363,0,0,0,.777,2.5,3.331,3.331,0,0,0,2.511.79h.058q20.811-.087,41.628-.01a1.188,1.188,0,0,0,.348,0c.055,0,.112,0,.167,0a4.685,4.685,0,0,0,3.557-1.489Q64.119,64.129,79.042,49.267a4.694,4.694,0,0,0,1.5-3.567q-.061-21.148.01-42.3A3.284,3.284,0,0,0,79.778,1ZM33.4,3.69a2.17,2.17,0,0,1,1.782-.722h.007q20.356.051,40.719-.007c-4.743,4.715-11.046,10.8-17.172,16.709C53.5,24.719,48.48,29.561,44.8,33.2H3.884Q18.675,18.489,33.4,3.69ZM3.544,77.826H3.5a3.792,3.792,0,0,0-.535,0,3.008,3.008,0,0,1-.027-.535c.072-5.175.058-10.354.048-15.53l-.007-5.731,0-5.342c0-4.92.007-9.843-.027-14.763H20.586V77.819C14.9,77.823,9.223,77.8,3.544,77.826Zm19.768-.007V35.929H43.993V77.809C37.1,77.8,30.208,77.816,23.312,77.819ZM77.805,45.7a2,2,0,0,1-.692,1.632q-14.928,14.862-29.792,29.8a2.542,2.542,0,0,1-.6.47V35.135c3.673-3.632,8.695-8.477,13.9-13.5C66.749,15.724,73.056,9.639,77.812,4.91Q77.736,25.312,77.805,45.7Z" transform="translate(-0.211 -0.209)" fill="#e6ecf8"/>
        <path id="Path_197044" data-name="Path 197044" d="M7.557,25.792v-6.3a2.232,2.232,0,0,0,.913-1.775,2.276,2.276,0,1,0-4.552,0,2.237,2.237,0,0,0,.91,1.772V25.8a2.243,2.243,0,0,0-.91,1.857,2.276,2.276,0,1,0,4.549-.174A2.22,2.22,0,0,0,7.557,25.792Z" transform="translate(8.71 36.448)" fill="#e6ecf8"/>
        <path id="Path_197045" data-name="Path 197045" d="M12.454,17.67a2.276,2.276,0,1,0-4.552,0,2.243,2.243,0,0,0,.91,1.775v6.317a2.243,2.243,0,0,0-.91,1.857,2.276,2.276,0,1,0,4.549-.174,2.236,2.236,0,0,0-.91-1.693v-6.3A2.244,2.244,0,0,0,12.454,17.67Z" transform="translate(18.3 36.342)" fill="#e6ecf8"/>
        <path id="Path_197046" data-name="Path 197046" d="M15.208,29.368a1.358,1.358,0,0,0,1.925.037L40.114,7.3a1.361,1.361,0,0,0-1.888-1.963L15.246,27.443A1.355,1.355,0,0,0,15.208,29.368Z" transform="translate(34.969 11.213)" fill="#e6ecf8"/>
        <path id="Path_197047" data-name="Path 197047" d="M38.224,7.795,15.243,29.9a1.363,1.363,0,0,0,.944,2.344,1.347,1.347,0,0,0,.944-.382L40.112,9.757a1.361,1.361,0,0,0-1.888-1.963Z" transform="translate(34.968 17.134)" fill="#e6ecf8"/>
        <path id="Path_197048" data-name="Path 197048" d="M38.224,10.256,15.243,32.365a1.363,1.363,0,0,0,.944,2.344,1.347,1.347,0,0,0,.944-.382L40.112,12.219a1.361,1.361,0,0,0-1.888-1.963Z" transform="translate(34.968 23.057)" fill="#e6ecf8"/>
        <path id="Path_197049" data-name="Path 197049" d="M38.224,12.717,15.243,34.826a1.363,1.363,0,0,0,.944,2.344,1.347,1.347,0,0,0,.944-.382L40.112,14.68a1.361,1.361,0,0,0-1.888-1.963Z" transform="translate(34.968 28.981)" fill="#e6ecf8"/>
      </g>
    </g>
  </g>
</svg>
