<svg xmlns="http://www.w3.org/2000/svg" width="214.853" height="191.629" viewBox="0 0 214.853 191.629">
  <g id="t3-ic1" transform="translate(0)">
    <g id="illustration" transform="translate(0 0)">
      <path id="Path_197419" data-name="Path 197419" d="M81.517,138.268H6.63V106.25h9.409v1.3h-8.1v29.408H80.212V120.969h36.146v1.3H81.517Z" transform="translate(-1.78 51.09)" fill="#d5e5e6"/>
      <path id="Path_197420" data-name="Path 197420" d="M115.29,13.85a3.07,3.07,0,1,1-3.07-3.07A3.07,3.07,0,0,1,115.29,13.85Z" transform="translate(53.056 0.026)" fill="#95a5a6"/>
      <path id="Path_197421" data-name="Path 197421" d="M42.889,62.33H22.69V94.255H51.223V62.33H42.889Z" transform="translate(6.81 27.598)" fill="#213f47"/>
      <path id="Path_197422" data-name="Path 197422" d="M62.014,66.76H41.83V91.886H70.348V66.76H62.014Z" transform="translate(17.048 29.968)" fill="#213f47"/>
      <path id="Path_197423" data-name="Path 197423" d="M65.145,49.72H41.83V74.861H70.348V49.72Z" transform="translate(17.048 20.854)" fill="#213f47"/>
      <path id="Path_197424" data-name="Path 197424" d="M23.654,52.47H3.47V99.529H31.988V52.47H23.654Z" transform="translate(-3.47 22.325)" fill="#213f47"/>
      <path id="Path_197425" data-name="Path 197425" d="M42.919,50.46H22.72V68.034H51.253V50.46H42.919Z" transform="translate(6.826 21.249)" fill="#213f47"/>
      <path id="Path_197426" data-name="Path 197426" d="M117.654,77.61H97.47v31.941h28.518V77.61h-8.334Z" transform="translate(46.809 35.771)" fill="#213f47"/>
      <path id="Path_197427" data-name="Path 197427" d="M136.784,82.04H116.6v25.141h28.518V82.04h-8.334Z" transform="translate(57.041 38.141)" fill="#213f47"/>
      <path id="Path_197428" data-name="Path 197428" d="M139.93,65H116.6V90.141h28.518V65Z" transform="translate(57.041 29.027)" fill="#213f47"/>
      <path id="Path_197429" data-name="Path 197429" d="M98.424,67.76H78.24v47.059h28.518V67.76H98.424Z" transform="translate(36.523 30.503)" fill="#213f47"/>
      <path id="Path_197430" data-name="Path 197430" d="M117.689,65.74H97.49V83.314h28.533V65.74h-8.334Z" transform="translate(46.82 29.422)" fill="#213f47"/>
      <path id="Path_197431" data-name="Path 197431" d="M62.049,28.59H41.85V60.531H70.368V28.59H62.049Z" transform="translate(17.059 9.552)" fill="#213f47"/>
      <path id="Path_197432" data-name="Path 197432" d="M81.179,33.03H60.98V58.156H89.513V33.03H81.179Z" transform="translate(27.291 11.927)" fill="#213f47"/>
      <path id="Path_197433" data-name="Path 197433" d="M84.31,15.99H60.98V41.131H89.513V15.99Z" transform="translate(27.291 2.812)" fill="#213f47"/>
      <path id="Path_197434" data-name="Path 197434" d="M42.819,18.74H22.62V65.8H51.153V18.74H42.819Z" transform="translate(6.773 4.283)" fill="#213f47"/>
      <path id="Path_197435" data-name="Path 197435" d="M62.064,16.73H41.88V34.3H70.4V16.73H62.064Z" transform="translate(17.075 3.208)" fill="#213f47"/>
      <rect id="Rectangle_40423" data-name="Rectangle 40423" width="53.184" height="87.749" transform="translate(103.221 56.913)" fill="#d7ba76"/>
      <rect id="Rectangle_40424" data-name="Rectangle 40424" width="22.839" height="10.268" transform="translate(105.569 132.091)" fill="#fcf7ea"/>
      <rect id="Rectangle_40425" data-name="Rectangle 40425" width="1.351" height="8.749" transform="translate(106.797 132.859)" fill="#354546"/>
      <rect id="Rectangle_40426" data-name="Rectangle 40426" width="0.46" height="8.749" transform="translate(108.977 132.859)" fill="#354546"/>
      <rect id="Rectangle_40427" data-name="Rectangle 40427" width="0.46" height="8.749" transform="translate(123.773 132.859)" fill="#354546"/>
      <rect id="Rectangle_40428" data-name="Rectangle 40428" width="1.351" height="8.749" transform="translate(111.141 132.859)" fill="#354546"/>
      <rect id="Rectangle_40429" data-name="Rectangle 40429" width="0.675" height="8.749" transform="translate(113.32 132.859)" fill="#354546"/>
      <rect id="Rectangle_40430" data-name="Rectangle 40430" width="0.675" height="8.749" transform="translate(110.005 132.859)" fill="#354546"/>
      <rect id="Rectangle_40431" data-name="Rectangle 40431" width="2.256" height="8.749" transform="translate(114.579 132.859)" fill="#354546"/>
      <rect id="Rectangle_40432" data-name="Rectangle 40432" width="1.351" height="8.749" transform="translate(121.977 132.859)" fill="#354546"/>
      <rect id="Rectangle_40433" data-name="Rectangle 40433" width="1.351" height="8.749" transform="translate(118.892 132.859)" fill="#354546"/>
      <rect id="Rectangle_40434" data-name="Rectangle 40434" width="0.675" height="8.749" transform="translate(117.664 132.859)" fill="#354546"/>
      <rect id="Rectangle_40435" data-name="Rectangle 40435" width="0.675" height="8.749" transform="translate(120.672 132.859)" fill="#354546"/>
      <rect id="Rectangle_40436" data-name="Rectangle 40436" width="2.226" height="8.749" transform="translate(124.556 132.859)" fill="#354546"/>
      <rect id="Rectangle_40437" data-name="Rectangle 40437" width="1.658" height="87.749" transform="translate(129.805 56.913)" fill="#b59d63"/>
      <rect id="Rectangle_40438" data-name="Rectangle 40438" width="53.184" height="7.521" transform="translate(103.221 56.913)" fill="#b59d63"/>
      <rect id="Rectangle_40439" data-name="Rectangle 40439" width="1.412" height="5.664" transform="translate(137.264 134.425)" fill="#b59d63"/>
      <path id="Path_197436" data-name="Path 197436" d="M91.98,92.993,94.1,89.34l2.118,3.653Z" transform="translate(43.872 42.045)" fill="#b59d63"/>
      <rect id="Rectangle_40440" data-name="Rectangle 40440" width="1.412" height="5.664" transform="translate(141.946 134.425)" fill="#b59d63"/>
      <path id="Path_197437" data-name="Path 197437" d="M95.03,92.993l2.118-3.653,2.118,3.653Z" transform="translate(45.504 42.045)" fill="#b59d63"/>
      <rect id="Rectangle_40441" data-name="Rectangle 40441" width="8.902" height="0.89" transform="translate(135.852 140.718)" fill="#b59d63"/>
      <g id="Group_128982" data-name="Group 128982" transform="translate(111.816 56.913)">
        <rect id="Rectangle_40442" data-name="Rectangle 40442" width="5.848" height="14.428" fill="#b59d63"/>
      </g>
      <g id="Group_128983" data-name="Group 128983" transform="translate(140.871 56.913)">
        <rect id="Rectangle_40443" data-name="Rectangle 40443" width="5.848" height="14.428" fill="#b59d63"/>
      </g>
      <rect id="Rectangle_40444" data-name="Rectangle 40444" width="53.521" height="28.211" transform="translate(38.556 56.898)" fill="#d7ba76"/>
      <rect id="Rectangle_40445" data-name="Rectangle 40445" width="22.977" height="10.345" transform="translate(40.92 72.462)" fill="#fcf7ea"/>
      <rect id="Rectangle_40446" data-name="Rectangle 40446" width="1.366" height="8.81" transform="translate(42.163 73.229)" fill="#354546"/>
      <rect id="Rectangle_40447" data-name="Rectangle 40447" width="0.46" height="8.81" transform="translate(44.358 73.229)" fill="#354546"/>
      <rect id="Rectangle_40448" data-name="Rectangle 40448" width="0.46" height="8.81" transform="translate(59.246 73.229)" fill="#354546"/>
      <rect id="Rectangle_40449" data-name="Rectangle 40449" width="1.366" height="8.81" transform="translate(46.538 73.229)" fill="#354546"/>
      <rect id="Rectangle_40450" data-name="Rectangle 40450" width="0.675" height="8.81" transform="translate(48.717 73.229)" fill="#354546"/>
      <rect id="Rectangle_40451" data-name="Rectangle 40451" width="0.675" height="8.81" transform="translate(45.386 73.229)" fill="#354546"/>
      <rect id="Rectangle_40452" data-name="Rectangle 40452" width="2.272" height="8.81" transform="translate(49.991 73.229)" fill="#354546"/>
      <rect id="Rectangle_40453" data-name="Rectangle 40453" width="1.366" height="8.81" transform="translate(57.435 73.229)" fill="#354546"/>
      <rect id="Rectangle_40454" data-name="Rectangle 40454" width="1.366" height="8.81" transform="translate(54.335 73.229)" fill="#354546"/>
      <rect id="Rectangle_40455" data-name="Rectangle 40455" width="0.675" height="8.81" transform="translate(53.107 73.229)" fill="#354546"/>
      <rect id="Rectangle_40456" data-name="Rectangle 40456" width="0.675" height="8.81" transform="translate(56.131 73.229)" fill="#354546"/>
      <rect id="Rectangle_40457" data-name="Rectangle 40457" width="2.241" height="8.81" transform="translate(60.045 73.229)" fill="#354546"/>
      <rect id="Rectangle_40458" data-name="Rectangle 40458" width="1.673" height="28.211" transform="translate(65.325 56.898)" fill="#b59d63"/>
      <rect id="Rectangle_40459" data-name="Rectangle 40459" width="53.521" height="7.567" transform="translate(38.556 56.898)" fill="#b59d63"/>
      <rect id="Rectangle_40460" data-name="Rectangle 40460" width="1.427" height="5.71" transform="translate(72.83 74.81)" fill="#b59d63"/>
      <path id="Path_197438" data-name="Path 197438" d="M49.99,54.164l2.133-3.684,2.133,3.684Z" transform="translate(21.413 21.26)" fill="#b59d63"/>
      <rect id="Rectangle_40461" data-name="Rectangle 40461" width="1.427" height="5.71" transform="translate(77.527 74.81)" fill="#b59d63"/>
      <path id="Path_197439" data-name="Path 197439" d="M53.06,54.164l2.133-3.684,2.118,3.684Z" transform="translate(23.055 21.26)" fill="#b59d63"/>
      <rect id="Rectangle_40462" data-name="Rectangle 40462" width="8.964" height="0.89" transform="translate(71.418 81.134)" fill="#b59d63"/>
      <g id="Group_128984" data-name="Group 128984" transform="translate(47.213 56.898)">
        <rect id="Rectangle_40463" data-name="Rectangle 40463" width="5.879" height="14.52" fill="#b59d63"/>
      </g>
      <g id="Group_128985" data-name="Group 128985" transform="translate(76.452 56.898)">
        <rect id="Rectangle_40464" data-name="Rectangle 40464" width="5.879" height="14.52" fill="#b59d63"/>
      </g>
      <rect id="Rectangle_40465" data-name="Rectangle 40465" width="53.184" height="59.553" transform="translate(30.559 85.999)" fill="#d7ba76"/>
      <rect id="Rectangle_40466" data-name="Rectangle 40466" width="22.839" height="10.268" transform="translate(32.908 132.982)" fill="#fcf7ea"/>
      <rect id="Rectangle_40467" data-name="Rectangle 40467" width="1.351" height="8.749" transform="translate(34.151 133.734)" fill="#354546"/>
      <rect id="Rectangle_40468" data-name="Rectangle 40468" width="0.46" height="8.749" transform="translate(36.315 133.734)" fill="#354546"/>
      <rect id="Rectangle_40469" data-name="Rectangle 40469" width="0.445" height="8.749" transform="translate(51.127 133.734)" fill="#354546"/>
      <rect id="Rectangle_40470" data-name="Rectangle 40470" width="1.351" height="8.749" transform="translate(38.495 133.734)" fill="#354546"/>
      <rect id="Rectangle_40471" data-name="Rectangle 40471" width="0.675" height="8.749" transform="translate(40.659 133.734)" fill="#354546"/>
      <rect id="Rectangle_40472" data-name="Rectangle 40472" width="0.675" height="8.749" transform="translate(37.344 133.734)" fill="#354546"/>
      <rect id="Rectangle_40473" data-name="Rectangle 40473" width="2.256" height="8.749" transform="translate(41.933 133.734)" fill="#354546"/>
      <rect id="Rectangle_40474" data-name="Rectangle 40474" width="1.351" height="8.749" transform="translate(49.331 133.734)" fill="#354546"/>
      <rect id="Rectangle_40475" data-name="Rectangle 40475" width="1.351" height="8.749" transform="translate(46.231 133.734)" fill="#354546"/>
      <rect id="Rectangle_40476" data-name="Rectangle 40476" width="0.675" height="8.749" transform="translate(45.018 133.734)" fill="#354546"/>
      <rect id="Rectangle_40477" data-name="Rectangle 40477" width="0.675" height="8.749" transform="translate(48.026 133.734)" fill="#354546"/>
      <rect id="Rectangle_40478" data-name="Rectangle 40478" width="2.226" height="8.749" transform="translate(51.91 133.734)" fill="#354546"/>
      <rect id="Rectangle_40479" data-name="Rectangle 40479" width="1.658" height="59.553" transform="translate(57.159 85.999)" fill="#b59d63"/>
      <rect id="Rectangle_40480" data-name="Rectangle 40480" width="53.184" height="7.521" transform="translate(30.559 85.999)" fill="#b59d63"/>
      <rect id="Rectangle_40481" data-name="Rectangle 40481" width="1.412" height="5.664" transform="translate(64.619 135.315)" fill="#b59d63"/>
      <path id="Path_197440" data-name="Path 197440" d="M44.65,93.573l2.118-3.653,2.118,3.653Z" transform="translate(18.556 42.356)" fill="#b59d63"/>
      <rect id="Rectangle_40482" data-name="Rectangle 40482" width="1.412" height="5.664" transform="translate(69.3 135.315)" fill="#b59d63"/>
      <path id="Path_197441" data-name="Path 197441" d="M47.7,93.573l2.118-3.653,2.1,3.653Z" transform="translate(20.188 42.356)" fill="#b59d63"/>
      <rect id="Rectangle_40483" data-name="Rectangle 40483" width="8.902" height="0.89" transform="translate(63.206 141.608)" fill="#b59d63"/>
      <g id="Group_128986" data-name="Group 128986" transform="translate(39.17 85.999)">
        <rect id="Rectangle_40484" data-name="Rectangle 40484" width="5.848" height="14.428" fill="#b59d63"/>
      </g>
      <g id="Group_128987" data-name="Group 128987" transform="translate(68.21 85.999)">
        <rect id="Rectangle_40485" data-name="Rectangle 40485" width="5.848" height="14.428" fill="#b59d63"/>
      </g>
      <path id="Path_197442" data-name="Path 197442" d="M35.8,98.25h.077c14.827,3.791,27.889,7.337,38.111,10.069l5.08,1.32.153,5.94c-1.658-.107-3.346-.276-5.065-.445a238.624,238.624,0,0,1-36.377-7.49Z" transform="translate(13.823 46.811)" fill="#eab99a"/>
      <path id="Path_197443" data-name="Path 197443" d="M109.126,98.25h-.077c-14.812,3.791-27.889,7.337-38.111,10.069l-5.08,1.32-.138,5.94c1.642-.107,3.331-.276,5.05-.445a238.628,238.628,0,0,0,36.377-7.49Z" transform="translate(29.826 46.811)" fill="#eab99a"/>
      <path id="Path_197444" data-name="Path 197444" d="M98.752,61.462c0,16.531-25.464,56.944-25.464,56.944S48.73,77.993,48.73,61.462,59.889,31.44,73.7,31.44,98.752,44.855,98.752,61.462Z" transform="translate(20.739 11.076)" fill="#7d4c2e"/>
      <path id="Path_197445" data-name="Path 197445" d="M60.118,78.672c-.169.522-2.072,5.909-4.6,12.908-.2.537-.414,1.09-.614,1.642-.767,2.026-1.535,4.129-2.379,6.293h0c-.2.553-.43,1.12-.645,1.7q-.967,2.456-1.934,4.973l-.169.476c-1.673,4.267-1.535,8.457-1.811,12.033a5.173,5.173,0,0,1-5.188,4.6h0c-4.3-2.809-5.357-2.671-6.447-8.319a8.273,8.273,0,0,1-.368-3.546C39.734,96.185,42.8,88.418,48.928,74.6a3.283,3.283,0,0,1,.138-.414A5.909,5.909,0,0,1,55.8,71.2a2.717,2.717,0,0,1,.476.123,5.341,5.341,0,0,1,1.535.706A5.786,5.786,0,0,1,60.118,78.672Z" transform="translate(13.879 32.238)" fill="#eab99a"/>
      <path id="Path_197446" data-name="Path 197446" d="M102.114,115.024c-1.09,5.648-2.1,5.51-6.446,8.319h0a5.157,5.157,0,0,1-5.173-4.6c-.276-3.622-.184-7.828-1.811-12.079l-.138-.476c-.645-1.673-1.32-3.361-1.965-5.034-1.289-3.346-2.517-6.615-3.607-9.608-2.594-7-4.5-12.386-4.6-12.908a5.833,5.833,0,0,1,2.425-6.615,5.665,5.665,0,0,1,1.535-.706,2.871,2.871,0,0,1,.491-.123,5.848,5.848,0,0,1,6.707,2.993c0,.138.123.261.184.414,6.14,13.814,9.209,21.626,12.939,36.837a8.288,8.288,0,0,1-.537,3.592Z" transform="translate(36.455 32.232)" fill="#eab99a"/>
      <path id="Path_197447" data-name="Path 197447" d="M103.257,95.624a7.9,7.9,0,0,1,2.456,5.495,7.153,7.153,0,0,1-1.167,3.9,12.786,12.786,0,0,1-5.971,4.773.767.767,0,0,1-.215.123,13.043,13.043,0,0,1-1.535.583l-.43.138a1.26,1.26,0,0,0-.092.292h0a63.974,63.974,0,0,0-4.835,18.311H60.326a63.007,63.007,0,0,0-4.712-17.989,2.164,2.164,0,0,0-.23-.614,13.244,13.244,0,0,1-1.842-.675,17.974,17.974,0,0,1-3.07-1.688,11.573,11.573,0,0,1-3.162-3.193,7.521,7.521,0,0,1-1.2-3.96,7.9,7.9,0,0,1,2.456-5.495L44.44,80.383a5.817,5.817,0,0,1,5.894-5.326h7.245a17.406,17.406,0,0,0,6.477-1.366,10.484,10.484,0,0,0,3.07-2.118,7.583,7.583,0,0,0,1.028-1.2,13.936,13.936,0,0,0,2.3-6.615H81.415a14.106,14.106,0,0,0,2.256,6.615,7.382,7.382,0,0,0,1,1.2,10.637,10.637,0,0,0,3.07,2.118A17.314,17.314,0,0,0,94.2,75.057h6.892c3.453,0,6.262,2.41,6.262,5.326Z" transform="translate(18.444 28.363)" fill="#eab99a"/>
      <path id="Path_197448" data-name="Path 197448" d="M91.278,92.279a8.764,8.764,0,0,1-4.513,7.229.767.767,0,0,1-.215.123,10.868,10.868,0,0,1-1.535.783,4.22,4.22,0,0,1-.553.23h0a16.255,16.255,0,0,1-5.572.967c-6.846,0-12.371-4.19-12.371-9.363s5.526-9.378,12.371-9.378a15.426,15.426,0,0,1,5.4.967C88.423,85.418,91.278,88.641,91.278,92.279Z" transform="translate(30.254 38.585)" fill="#f5c4a5"/>
      <path id="Path_197449" data-name="Path 197449" d="M71.38,92.257c0,5.173-5.572,9.363-12.386,9.363a15.456,15.456,0,0,1-4.6-.675,10.361,10.361,0,0,1-2.072-.783,12.08,12.08,0,0,1-3.07-2.195,8.5,8.5,0,0,1-2.517-4.9h0v-.783a7.843,7.843,0,0,1,2.394-5.51A11.2,11.2,0,0,1,53.1,84.061a16.178,16.178,0,0,1,5.986-1.151C65.809,82.941,71.38,87.162,71.38,92.257Z" transform="translate(19.669 38.606)" fill="#f5c4a5"/>
      <path id="Path_197450" data-name="Path 197450" d="M85.655,56.474c0,11.051-6.784,24.42-15.226,24.42a5.741,5.741,0,0,1-1.151-.092c-7.9-1.136-14.2-13.814-14.2-24.328S61.22,37.257,69.2,36.52h1.151C78.763,36.428,85.655,45.407,85.655,56.474Z" transform="translate(24.135 13.793)" fill="#eab99a"/>
      <path id="Path_197451" data-name="Path 197451" d="M83.34,56.479c0,10.56-6.14,23.192-14.075,24.328-7.9-1.136-14.2-13.814-14.2-24.328a5.449,5.449,0,0,1,0-1c.246-7.367,3.53-13.691,8.258-16.884a12.279,12.279,0,0,1,4.252-1.873h.092a.153.153,0,0,1,.107,0c.445-.092.906-.169,1.351-.215a12.279,12.279,0,0,1,2.87.645c5.756,2.057,10.146,8.365,11.066,16.208a23.666,23.666,0,0,1,.276,3.116Z" transform="translate(24.117 13.788)" fill="#f5c4a5"/>
      <path id="Path_197452" data-name="Path 197452" d="M54,42.748s2.916,6.907,15.349,8.795,14.965,7.536,16.224,11.3c0,0,6.907-16.331-3.561-22.609S58.6,32.28,54,42.748Z" transform="translate(23.558 13.091)" fill="#7d4c2e"/>
      <path id="Path_197453" data-name="Path 197453" d="M66.237,64C55.017,64,54.25,53.406,54.25,53.252l1.535-.092a9.961,9.961,0,0,0,10.529,9.317Z" transform="translate(23.691 22.694)" fill="#606060"/>
      <path id="Path_197454" data-name="Path 197454" d="M55.153,58.2h0A1.2,1.2,0,0,1,53.94,57V52.777a1.2,1.2,0,0,1,1.213-1.2h0a1.2,1.2,0,0,1,1.2,1.2V57a1.2,1.2,0,0,1-1.2,1.2Z" transform="translate(23.525 21.848)" fill="#606060"/>
      <rect id="Rectangle_40486" data-name="Rectangle 40486" width="2.394" height="4.467" rx="0.64" transform="translate(88.808 87.166) rotate(-90)" fill="#404040"/>
      <path id="Path_197455" data-name="Path 197455" d="M108.622,101.557c.645,1.673,1.32,3.361,1.965,5.034l.138.476a20.646,20.646,0,0,1,1.09,3.96,26.906,26.906,0,0,0,6.14-2.348c1.719-.982,3.254-2.195,4.881-3.3A196.8,196.8,0,0,0,111.6,75c0-.153-.123-.276-.184-.414a5.848,5.848,0,0,0-6.707-2.993H98.261A17.314,17.314,0,0,1,91.8,70.23L79.9,81.143,68.024,70.23A17.405,17.405,0,0,1,61.547,71.6H55.208a5.909,5.909,0,0,0-6.738,2.993,3.286,3.286,0,0,0-.138.414A193.871,193.871,0,0,0,36.82,106.223c3.07,2.916,7.122,4.267,11.159,5.618a21.657,21.657,0,0,1,1.228-4.773l.169-.476q.967-2.517,1.934-4.973a11.573,11.573,0,0,0,3.162,3.193,12.079,12.079,0,0,0,3.07,2.195,10.36,10.36,0,0,0,2.072.783,63.006,63.006,0,0,1,4.712,18.019h31.2a63.974,63.974,0,0,1,4.835-18.311h0a4.219,4.219,0,0,0,.553-.23,10.867,10.867,0,0,0,1.535-.783.768.768,0,0,0,.215-.123A12.786,12.786,0,0,0,108.622,101.557Z" transform="translate(14.368 31.824)" fill="#a0a0a0"/>
      <path id="Path_197456" data-name="Path 197456" d="M116.862,111.057H40.671a1.366,1.366,0,0,1-1.351-1.351h0a1.366,1.366,0,0,1,1.351-1.366h76.191a1.366,1.366,0,0,1,1.366,1.366h0A1.366,1.366,0,0,1,116.862,111.057Z" transform="translate(15.706 52.208)" fill="#303030"/>
      <rect id="Rectangle_40487" data-name="Rectangle 40487" width="68.486" height="40.214" rx="1.77" transform="translate(59.784 123.251)" fill="#404040"/>
      <path id="Path_197457" data-name="Path 197457" d="M69.91,96.915a4.175,4.175,0,1,1-4.175-4.175A4.175,4.175,0,0,1,69.91,96.915Z" transform="translate(27.601 43.864)" fill="#909090"/>
      <path id="Path_197458" data-name="Path 197458" d="M100.332,49.136l8.12,1.028a1.105,1.105,0,0,0,1.228-.952h0a1.105,1.105,0,0,0-.952-1.243l-8.1-.967a1.12,1.12,0,0,0-1.243.952h0a1.12,1.12,0,0,0,.952,1.182Z" transform="translate(47.83 19.396)" fill="#dead8e"/>
      <path id="Path_197459" data-name="Path 197459" d="M125.856,49.152l-8.12,1.028a1.12,1.12,0,0,1-1.243-.952h0a1.121,1.121,0,0,1,.967-1.243l8.12-1.013a1.105,1.105,0,0,1,1.228.952h0a1.105,1.105,0,0,1-.952,1.228Z" transform="translate(56.98 19.38)" fill="#dead8e"/>
      <path id="Path_197460" data-name="Path 197460" d="M137.058,37.777l-2.64,10.575v.169l-.767,6.907c0,1.09-1.381,1.734-1.535,1.8l-7.859,3.638a1.811,1.811,0,0,1-.476.123l-3.07.153a1.335,1.335,0,0,1-1.32-.875l-1.013-2.84a1.074,1.074,0,0,1,0-.384v-1.55a.921.921,0,0,0-.184-.491h0a1.013,1.013,0,0,1-.184-.491h0a1.366,1.366,0,0,1,.46-1.074l6.14-5.372a1.289,1.289,0,0,0,.43-.875V45.328a6.278,6.278,0,0,1,.675-1.535l1.535-.875a13.306,13.306,0,0,0,.86-2.533l.307-5.449a1.335,1.335,0,0,1,1.811-1.166L136.49,36.2a1.3,1.3,0,0,1,.568,1.581Z" transform="translate(57.795 12.275)" fill="#dead8e"/>
      <path id="Path_197461" data-name="Path 197461" d="M92.183,37.766l2.655,10.575a.661.661,0,0,1,0,.169l.783,6.907c0,1.09,1.381,1.734,1.535,1.8L105,60.851a1.781,1.781,0,0,0,.491.123l3.07.153a1.3,1.3,0,0,0,1.3-.875l1.028-2.84a1.533,1.533,0,0,0,0-.384v-1.55a.921.921,0,0,1,.184-.491h0a.86.86,0,0,0,.169-.491h0a1.351,1.351,0,0,0-.445-1.074l-6.14-5.372a1.32,1.32,0,0,1-.445-.875V45.318a5.679,5.679,0,0,0-.66-1.535l-1.535-.875a14.428,14.428,0,0,1-.844-2.533l-.046-5.418a1.32,1.32,0,0,0-1.8-1.167L93,36.216a1.32,1.32,0,0,0-.813,1.55Z" transform="translate(43.961 12.286)" fill="#dead8e"/>
      <rect id="Rectangle_40488" data-name="Rectangle 40488" width="37.282" height="41.733" transform="translate(146.535 26.968)" fill="#d7ba76"/>
      <rect id="Rectangle_40489" data-name="Rectangle 40489" width="16.009" height="7.199" transform="translate(148.177 59.906)" fill="#fcf7ea"/>
      <rect id="Rectangle_40490" data-name="Rectangle 40490" width="0.952" height="6.14" transform="translate(149.037 60.443)" fill="#354546"/>
      <rect id="Rectangle_40491" data-name="Rectangle 40491" width="0.322" height="6.14" transform="translate(150.557 60.443)" fill="#354546"/>
      <rect id="Rectangle_40492" data-name="Rectangle 40492" width="0.322" height="6.14" transform="translate(160.948 60.443)" fill="#354546"/>
      <rect id="Rectangle_40493" data-name="Rectangle 40493" width="0.952" height="6.14" transform="translate(152.091 60.443)" fill="#354546"/>
      <rect id="Rectangle_40494" data-name="Rectangle 40494" width="0.476" height="6.14" transform="translate(153.611 60.443)" fill="#354546"/>
      <rect id="Rectangle_40495" data-name="Rectangle 40495" width="0.476" height="6.14" transform="translate(151.278 60.443)" fill="#354546"/>
      <rect id="Rectangle_40496" data-name="Rectangle 40496" width="1.581" height="6.14" transform="translate(154.501 60.443)" fill="#354546"/>
      <rect id="Rectangle_40497" data-name="Rectangle 40497" width="0.952" height="6.14" transform="translate(159.674 60.443)" fill="#354546"/>
      <rect id="Rectangle_40498" data-name="Rectangle 40498" width="0.952" height="6.14" transform="translate(157.51 60.443)" fill="#354546"/>
      <rect id="Rectangle_40499" data-name="Rectangle 40499" width="0.476" height="6.14" transform="translate(156.65 60.443)" fill="#354546"/>
      <rect id="Rectangle_40500" data-name="Rectangle 40500" width="0.476" height="6.14" transform="translate(158.768 60.443)" fill="#354546"/>
      <rect id="Rectangle_40501" data-name="Rectangle 40501" width="1.566" height="6.14" transform="translate(161.485 60.443)" fill="#354546"/>
      <rect id="Rectangle_40502" data-name="Rectangle 40502" width="1.167" height="41.733" transform="translate(165.169 26.968)" fill="#b59d63"/>
      <rect id="Rectangle_40503" data-name="Rectangle 40503" width="37.282" height="5.265" transform="translate(146.535 26.968)" fill="#b59d63"/>
      <rect id="Rectangle_40504" data-name="Rectangle 40504" width="0.998" height="3.975" transform="translate(170.403 61.533)" fill="#b59d63"/>
      <path id="Path_197462" data-name="Path 197462" d="M113.84,45.013l1.489-2.563,1.473,2.563Z" transform="translate(55.565 16.965)" fill="#b59d63"/>
      <rect id="Rectangle_40505" data-name="Rectangle 40505" width="0.998" height="3.975" transform="translate(173.672 61.533)" fill="#b59d63"/>
      <path id="Path_197463" data-name="Path 197463" d="M115.98,45.013l1.473-2.563,1.489,2.563Z" transform="translate(56.71 16.965)" fill="#b59d63"/>
      <rect id="Rectangle_40506" data-name="Rectangle 40506" width="6.247" height="0.614" transform="translate(169.405 65.954)" fill="#b59d63"/>
      <g id="Group_128988" data-name="Group 128988" transform="translate(152.567 26.968)">
        <rect id="Rectangle_40507" data-name="Rectangle 40507" width="4.098" height="10.115" fill="#b59d63"/>
      </g>
      <g id="Group_128989" data-name="Group 128989" transform="translate(172.92 26.968)">
        <rect id="Rectangle_40508" data-name="Rectangle 40508" width="4.098" height="10.115" fill="#b59d63"/>
      </g>
      <path id="Path_197464" data-name="Path 197464" d="M103.019,51.048l5.648-.077a1.044,1.044,0,0,0,1.013-1.044h0a1.028,1.028,0,0,0-1.044-1h-5.648a1.013,1.013,0,0,0-1,1.028h0a1.013,1.013,0,0,0,1.028,1.09Z" transform="translate(49.226 20.431)" fill="#dead8e"/>
      <path id="Path_197465" data-name="Path 197465" d="M102.343,52.252l5.633.215a1.028,1.028,0,0,0,1.059-.982h0a1.013,1.013,0,0,0-.982-1.059l-5.633-.215a1.013,1.013,0,0,0-1.059.982h0a1.013,1.013,0,0,0,.982,1.059Z" transform="translate(48.889 21.115)" fill="#dead8e"/>
      <path id="Path_197466" data-name="Path 197466" d="M91.873,36.479l2.563,9.7a3.193,3.193,0,0,0,.522.921l5.188,6.14.691.6,4.6,3.638,1.013.89a1.412,1.412,0,0,0,1.734.092,1.2,1.2,0,0,0,.123-1.873l-2.394-2.5-2.011-3.162-.307-4.067h0a2.794,2.794,0,0,0,0-.507l-.445-3.991a1.842,1.842,0,0,0-1.673-1.642h0l-.169-5.771c0-1.4-.645-1.658-1.627-1.535h0l-6.631,1.243a1.412,1.412,0,0,0-1.182,1.827Z" transform="translate(43.78 12.115)" fill="#eab99a"/>
      <rect id="Rectangle_40509" data-name="Rectangle 40509" width="12.018" height="5.633" rx="0.91" transform="translate(146.315 49.858) rotate(-177.08)" fill="#505050"/>
      <path id="Path_197467" data-name="Path 197467" d="M122.261,51.048l-5.648-.077a1.044,1.044,0,0,1-1.013-1.044h0a1.028,1.028,0,0,1,1.044-1l5.71.107a1.013,1.013,0,0,1,1.013,1.028h0a1.028,1.028,0,0,1-1.105.982Z" transform="translate(56.506 20.431)" fill="#dead8e"/>
      <path id="Path_197468" data-name="Path 197468" d="M122.918,52.252l-5.648.215a1.044,1.044,0,0,1-1.059-.982h0a1.028,1.028,0,0,1,1-1.059l5.633-.215a1.013,1.013,0,0,1,1.059.982h0a1.013,1.013,0,0,1-.982,1.059Z" transform="translate(56.832 21.115)" fill="#dead8e"/>
      <path id="Path_197469" data-name="Path 197469" d="M136.618,36.458l-2.563,9.7a3.223,3.223,0,0,1-.537.921l-5.173,6.14-.691.6-4.6,3.638-1.013.89a1.427,1.427,0,0,1-1.75.092,1.2,1.2,0,0,1-.107-1.873l2.364-2.44,2-3.162.322-4.067h0a1.872,1.872,0,0,1,0-.507l.445-3.991a1.842,1.842,0,0,1,1.658-1.642h0l.338-5.771c0-1.4.645-1.658,1.535-1.535h0l6.631,1.243a1.427,1.427,0,0,1,1.151,1.765Z" transform="translate(58.742 12.136)" fill="#eab99a"/>
      <rect id="Rectangle_40510" data-name="Rectangle 40510" width="12.018" height="5.633" rx="0.91" transform="translate(184.396 44.23) rotate(-2.92)" fill="#505050"/>
      <path id="Path_197470" data-name="Path 197470" d="M22.856,105.88l7,1.136a1.274,1.274,0,0,1,1.059,1.535h0a1.289,1.289,0,0,1-1.535,1.074l-7-1.213a1.259,1.259,0,0,1-1.059-1.535h0a1.289,1.289,0,0,1,1.535-1Z" transform="translate(6.061 50.877)" fill="#dead8e"/>
      <path id="Path_197471" data-name="Path 197471" d="M19.752,108.98l10.253-.767A1.4,1.4,0,0,1,31.54,109.5h0a1.4,1.4,0,0,1-1.274,1.535L20,111.789a1.366,1.366,0,0,1-1.535-1.274h0a1.381,1.381,0,0,1,1.289-1.535Z" transform="translate(4.545 52.136)" fill="#dead8e"/>
      <path id="Path_197472" data-name="Path 197472" d="M22.444,104.89l7.091.092a1.3,1.3,0,0,1,1.274,1.3h0a1.3,1.3,0,0,1-1.3,1.274l-7.06-.107a1.289,1.289,0,0,1-1.274-1.289h0a1.3,1.3,0,0,1,1.274-1.274Z" transform="translate(5.997 50.363)" fill="#dead8e"/>
      <path id="Path_197473" data-name="Path 197473" d="M32.79,94.18H16.781a2.256,2.256,0,0,0-2.241,2.256v21.1a2.256,2.256,0,0,0,2.241,2.241h.169l.675,4.6H31.976l.691-4.6h.153a2.256,2.256,0,0,0,2.256-2.241v-21.1A2.256,2.256,0,0,0,32.79,94.18Z" transform="translate(2.451 44.634)" fill="#303030"/>
      <path id="Path_197474" data-name="Path 197474" d="M18.085,110.11H30.042a2.011,2.011,0,0,1,2.011,2.011v14.888a2,2,0,0,1-2,2H18.085a2,2,0,0,1-2-2V112.121a2,2,0,0,1,2-2.011Z" transform="translate(3.28 53.155)" fill="#303030"/>
      <path id="Path_197475" data-name="Path 197475" d="M31.029,94.18H17.445a2.1,2.1,0,0,0-1.9,2.256v21.1a2.1,2.1,0,0,0,1.9,2.241h.138l.583,4.6H30.308l.583-4.6h.138a2.1,2.1,0,0,0,1.9-2.241v-21.1a2.1,2.1,0,0,0-1.9-2.256Z" transform="translate(2.984 44.634)" fill="#404040"/>
      <rect id="Rectangle_40511" data-name="Rectangle 40511" width="12.448" height="19.385" transform="translate(20.721 141.715)" fill="#469da7"/>
      <rect id="Rectangle_40512" data-name="Rectangle 40512" width="13.353" height="15.855" rx="0.44" transform="translate(20.567 164.416)" fill="#404040"/>
      <rect id="Rectangle_40513" data-name="Rectangle 40513" width="3.73" height="1.857" rx="0.3" transform="translate(21.105 164.616)" fill="#a5b5b6"/>
      <rect id="Rectangle_40514" data-name="Rectangle 40514" width="3.73" height="1.857" rx="0.3" transform="translate(25.341 164.616)" fill="#a5b5b6"/>
      <rect id="Rectangle_40515" data-name="Rectangle 40515" width="3.73" height="1.857" rx="0.3" transform="translate(29.577 164.616)" fill="#a5b5b6"/>
      <rect id="Rectangle_40516" data-name="Rectangle 40516" width="3.73" height="1.857" rx="0.3" transform="translate(21.105 167.24)" fill="#a5b5b6"/>
      <rect id="Rectangle_40517" data-name="Rectangle 40517" width="3.73" height="1.857" rx="0.3" transform="translate(25.341 167.24)" fill="#a5b5b6"/>
      <rect id="Rectangle_40518" data-name="Rectangle 40518" width="3.73" height="1.857" rx="0.3" transform="translate(29.577 167.24)" fill="#a5b5b6"/>
      <rect id="Rectangle_40519" data-name="Rectangle 40519" width="3.73" height="1.857" rx="0.3" transform="translate(21.105 169.849)" fill="#a5b5b6"/>
      <rect id="Rectangle_40520" data-name="Rectangle 40520" width="3.73" height="1.857" rx="0.3" transform="translate(25.341 169.849)" fill="#a5b5b6"/>
      <rect id="Rectangle_40521" data-name="Rectangle 40521" width="3.73" height="1.857" rx="0.3" transform="translate(29.577 169.849)" fill="#a5b5b6"/>
      <rect id="Rectangle_40522" data-name="Rectangle 40522" width="3.73" height="1.857" rx="0.3" transform="translate(21.105 172.459)" fill="#a5b5b6"/>
      <rect id="Rectangle_40523" data-name="Rectangle 40523" width="3.73" height="1.857" rx="0.3" transform="translate(25.341 172.459)" fill="#a5b5b6"/>
      <rect id="Rectangle_40524" data-name="Rectangle 40524" width="3.73" height="1.857" rx="0.3" transform="translate(29.577 172.459)" fill="#a5b5b6"/>
      <rect id="Rectangle_40525" data-name="Rectangle 40525" width="3.73" height="1.857" rx="0.3" transform="translate(21.105 175.083)" fill="#a5b5b6"/>
      <rect id="Rectangle_40526" data-name="Rectangle 40526" width="3.73" height="1.857" rx="0.3" transform="translate(25.341 175.083)" fill="#a5b5b6"/>
      <rect id="Rectangle_40527" data-name="Rectangle 40527" width="3.73" height="1.857" rx="0.3" transform="translate(29.577 175.083)" fill="#a5b5b6"/>
      <rect id="Rectangle_40528" data-name="Rectangle 40528" width="3.73" height="1.857" rx="0.3" transform="translate(21.105 177.693)" fill="#ef893a"/>
      <rect id="Rectangle_40529" data-name="Rectangle 40529" width="3.73" height="1.857" rx="0.3" transform="translate(25.341 177.693)" fill="#a5b5b6"/>
      <rect id="Rectangle_40530" data-name="Rectangle 40530" width="3.73" height="1.857" rx="0.3" transform="translate(29.577 177.693)" fill="#469da7"/>
      <path id="Path_197476" data-name="Path 197476" d="M20.865,97.967h0L19.591,97H19.5l-1.289.906h0v1.75h0l1.289.767h.092l1.289-.767V97.982Zm-1.32-.829,1.09.829-1.09.706-1.136-.737Zm-1.213.952,1.12.721v1.535l-1.12-.66Zm1.259,2.241V98.8l1.074-.691V99.64Z" transform="translate(4.414 46.143)" fill="#64e1f0"/>
      <rect id="Rectangle_40531" data-name="Rectangle 40531" width="8.718" height="0.737" transform="translate(22.547 147.962)" fill="#64e1f0"/>
      <rect id="Rectangle_40532" data-name="Rectangle 40532" width="8.718" height="0.737" transform="translate(22.547 149.973)" fill="#64e1f0"/>
      <rect id="Rectangle_40533" data-name="Rectangle 40533" width="8.718" height="0.737" transform="translate(22.547 151.999)" fill="#64e1f0"/>
      <path id="Path_197477" data-name="Path 197477" d="M19.443,105.9l-.153-.445H18.6l-.138.445H18l.675-1.919h.507l.675,1.919Zm-.246-.8-.215-.706a.476.476,0,0,1,0-.123l-.261.829Z" transform="translate(4.302 49.876)" fill="#64e1f0"/>
      <path id="Path_197478" data-name="Path 197478" d="M20.641,105.872H19.29V105.6l.491-.491a3.178,3.178,0,0,0,.276-.307.414.414,0,0,0,.092-.153.461.461,0,0,0,0-.153.215.215,0,0,0,0-.169.307.307,0,0,0-.169,0,.491.491,0,0,0-.215,0,.921.921,0,0,0-.23.138l-.215-.261.23-.169h.46a.706.706,0,0,1,.307.077.368.368,0,0,1,.215.184.4.4,0,0,1,.077.261.783.783,0,0,1,0,.261.921.921,0,0,1-.138.23,3.681,3.681,0,0,1-.353.353l-.246.23h.844Z" transform="translate(4.992 49.903)" fill="#64e1f0"/>
      <path id="Path_197479" data-name="Path 197479" d="M21.564,104.4a.414.414,0,0,1-.107.307.507.507,0,0,1-.307.169h0a.568.568,0,0,1,.353.138.43.43,0,0,1,.123.307.553.553,0,0,1-.2.43.936.936,0,0,1-.583.153,1.32,1.32,0,0,1-.553-.107v-.261l.246.092H20.8a.537.537,0,0,0,.307,0,.276.276,0,0,0,.092-.23.169.169,0,0,0-.107-.184.721.721,0,0,0-.353,0h-.153v-.307h.153a.568.568,0,0,0,.322,0,.2.2,0,0,0,.107-.2c0-.138-.092-.215-.276-.215H20.7a1.013,1.013,0,0,0-.23.107l-.184-.276a1,1,0,0,1,.629-.2.875.875,0,0,1,.46-.123A.43.43,0,0,1,21.564,104.4Z" transform="translate(5.527 49.887)" fill="#64e1f0"/>
      <path id="Path_197480" data-name="Path 197480" d="M18.432,108.41l1-2.149H18.11V106h1.535v.23l-.982,2.18Z" transform="translate(4.361 50.956)" fill="#64e1f0"/>
      <path id="Path_197481" data-name="Path 197481" d="M20.1,106.968a.814.814,0,0,1,.6.2.6.6,0,0,1,.215.507.752.752,0,0,1-.23.583.921.921,0,0,1-.66.215,1.274,1.274,0,0,1-.614-.123v-.261a1.152,1.152,0,0,0,.276.107h.338a.691.691,0,0,0,.46-.138.506.506,0,0,0,.153-.4c0-.338-.2-.491-.614-.491H19.61l-.138-.092.077-1.136h1.2v.261h-.952v.721A1.538,1.538,0,0,1,20.1,106.968Z" transform="translate(5.056 50.924)" fill="#64e1f0"/>
      <rect id="Rectangle_40534" data-name="Rectangle 40534" width="39.707" height="53.537" rx="1.61" transform="translate(175.145 113.734)" fill="#705412"/>
      <rect id="Rectangle_40535" data-name="Rectangle 40535" width="31.956" height="49.607" transform="translate(178.768 115.561)" fill="#fff"/>
      <rect id="Rectangle_40536" data-name="Rectangle 40536" width="10.222" height="4.252" rx="0.69" transform="translate(190.371 112.921)" fill="#505050"/>
      <path id="Path_197482" data-name="Path 197482" d="M125.955,86.035h-4.6v-4.6h4.6Zm-3.883-.66h3.177V82.151h-3.177Z" transform="translate(59.582 37.815)" fill="silver"/>
      <path id="Path_197483" data-name="Path 197483" d="M125.955,90.135h-4.6v-4.6h4.6Zm-3.883-.706h3.177V86.251h-3.177Z" transform="translate(59.582 40.008)" fill="silver"/>
      <path id="Path_197484" data-name="Path 197484" d="M125.955,94.245h-4.6v-4.6h4.6Zm-3.883-.706h3.177V90.346h-3.177Z" transform="translate(59.582 42.206)" fill="silver"/>
      <path id="Path_197485" data-name="Path 197485" d="M125.955,98.345h-4.6v-4.6h4.6Zm-3.883-.706h3.177V94.461h-3.177Z" transform="translate(59.582 44.399)" fill="silver"/>
      <path id="Path_197486" data-name="Path 197486" d="M125.955,102.455h-4.6v-4.6h4.6Zm-3.883-.706h3.177V98.556h-3.177Z" transform="translate(59.582 46.597)" fill="silver"/>
      <path id="Path_197487" data-name="Path 197487" d="M125.955,106.6h-4.6V102h4.6Zm-3.883-.706h3.177v-3.177h-3.177Z" transform="translate(59.582 48.817)" fill="silver"/>
      <path id="Path_197488" data-name="Path 197488" d="M125.955,110.665h-4.6v-4.6h4.6Zm-3.883-.706h3.177v-3.193h-3.177Z" transform="translate(59.582 50.989)" fill="silver"/>
      <rect id="Rectangle_40537" data-name="Rectangle 40537" width="18.081" height="1.949" transform="translate(186.657 121.547)" fill="silver"/>
      <rect id="Rectangle_40538" data-name="Rectangle 40538" width="18.081" height="1.949" transform="translate(186.657 127.855)" fill="silver"/>
      <rect id="Rectangle_40539" data-name="Rectangle 40539" width="18.081" height="1.949" transform="translate(186.657 134.148)" fill="silver"/>
      <rect id="Rectangle_40540" data-name="Rectangle 40540" width="18.081" height="1.949" transform="translate(186.657 140.457)" fill="silver"/>
      <rect id="Rectangle_40541" data-name="Rectangle 40541" width="18.081" height="1.949" transform="translate(186.657 146.75)" fill="silver"/>
      <rect id="Rectangle_40542" data-name="Rectangle 40542" width="18.081" height="1.949" transform="translate(186.657 153.043)" fill="silver"/>
      <rect id="Rectangle_40543" data-name="Rectangle 40543" width="18.081" height="1.949" transform="translate(186.657 159.351)" fill="silver"/>
      <path id="Path_197489" data-name="Path 197489" d="M124.407,85.163H121.92v-.368l1-1.013a7.339,7.339,0,0,0,.6-.66,1.536,1.536,0,0,0,.215-.384,1.151,1.151,0,0,0,.077-.4.675.675,0,0,0-.184-.491.752.752,0,0,0-.507-.169,1.351,1.351,0,0,0-.921.353l-.23-.292a1.688,1.688,0,0,1,1.136-.43,1.213,1.213,0,0,1,.844.276.967.967,0,0,1,.307.737,1.4,1.4,0,0,1-.215.706,3.76,3.76,0,0,1-.752.89l-.829.813h1.949Z" transform="translate(59.887 37.75)" fill="#213f47"/>
      <path id="Path_197490" data-name="Path 197490" d="M123.487,89.337h-.414V85.96l-.123.107-.629.507-.23-.292L123.1,85.5h.384Z" transform="translate(59.978 39.992)" fill="#213f47"/>
      <path id="Path_197491" data-name="Path 197491" d="M123.059,91.176a1.381,1.381,0,0,1,.936.307,1.013,1.013,0,0,1,.353.813,1.167,1.167,0,0,1-.384.921,1.427,1.427,0,0,1-1.028.338,1.9,1.9,0,0,1-.936-.261V92.88a1.044,1.044,0,0,0,.46.184,2.042,2.042,0,0,0,.522.077,1.074,1.074,0,0,0,.706-.215.752.752,0,0,0,.261-.629c0-.537-.322-.8-.967-.8a4.148,4.148,0,0,0-.66,0l-.23-.138.138-1.78h1.888v.4h-1.535l-.092,1.136a3.958,3.958,0,0,1,.568.061Z" transform="translate(59.93 42.174)" fill="#213f47"/>
      <path id="Path_197492" data-name="Path 197492" d="M121.942,96.026a2.655,2.655,0,0,1,.445-1.673,1.535,1.535,0,0,1,1.289-.568,1.856,1.856,0,0,1,.46,0v.368a1.535,1.535,0,0,0-.46,0,1.167,1.167,0,0,0-.936.368,1.95,1.95,0,0,0-.353,1.2h0a1.013,1.013,0,0,1,.906-.445,1.105,1.105,0,0,1,.814.307,1.243,1.243,0,0,1,.292.844,1.3,1.3,0,0,1-.322.936,1.2,1.2,0,0,1-.875.338,1.136,1.136,0,0,1-.936-.445,1.949,1.949,0,0,1-.322-1.228Zm1.274,1.3a.752.752,0,0,0,.583-.23.982.982,0,0,0,.2-.675.936.936,0,0,0-.184-.6.767.767,0,0,0-.568-.215.813.813,0,0,0-.43.107.737.737,0,0,0-.307.261.614.614,0,0,0-.123.353,1.09,1.09,0,0,0,.107.491.875.875,0,0,0,.292.368A.721.721,0,0,0,123.216,97.331Z" transform="translate(59.895 44.415)" fill="#213f47"/>
      <path id="Path_197493" data-name="Path 197493" d="M123.487,101.771h-.414V98.425a.924.924,0,0,0-.123.123l-.629.507-.23-.307,1.013-.767h.384Z" transform="translate(59.978 46.667)" fill="#213f47"/>
      <path id="Path_197494" data-name="Path 197494" d="M124.279,103.09a.936.936,0,0,1-.2.6,1.12,1.12,0,0,1-.583.307h0a1.151,1.151,0,0,1,.675.292.829.829,0,0,1,.215.614,1.013,1.013,0,0,1-.368.844,1.8,1.8,0,0,1-1.074.292,3.069,3.069,0,0,1-.553,0,2.072,2.072,0,0,1-.491-.169v-.414a2.273,2.273,0,0,0,.537.2,3.2,3.2,0,0,0,.522,0c.66,0,.982-.261.982-.783s-.353-.691-1.074-.691h-.384v-.368h.384a1.105,1.105,0,0,0,.706-.2.629.629,0,0,0,.261-.537.491.491,0,0,0-.2-.43.752.752,0,0,0-.507-.169,1.535,1.535,0,0,0-.476,0,1.887,1.887,0,0,0-.507.246l-.215-.292a2.011,2.011,0,0,1,.537-.292,1.78,1.78,0,0,1,.645-.107,1.3,1.3,0,0,1,.859.261.86.86,0,0,1,.307.8Z" transform="translate(59.876 48.832)" fill="#213f47"/>
      <path id="Path_197495" data-name="Path 197495" d="M123.487,110.1h-.414v-3.361l-.123.107-.629.507-.23-.292,1.013-.767h.384Z" transform="translate(59.978 51.112)" fill="#213f47"/>
      <path id="Path_197496" data-name="Path 197496" d="M137.128,85.128h0a.506.506,0,0,1-.445-.276l-.89-1.642a.526.526,0,0,1,.921-.507l.491.89,1.074-1.535a.537.537,0,0,1,.875.6l-1.535,2.318a.506.506,0,0,1-.491.153Z" transform="translate(67.272 38.062)" fill="#469da7"/>
      <path id="Path_197497" data-name="Path 197497" d="M137.128,93.523h0a.583.583,0,0,1-.445-.276l-.89-1.658a.526.526,0,0,1,.921-.507l.491.89,1.074-1.535a.537.537,0,0,1,.875.6l-1.535,2.318a.522.522,0,0,1-.491.169Z" transform="translate(67.272 42.544)" fill="#469da7"/>
      <path id="Path_197498" data-name="Path 197498" d="M137.128,101.578h0a.537.537,0,0,1-.445-.276l-.89-1.642a.526.526,0,0,1,.921-.507l.491.89,1.074-1.535a.537.537,0,0,1,.875.6l-1.535,2.318a.506.506,0,0,1-.491.153Z" transform="translate(67.272 46.86)" fill="#469da7"/>
      <path id="Path_197499" data-name="Path 197499" d="M137.128,105.713h0a.583.583,0,0,1-.445-.276l-.89-1.658a.526.526,0,0,1,.921-.507l.491.89,1.074-1.535a.553.553,0,0,1,.737-.138.522.522,0,0,1,.138.737l-1.535,2.318a.522.522,0,0,1-.491.169Z" transform="translate(67.272 49.034)" fill="#469da7"/>
      <path id="Path_197500" data-name="Path 197500" d="M137.475,111.016c-.982,0-1.765-1.12-1.765-2.563s.783-2.563,1.765-2.563,1.78,1.12,1.78,2.563S138.473,111.016,137.475,111.016Zm0-4.083c-.292,0-.706.6-.706,1.535s.414,1.535.706,1.535.721-.583.721-1.535S137.767,106.934,137.475,106.934Z" transform="translate(67.263 50.898)" fill="#fd6d60"/>
      <path id="Path_197501" data-name="Path 197501" d="M158.574,99.94V141.2a.937.937,0,0,1,0,.368,1.059,1.059,0,0,1-1.044.737H81.677a1.059,1.059,0,0,1-1.028-.737.721.721,0,0,1,0-.368V99.94a1.09,1.09,0,0,1,1.105-1.09h75.792a1.09,1.09,0,0,1,1.028,1.09Z" transform="translate(37.798 47.132)" fill="#303030"/>
      <path id="Path_197502" data-name="Path 197502" d="M165.154,127.708a1.919,1.919,0,0,1-1.919,1.9h-83.9a1.919,1.919,0,0,1-1.919-1.9,1.842,1.842,0,0,1,.307-1.028h87.135A1.965,1.965,0,0,1,165.154,127.708Z" transform="translate(36.085 62.018)" fill="silver"/>
      <path id="Path_197503" data-name="Path 197503" d="M102.7,126.69a2.548,2.548,0,0,0,2.3,1.535h5.526a2.548,2.548,0,0,0,2.3-1.535Z" transform="translate(49.606 62.023)" fill="#909090"/>
      <rect id="Rectangle_40544" data-name="Rectangle 40544" width="72.677" height="38.08" transform="translate(120.949 147.686)" fill="#469da7"/>
      <rect id="Rectangle_40545" data-name="Rectangle 40545" width="37.942" height="19.999" transform="translate(128.117 120.994)" fill="#e3d6b6"/>
      <rect id="Rectangle_40546" data-name="Rectangle 40546" width="16.285" height="7.337" transform="translate(129.79 132.03)" fill="#fcf7ea"/>
      <rect id="Rectangle_40547" data-name="Rectangle 40547" width="0.967" height="6.247" transform="translate(130.68 132.567)" fill="#354546"/>
      <rect id="Rectangle_40548" data-name="Rectangle 40548" width="0.322" height="6.247" transform="translate(132.23 132.567)" fill="#354546"/>
      <rect id="Rectangle_40549" data-name="Rectangle 40549" width="0.322" height="6.247" transform="translate(142.79 132.567)" fill="#354546"/>
      <rect id="Rectangle_40550" data-name="Rectangle 40550" width="0.967" height="6.247" transform="translate(133.78 132.567)" fill="#354546"/>
      <rect id="Rectangle_40551" data-name="Rectangle 40551" width="0.476" height="6.247" transform="translate(135.331 132.567)" fill="#354546"/>
      <rect id="Rectangle_40552" data-name="Rectangle 40552" width="0.476" height="6.247" transform="translate(132.951 132.567)" fill="#354546"/>
      <rect id="Rectangle_40553" data-name="Rectangle 40553" width="1.612" height="6.247" transform="translate(136.221 132.567)" fill="#354546"/>
      <rect id="Rectangle_40554" data-name="Rectangle 40554" width="0.967" height="6.247" transform="translate(141.501 132.567)" fill="#354546"/>
      <rect id="Rectangle_40555" data-name="Rectangle 40555" width="0.967" height="6.247" transform="translate(139.306 132.567)" fill="#354546"/>
      <rect id="Rectangle_40556" data-name="Rectangle 40556" width="0.476" height="6.247" transform="translate(138.431 132.567)" fill="#354546"/>
      <rect id="Rectangle_40557" data-name="Rectangle 40557" width="0.476" height="6.247" transform="translate(140.58 132.567)" fill="#354546"/>
      <rect id="Rectangle_40558" data-name="Rectangle 40558" width="1.596" height="6.247" transform="translate(143.343 132.567)" fill="#354546"/>
      <rect id="Rectangle_40559" data-name="Rectangle 40559" width="1.182" height="19.999" transform="translate(147.088 120.994)" fill="#b59d63"/>
      <rect id="Rectangle_40560" data-name="Rectangle 40560" width="1.013" height="4.052" transform="translate(152.414 133.688)" fill="#b59d63"/>
      <path id="Path_197504" data-name="Path 197504" d="M102.11,92.045l1.52-2.625,1.5,2.625Z" transform="translate(49.291 42.088)" fill="#b59d63"/>
      <rect id="Rectangle_40561" data-name="Rectangle 40561" width="1.013" height="4.052" transform="translate(155.744 133.688)" fill="#b59d63"/>
      <path id="Path_197505" data-name="Path 197505" d="M104.29,92.045l1.5-2.625,1.5,2.625Z" transform="translate(50.457 42.088)" fill="#b59d63"/>
      <rect id="Rectangle_40562" data-name="Rectangle 40562" width="6.354" height="0.629" transform="translate(151.401 138.185)" fill="#b59d63"/>
      <rect id="Rectangle_40563" data-name="Rectangle 40563" width="4.175" height="10.299" transform="translate(134.256 120.994)" fill="#b59d63"/>
      <rect id="Rectangle_40564" data-name="Rectangle 40564" width="4.175" height="10.299" transform="translate(154.977 120.994)" fill="#b59d63"/>
      <rect id="Rectangle_40565" data-name="Rectangle 40565" width="44.481" height="1.397" transform="translate(129.498 155.437)" fill="#64e1f0"/>
      <rect id="Rectangle_40566" data-name="Rectangle 40566" width="44.481" height="1.397" transform="translate(129.498 165.291)" fill="#64e1f0"/>
      <rect id="Rectangle_40567" data-name="Rectangle 40567" width="44.481" height="1.397" transform="translate(129.498 174.93)" fill="#64e1f0"/>
      <rect id="Rectangle_40568" data-name="Rectangle 40568" width="26.507" height="1.397" transform="translate(129.329 182.635) rotate(-90)" fill="#64e1f0"/>
      <rect id="Rectangle_40569" data-name="Rectangle 40569" width="26.507" height="1.397" transform="translate(143.343 182.635) rotate(-90)" fill="#64e1f0"/>
      <rect id="Rectangle_40570" data-name="Rectangle 40570" width="26.507" height="1.397" transform="translate(156.589 182.635) rotate(-90)" fill="#64e1f0"/>
      <rect id="Rectangle_40571" data-name="Rectangle 40571" width="26.507" height="1.397" transform="translate(168.668 182.635) rotate(-90)" fill="#64e1f0"/>
      <path id="Path_197506" data-name="Path 197506" d="M103.352,111.292l-1.612-1.612,1.612-1.6-.414-.414-1.612,1.6-1.6-1.6-.43.414,1.612,1.6L99.3,111.292l.43.414,1.6-1.6,1.612,1.6Z" transform="translate(47.788 51.85)" fill="#f55d51"/>
      <rect id="Rectangle_40572" data-name="Rectangle 40572" width="15.057" height="29.669" transform="translate(176.143 152.429)" fill="#fff"/>
      <rect id="Rectangle_40573" data-name="Rectangle 40573" width="13.246" height="5.971" transform="translate(177.003 174.93)" fill="#fcf7ea"/>
      <rect id="Rectangle_40574" data-name="Rectangle 40574" width="0.783" height="5.08" transform="translate(177.724 175.375)" fill="#354546"/>
      <rect id="Rectangle_40575" data-name="Rectangle 40575" width="0.261" height="5.08" transform="translate(178.983 175.375)" fill="#354546"/>
      <rect id="Rectangle_40576" data-name="Rectangle 40576" width="0.261" height="5.08" transform="translate(187.578 175.375)" fill="#354546"/>
      <rect id="Rectangle_40577" data-name="Rectangle 40577" width="0.783" height="5.08" transform="translate(180.241 175.375)" fill="#354546"/>
      <rect id="Rectangle_40578" data-name="Rectangle 40578" width="0.399" height="5.08" transform="translate(181.515 175.375)" fill="#354546"/>
      <rect id="Rectangle_40579" data-name="Rectangle 40579" width="0.399" height="5.08" transform="translate(179.581 175.375)" fill="#354546"/>
      <rect id="Rectangle_40580" data-name="Rectangle 40580" width="1.305" height="5.08" transform="translate(182.237 175.375)" fill="#354546"/>
      <rect id="Rectangle_40581" data-name="Rectangle 40581" width="0.783" height="5.08" transform="translate(186.534 175.375)" fill="#354546"/>
      <rect id="Rectangle_40582" data-name="Rectangle 40582" width="0.783" height="5.08" transform="translate(184.738 175.375)" fill="#354546"/>
      <rect id="Rectangle_40583" data-name="Rectangle 40583" width="0.399" height="5.08" transform="translate(184.032 175.375)" fill="#354546"/>
      <rect id="Rectangle_40584" data-name="Rectangle 40584" width="0.384" height="5.08" transform="translate(185.782 175.375)" fill="#354546"/>
      <rect id="Rectangle_40585" data-name="Rectangle 40585" width="1.289" height="5.08" transform="translate(188.038 175.375)" fill="#354546"/>
      <rect id="Rectangle_40586" data-name="Rectangle 40586" width="13.246" height="0.982" transform="translate(177.003 160.548)" fill="#909090"/>
      <rect id="Rectangle_40587" data-name="Rectangle 40587" width="11.665" height="0.982" transform="translate(177.003 163.894)" fill="#909090"/>
      <rect id="Rectangle_40588" data-name="Rectangle 40588" width="13.246" height="0.982" transform="translate(177.003 165.552)" fill="#909090"/>
      <rect id="Rectangle_40589" data-name="Rectangle 40589" width="9.163" height="0.982" transform="translate(177.003 167.225)" fill="#909090"/>
      <rect id="Rectangle_40590" data-name="Rectangle 40590" width="13.246" height="0.982" transform="translate(177.003 170.556)" fill="#909090"/>
      <rect id="Rectangle_40591" data-name="Rectangle 40591" width="9.271" height="0.982" transform="translate(177.003 172.229)" fill="#909090"/>
      <path id="Path_197507" data-name="Path 197507" d="M119.575,108.01h-.645v-3.07H120.7v.537h-1.12v.783h1v.537h-1.044Z" transform="translate(58.287 50.39)" fill="#354546"/>
      <path id="Path_197508" data-name="Path 197508" d="M122.588,107.38h-.368v.629h-.645v-.629h-1.3v-.46l1.351-1.98h.6v1.934h.368Zm-1.013-.507v-1.2h0a1.442,1.442,0,0,1-.184.338l-.568.86Z" transform="translate(59.004 50.39)" fill="#354546"/>
      <path id="Path_197509" data-name="Path 197509" d="M123.034,106.013a1,1,0,0,1,.721.246.936.936,0,0,1,.261.691,1.013,1.013,0,0,1-.322.8,1.366,1.366,0,0,1-.906.276,1.842,1.842,0,0,1-.829-.169v-.568a2.224,2.224,0,0,0,.384.153h.414c.4,0,.6-.153.6-.476s-.2-.476-.614-.476h-.46l-.261.046.107-1.535H123.8v.553h-1.09v.6h0Z" transform="translate(59.908 50.422)" fill="#354546"/>
      <rect id="Rectangle_40592" data-name="Rectangle 40592" width="69.776" height="1.673" transform="translate(122.959 148.837)" fill="#707070"/>
      <path id="Path_197510" data-name="Path 197510" d="M85.949,87.179H84.89V80.84h5.664V81.9h-4.6Z" transform="translate(40.08 37.499)" fill="#e54d42"/>
      <path id="Path_197511" data-name="Path 197511" d="M91.106,99.64H84.89V93.47h1.059v5.111h5.157Z" transform="translate(40.08 44.254)" fill="#e54d42"/>
      <path id="Path_197512" data-name="Path 197512" d="M115.67,99.64H109.5V98.581h5.111V93.47h1.059Z" transform="translate(53.244 44.254)" fill="#e54d42"/>
      <path id="Path_197513" data-name="Path 197513" d="M115.585,86.166h-1.059V81.9H109.66V80.84h5.925Z" transform="translate(53.329 37.499)" fill="#e54d42"/>
      <path id="Path_197514" data-name="Path 197514" d="M65.485,41.252h-1.3V3.74h73.214V17.385h-1.3V5.045h-70.6Z" transform="translate(29.003 -3.74)" fill="#d5e5e6"/>
      <path id="Path_197515" data-name="Path 197515" d="M68.72,28.97a3.07,3.07,0,1,1-3.07-3.07A3.07,3.07,0,0,1,68.72,28.97Z" transform="translate(28.147 8.113)" fill="#d5e5e6"/>
      <path id="Path_197516" data-name="Path 197516" d="M15.69,107.51a3.07,3.07,0,1,1-3.07-3.07A3.07,3.07,0,0,1,15.69,107.51Z" transform="translate(-0.218 50.122)" fill="#d5e5e6"/>
    </g>
  </g>
</svg>
