<svg id="t3-ic4" xmlns="http://www.w3.org/2000/svg" width="215.16" height="179.182" viewBox="0 0 215.16 179.182">
  <g id="illustration" transform="translate(0 0)">
    <path id="Path_197376" data-name="Path 197376" d="M26.321,109.726a2.886,2.886,0,1,1-2.886-2.886,2.886,2.886,0,0,1,2.886,2.886Z" transform="translate(-8.67 38.344)" fill="#fff"/>
    <path id="Path_197377" data-name="Path 197377" d="M105.741,19.776a2.886,2.886,0,1,1-2.886-2.886,2.886,2.886,0,0,1,2.886,2.886Z" transform="translate(33.81 -9.768)" fill="#fff"/>
    <rect id="Rectangle_40274" data-name="Rectangle 40274" width="31.526" height="35.287" transform="translate(138.431 115.622)" fill="#d7ba76"/>
    <rect id="Rectangle_40275" data-name="Rectangle 40275" width="13.538" height="6.093" transform="translate(139.812 143.465)" fill="#fcf7ea"/>
    <rect id="Rectangle_40276" data-name="Rectangle 40276" width="0.798" height="5.188" transform="translate(140.549 143.925)" fill="#354546"/>
    <rect id="Rectangle_40277" data-name="Rectangle 40277" width="0.276" height="5.188" transform="translate(141.838 143.925)" fill="#354546"/>
    <rect id="Rectangle_40278" data-name="Rectangle 40278" width="0.276" height="5.188" transform="translate(150.603 143.925)" fill="#354546"/>
    <rect id="Rectangle_40279" data-name="Rectangle 40279" width="0.798" height="5.188" transform="translate(143.128 143.925)" fill="#354546"/>
    <rect id="Rectangle_40280" data-name="Rectangle 40280" width="0.399" height="5.188" transform="translate(144.417 143.925)" fill="#354546"/>
    <rect id="Rectangle_40281" data-name="Rectangle 40281" width="0.399" height="5.188" transform="translate(142.437 143.925)" fill="#354546"/>
    <rect id="Rectangle_40282" data-name="Rectangle 40282" width="1.335" height="5.188" transform="translate(145.154 143.925)" fill="#354546"/>
    <rect id="Rectangle_40283" data-name="Rectangle 40283" width="0.798" height="5.188" transform="translate(149.544 143.925)" fill="#354546"/>
    <rect id="Rectangle_40284" data-name="Rectangle 40284" width="0.798" height="5.188" transform="translate(147.717 143.925)" fill="#354546"/>
    <rect id="Rectangle_40285" data-name="Rectangle 40285" width="0.399" height="5.188" transform="translate(146.98 143.925)" fill="#354546"/>
    <rect id="Rectangle_40286" data-name="Rectangle 40286" width="0.399" height="5.188" transform="translate(148.776 143.925)" fill="#354546"/>
    <rect id="Rectangle_40287" data-name="Rectangle 40287" width="1.32" height="5.188" transform="translate(151.078 143.925)" fill="#354546"/>
    <rect id="Rectangle_40288" data-name="Rectangle 40288" width="0.982" height="35.287" transform="translate(154.179 115.622)" fill="#b59d63"/>
    <rect id="Rectangle_40289" data-name="Rectangle 40289" width="31.526" height="4.451" transform="translate(138.431 115.622)" fill="#b59d63"/>
    <rect id="Rectangle_40290" data-name="Rectangle 40290" width="0.844" height="3.361" transform="translate(158.599 144.846)" fill="#b59d63"/>
    <path id="Path_197378" data-name="Path 197378" d="M115.6,107.614l1.259-2.164,1.243,2.164Z" transform="translate(42.17 37.601)" fill="#b59d63"/>
    <rect id="Rectangle_40291" data-name="Rectangle 40291" width="0.844" height="3.361" transform="translate(161.377 144.846)" fill="#b59d63"/>
    <path id="Path_197379" data-name="Path 197379" d="M117.4,107.614l1.259-2.164,1.259,2.164Z" transform="translate(43.133 37.601)" fill="#b59d63"/>
    <rect id="Rectangle_40292" data-name="Rectangle 40292" width="5.28" height="0.522" transform="translate(157.77 148.576)" fill="#b59d63"/>
    <g id="Group_128970" data-name="Group 128970" transform="translate(143.527 115.622)">
      <rect id="Rectangle_40293" data-name="Rectangle 40293" width="3.469" height="8.549" fill="#b59d63"/>
    </g>
    <g id="Group_128971" data-name="Group 128971" transform="translate(160.733 115.622)">
      <rect id="Rectangle_40294" data-name="Rectangle 40294" width="3.469" height="8.549" fill="#b59d63"/>
    </g>
    <rect id="Rectangle_40295" data-name="Rectangle 40295" width="31.526" height="27.766" transform="translate(171.37 122.852)" fill="#d7ba76"/>
    <rect id="Rectangle_40296" data-name="Rectangle 40296" width="13.538" height="6.093" transform="translate(172.766 143.173)" fill="#fcf7ea"/>
    <rect id="Rectangle_40297" data-name="Rectangle 40297" width="0.798" height="5.188" transform="translate(173.488 143.634)" fill="#354546"/>
    <rect id="Rectangle_40298" data-name="Rectangle 40298" width="0.276" height="5.188" transform="translate(174.777 143.634)" fill="#354546"/>
    <rect id="Rectangle_40299" data-name="Rectangle 40299" width="0.276" height="5.188" transform="translate(183.557 143.634)" fill="#354546"/>
    <rect id="Rectangle_40300" data-name="Rectangle 40300" width="0.798" height="5.188" transform="translate(176.066 143.634)" fill="#354546"/>
    <rect id="Rectangle_40301" data-name="Rectangle 40301" width="0.399" height="5.188" transform="translate(177.356 143.634)" fill="#354546"/>
    <rect id="Rectangle_40302" data-name="Rectangle 40302" width="0.399" height="5.188" transform="translate(175.391 143.634)" fill="#354546"/>
    <rect id="Rectangle_40303" data-name="Rectangle 40303" width="1.335" height="5.188" transform="translate(178.108 143.634)" fill="#354546"/>
    <rect id="Rectangle_40304" data-name="Rectangle 40304" width="0.798" height="5.188" transform="translate(182.482 143.634)" fill="#354546"/>
    <rect id="Rectangle_40305" data-name="Rectangle 40305" width="0.798" height="5.188" transform="translate(180.656 143.634)" fill="#354546"/>
    <rect id="Rectangle_40306" data-name="Rectangle 40306" width="0.399" height="5.188" transform="translate(179.934 143.634)" fill="#354546"/>
    <rect id="Rectangle_40307" data-name="Rectangle 40307" width="0.399" height="5.188" transform="translate(181.715 143.634)" fill="#354546"/>
    <rect id="Rectangle_40308" data-name="Rectangle 40308" width="1.32" height="5.188" transform="translate(184.017 143.634)" fill="#354546"/>
    <rect id="Rectangle_40309" data-name="Rectangle 40309" width="0.982" height="27.766" transform="translate(187.133 122.852)" fill="#b59d63"/>
    <rect id="Rectangle_40310" data-name="Rectangle 40310" width="31.526" height="4.451" transform="translate(171.37 122.852)" fill="#b59d63"/>
    <rect id="Rectangle_40311" data-name="Rectangle 40311" width="0.844" height="3.361" transform="translate(191.553 144.555)" fill="#b59d63"/>
    <path id="Path_197380" data-name="Path 197380" d="M137.06,107.424l1.259-2.164,1.243,2.164Z" transform="translate(53.649 37.499)" fill="#b59d63"/>
    <rect id="Rectangle_40312" data-name="Rectangle 40312" width="0.844" height="3.361" transform="translate(194.316 144.555)" fill="#b59d63"/>
    <path id="Path_197381" data-name="Path 197381" d="M138.87,107.424l1.243-2.164,1.259,2.164Z" transform="translate(54.617 37.499)" fill="#b59d63"/>
    <rect id="Rectangle_40313" data-name="Rectangle 40313" width="5.28" height="0.522" transform="translate(190.709 148.284)" fill="#b59d63"/>
    <g id="Group_128972" data-name="Group 128972" transform="translate(176.465 122.852)">
      <rect id="Rectangle_40314" data-name="Rectangle 40314" width="3.469" height="8.549" transform="translate(0 0)" fill="#b59d63"/>
    </g>
    <g id="Group_128973" data-name="Group 128973" transform="translate(193.687 122.852)">
      <rect id="Rectangle_40315" data-name="Rectangle 40315" width="3.469" height="8.549" transform="translate(0 0)" fill="#b59d63"/>
    </g>
    <rect id="Rectangle_40316" data-name="Rectangle 40316" width="31.526" height="19.416" transform="translate(104.894 130.986)" fill="#d7ba76"/>
    <rect id="Rectangle_40317" data-name="Rectangle 40317" width="13.538" height="6.093" transform="translate(106.275 142.958)" fill="#fcf7ea"/>
    <rect id="Rectangle_40318" data-name="Rectangle 40318" width="0.798" height="5.188" transform="translate(107.012 143.419)" fill="#354546"/>
    <rect id="Rectangle_40319" data-name="Rectangle 40319" width="0.261" height="5.188" transform="translate(108.301 143.419)" fill="#354546"/>
    <rect id="Rectangle_40320" data-name="Rectangle 40320" width="0.276" height="5.188" transform="translate(117.065 143.419)" fill="#354546"/>
    <rect id="Rectangle_40321" data-name="Rectangle 40321" width="0.798" height="5.188" transform="translate(109.591 143.419)" fill="#354546"/>
    <rect id="Rectangle_40322" data-name="Rectangle 40322" width="0.399" height="5.188" transform="translate(110.88 143.419)" fill="#354546"/>
    <rect id="Rectangle_40323" data-name="Rectangle 40323" width="0.399" height="5.188" transform="translate(108.9 143.419)" fill="#354546"/>
    <rect id="Rectangle_40324" data-name="Rectangle 40324" width="1.335" height="5.188" transform="translate(111.617 143.419)" fill="#354546"/>
    <rect id="Rectangle_40325" data-name="Rectangle 40325" width="0.798" height="5.188" transform="translate(116.006 143.419)" fill="#354546"/>
    <rect id="Rectangle_40326" data-name="Rectangle 40326" width="0.798" height="5.188" transform="translate(114.18 143.419)" fill="#354546"/>
    <rect id="Rectangle_40327" data-name="Rectangle 40327" width="0.399" height="5.188" transform="translate(113.443 143.419)" fill="#354546"/>
    <rect id="Rectangle_40328" data-name="Rectangle 40328" width="0.399" height="5.188" transform="translate(115.239 143.419)" fill="#354546"/>
    <rect id="Rectangle_40329" data-name="Rectangle 40329" width="1.32" height="5.188" transform="translate(117.541 143.419)" fill="#354546"/>
    <rect id="Rectangle_40330" data-name="Rectangle 40330" width="0.982" height="19.416" transform="translate(120.642 130.986)" fill="#b59d63"/>
    <rect id="Rectangle_40331" data-name="Rectangle 40331" width="31.526" height="4.451" transform="translate(104.894 130.986)" fill="#b59d63"/>
    <rect id="Rectangle_40332" data-name="Rectangle 40332" width="0.844" height="3.361" transform="translate(125.062 144.34)" fill="#b59d63"/>
    <path id="Path_197382" data-name="Path 197382" d="M93.75,107.284l1.259-2.164,1.243,2.164Z" transform="translate(30.483 37.424)" fill="#b59d63"/>
    <rect id="Rectangle_40333" data-name="Rectangle 40333" width="0.844" height="3.361" transform="translate(127.84 144.34)" fill="#b59d63"/>
    <path id="Path_197383" data-name="Path 197383" d="M95.56,107.284,96.8,105.12l1.259,2.164Z" transform="translate(31.451 37.424)" fill="#b59d63"/>
    <rect id="Rectangle_40334" data-name="Rectangle 40334" width="5.28" height="0.522" transform="translate(124.233 148.07)" fill="#b59d63"/>
    <g id="Group_128974" data-name="Group 128974" transform="translate(109.99 130.986)">
      <rect id="Rectangle_40335" data-name="Rectangle 40335" width="3.469" height="8.549" transform="translate(0 0)" fill="#b59d63"/>
    </g>
    <g id="Group_128975" data-name="Group 128975" transform="translate(127.196 130.986)">
      <rect id="Rectangle_40336" data-name="Rectangle 40336" width="3.469" height="8.549" transform="translate(0 0)" fill="#b59d63"/>
    </g>
    <path id="Path_197384" data-name="Path 197384" d="M183.194,121.157H81.293a5.449,5.449,0,0,1-5.433-5.433h0a5.449,5.449,0,0,1,5.433-5.433h101.9a5.449,5.449,0,0,1,5.433,5.433h0A5.449,5.449,0,0,1,183.194,121.157Z" transform="translate(20.914 40.189)" fill="#354546"/>
    <path id="Path_197385" data-name="Path 197385" d="M181.387,116.816H80.56a2.226,2.226,0,0,1-2.21-2.21h0a2.226,2.226,0,0,1,2.21-2.226H181.387a2.21,2.21,0,0,1,2.21,2.226h0a2.21,2.21,0,0,1-2.21,2.21Z" transform="translate(22.246 41.307)" fill="#556566"/>
    <path id="Path_197386" data-name="Path 197386" d="M148.46,114.606a2.21,2.21,0,1,1-.642-1.573,2.21,2.21,0,0,1,.642,1.573Z" transform="translate(57.383 41.307)" fill="#95a5a6"/>
    <path id="Path_197387" data-name="Path 197387" d="M82.77,114.606a2.21,2.21,0,1,1-.642-1.573,2.21,2.21,0,0,1,.642,1.573Z" transform="translate(22.246 41.307)" fill="#95a5a6"/>
    <rect id="Rectangle_40337" data-name="Rectangle 40337" width="0.875" height="3.223" transform="translate(118.263 150.479)" fill="#263536"/>
    <rect id="Rectangle_40338" data-name="Rectangle 40338" width="0.875" height="3.223" transform="translate(105.017 150.479)" fill="#263536"/>
    <rect id="Rectangle_40339" data-name="Rectangle 40339" width="0.875" height="3.223" transform="translate(131.386 150.479)" fill="#263536"/>
    <rect id="Rectangle_40340" data-name="Rectangle 40340" width="0.875" height="3.223" transform="translate(144.494 150.479)" fill="#263536"/>
    <rect id="Rectangle_40341" data-name="Rectangle 40341" width="0.875" height="3.223" transform="translate(157.617 150.479)" fill="#263536"/>
    <rect id="Rectangle_40342" data-name="Rectangle 40342" width="0.875" height="3.223" transform="translate(170.74 150.479)" fill="#263536"/>
    <rect id="Rectangle_40343" data-name="Rectangle 40343" width="0.875" height="3.223" transform="translate(183.848 150.479)" fill="#263536"/>
    <rect id="Rectangle_40344" data-name="Rectangle 40344" width="0.875" height="3.223" transform="translate(196.971 150.479)" fill="#263536"/>
    <rect id="Rectangle_40345" data-name="Rectangle 40345" width="0.875" height="3.223" transform="translate(118.263 158.123)" fill="#263536"/>
    <rect id="Rectangle_40346" data-name="Rectangle 40346" width="0.875" height="3.223" transform="translate(105.017 158.123)" fill="#263536"/>
    <rect id="Rectangle_40347" data-name="Rectangle 40347" width="0.875" height="3.223" transform="translate(131.386 158.123)" fill="#263536"/>
    <rect id="Rectangle_40348" data-name="Rectangle 40348" width="0.875" height="3.223" transform="translate(144.494 158.123)" fill="#263536"/>
    <rect id="Rectangle_40349" data-name="Rectangle 40349" width="0.875" height="3.223" transform="translate(157.617 158.123)" fill="#263536"/>
    <rect id="Rectangle_40350" data-name="Rectangle 40350" width="0.875" height="3.223" transform="translate(170.74 158.123)" fill="#263536"/>
    <rect id="Rectangle_40351" data-name="Rectangle 40351" width="0.875" height="3.223" transform="translate(183.848 158.123)" fill="#263536"/>
    <rect id="Rectangle_40352" data-name="Rectangle 40352" width="0.875" height="3.223" transform="translate(196.971 158.123)" fill="#263536"/>
    <path id="Path_197388" data-name="Path 197388" d="M81.345,49.586l-13.983-3.07h-.169l-.906-.092a20.629,20.629,0,0,0-3.346,0,12.832,12.832,0,0,0-3.208.583C56.51,48.112,49.68,54.144,49.68,54.144L58.889,56.6l2.425-2.932c.184.614.507,1.074,1.044,1.136l18.02.752a2.793,2.793,0,0,0,3.193-2.318v-.445a2.794,2.794,0,0,0-2.226-3.208Z" transform="translate(6.911 5.992)" fill="#dead8e"/>
    <rect id="Rectangle_40353" data-name="Rectangle 40353" width="84.603" height="44.588" transform="translate(94.733 17.252)" fill="#d7ba76"/>
    <rect id="Rectangle_40354" data-name="Rectangle 40354" width="36.315" height="16.346" transform="translate(98.463 41.856)" fill="#fcf7ea"/>
    <rect id="Rectangle_40355" data-name="Rectangle 40355" width="2.149" height="13.921" transform="translate(100.427 43.069)" fill="#354546"/>
    <rect id="Rectangle_40356" data-name="Rectangle 40356" width="0.721" height="13.921" transform="translate(103.881 43.069)" fill="#354546"/>
    <rect id="Rectangle_40357" data-name="Rectangle 40357" width="0.721" height="13.921" transform="translate(127.426 43.069)" fill="#354546"/>
    <rect id="Rectangle_40358" data-name="Rectangle 40358" width="2.149" height="13.921" transform="translate(107.35 43.069)" fill="#354546"/>
    <rect id="Rectangle_40359" data-name="Rectangle 40359" width="1.074" height="13.921" transform="translate(110.803 43.069)" fill="#354546"/>
    <rect id="Rectangle_40360" data-name="Rectangle 40360" width="1.074" height="13.921" transform="translate(105.523 43.069)" fill="#354546"/>
    <rect id="Rectangle_40361" data-name="Rectangle 40361" width="3.592" height="13.921" transform="translate(112.814 43.069)" fill="#354546"/>
    <rect id="Rectangle_40362" data-name="Rectangle 40362" width="2.149" height="13.921" transform="translate(124.571 43.069)" fill="#354546"/>
    <rect id="Rectangle_40363" data-name="Rectangle 40363" width="2.149" height="13.921" transform="translate(119.659 43.069)" fill="#354546"/>
    <rect id="Rectangle_40364" data-name="Rectangle 40364" width="1.074" height="13.921" transform="translate(117.71 43.069)" fill="#354546"/>
    <rect id="Rectangle_40365" data-name="Rectangle 40365" width="1.074" height="13.921" transform="translate(122.499 43.069)" fill="#354546"/>
    <rect id="Rectangle_40366" data-name="Rectangle 40366" width="3.546" height="13.921" transform="translate(128.684 43.069)" fill="#354546"/>
    <rect id="Rectangle_40367" data-name="Rectangle 40367" width="2.64" height="44.588" transform="translate(137.034 17.252)" fill="#b59d63"/>
    <rect id="Rectangle_40368" data-name="Rectangle 40368" width="84.603" height="11.957" transform="translate(94.733 17.252)" fill="#b59d63"/>
    <rect id="Rectangle_40369" data-name="Rectangle 40369" width="2.241" height="9.025" transform="translate(148.884 45.555)" fill="#b59d63"/>
    <path id="Path_197389" data-name="Path 197389" d="M108.36,44.6l3.361-5.817,3.361,5.817Z" transform="translate(38.298 1.94)" fill="#b59d63"/>
    <rect id="Rectangle_40370" data-name="Rectangle 40370" width="2.241" height="9.025" transform="translate(156.328 45.555)" fill="#b59d63"/>
    <path id="Path_197390" data-name="Path 197390" d="M113.2,44.6l3.361-5.817,3.361,5.817Z" transform="translate(40.887 1.94)" fill="#b59d63"/>
    <rect id="Rectangle_40371" data-name="Rectangle 40371" width="14.167" height="1.412" transform="translate(146.658 55.578)" fill="#b59d63"/>
    <g id="Group_128976" data-name="Group 128976" transform="translate(108.424 17.252)">
      <rect id="Rectangle_40372" data-name="Rectangle 40372" width="9.301" height="22.946" fill="#b59d63"/>
    </g>
    <g id="Group_128977" data-name="Group 128977" transform="translate(154.609 17.252)">
      <rect id="Rectangle_40373" data-name="Rectangle 40373" width="9.301" height="22.946" fill="#b59d63"/>
    </g>
    <rect id="Rectangle_40374" data-name="Rectangle 40374" width="84.603" height="44.588" transform="translate(94.733 63.268)" fill="#d7ba76"/>
    <rect id="Rectangle_40375" data-name="Rectangle 40375" width="36.315" height="16.346" transform="translate(98.463 87.872)" fill="#fcf7ea"/>
    <rect id="Rectangle_40376" data-name="Rectangle 40376" width="2.149" height="13.921" transform="translate(100.427 89.084)" fill="#354546"/>
    <rect id="Rectangle_40377" data-name="Rectangle 40377" width="0.721" height="13.921" transform="translate(103.881 89.084)" fill="#354546"/>
    <rect id="Rectangle_40378" data-name="Rectangle 40378" width="0.721" height="13.921" transform="translate(127.426 89.084)" fill="#354546"/>
    <rect id="Rectangle_40379" data-name="Rectangle 40379" width="2.149" height="13.921" transform="translate(107.35 89.084)" fill="#354546"/>
    <rect id="Rectangle_40380" data-name="Rectangle 40380" width="1.074" height="13.921" transform="translate(110.803 89.084)" fill="#354546"/>
    <rect id="Rectangle_40381" data-name="Rectangle 40381" width="1.074" height="13.921" transform="translate(105.523 89.084)" fill="#354546"/>
    <rect id="Rectangle_40382" data-name="Rectangle 40382" width="3.592" height="13.921" transform="translate(112.814 89.084)" fill="#354546"/>
    <rect id="Rectangle_40383" data-name="Rectangle 40383" width="2.149" height="13.921" transform="translate(124.571 89.084)" fill="#354546"/>
    <rect id="Rectangle_40384" data-name="Rectangle 40384" width="2.149" height="13.921" transform="translate(119.659 89.084)" fill="#354546"/>
    <rect id="Rectangle_40385" data-name="Rectangle 40385" width="1.074" height="13.921" transform="translate(117.71 89.084)" fill="#354546"/>
    <rect id="Rectangle_40386" data-name="Rectangle 40386" width="1.074" height="13.921" transform="translate(122.499 89.084)" fill="#354546"/>
    <rect id="Rectangle_40387" data-name="Rectangle 40387" width="3.546" height="13.921" transform="translate(128.684 89.084)" fill="#354546"/>
    <rect id="Rectangle_40388" data-name="Rectangle 40388" width="2.64" height="44.588" transform="translate(137.034 63.268)" fill="#b59d63"/>
    <rect id="Rectangle_40389" data-name="Rectangle 40389" width="84.603" height="11.957" transform="translate(94.733 63.268)" fill="#b59d63"/>
    <rect id="Rectangle_40390" data-name="Rectangle 40390" width="2.241" height="9.025" transform="translate(148.884 91.586)" fill="#b59d63"/>
    <path id="Path_197391" data-name="Path 197391" d="M108.36,74.587l3.361-5.817,3.361,5.817Z" transform="translate(38.298 17.981)" fill="#b59d63"/>
    <rect id="Rectangle_40391" data-name="Rectangle 40391" width="2.241" height="9.025" transform="translate(156.328 91.586)" fill="#b59d63"/>
    <path id="Path_197392" data-name="Path 197392" d="M113.2,74.587l3.361-5.817,3.361,5.817Z" transform="translate(40.887 17.981)" fill="#b59d63"/>
    <rect id="Rectangle_40392" data-name="Rectangle 40392" width="14.167" height="1.412" transform="translate(146.658 101.593)" fill="#b59d63"/>
    <g id="Group_128978" data-name="Group 128978" transform="translate(108.424 63.268)">
      <rect id="Rectangle_40393" data-name="Rectangle 40393" width="9.301" height="22.946" fill="#b59d63"/>
    </g>
    <g id="Group_128979" data-name="Group 128979" transform="translate(154.609 63.268)">
      <rect id="Rectangle_40394" data-name="Rectangle 40394" width="9.301" height="22.946" fill="#b59d63"/>
    </g>
    <path id="Path_197393" data-name="Path 197393" d="M58.68,46.85v0Z" transform="translate(11.725 6.257)" fill="#354546"/>
    <path id="Path_197394" data-name="Path 197394" d="M99.073,49.733v.246a8.687,8.687,0,0,1-2.011,5.572,8.78,8.78,0,0,1-6.8,3.239H67.485A8.826,8.826,0,0,1,58.69,50.47a8.826,8.826,0,0,1,8.795-8.319L90.309,41a8.841,8.841,0,0,1,8.764,8.733Z" transform="translate(11.73 3.128)" fill="#354546"/>
    <rect id="Rectangle_40395" data-name="Rectangle 40395" width="22.547" height="9.639" rx="2.18" transform="translate(67.148 84.307) rotate(18.072)" fill="#354546"/>
    <path id="Path_197395" data-name="Path 197395" d="M39.9,64.127h4.144a4.436,4.436,0,0,0,3.07-1.259l9.639-9.424a8.825,8.825,0,0,1,2.64-1.75l6.14-2.671a6.324,6.324,0,0,1,3.945-.322l11.865,2.932a4.42,4.42,0,0,1,3.315,4.973L81.607,77.112a4.42,4.42,0,0,1-4.39,3.745H73.073a4.359,4.359,0,0,0-2.087.537l-11.88,6.37a4.405,4.405,0,0,1-3.07.43l-9.209-2.011a4.02,4.02,0,0,0-.952-.107h-6.14A4.436,4.436,0,0,1,35.3,81.64V68.547a4.42,4.42,0,0,1,4.6-4.42Z" transform="translate(-0.781 7.153)" fill="#f5c4a5"/>
    <path id="Path_197396" data-name="Path 197396" d="M75.58,66.1l-6.14-.783c-1.535-.092-14,.936-14.09,2.487v.445A3.515,3.515,0,0,0,58.19,71.8l17.129.43a2.855,2.855,0,0,0,3.07-2.686V69.1A2.87,2.87,0,0,0,75.58,66.1Z" transform="translate(9.943 16.134)" fill="#f5c4a5"/>
    <path id="Path_197397" data-name="Path 197397" d="M78.225,62.253,59.346,59.444c-1.7-.184-3.223,1.811-3.407,3.515v.491c-.184,1.7.675,4.5,2.379,4.7l19.217.8a3.07,3.07,0,0,0,3.438-2.763v-.491a3.07,3.07,0,0,0-2.747-3.438Z" transform="translate(10.246 12.987)" fill="#f5c4a5"/>
    <path id="Path_197398" data-name="Path 197398" d="M81.741,57.12,61.1,54.28a3.822,3.822,0,0,0-3.776,3.5V58.3c-.215,1.873-.46,5.065,1.412,5.28l22.24.875a3.438,3.438,0,0,0,3.776-3.07v-.537a3.423,3.423,0,0,0-3.008-3.73Z" transform="translate(10.92 10.231)" fill="#f5c4a5"/>
    <path id="Path_197399" data-name="Path 197399" d="M78.258,52.8l-17.053-3.53c-1.535-.246-2.7,1.719-2.932,3.239v.43c-.23,1.535-.414,4.835,1.105,5.08l18.035.752a2.809,2.809,0,0,0,3.193-2.333v-.43A2.824,2.824,0,0,0,78.258,52.8Z" transform="translate(11.425 7.538)" fill="#f5c4a5"/>
    <path id="Path_197400" data-name="Path 197400" d="M58.15,67.321c0,1.228.6,2.226,1.335,2.226s1.32-1,1.32-2.226-.583-2.241-1.32-2.241S58.15,66.093,58.15,67.321Z" transform="translate(11.442 16.008)" fill="#f4caaf"/>
    <ellipse id="Ellipse_5549" data-name="Ellipse 5549" cx="1.335" cy="2.226" rx="1.335" ry="2.226" transform="translate(66.706 73.336)" fill="#f4caaf"/>
    <path id="Path_197401" data-name="Path 197401" d="M55.8,56.916c0,1.228.6,2.226,1.32,2.226s1.335-1,1.335-2.226-.6-2.226-1.335-2.226S55.8,55.688,55.8,56.916Z" transform="translate(10.185 10.45)" fill="#f4caaf"/>
    <path id="Path_197402" data-name="Path 197402" d="M55.8,51.921c0,1.228.6,2.226,1.32,2.226s1.335-1,1.335-2.226-.6-2.241-1.335-2.241S55.8,50.678,55.8,51.921Z" transform="translate(10.185 7.77)" fill="#f4caaf"/>
    <path id="Path_197403" data-name="Path 197403" d="M3.807,0h6.14a3.807,3.807,0,0,1,3.807,3.807v22.5A3.791,3.791,0,0,1,9.961,30.1H3.822A3.791,3.791,0,0,1,0,26.308V3.791A3.791,3.791,0,0,1,3.807,0Z" transform="translate(40.352 96.958) rotate(180)" fill="#707070"/>
    <path id="Path_197404" data-name="Path 197404" d="M92.4,50.761H62.49c-1.719,0-3.07-.184-3.07-1.9h0a3.07,3.07,0,0,1,3.07-3.07L92.4,44.56a3.07,3.07,0,0,1,3.07,3.07h0a3.07,3.07,0,0,1-3.07,3.131Z" transform="translate(12.121 5.032)" fill="#455556"/>
    <path id="Path_197405" data-name="Path 197405" d="M85.7,48.637v.246a8.688,8.688,0,0,1-2.011,5.572V43.05A8.764,8.764,0,0,1,85.7,48.637Z" transform="translate(25.102 4.224)" fill="#e54d42"/>
    <rect id="Rectangle_40396" data-name="Rectangle 40396" width="3.131" height="47.811" rx="0.81" transform="translate(20.721 117.894)" fill="#a0a0a0"/>
    <rect id="Rectangle_40397" data-name="Rectangle 40397" width="29.884" height="17.943" rx="0.81" transform="translate(7.245 104.28)" fill="#2c545e"/>
    <rect id="Rectangle_40398" data-name="Rectangle 40398" width="24.865" height="17.943" transform="translate(9.424 104.28)" fill="#707070"/>
    <path id="Path_197406" data-name="Path 197406" d="M33.665,127.942a3.407,3.407,0,1,1-3.392-3.392A3.407,3.407,0,0,1,33.665,127.942Z" transform="translate(-5.3 47.817)" fill="#303030"/>
    <path id="Path_197407" data-name="Path 197407" d="M80.245,127.942a3.407,3.407,0,1,1-3.407-3.392,3.407,3.407,0,0,1,3.407,3.392Z" transform="translate(19.615 47.817)" fill="#303030"/>
    <rect id="Rectangle_40399" data-name="Rectangle 40399" width="33.092" height="54.58" transform="translate(45.617 107.994)" fill="#d7ba76"/>
    <rect id="Rectangle_40400" data-name="Rectangle 40400" width="14.198" height="6.385" transform="translate(47.09 154.777)" fill="#fcf7ea"/>
    <rect id="Rectangle_40401" data-name="Rectangle 40401" width="0.844" height="5.449" transform="translate(47.858 155.237)" fill="#354546"/>
    <rect id="Rectangle_40402" data-name="Rectangle 40402" width="0.276" height="5.449" transform="translate(49.208 155.237)" fill="#354546"/>
    <rect id="Rectangle_40403" data-name="Rectangle 40403" width="0.276" height="5.449" transform="translate(58.418 155.237)" fill="#354546"/>
    <rect id="Rectangle_40404" data-name="Rectangle 40404" width="0.844" height="5.449" transform="translate(50.559 155.237)" fill="#354546"/>
    <rect id="Rectangle_40405" data-name="Rectangle 40405" width="0.414" height="5.449" transform="translate(51.91 155.237)" fill="#354546"/>
    <rect id="Rectangle_40406" data-name="Rectangle 40406" width="0.414" height="5.449" transform="translate(49.838 155.237)" fill="#354546"/>
    <rect id="Rectangle_40407" data-name="Rectangle 40407" width="1.412" height="5.449" transform="translate(52.692 155.237)" fill="#354546"/>
    <rect id="Rectangle_40408" data-name="Rectangle 40408" width="0.844" height="5.449" transform="translate(57.297 155.237)" fill="#354546"/>
    <rect id="Rectangle_40409" data-name="Rectangle 40409" width="0.844" height="5.449" transform="translate(55.379 155.237)" fill="#354546"/>
    <rect id="Rectangle_40410" data-name="Rectangle 40410" width="0.414" height="5.449" transform="translate(54.611 155.237)" fill="#354546"/>
    <rect id="Rectangle_40411" data-name="Rectangle 40411" width="0.414" height="5.449" transform="translate(56.484 155.237)" fill="#354546"/>
    <rect id="Rectangle_40412" data-name="Rectangle 40412" width="1.381" height="5.449" transform="translate(58.893 155.237)" fill="#354546"/>
    <rect id="Rectangle_40413" data-name="Rectangle 40413" width="1.028" height="54.58" transform="translate(62.163 107.994)" fill="#b59d63"/>
    <rect id="Rectangle_40414" data-name="Rectangle 40414" width="33.092" height="4.681" transform="translate(45.617 107.994)" fill="#b59d63"/>
    <rect id="Rectangle_40415" data-name="Rectangle 40415" width="0.875" height="3.53" transform="translate(66.798 156.22)" fill="#b59d63"/>
    <path id="Path_197408" data-name="Path 197408" d="M55.76,115.072l1.32-2.272,1.32,2.272Z" transform="translate(10.163 41.532)" fill="#b59d63"/>
    <rect id="Rectangle_40416" data-name="Rectangle 40416" width="0.875" height="3.53" transform="translate(69.714 156.22)" fill="#b59d63"/>
    <path id="Path_197409" data-name="Path 197409" d="M57.66,115.072l1.32-2.272,1.3,2.272Z" transform="translate(11.179 41.532)" fill="#b59d63"/>
    <rect id="Rectangle_40417" data-name="Rectangle 40417" width="5.541" height="0.553" transform="translate(65.923 160.134)" fill="#b59d63"/>
    <g id="Group_128980" data-name="Group 128980" transform="translate(50.973 107.994)">
      <rect id="Rectangle_40418" data-name="Rectangle 40418" width="3.638" height="8.979" fill="#b59d63"/>
    </g>
    <g id="Group_128981" data-name="Group 128981" transform="translate(69.039 107.994)">
      <rect id="Rectangle_40419" data-name="Rectangle 40419" width="3.638" height="8.979" fill="#b59d63"/>
    </g>
    <rect id="Rectangle_40420" data-name="Rectangle 40420" width="86.951" height="4.958" rx="0.81" transform="translate(17.682 168.652)" fill="#404040"/>
    <rect id="Rectangle_40421" data-name="Rectangle 40421" width="96.544" height="5.879" rx="0.81" transform="translate(13.952 162.774)" fill="silver"/>
    <rect id="Rectangle_40422" data-name="Rectangle 40422" width="22.824" height="11.143" transform="translate(10.529 107.994)" fill="#469da7"/>
    <path id="Path_197410" data-name="Path 197410" d="M42.908,94.167H19.47V82.41H42.908ZM20.1,93.553H42.294V83.024H20.1Z" transform="translate(-9.248 25.277)" fill="#213f47"/>
    <path id="Path_197411" data-name="Path 197411" d="M23.721,89.253h-2.9v-.43l1.151-1.167a7.553,7.553,0,0,0,.706-.767,1.857,1.857,0,0,0,.246-.445,1.243,1.243,0,0,0,.092-.476.752.752,0,0,0-.215-.553.814.814,0,0,0-.6-.215,1.535,1.535,0,0,0-.522.092,2.011,2.011,0,0,0-.537.338l-.276-.353a2.164,2.164,0,0,1,1.335-.507,1.428,1.428,0,0,1,.982.322,1.136,1.136,0,0,1,.353.86,1.719,1.719,0,0,1-.246.829,4.927,4.927,0,0,1-.875,1.044l-.967.936h2.272Z" transform="translate(-8.526 26.539)" fill="#213f47"/>
    <path id="Path_197412" data-name="Path 197412" d="M24.444,86.55a1.673,1.673,0,0,1,1.105.353,1.213,1.213,0,0,1,.4.952A1.366,1.366,0,0,1,25.5,88.93a1.734,1.734,0,0,1-1.2.384,2.241,2.241,0,0,1-1.136-.23v-.491a1.535,1.535,0,0,0,.522.215,2.808,2.808,0,0,0,.614,0,1.243,1.243,0,0,0,.829-.246.89.89,0,0,0,.292-.721c0-.629-.368-.936-1.136-.936a4.389,4.389,0,0,0-.767.092l-.261-.169.169-2.057h2.195v.46H23.891l-.107,1.32a3.529,3.529,0,0,1,.66,0Z" transform="translate(-7.269 26.539)" fill="#213f47"/>
    <path id="Path_197413" data-name="Path 197413" d="M26.241,87.247h0a2.334,2.334,0,0,1-.23.706c-.107.276-.2.507-.307.737H25.32a5.926,5.926,0,0,1,.184-.767c.061-.307.107-.553.138-.752Z" transform="translate(-6.119 27.823)" fill="#213f47"/>
    <path id="Path_197414" data-name="Path 197414" d="M27.754,86.55a1.612,1.612,0,0,1,1.105.353,1.213,1.213,0,0,1,.4.952,1.351,1.351,0,0,1-.43,1.074,1.75,1.75,0,0,1-1.213.384,2.287,2.287,0,0,1-1.136-.23v-.491a1.612,1.612,0,0,0,.522.215,2.946,2.946,0,0,0,.629,0,1.243,1.243,0,0,0,.829-.246.952.952,0,0,0,.292-.721c0-.629-.384-.936-1.136-.936a4.236,4.236,0,0,0-.767.092l-.261-.169.169-2.057h2.195v.46H27.186l-.123,1.32a3.654,3.654,0,0,1,.691,0Z" transform="translate(-5.498 26.539)" fill="#213f47"/>
    <path id="Path_197415" data-name="Path 197415" d="M28.753,87.369a3.07,3.07,0,0,1,.507-1.949,1.8,1.8,0,0,1,1.535-.645,2.348,2.348,0,0,1,.537,0v.43a1.888,1.888,0,0,0-.537,0,1.32,1.32,0,0,0-1.074.445,2.164,2.164,0,0,0-.414,1.4h0a1.151,1.151,0,0,1,1.059-.522,1.259,1.259,0,0,1,.936.353,1.366,1.366,0,0,1,.338.982,1.535,1.535,0,0,1-.368,1.09,1.381,1.381,0,0,1-1.028.384,1.289,1.289,0,0,1-1.074-.507,2.272,2.272,0,0,1-.414-1.458ZM30.288,88.9a.8.8,0,0,0,.66-.276,1.12,1.12,0,0,0,.246-.783,1.059,1.059,0,0,0-.215-.691.829.829,0,0,0-.66-.246,1.105,1.105,0,0,0-.507.107.875.875,0,0,0-.353.307.737.737,0,0,0-.138.414,1.289,1.289,0,0,0,.123.583.906.906,0,0,0,.338.414.875.875,0,0,0,.46.169Z" transform="translate(-4.287 26.534)" fill="#213f47"/>
    <path id="Path_197416" data-name="Path 197416" d="M32.535,84.77a1.535,1.535,0,0,1,.952.292.906.906,0,0,1,.353.767.967.967,0,0,1-.2.6,1.873,1.873,0,0,1-.645.491,2.287,2.287,0,0,1,.767.537,1.013,1.013,0,0,1,.23.66,1.12,1.12,0,0,1-.384.875,1.612,1.612,0,0,1-1.059.322,1.642,1.642,0,0,1-1.09-.307,1.074,1.074,0,0,1-.46-.813,1.3,1.3,0,0,1,.936-1.182,1.689,1.689,0,0,1-.6-.507,1.074,1.074,0,0,1-.184-.614.936.936,0,0,1,.353-.767,1.535,1.535,0,0,1,1.028-.353Zm-.982,3.423a.706.706,0,0,0,.246.568,1.166,1.166,0,0,0,.706.2,1.074,1.074,0,0,0,.706-.215.767.767,0,0,0,0-1.105,2.487,2.487,0,0,0-.829-.445,2.042,2.042,0,0,0-.645.43A.829.829,0,0,0,31.553,88.193Zm.982-3.07a.875.875,0,0,0-.6.184.614.614,0,0,0-.215.476.66.66,0,0,0,.184.476,1.535,1.535,0,0,0,.629.4,1.412,1.412,0,0,0,.614-.384.721.721,0,0,0,.184-.491.583.583,0,0,0-.215-.476A.936.936,0,0,0,32.535,85.123Z" transform="translate(-3.08 26.539)" fill="#213f47"/>
    <path id="Path_197417" data-name="Path 197417" d="M180.558,155.623H171v-1.228h8.319V13.478H102.678v8.779H101.45V12.25h79.108Z" transform="translate(34.602 -12.25)" fill="#fff"/>
    <path id="Path_197418" data-name="Path 197418" d="M26.547,152.873H12.81V26.66H27.054v1.228h-13V151.63H26.547Z" transform="translate(-12.81 -4.542)" fill="#fff"/>
  </g>
</svg>
