<svg xmlns="http://www.w3.org/2000/svg" width="161" height="161" viewBox="0 0 161 161">
  <g id="t7-ic2" transform="translate(-720 -1529)">
    <circle id="Ellipse_5490" data-name="Ellipse 5490" cx="80.5" cy="80.5" r="80.5" transform="translate(720 1529)" fill="#fff"/>
    <g id="noun_RFID_chip_4339842" data-name="noun_RFID chip_4339842" transform="translate(758.673 1557)">
      <path id="Path_197829" data-name="Path 197829" d="M9,42.8V76.5a6.158,6.158,0,0,0,6.158,6.158H67.5A6.158,6.158,0,0,0,73.654,76.5V24.158A6.158,6.158,0,0,0,67.5,18H31.136a6.158,6.158,0,0,0-4.675,2.155L10.484,38.791A6.158,6.158,0,0,0,9,42.8Zm3.079,0a3.079,3.079,0,0,1,.74-2L28.8,22.156a3.079,3.079,0,0,1,2.34-1.078H67.5a3.079,3.079,0,0,1,3.079,3.079V76.5A3.079,3.079,0,0,1,67.5,79.575H15.158A3.079,3.079,0,0,1,12.079,76.5Z" transform="translate(0 9.709)"/>
      <path id="Path_197830" data-name="Path 197830" d="M17.618,74.339H63.8a1.539,1.539,0,0,0,0-3.079H17.618a1.539,1.539,0,0,1-1.539-1.539V42.352a1.549,1.549,0,0,1,.371-1L29.933,25.616a1.539,1.539,0,0,1,1.17-.537H60.721a1.539,1.539,0,0,1,1.539,1.539V63.563A1.539,1.539,0,0,1,60.721,65.1H23.776a1.539,1.539,0,0,1-1.539-1.539V44.629a1.539,1.539,0,0,1,.371-1l10.16-11.853a1.539,1.539,0,0,1,1.168-.537H54.563A1.539,1.539,0,0,1,56.1,32.776v24.63a1.539,1.539,0,0,1-1.539,1.539H28.394V46.336l7.665-8.942H49.945V48.17H45.327a4.618,4.618,0,0,0-4.618-4.618H37.63a4.618,4.618,0,0,0-4.618,4.618v3.079a4.618,4.618,0,0,0,4.618,4.618h3.079a4.618,4.618,0,0,0,4.618-4.618h4.618a3.079,3.079,0,0,0,3.079-3.079V37.394a3.079,3.079,0,0,0-3.079-3.079H36.058a3.079,3.079,0,0,0-2.337,1.078l-7.663,8.939a3.079,3.079,0,0,0-.744,2.006V58.945a3.079,3.079,0,0,0,3.079,3.079h26.17a4.618,4.618,0,0,0,4.618-4.618V32.776a4.618,4.618,0,0,0-4.618-4.618H33.936a4.618,4.618,0,0,0-3.508,1.613L20.267,41.624a4.618,4.618,0,0,0-1.11,3V63.563a4.618,4.618,0,0,0,4.618,4.618H60.721a4.618,4.618,0,0,0,4.618-4.618V26.618A4.618,4.618,0,0,0,60.721,22H31.1a4.618,4.618,0,0,0-3.508,1.613L14.113,39.347a4.618,4.618,0,0,0-1.113,3V69.721a4.618,4.618,0,0,0,4.618,4.618Zm24.63-23.091a1.539,1.539,0,0,1-1.539,1.539H37.63a1.539,1.539,0,0,1-1.539-1.539V48.17A1.539,1.539,0,0,1,37.63,46.63h3.079a1.539,1.539,0,0,1,1.539,1.539Z" transform="translate(2.158 11.867)"/>
      <path id="Path_197831" data-name="Path 197831" d="M33.774,10a13.891,13.891,0,0,0-10.423,4.726,1.539,1.539,0,0,0,2.309,2.034,10.776,10.776,0,0,1,16.222,0,1.539,1.539,0,0,0,2.309-2.034A13.891,13.891,0,0,0,33.774,10Z" transform="translate(7.553 5.394)"/>
      <path id="Path_197832" data-name="Path 197832" d="M49.711,14.39a1.54,1.54,0,1,0,2.318-2.027,21.538,21.538,0,0,0-32.429,0,1.54,1.54,0,0,0,2.318,2.027,18.456,18.456,0,0,1,27.792,0Z" transform="translate(5.512 2.697)"/>
      <path id="Path_197833" data-name="Path 197833" d="M57.526,12.02A1.54,1.54,0,0,0,59.847,10a29.218,29.218,0,0,0-44.008,0A1.54,1.54,0,1,0,18.16,12.02a26.136,26.136,0,0,1,39.365,0Z" transform="translate(3.484)"/>
    </g>
  </g>
</svg>
