<svg xmlns="http://www.w3.org/2000/svg" width="161" height="161" viewBox="0 0 161 161">
  <g id="t7-ic3" transform="translate(-1140 -1529)">
    <circle id="Ellipse_5491" data-name="Ellipse 5491" cx="80.5" cy="80.5" r="80.5" transform="translate(1140 1529)" fill="#fff"/>
    <g id="noun_voice_message_4116502" data-name="noun_voice message_4116502" transform="translate(1162.15 1539.845)">
      <path id="Path_197834" data-name="Path 197834" d="M106.3,61.935a22.944,22.944,0,0,0-5.187.6V26.4a9.261,9.261,0,0,0-9.25-9.25H14.25A9.261,9.261,0,0,0,5,26.4V98.342L16.865,86.083H83.374A22.954,22.954,0,1,0,106.3,61.935ZM15.629,83.17,7.912,91.144V26.4a6.344,6.344,0,0,1,6.337-6.337h77.61A6.344,6.344,0,0,1,98.2,26.4v37.01A23,23,0,0,0,83.411,83.17ZM106.3,104.932A20.042,20.042,0,1,1,126.338,84.89,20.064,20.064,0,0,1,106.3,104.932Zm7.248-29.4,2.489,1.513L105.2,94.863,96.366,84.32,98.6,82.451l6.221,7.427ZM21.335,39.669h2.913V66.428H21.335ZM31.517,30.6H34.43V75.5H31.517ZM41.7,42.164h2.913v21.77H41.7ZM51.88,46.926h2.913V59.171H51.88Zm10.182-2.268h2.913V61.438H62.062Zm10.182-7.483h2.913V68.922H72.243ZM85.338,61.44H82.425V44.657h2.913Z"/>
    </g>
  </g>
</svg>
